<?xml version="1.0" standalone="no"?>
<!DOCTYPE svg PUBLIC "-//W3C//DTD SVG 1.1//EN" "http://www.w3.org/Graphics/SVG/1.1/DTD/svg11.dtd" >
<svg xmlns="http://www.w3.org/2000/svg" xmlns:xlink="http://www.w3.org/1999/xlink" version="1.1">
<metadata>
Created by FontForge 20170731 at Tue May  2 20:54:33 2017
 By Aleksey,,,
(c)2008-09 Paul Barnes and Christian Schwartz, under exclusive license to Schwartzco Inc./Commercial Type. All rights reserved.
</metadata>
<defs>
<font id="GuardianEgyp-Medium" horiz-adv-x="492" >
  <font-face 
    font-family="Guardian Egyp Medium"
    font-weight="500"
    font-stretch="normal"
    units-per-em="1000"
    panose-1="2 6 6 3 5 5 3 6 8 3"
    ascent="790"
    descent="-210"
    x-height="521"
    cap-height="693"
    bbox="-174 -216 1233 1064"
    underline-thickness="50"
    underline-position="-200"
    unicode-range="U+0020-FB04"
  />
<missing-glyph horiz-adv-x="496" 
 />
    <glyph glyph-name="f_f" unicode="ff" horiz-adv-x="635" 
d="M18 0v55l68 16v372h-67v53l67 24v54q0 84 47 124t118 40q52 0 95 -19v-69q-22 5 -52 5q-40 0 -61 -21.5t-21 -74.5v-38h178v53q0 91 50 132.5t129 41.5q66 0 106 -21v-69q-31 7 -67 7q-47 0 -69.5 -22t-22.5 -79v-43h115v-78h-115v-372l81 -16v-55h-267v55l60 15v373
h-178v-373l59 -15v-55h-253z" />
    <glyph glyph-name="f_i" unicode="fi" horiz-adv-x="596" 
d="M18 0v55l68 16v372h-67v53l67 24v69q0 80 46 119.5t117 39.5q51 0 85 -18v-69q-22 4 -44 4q-39 0 -58.5 -20.5t-19.5 -68.5v-55h291l13 -7v-443l67 -16v-55h-253v55l60 15v373h-178v-373l59 -15v-55h-253zM451 595q-30 0 -51 19.5t-21 48.5q0 30 21 49.5t51 19.5
t50.5 -19.5t20.5 -49.5q0 -29 -20.5 -48.5t-50.5 -19.5z" />
    <glyph glyph-name="f_l" unicode="fl" horiz-adv-x="597" 
d="M330 0v55l60 15v581q-49 14 -83 14q-50 0 -72.5 -21t-22.5 -77v-46h109v-78h-109v-373l59 -15v-55h-253v55l68 16v372h-67v53l67 24v62q0 86 54.5 126t137.5 40q64 0 142 -29l83 29l13 -7v-671l68 -15v-55h-254z" />
    <glyph glyph-name="f_f_i" unicode="ffi" horiz-adv-x="900" 
d="M18 0v55l68 16v372h-67v53l67 24v54q0 84 47 124t118 40q52 0 95 -19v-69q-22 5 -52 5q-40 0 -61 -21.5t-21 -74.5v-38h178v68q0 80 46 119.5t117 39.5q51 0 85 -18v-69q-22 4 -44 4q-39 0 -58.5 -20.5t-19.5 -68.5v-55h291l13 -7v-443l67 -16v-55h-253v55l60 15v373
h-178v-373l59 -15v-55h-245v55l60 15v373h-178v-373l59 -15v-55h-253zM755 595q-30 0 -51 19.5t-21 48.5q0 30 21 49.5t51 19.5t50.5 -19.5t20.5 -49.5q0 -29 -20.5 -48.5t-50.5 -19.5z" />
    <glyph glyph-name="f_f_l" unicode="ffl" horiz-adv-x="901" 
d="M18 0v55l68 16v372h-67v53l67 24v54q0 84 47 124t118 40q52 0 95 -19v-69q-22 5 -52 5q-40 0 -61 -21.5t-21 -74.5v-38h178v61q0 86 54.5 126t137.5 40q64 0 142 -29l83 29l13 -7v-671l68 -15v-55h-254v55l60 15v581q-49 14 -83 14q-50 0 -72.5 -21t-22.5 -77v-46h109
v-78h-109v-373l59 -15v-55h-245v55l60 15v373h-178v-373l59 -15v-55h-253z" />
    <glyph glyph-name="f_b" unicode="fb" horiz-adv-x="895" 
d="M515 741v-263h6q71 54 152 54q84 0 140.5 -57.5t56.5 -193.5q0 -146 -73.5 -219.5t-201.5 -73.5q-117 0 -205 41v622q-49 14 -83 14q-50 0 -72.5 -21t-22.5 -77v-46h109v-78h-109v-373l78 -15v-55h-272v55l68 16v372h-67v53l67 24v62q0 86 54.5 126t137.5 40
q64 0 142 -29l82 29zM604 62q65 0 99.5 45t34.5 154q0 95 -31.5 136t-94.5 41q-48 0 -97 -21v-329q41 -26 89 -26z" />
    <glyph glyph-name="f_f_b" unicode="ffb" horiz-adv-x="1199" 
d="M18 0v55l68 16v372h-67v53l67 24v54q0 84 47 124t118 40q52 0 95 -19v-69q-22 5 -52 5q-40 0 -61 -21.5t-21 -74.5v-38h178v61q0 86 54.5 126t137.5 40q64 0 142 -29l82 29l13 -7v-263h6q71 54 152 54q84 0 140.5 -57.5t56.5 -193.5q0 -146 -73.5 -219.5t-201.5 -73.5
q-117 0 -205 41v622q-49 14 -83 14q-50 0 -72.5 -21t-22.5 -77v-46h109v-78h-109v-373l78 -15v-55h-264v55l60 15v373h-178v-373l59 -15v-55h-253zM908 62q65 0 99.5 45t34.5 154q0 95 -31.5 136t-94.5 41q-48 0 -97 -21v-329q41 -26 89 -26z" />
    <glyph glyph-name="f_f_h" unicode="ffh" horiz-adv-x="1212" 
d="M18 0v55l68 16v372h-67v53l67 24v54q0 84 47 124t118 40q52 0 95 -19v-69q-22 5 -52 5q-40 0 -61 -21.5t-21 -74.5v-38h178v61q0 86 54.5 126t137.5 40q64 0 142 -29l83 29l13 -7v-265h6q84 55 168 55q70 0 106 -31.5t36 -103.5v-325l67 -16v-55h-255v55l61 15v287
q0 44 -21.5 61.5t-68.5 17.5q-35 0 -99 -20v-346l62 -15v-55h-248v55l60 15v581q-49 14 -83 14q-50 0 -72.5 -21t-22.5 -77v-46h109v-78h-109v-373l59 -15v-55h-245v55l60 15v373h-178v-373l59 -15v-55h-253z" />
    <glyph glyph-name="f_f_j" unicode="ffj" horiz-adv-x="885" 
d="M18 0v55l68 16v372h-67v53l67 24v54q0 84 47 124t118 40q52 0 95 -19v-69q-22 5 -52 5q-40 0 -61 -21.5t-21 -74.5v-38h178v68q0 80 46 119.5t117 39.5q51 0 85 -18v-69q-22 4 -44 4q-39 0 -58.5 -20.5t-19.5 -68.5v-55h291l13 -7v-551q0 -160 -172 -160q-42 0 -82 15v66
q21 -3 45 -3q40 0 61.5 19.5t21.5 67.5v475h-178v-372l81 -16v-55h-267v55l60 15v373h-178v-373l59 -15v-55h-253zM755 595q-30 0 -51 19.5t-21 48.5q0 30 21 49.5t51 19.5t50.5 -19.5t20.5 -49.5q0 -29 -20.5 -48.5t-50.5 -19.5z" />
    <glyph glyph-name="f_f_k" unicode="ffk" horiz-adv-x="1169" 
d="M18 0v55l68 16v372h-67v53l67 24v54q0 84 47 124t118 40q52 0 95 -19v-69q-22 5 -52 5q-40 0 -61 -21.5t-21 -74.5v-38h178v61q0 86 54.5 126t137.5 40q64 0 142 -29l83 29l13 -7v-672l66 -14v-55h-252v55l60 15v581q-49 14 -83 14q-50 0 -72.5 -21t-22.5 -77v-46h109
v-78h-109v-373l59 -15v-55h-245v55l60 15v373h-178v-373l59 -15v-55h-253zM1016 0l-167 240v34l138 176l-59 14v57h221v-57l-68 -15l-128 -153l157 -225l56 -16v-55h-150z" />
    <glyph glyph-name="f_h" unicode="fh" horiz-adv-x="908" 
d="M18 0v55l68 16v372h-67v53l67 24v62q0 86 54.5 126t137.5 40q64 0 142 -29l83 29l13 -7v-265h6q84 55 168 55q70 0 106 -31.5t36 -103.5v-325l67 -16v-55h-255v55l61 15v287q0 44 -21.5 61.5t-68.5 17.5q-35 0 -99 -20v-346l62 -15v-55h-248v55l60 15v581q-49 14 -83 14
q-50 0 -72.5 -21t-22.5 -77v-46h109v-78h-109v-373l59 -15v-55h-253z" />
    <glyph glyph-name="f_j" unicode="fj" horiz-adv-x="581" 
d="M344 -197q-42 0 -82 15v66q21 -3 45 -3q40 0 61.5 19.5t21.5 67.5v475h-178v-372l81 -16v-55h-275v55l68 16v372h-67v53l67 24v69q0 80 46 119.5t117 39.5q51 0 85 -18v-69q-22 4 -44 4q-39 0 -58.5 -20.5t-19.5 -68.5v-55h291l13 -7v-551q0 -160 -172 -160zM451 595
q-30 0 -51 19.5t-21 48.5q0 30 21 49.5t51 19.5t50.5 -19.5t20.5 -49.5q0 -29 -20.5 -48.5t-50.5 -19.5z" />
    <glyph glyph-name="f_k" unicode="fk" horiz-adv-x="865" 
d="M18 0v55l68 16v372h-67v53l67 24v62q0 86 54.5 126t137.5 40q64 0 142 -29l83 29l13 -7v-672l66 -14v-55h-252v55l60 15v581q-49 14 -83 14q-50 0 -72.5 -21t-22.5 -77v-46h109v-78h-109v-373l59 -15v-55h-253zM712 0l-167 240v34l138 176l-59 14v57h221v-57l-68 -15
l-128 -153l157 -225l56 -16v-55h-150z" />
    <glyph glyph-name=".notdef" horiz-adv-x="496" 
 />
    <glyph glyph-name=".null" horiz-adv-x="0" 
 />
    <glyph glyph-name="nonmarkingreturn" horiz-adv-x="333" 
 />
    <glyph glyph-name="space" unicode=" " horiz-adv-x="184" 
 />
    <glyph glyph-name="exclam" unicode="!" horiz-adv-x="259" 
d="M129 -13q-30 0 -50.5 20.5t-20.5 49.5q0 28 20.5 48.5t50.5 20.5t50.5 -20.5t20.5 -48.5q0 -29 -20.5 -49.5t-50.5 -20.5zM87 200l-28 493h139l-30 -493h-81z" />
    <glyph glyph-name="quotedbl" unicode="&#x22;" horiz-adv-x="404" 
d="M73 479l-23 214h129l-24 -214h-82zM248 479l-23 214h129l-24 -214h-82z" />
    <glyph glyph-name="numbersign" unicode="#" horiz-adv-x="517" 
d="M61 403v109h96l28 181h75l-29 -181h107l29 181h74l-28 -181h78v-109h-96l-16 -102h79v-109h-96l-31 -192h-74l30 192h-107l-30 -192h-75l31 192h-78v109h95l17 102h-79zM214 403l-17 -102h107l17 102h-107z" />
    <glyph glyph-name="dollar" unicode="$" horiz-adv-x="530" 
d="M176 -117l12 107q-89 8 -149 32l-8 163h74l31 -95q27 -14 61 -20l27 238l-37 14q-74 25 -112 69.5t-38 120.5q0 85 59 139t173 55l7 59h70l-7 -62q57 -6 120 -28l8 -144h-72l-24 80q-30 9 -41 11l-24 -212l25 -9q84 -29 127 -72.5t43 -125.5q0 -92 -61.5 -151.5
t-181.5 -63.5l-12 -105h-70zM382 172q0 40 -21.5 64.5t-69.5 45.5l-24 -216q56 4 85.5 33t29.5 73zM150 539q0 -37 20.5 -60.5t67.5 -42.5l22 193q-49 -2 -79.5 -25.5t-30.5 -64.5z" />
    <glyph glyph-name="percent" unicode="%" horiz-adv-x="860" 
d="M200 375q37 0 52.5 31.5t15.5 100.5q0 71 -15 105t-52 34q-38 0 -53.5 -33t-15.5 -102q0 -68 15.5 -102t52.5 -34zM200 316q-76 0 -126 49.5t-50 141.5q0 95 51.5 146.5t125.5 51.5q73 0 124.5 -50.5t51.5 -142.5q0 -94 -51 -145t-126 -51zM146 -40l477 753h83l-477 -753
h-83zM659 47q37 0 52.5 31.5t15.5 100.5q0 70 -15 104.5t-52 34.5q-38 0 -53.5 -33t-15.5 -102q0 -68 15.5 -102t52.5 -34zM659 -12q-76 0 -126 49.5t-50 141.5q0 95 51.5 146.5t125.5 51.5q72 0 124 -50.5t52 -142.5q0 -94 -51 -145t-126 -51z" />
    <glyph glyph-name="ampersand" unicode="&#x26;" horiz-adv-x="707" 
d="M260 -12q-110 0 -175 51.5t-65 140.5q0 67 40 113.5t118 87.5q-57 75 -57 146q0 80 55.5 129t142.5 49q77 0 125.5 -39.5t48.5 -105.5q0 -60 -39.5 -99t-118.5 -79l160 -185q29 48 43 108l-67 18v59h217v-59l-62 -18q-24 -91 -81 -165l51 -59l80 -19v-62h-175l-45 52
q-90 -64 -196 -64zM291 69q67 0 120 36l-190 223q-65 -52 -65 -131q0 -56 36 -92t99 -36zM243 540q0 -52 51 -111q48 27 67.5 55.5t19.5 71.5q0 37 -17.5 56.5t-46.5 19.5q-34 0 -54 -24.5t-20 -67.5z" />
    <glyph glyph-name="quotesingle" unicode="'" horiz-adv-x="229" 
d="M73 479l-23 214h129l-24 -214h-82z" />
    <glyph glyph-name="parenleft" unicode="(" horiz-adv-x="330" 
d="M271 -145q-49 39 -86 77t-74 92.5t-57 125t-20 152.5q0 75 20.5 144.5t56.5 125t75 98t85 79.5l44 -41q-154 -176 -154 -387q0 -143 40 -241.5t114 -183.5z" />
    <glyph glyph-name="parenright" unicode=")" horiz-adv-x="330" 
d="M59 -145l-45 41q155 175 155 388q0 143 -40 241t-115 183l45 41q49 -39 86 -77t74 -92.5t57 -125t20 -152.5q0 -75 -20.5 -144.5t-56.5 -125t-75 -98t-85 -79.5z" />
    <glyph glyph-name="asterisk" unicode="*" horiz-adv-x="375" 
d="M140 378l25 118l-92 -78l-44 77l113 40l-113 40l44 77l92 -78l-25 119h95l-26 -119l93 78l44 -77l-113 -40l113 -40l-44 -77l-93 78l26 -118h-95z" />
    <glyph glyph-name="plus" unicode="+" horiz-adv-x="531" 
d="M53 299v83h169v176h87v-176h169v-83h-169v-176h-87v176h-169z" />
    <glyph glyph-name="comma" unicode="," horiz-adv-x="235" 
d="M44 -95q15 115 15 219h130q-14 -124 -61 -219h-84z" />
    <glyph glyph-name="hyphen" unicode="-" horiz-adv-x="312" 
d="M38 236v100h236v-100h-236z" />
    <glyph glyph-name="period" unicode="." horiz-adv-x="235" 
d="M116 -14q-32 0 -54 21.5t-22 52.5q0 32 22 53.5t54 21.5q33 0 55 -21.5t22 -53.5q0 -31 -22 -52.5t-55 -21.5z" />
    <glyph glyph-name="slash" unicode="/" horiz-adv-x="353" 
d="M1 -120l240 853h89l-240 -853h-89z" />
    <glyph glyph-name="zero" unicode="0" horiz-adv-x="640" 
d="M320 66q74 0 109.5 66.5t35.5 208.5q0 147 -34.5 216t-109.5 69q-147 0 -147 -277q0 -146 35 -214.5t111 -68.5zM319 -13q-130 0 -208.5 89.5t-78.5 265.5q0 180 82 271.5t208 91.5t205.5 -89.5t79.5 -266.5q0 -179 -80.5 -270.5t-207.5 -91.5z" />
    <glyph glyph-name="one" unicode="1" horiz-adv-x="396" 
d="M37 0v62l98 17v489l-107 -9v62l193 80h53v-622l97 -17v-62h-334z" />
    <glyph glyph-name="two" unicode="2" horiz-adv-x="524" 
d="M11 0v72l167 165q75 75 111 130t36 116q0 121 -140 121q-67 0 -147 -29v73q96 57 203 57q106 0 166 -52.5t60 -151.5q0 -76 -53 -148.5t-161 -161.5l-106 -88v-2h231l41 86h67l-13 -187h-462z" />
    <glyph glyph-name="three" unicode="3" horiz-adv-x="507" 
d="M216 -11q-113 0 -196 47v71q76 -27 157 -27q73 0 113 30t40 89q0 66 -35 93.5t-111 27.5h-52v80h43q136 0 136 106q0 108 -127 108q-68 0 -136 -21v69q82 43 183 43q102 0 158.5 -45t56.5 -128q0 -61 -35.5 -103t-96.5 -60v-4q71 -12 115.5 -55t44.5 -121
q0 -93 -68.5 -146.5t-189.5 -53.5z" />
    <glyph glyph-name="four" unicode="4" horiz-adv-x="582" 
d="M237 0v62l87 16v122h-306v73l326 420h113v-413h98v-80h-98v-122l85 -16v-62h-305zM121 280h203v264h-4l-199 -261v-3z" />
    <glyph glyph-name="five" unicode="5" horiz-adv-x="516" 
d="M209 -11q-99 0 -187 49v70q77 -28 152 -28q74 0 117 34t43 100t-42 100t-123 34q-43 0 -110 -13l25 358h371l-10 -105h-283l-13 -162q42 8 86 8q113 0 178 -56.5t65 -157.5q0 -104 -71 -167.5t-198 -63.5z" />
    <glyph glyph-name="six" unicode="6" horiz-adv-x="585" 
d="M302 -13q-126 0 -197.5 88t-71.5 242q0 101 27 178t73 121.5t103 66.5t122 22q99 0 157 -37v-72q-45 18 -130 18q-88 0 -144 -51.5t-66 -180.5q77 50 169 50q95 0 153.5 -56.5t58.5 -152.5q0 -102 -67 -169t-187 -67zM301 66q115 0 115 147q0 134 -118 134
q-73 0 -124 -32v-20q0 -229 127 -229z" />
    <glyph glyph-name="seven" unicode="7" horiz-adv-x="509" 
d="M91 0l315 584v4h-289l-28 -74h-70l9 179h465v-86l-249 -607h-153z" />
    <glyph glyph-name="eight" unicode="8" horiz-adv-x="587" 
d="M293 -13q-126 0 -194.5 49t-68.5 137q0 60 42 104t107 69q-122 58 -122 175q0 80 64 132t173 52t171.5 -45t62.5 -124q0 -102 -129 -158q158 -61 158 -187q0 -93 -69 -148.5t-195 -55.5zM287 64q69 0 103.5 28t34.5 79t-40 79t-141 63q-94 -48 -94 -136q0 -113 137 -113z
M328 408q81 45 81 121q0 51 -30.5 75.5t-81.5 24.5q-50 0 -81 -25t-31 -66q0 -49 31.5 -76t111.5 -54z" />
    <glyph glyph-name="nine" unicode="9" horiz-adv-x="585" 
d="M221 -13q-88 0 -155 39v71q57 -19 128 -19q100 0 153.5 51t62.5 181q-80 -50 -170 -50q-95 0 -153 56.5t-58 152.5q0 103 67 169.5t187 66.5q127 0 198 -88t71 -242q0 -198 -88 -293t-243 -95zM287 346q70 0 124 31q1 5 1 20q0 229 -128 229q-115 0 -115 -147
q0 -133 118 -133z" />
    <glyph glyph-name="colon" unicode=":" horiz-adv-x="241" 
d="M120 -14q-32 0 -54.5 21.5t-22.5 52.5t22.5 53t54.5 22q33 0 55 -21.5t22 -53.5q0 -31 -22 -52.5t-55 -21.5zM120 280q-32 0 -54.5 22t-22.5 53t22.5 53t54.5 22q33 0 55 -21.5t22 -53.5t-22 -53.5t-55 -21.5z" />
    <glyph glyph-name="semicolon" unicode=";" horiz-adv-x="241" 
d="M43 -95q14 107 14 219h131q-15 -126 -62 -219h-83zM120 280q-32 0 -54 21.5t-22 53.5t22 53.5t54 21.5q33 0 55 -21.5t22 -53.5t-22 -53.5t-55 -21.5z" />
    <glyph glyph-name="less" unicode="&#x3c;" horiz-adv-x="504" 
d="M440 123l-385 175v74l385 174v-94l-279 -117l279 -118v-94z" />
    <glyph glyph-name="equal" unicode="=" horiz-adv-x="524" 
d="M55 175v83h414v-83h-414zM55 357v83h414v-83h-414z" />
    <glyph glyph-name="greater" unicode="&#x3e;" horiz-adv-x="504" 
d="M63 123v94l280 117l-280 118v94l386 -174v-74z" />
    <glyph glyph-name="question" unicode="?" horiz-adv-x="423" 
d="M129 199q-18 43 -18 79q0 38 19 62.5t67 63.5q35 28 49.5 52t14.5 63q0 50 -30.5 75.5t-84.5 25.5q-63 0 -124 -19v67q76 37 164 37q94 0 151 -43t57 -137q0 -61 -28 -99t-92 -79q-5 -3 -17 -11l-16.5 -11t-13.5 -9.5t-12.5 -10.5t-9 -10.5t-8 -12t-4.5 -12.5t-2 -15
q0 -24 8 -56h-70zM166 -13q-30 0 -50.5 20.5t-20.5 49.5q0 28 20.5 48.5t50.5 20.5t50.5 -20.5t20.5 -48.5q0 -29 -20.5 -49.5t-50.5 -20.5z" />
    <glyph glyph-name="at" unicode="@" horiz-adv-x="889" 
d="M443 -155q-192 0 -298 97.5t-106 271.5q0 126 55 231.5t158.5 170t234.5 64.5q167 0 266.5 -94.5t99.5 -258.5q0 -134 -70 -217t-175 -83q-93 0 -114 66h-6q-56 -58 -127 -58q-54 0 -91 41.5t-37 115.5q0 121 65 205t166 84q28 0 50.5 -5.5t34 -11.5t30.5 -18l24 26h63
l-64 -324q-11 -56 28 -56q64 0 108 62.5t44 169.5q0 141 -76 219t-220 78q-171 0 -271.5 -116.5t-100.5 -288.5q0 -311 331 -311q121 0 229 36v-53q-99 -43 -231 -43zM410 110q39 0 79 36l44 233q-19 39 -64 39q-56 0 -87.5 -65t-31.5 -159q0 -84 60 -84z" />
    <glyph glyph-name="A" unicode="A" horiz-adv-x="682" 
d="M1 0v63l64 17l217 613h123l212 -613l64 -17v-63h-288v62l74 18l-44 137h-216l-46 -137l76 -18v-62h-236zM315 541l-86 -256h173l-82 256h-5z" />
    <glyph glyph-name="B" unicode="B" horiz-adv-x="626" 
d="M19 0v62l81 18v533l-80 18v62h307q244 0 244 -171q0 -60 -32 -102.5t-101 -56.5v-5q89 -13 128.5 -54t39.5 -118q0 -85 -65 -135.5t-191 -50.5h-331zM238 77h88q68 0 100.5 28t32.5 92q0 67 -32.5 96t-98.5 29h-90v-245zM238 391h74q118 0 118 108q0 68 -29 92.5
t-90 24.5h-73v-225z" />
    <glyph glyph-name="C" unicode="C" horiz-adv-x="621" 
d="M357 -12q-154 0 -243 85t-89 266q0 99 29 172t79.5 114t110.5 60.5t130 19.5q121 0 201 -28l6 -183h-74l-38 107q-51 22 -104 22q-193 0 -193 -264q0 -150 47.5 -219t153.5 -69q57 0 102 25l37 114h75l-7 -185q-84 -37 -223 -37z" />
    <glyph glyph-name="D" unicode="D" horiz-adv-x="690" 
d="M19 0v62l81 18v533l-80 18v62h299q176 0 261 -82t85 -249q0 -179 -86 -270.5t-252 -91.5h-308zM239 78h84q102 0 149 59.5t47 209.5q0 86 -13.5 140.5t-44 82t-66 36.5t-92.5 9h-64v-537z" />
    <glyph glyph-name="E" unicode="E" horiz-adv-x="606" 
d="M19 0v62l81 18v533l-80 18v62h539l10 -186h-72l-40 110h-219v-225h105l24 83h61v-240h-61l-24 85h-105v-244h226l52 136h72l-11 -212h-558z" />
    <glyph glyph-name="F" unicode="F" horiz-adv-x="601" 
d="M19 0v62l81 18v533l-80 18v62h543l10 -196h-72l-40 118h-222v-236h109l22 84h61v-241h-62l-21 86h-109v-228l89 -18v-62h-309z" />
    <glyph glyph-name="G" unicode="G" horiz-adv-x="676" 
d="M380 -13q-355 0 -355 352q0 99 29.5 172t81 114t113.5 60.5t135 19.5q125 0 205 -28l8 -183h-74l-39 106q-43 23 -112 23q-100 0 -150 -68t-50 -196q0 -150 47.5 -220t154.5 -70q45 0 92 15v163l-81 17v62h281v-62l-67 -17v-226q-93 -34 -219 -34z" />
    <glyph glyph-name="H" unicode="H" horiz-adv-x="741" 
d="M19 0v62l81 18v533l-81 18v62h296v-62l-77 -18v-222h267v222l-78 18v62h295v-62l-79 -18v-533l80 -18v-62h-296v62l78 17v239h-267v-239l77 -17v-62h-296z" />
    <glyph glyph-name="I" unicode="I" horiz-adv-x="338" 
d="M19 0v62l81 18v533l-81 18v62h300v-62l-80 -18v-533l80 -18v-62h-300z" />
    <glyph glyph-name="J" unicode="J" horiz-adv-x="430" 
d="M141 -9q-74 0 -130 27v79q56 -15 97 -15q46 0 70 22t24 79v430l-81 18v62h299v-62l-79 -18v-441q0 -88 -51.5 -134.5t-148.5 -46.5z" />
    <glyph glyph-name="K" unicode="K" horiz-adv-x="684" 
d="M494 0l-220 310v47l210 256l-64 18v62h239v-62l-64 -18l-205 -241l212 -292l68 -18v-62h-176zM19 0v62l81 18v533l-81 18v62h299v-62l-80 -17v-535l80 -17v-62h-299z" />
    <glyph glyph-name="L" unicode="L" horiz-adv-x="573" 
d="M19 0v62l81 18v533l-81 18v62h307v-62l-88 -17v-537h202l49 157h71l-13 -234h-528z" />
    <glyph glyph-name="M" unicode="M" horiz-adv-x="895" 
d="M19 0v61l81 19v533l-81 18v62h273l147 -468h4l152 468h281v-62l-87 -18v-533l87 -18v-62h-291v62l69 18v506h-3l-185 -562h-89l-181 560h-4v-504l71 -18v-62h-244z" />
    <glyph glyph-name="N" unicode="N" horiz-adv-x="718" 
d="M19 0v61l81 19v533l-81 18v62h245l273 -470h5v389l-81 19v62h246v-61l-72 -19v-613h-117l-320 553h-4v-473l82 -19v-61h-257z" />
    <glyph glyph-name="O" unicode="O" horiz-adv-x="694" 
d="M347 70q87 0 131.5 70t44.5 198q0 286 -177 286q-87 0 -131 -70.5t-44 -197.5q0 -144 41 -215t135 -71zM345 -12q-141 0 -230.5 93.5t-89.5 263.5q0 90 27.5 161t74 113.5t103 64t119.5 21.5q141 0 230 -92.5t89 -262.5q0 -90 -27.5 -161.5t-73.5 -114t-102.5 -64.5
t-119.5 -22z" />
    <glyph glyph-name="P" unicode="P" horiz-adv-x="588" 
d="M19 0v62l81 18v533l-81 18v62h293q142 0 204.5 -50t62.5 -146q0 -105 -62.5 -156.5t-164.5 -51.5q-8 0 -18.5 0.5t-19 1.5t-16 2t-12.5 1l-4 1v63h2q3 0 7.5 -0.5t9.5 -1t12 -0.5h13q113 0 113 131q0 66 -28.5 95.5t-90.5 29.5h-82v-532l96 -18v-62h-315z" />
    <glyph glyph-name="Q" unicode="Q" horiz-adv-x="694" 
d="M661 -130l-396 123q-240 74 -240 352q0 90 27.5 161t74 113.5t103 64t119.5 21.5q141 0 230 -92.5t89 -262.5q0 -137 -59 -216t-155 -105v-3l237 -45zM349 70q87 0 130.5 70t43.5 198q0 286 -177 286q-87 0 -131 -70.5t-44 -197.5q0 -143 41.5 -214.5t136.5 -71.5z" />
    <glyph glyph-name="R" unicode="R" horiz-adv-x="663" 
d="M19 0v62l82 18v532l-80 19v62h315q251 0 251 -194q0 -120 -133 -168v-4l145 -248l64 -18v-61h-172l-167 298h-84v-218l76 -18v-62h-297zM240 369h87q119 0 119 128q0 61 -29 88.5t-93 27.5h-84v-244z" />
    <glyph glyph-name="S" unicode="S" horiz-adv-x="537" 
d="M253 -12q-122 0 -207 34l-8 169h76l30 -96q50 -26 113 -26q59 0 91 29t32 74q0 44 -28.5 69t-91.5 50l-67 28q-72 28 -109 71.5t-37 119.5q0 88 60 142t179 54q103 0 181 -26l8 -157h-75l-24 81q-44 22 -97 22q-49 0 -80 -22.5t-31 -64.5q0 -37 24 -61t78 -44l68 -28
q88 -34 130 -76t42 -125q0 -96 -65 -156.5t-192 -60.5z" />
    <glyph glyph-name="T" unicode="T" horiz-adv-x="620" 
d="M156 0v62l85 18v536h-122l-35 -135h-74l10 212h580l10 -212h-74l-35 135h-121v-536l84 -18v-62h-308z" />
    <glyph glyph-name="U" unicode="U" horiz-adv-x="691" 
d="M354 -13q-134 0 -202.5 60.5t-68.5 167.5v398l-78 18v62h296v-62l-79 -17v-383q0 -158 151 -158t151 158v382l-79 17v63h241v-62l-70 -18v-388q0 -110 -66.5 -174t-195.5 -64z" />
    <glyph glyph-name="V" unicode="V" horiz-adv-x="672" 
d="M276 0l-211 613l-59 18v62h280v-62l-75 -18l146 -457h5l147 457l-74 18v62h231v-62l-60 -18l-210 -613h-120z" />
    <glyph glyph-name="W" unicode="W" horiz-adv-x="964" 
d="M223 0l-160 613l-56 18v62h266v-62l-69 -18l107 -434h5l139 514h92l140 -509h4l105 429l-71 18v62h232v-62l-63 -18l-160 -613h-124l-127 481h-4l-132 -481h-124z" />
    <glyph glyph-name="X" unicode="X" horiz-adv-x="689" 
d="M19 0v62l66 17l179 274l-168 260l-69 18v62h294v-62l-62 -16l113 -192l112 192l-66 16v62h237v-62l-67 -18l-164 -259l179 -274l68 -18v-62h-290v62l65 16l-130 211l-127 -210l66 -18v-61h-236z" />
    <glyph glyph-name="Y" unicode="Y" horiz-adv-x="633" 
d="M172 0v62l82 18v216l-192 317l-58 18v62h268v-62l-63 -17l138 -239h4l128 239l-66 17v62h216v-62l-57 -18l-179 -316v-217l80 -18v-62h-301z" />
    <glyph glyph-name="Z" unicode="Z" horiz-adv-x="556" 
d="M14 0v73l364 537v4h-230l-43 -124h-75l11 203h499v-73l-365 -537v-4h251l45 131h73l-10 -210h-520z" />
    <glyph glyph-name="bracketleft" unicode="[" horiz-adv-x="328" 
d="M58 -120v853h240v-62l-118 -18v-693l118 -18v-62h-240z" />
    <glyph glyph-name="backslash" unicode="\" horiz-adv-x="353" 
d="M262 -120l-240 853h89l240 -853h-89z" />
    <glyph glyph-name="bracketright" unicode="]" horiz-adv-x="328" 
d="M30 -120v62l118 18v693l-118 18v62h240v-853h-240z" />
    <glyph glyph-name="asciicircum" unicode="^" horiz-adv-x="409" 
d="M21 448l146 245h76l145 -245h-72l-111 140l-112 -140h-72z" />
    <glyph glyph-name="underscore" unicode="_" horiz-adv-x="323" 
d="M-8 -133v73h339v-73h-339z" />
    <glyph glyph-name="grave" unicode="`" 
d="M333 571l-213 82l51 93l187 -125z" />
    <glyph glyph-name="a" unicode="a" horiz-adv-x="500" 
d="M171 -13q-70 0 -113 39t-43 103q0 67 42.5 98.5t128.5 48.5l117 24v43q0 55 -21 75t-89 20t-132 -10v66q88 37 193 37q90 0 132.5 -39t42.5 -121v-273q0 -21 10.5 -28.5t32.5 -7.5h22v-54q-33 -19 -91 -19q-73 0 -87 57h-5q-51 -59 -140 -59zM221 66q48 0 82 30v135
l-82 -6q-43 -3 -61 -22.5t-18 -57.5q0 -79 79 -79z" />
    <glyph glyph-name="b" unicode="b" horiz-adv-x="563" 
d="M263 -12q-117 0 -205 41v619l-69 16v60l181 23l13 -6v-263h6q71 54 152 54q84 0 140.5 -57.5t56.5 -193.5q0 -146 -73.5 -219.5t-201.5 -73.5zM272 62q65 0 99.5 45t34.5 154q0 95 -31.5 136t-94.5 41q-48 0 -97 -21v-329q41 -26 89 -26z" />
    <glyph glyph-name="c" unicode="c" horiz-adv-x="473" 
d="M282 -12q-126 0 -193 71.5t-67 196.5q0 139 76.5 207t202.5 68q85 0 145 -20v-144h-77l-17 81q-28 8 -61 8q-137 0 -137 -187q0 -193 166 -193q81 0 133 25v-66q-65 -47 -171 -47z" />
    <glyph glyph-name="d" unicode="d" horiz-adv-x="586" 
d="M240 -12q-39 0 -74.5 13t-68 41.5t-52 81.5t-19.5 124q0 143 70.5 213t191.5 70q46 0 92 -14v132l-75 16v59l187 23l14 -6v-656l69 -16v-56l-171 -23l-13 6v52h-6q-48 -60 -145 -60zM284 80q50 0 96 24v325q-39 27 -89 27q-65 0 -99.5 -43.5t-34.5 -150.5q0 -96 32 -139
t95 -43z" />
    <glyph glyph-name="e" unicode="e" horiz-adv-x="514" 
d="M285 -12q-131 0 -197 73.5t-66 202.5q0 123 69.5 195t178.5 72q115 0 168.5 -69.5t53.5 -210.5h-340q10 -176 163 -176q70 0 152 26v-64q-78 -49 -182 -49zM152 314l208 7q0 136 -95 136q-103 0 -113 -143z" />
    <glyph glyph-name="f" unicode="f" horiz-adv-x="331" 
d="M18 0v55l68 16v372h-67v53l67 24v54q0 91 50 132.5t129 41.5q66 0 106 -21v-69q-31 7 -67 7q-47 0 -69.5 -22t-22.5 -79v-43h115v-78h-115v-372l81 -16v-55h-275z" />
    <glyph glyph-name="g" unicode="g" horiz-adv-x="526" 
d="M231 -205q-112 0 -169 35.5t-57 86.5q0 76 103 114v5q-60 21 -60 75q0 58 70 110q-76 45 -76 134q0 83 59 129.5t152 46.5q59 0 105 -17l157 22v-83l-86 5q35 -38 35 -92q0 -83 -59 -129.5t-152 -46.5q-45 0 -84 11q-22 -21 -22 -47q0 -29 37 -29h172q71 0 114.5 -31.5
t43.5 -102.5q0 -84 -73 -140t-210 -56zM241 -131q80 0 120 26t40 65q0 30 -19 42.5t-60 12.5h-152q-47 -21 -47 -75q0 -71 118 -71zM253 256q42 0 66 25.5t24 78.5q0 106 -90 106q-41 0 -65 -26t-24 -78q0 -106 89 -106z" />
    <glyph glyph-name="h" unicode="h" horiz-adv-x="600" 
d="M14 0v55l68 16v578l-69 16v59l183 23l13 -7v-264h5q86 55 168 55q70 0 106 -31.5t36 -103.5v-325l67 -16v-55h-255v55l62 15v287q0 44 -21.5 61.5t-68.5 17.5q-37 0 -99 -20v-346l61 -15v-55h-256z" />
    <glyph glyph-name="i" unicode="i" horiz-adv-x="289" 
d="M15 0v55l67 16v360l-73 16v59l187 24l13 -7v-452l67 -16v-55h-261zM141 595q-30 0 -51.5 19.5t-21.5 48.5q0 30 21.5 49.5t51.5 19.5q31 0 52.5 -19.5t21.5 -49.5q0 -29 -21.5 -48.5t-52.5 -19.5z" />
    <glyph glyph-name="j" unicode="j" horiz-adv-x="278" 
d="M41 -197q-44 0 -82 15v66q21 -3 45 -3q40 0 61.5 19.5t21.5 67.5v463l-74 16v59l187 24l13 -7v-560q0 -160 -172 -160zM145 595q-30 0 -51.5 19.5t-21.5 48.5q0 30 21.5 49.5t51.5 19.5q31 0 52.5 -19.5t21.5 -49.5q0 -29 -21.5 -48.5t-52.5 -19.5z" />
    <glyph glyph-name="k" unicode="k" horiz-adv-x="558" 
d="M404 0l-167 240v34l138 176l-58 14v57h220v-57l-68 -15l-127 -153l157 -225l56 -16v-55h-151zM14 0v55l68 15v579l-69 16v59l182 23l14 -7v-671l65 -14v-55h-260z" />
    <glyph glyph-name="l" unicode="l" horiz-adv-x="290" 
d="M14 0v55l69 16v578l-75 16v59l188 23l13 -7v-669l68 -16v-55h-263z" />
    <glyph glyph-name="m" unicode="m" horiz-adv-x="898" 
d="M14 0v55l68 16v360l-69 16v59l177 24l13 -7v-48h6q83 56 170 56q89 0 120 -61h5q86 61 178 61q139 0 139 -139v-321l66 -16v-55h-253v55l61 15v282q0 46 -21.5 65t-68.5 19q-39 0 -94 -20q3 -12 3 -39v-307l61 -15v-55h-248v55l62 15v282q0 46 -21 65t-65 19
q-38 0 -94 -20v-346l61 -15v-55h-256z" />
    <glyph glyph-name="n" unicode="n" horiz-adv-x="601" 
d="M14 0v55l68 16v360l-69 16v59l177 24l13 -7v-49h6q86 57 173 57q70 0 106 -31.5t36 -103.5v-325l67 -16v-55h-255v55l62 15v287q0 43 -21.5 60.5t-68.5 17.5q-40 0 -99 -19v-346l61 -15v-55h-256z" />
    <glyph glyph-name="o" unicode="o" horiz-adv-x="558" 
d="M281 63q122 0 122 192q0 107 -35 154t-91 47q-123 0 -123 -192q0 -107 35.5 -154t91.5 -47zM280 -13q-119 0 -188.5 73t-69.5 197t73.5 199t182.5 75q119 0 188.5 -72t69.5 -196t-73.5 -200t-182.5 -76z" />
    <glyph glyph-name="p" unicode="p" horiz-adv-x="585" 
d="M12 -199v54l67 14v562l-69 16v59l176 24l13 -7v-49h6q72 58 158 58q39 0 72 -12t62 -39t45.5 -78t16.5 -122q0 -146 -72 -219.5t-194 -73.5q-53 0 -87 7v-125l79 -15v-54h-273zM294 62q65 0 99.5 45t34.5 154q0 95 -31.5 136t-94.5 41q-49 0 -96 -21v-330q37 -25 88 -25z
" />
    <glyph glyph-name="q" unicode="q" horiz-adv-x="572" 
d="M300 -199v56l80 16v169h-6q-31 -27 -61.5 -40.5t-75.5 -13.5q-40 0 -75 12.5t-67 40t-50.5 79.5t-18.5 124q0 143 73.5 215t199.5 72q117 0 207 -33v-627l67 -14v-56h-273zM284 80q50 0 96 24v325q-39 27 -92 27q-62 0 -96.5 -43.5t-34.5 -150.5q0 -96 32 -139t95 -43z
" />
    <glyph glyph-name="r" unicode="r" horiz-adv-x="378" 
d="M14 0v55l68 16v360l-69 16v59l177 24l13 -7v-70h6q55 78 133 78q17 0 27 -4v-111q-16 4 -42 4q-69 0 -118 -29v-320l79 -16v-55h-274z" />
    <glyph glyph-name="s" unicode="s" horiz-adv-x="443" 
d="M201 -13q-89 0 -169 30l-9 141h73l24 -78q38 -20 88 -20q43 0 69 17t26 50q0 32 -18 47t-67 30l-56 16q-68 19 -101.5 55t-33.5 96q0 70 52.5 115t152.5 45q88 0 155 -23v-133h-70l-19 69q-30 15 -74 15q-87 0 -87 -61q0 -28 19.5 -44t69.5 -30l59 -17q72 -21 103.5 -57
t31.5 -93q0 -76 -55.5 -123t-163.5 -47z" />
    <glyph glyph-name="t" unicode="t" horiz-adv-x="359" 
d="M224 -10q-74 0 -109.5 30t-35.5 103v320h-67v53l78 25l18 122h97v-122h125v-78h-125v-297q0 -40 16.5 -57t58.5 -17q26 0 58 7v-59q-46 -30 -114 -30z" />
    <glyph glyph-name="u" unicode="u" horiz-adv-x="601" 
d="M223 -11q-149 0 -149 150v298l-69 16v58l181 18l13 -7v-349q0 -49 18 -70t67 -21q48 0 105 24v331l-66 16v58l179 18l13 -7v-437l68 -16v-56l-175 -23l-13 6v57h-6q-66 -64 -166 -64z" />
    <glyph glyph-name="v" unicode="v" horiz-adv-x="555" 
d="M222 0l-170 450l-51 14v57h243v-57l-57 -11l111 -322h4l112 322l-57 11v57h196v-57l-51 -14l-169 -450h-111z" />
    <glyph glyph-name="w" unicode="w" horiz-adv-x="801" 
d="M186 0l-137 450l-48 14v57h233v-57l-57 -14l82 -291h4l113 362h86l112 -362h4l82 291l-55 14v57h194v-57l-48 -14l-137 -450h-103l-105 351h-3l-115 -351h-102z" />
    <glyph glyph-name="x" unicode="x" horiz-adv-x="559" 
d="M11 0v55l56 15l138 190l-133 189l-55 15v57h253v-57l-52 -12l89 -139h3l88 139l-55 12v57h197v-57l-51 -14l-131 -186l135 -194l56 -15v-55h-254v55l55 12l-94 141h-2l-95 -141l57 -12v-55h-205z" />
    <glyph glyph-name="y" unicode="y" horiz-adv-x="555" 
d="M141 -201q-49 0 -85 18v76q35 -8 53 -8q39 0 63 15.5t40 52.5l24 59l-183 438l-52 14v57h248v-57l-61 -13l114 -298h4l101 297l-59 14v57h205v-57l-51 -14l-196 -519q-26 -69 -63 -100.5t-102 -31.5z" />
    <glyph glyph-name="z" unicode="z" horiz-adv-x="485" 
d="M24 0v66l282 381v4h-175l-29 -100h-64l9 170h404v-66l-278 -380v-4h182l35 111h66l-13 -182h-419z" />
    <glyph glyph-name="braceleft" unicode="{" horiz-adv-x="379" 
d="M349 -120q-131 4 -185 38.5t-54 99.5q0 28 16.5 91.5t16.5 81.5q0 32 -22 49t-91 25v83q69 9 91 26t22 48q0 18 -16.5 81.5t-16.5 91.5q0 65 54 99.5t185 38.5v-62q-65 -10 -88 -25t-23 -52q0 -20 10 -79t10 -85q0 -46 -27 -74.5t-109 -46.5v-5q81 -18 108.5 -46
t27.5 -74q0 -26 -10 -85.5t-10 -79.5q0 -37 23 -52t88 -25v-62z" />
    <glyph glyph-name="bar" unicode="|" horiz-adv-x="228" 
d="M72 -120v853h83v-853h-83z" />
    <glyph glyph-name="braceright" unicode="}" horiz-adv-x="379" 
d="M30 -120v62q65 10 88 25t23 52q0 20 -10 79.5t-10 85.5q0 46 27.5 74t108.5 46v5q-82 18 -109 46.5t-27 74.5q0 26 10 85t10 79q0 37 -23 52t-88 25v62q131 -4 185 -38.5t54 -99.5q0 -28 -16 -91.5t-16 -81.5q0 -32 22 -49t91 -25v-83q-69 -9 -91 -25.5t-22 -48.5
q0 -18 16 -81.5t16 -91.5q0 -65 -54 -99.5t-185 -38.5z" />
    <glyph glyph-name="asciitilde" unicode="~" horiz-adv-x="430" 
d="M75 225l-57 35q49 117 129 117q31 0 77 -22.5t62 -22.5q37 0 69 52l57 -34q-47 -117 -129 -117q-31 0 -77 22.5t-61 22.5q-38 0 -70 -53z" />
    <glyph glyph-name="uni00A0" unicode="&#xa0;" horiz-adv-x="184" 
 />
    <glyph glyph-name="exclamdown" unicode="&#xa1;" horiz-adv-x="259" 
d="M61 -120l30 493h81l28 -493h-139zM130 447q-30 0 -50.5 20.5t-20.5 48.5q0 29 20.5 49.5t50.5 20.5t50.5 -20.5t20.5 -49.5q0 -28 -20.5 -48.5t-50.5 -20.5z" />
    <glyph glyph-name="cent" unicode="&#xa2;" horiz-adv-x="481" 
d="M209 -119l12 113q-96 18 -147 86.5t-51 175.5q0 132 69.5 199.5t185.5 74.5l7 65h69l-7 -66q64 -5 107 -19v-143h-68l-17 82q-1 0 -11.5 3t-18.5 4l-42 -383q8 -1 24 -1q83 0 141 28v-65q-66 -46 -174 -47l-11 -107h-68zM150 269q0 -139 81 -180l39 367
q-120 -19 -120 -187z" />
    <glyph glyph-name="sterling" unicode="&#xa3;" horiz-adv-x="542" 
d="M55 304v77h64v92q0 114 64 173t161 59q96 0 161 -46v-73q-57 20 -116 20q-61 0 -97.5 -30.5t-40.5 -113.5l-4 -81h172v-77h-176l-2 -42q-3 -59 -21 -92.5t-54 -63.5v-2h347l-13 -104h-466v72q44 25 64.5 61t20.5 101v70h-64z" />
    <glyph glyph-name="yen" unicode="&#xa5;" horiz-adv-x="608" 
d="M77 314v64h133l-152 235l-51 18v62h261v-62l-62 -17l129 -216h4l118 216l-65 17v62h209v-62l-51 -18l-142 -235h136v-64h-166v-69h166v-64h-166v-101l83 -18v-62h-301v62l83 18v101h-166v64h166v69h-166z" />
    <glyph glyph-name="brokenbar" unicode="&#xa6;" horiz-adv-x="228" 
d="M72 -120v399h83v-399h-83zM72 371v362h83v-362h-83z" />
    <glyph glyph-name="section" unicode="&#xa7;" horiz-adv-x="520" 
d="M247 -132q-92 0 -171 31l-8 135h72l25 -72q40 -20 86 -20q42 0 68.5 17t26.5 51q0 30 -21 51t-69 38l-79 28q-78 28 -115.5 64.5t-37.5 95.5q0 95 114 132q-65 42 -65 127q0 73 53 116t154 43q90 0 156 -24v-128h-69l-20 63q-30 16 -75 16q-40 0 -64.5 -16.5t-24.5 -49.5
q0 -31 17 -48t65 -35l78 -28q78 -27 115.5 -63t37.5 -95q0 -97 -113 -135q77 -49 77 -129q0 -73 -54.5 -119t-158.5 -46zM288 357l-72 26q-34 -7 -55 -26t-21 -46q0 -31 22 -49.5t75 -37.5l67 -25q34 5 55 24t21 48q0 31 -21 49t-71 37z" />
    <glyph glyph-name="dieresis" unicode="&#xa8;" 
d="M155 594q-27 0 -47 19t-20 46q0 28 19.5 46t47.5 18t48 -18t20 -46q0 -27 -20 -46t-48 -19zM337 594q-28 0 -48 19t-20 46q0 28 20 46t48 18t47.5 -18t19.5 -46t-19.5 -46.5t-47.5 -18.5z" />
    <glyph glyph-name="copyright" unicode="&#xa9;" horiz-adv-x="774" 
d="M394 157q-84 0 -135 47.5t-51 138.5q0 96 55.5 144.5t139.5 48.5q64 0 112 -16l5 -105h-51l-22 57q-26 10 -49 10q-85 0 -85 -129q0 -75 19.5 -108.5t69.5 -33.5q33 0 47 8l23 66h52l-7 -108q-52 -20 -123 -20zM386 38q128 0 210.5 89t82.5 217t-82.5 217t-210.5 89
t-210.5 -89t-82.5 -217t82.5 -217t210.5 -89zM386 -14q-150 0 -252 104.5t-102 253.5t102 252.5t252 103.5q149 0 252.5 -104t103.5 -252t-103.5 -253t-252.5 -105z" />
    <glyph glyph-name="ordfeminine" unicode="&#xaa;" horiz-adv-x="470" 
d="M166 219q-62 0 -100.5 35t-38.5 92q0 60 40 90t117 44l98 19v35q0 46 -19.5 63.5t-77.5 17.5q-43 0 -115 -10v65q82 33 171 33q160 0 160 -143v-236q0 -31 37 -31h19v-53q-29 -18 -80 -18q-70 0 -82 50h-5q-45 -53 -124 -53zM211 294q46 0 71 23v118l-68 -4
q-69 -5 -69 -71t66 -66z" />
    <glyph glyph-name="guillemotleft" unicode="&#xab;" horiz-adv-x="441" 
d="M143 57l-107 178v35l107 179h81l-79 -196l79 -196h-81zM321 57l-106 178v35l106 179h82l-80 -196l80 -196h-82z" />
    <glyph glyph-name="registered" unicode="&#xae;" horiz-adv-x="449" 
d="M131 410v25l20 6v127l-20 5v27h98q37 0 57.5 -14.5t20.5 -40.5q0 -32 -35 -44v-3l38 -58l15 -5v-25h-58l-43 74h-17v-43l18 -6v-25h-94zM207 515h18q16 0 21.5 6.5t5.5 20.5t-6 20t-21 6h-18v-53zM224 337q70 0 114.5 47.5t44.5 117.5t-44.5 117.5t-114.5 47.5
t-114.5 -47.5t-44.5 -117.5t44.5 -117.5t114.5 -47.5zM224 299q-86 0 -145 59.5t-59 143.5q0 85 59 144t145 59t145.5 -59t59.5 -144q0 -84 -59.5 -143.5t-145.5 -59.5z" />
    <glyph glyph-name="macron" unicode="&#xaf;" 
d="M115 602v80h261v-80h-261z" />
    <glyph glyph-name="degree" unicode="&#xb0;" horiz-adv-x="351" 
d="M176 468q37 0 59 26.5t22 64.5t-21.5 64t-59.5 26t-60 -26t-22 -64t22 -64.5t60 -26.5zM176 415q-62 0 -104.5 42.5t-42.5 101.5t42.5 101t104.5 42t104 -42t42 -101t-42 -101.5t-104 -42.5z" />
    <glyph glyph-name="acute" unicode="&#xb4;" 
d="M159 571l-25 50l187 125l51 -93z" />
    <glyph glyph-name="paragraph" unicode="&#xb6;" horiz-adv-x="584" 
d="M288 -120v449q-18 -3 -41 -3q-87 0 -145.5 47.5t-58.5 139.5q0 180 236 180h307v-62l-74 -18v-733h-78v739h-68v-739h-78z" />
    <glyph glyph-name="periodcentered" unicode="&#xb7;" horiz-adv-x="233" 
d="M117 254q-33 0 -55 21.5t-22 52.5q0 32 22 53.5t55 21.5q32 0 54 -21.5t22 -53.5q0 -31 -22 -52.5t-54 -21.5z" />
    <glyph glyph-name="cedilla" unicode="&#xb8;" 
d="M196 -216v43q57 7 79.5 18t22.5 29q0 32 -80 33v93h55v-45q62 -3 89.5 -20.5t27.5 -53.5q0 -87 -194 -97z" />
    <glyph glyph-name="ordmasculine" unicode="&#xba;" horiz-adv-x="507" 
d="M255 291q103 0 103 166q0 175 -106 175q-104 0 -104 -167q0 -174 107 -174zM254 219q-105 0 -166.5 65t-61.5 175q0 111 65 177.5t161 66.5q106 0 167.5 -64t61.5 -175t-65 -178t-162 -67z" />
    <glyph glyph-name="guillemotright" unicode="&#xbb;" horiz-adv-x="441" 
d="M38 57l80 195l-80 197h82l106 -179v-35l-106 -178h-82zM217 57l80 195l-80 197h82l106 -179v-35l-106 -178h-82z" />
    <glyph glyph-name="onequarter" unicode="&#xbc;" horiz-adv-x="831" 
d="M43 282v47l60 10v268l-65 -5v46l124 55h45v-364l61 -10v-47h-225zM130 -40l483 753h83l-483 -753h-83zM592 0v47l50 10v63h-185v50l200 247h84v-241h56v-56h-56v-63l51 -10v-47h-200zM530 176h112v140h-3l-109 -138v-2z" />
    <glyph glyph-name="onehalf" unicode="&#xbd;" horiz-adv-x="859" 
d="M119 -40l483 753h83l-483 -753h-83zM43 282v47l60 10v268l-65 -5v46l124 55h45v-364l61 -10v-47h-225zM524 0v55l100 95q83 79 83 133q0 68 -78 68q-40 0 -89 -17v55q62 35 131 35q68 0 106 -32.5t38 -91.5q0 -48 -31.5 -89.5t-97.5 -90.5l-62 -48v-1h127l25 47h50
l-9 -118h-293z" />
    <glyph glyph-name="threequarters" unicode="&#xbe;" horiz-adv-x="851" 
d="M158 275q-72 0 -124 28v52q47 -15 94 -15q88 0 88 65q0 35 -19.5 49.5t-62.5 14.5h-36v56h31q77 0 77 58q0 59 -72 59q-47 0 -83 -12v51q48 25 117 25q66 0 102 -27t36 -77q0 -74 -83 -98v-3q44 -7 71.5 -32.5t27.5 -71.5q0 -57 -43.5 -89.5t-120.5 -32.5zM150 -42
l483 753h83l-483 -753h-83zM612 -2v47l50 10v63h-185v50l200 247h84v-241h56v-56h-56v-63l51 -10v-47h-200zM550 174h112v140h-3l-109 -138v-2z" />
    <glyph glyph-name="questiondown" unicode="&#xbf;" horiz-adv-x="423" 
d="M237 -132q-95 0 -151.5 43t-56.5 137q0 61 28 99t92 79q5 3 17 11l16.5 11t13.5 9.5t12.5 10.5t9 10.5t8 12t4.5 12.5t2 15q0 24 -8 56h70q18 -41 18 -79t-19 -62.5t-67 -63.5q-35 -28 -49.5 -52t-14.5 -63q0 -50 30.5 -75.5t84.5 -25.5q63 0 124 19v-67
q-76 -37 -164 -37zM257 447q-30 0 -51 20.5t-21 48.5q0 29 21 49.5t51 20.5t50.5 -20.5t20.5 -49.5q0 -28 -20.5 -48.5t-50.5 -20.5z" />
    <glyph glyph-name="Agrave" unicode="&#xc0;" horiz-adv-x="682" 
d="M1 0v63l64 17l217 613h123l212 -613l64 -17v-63h-288v62l74 18l-44 137h-216l-46 -137l76 -18v-62h-236zM315 541l-86 -256h173l-82 256h-5zM427 726l-219 61l41 96l198 -105z" />
    <glyph glyph-name="Aacute" unicode="&#xc1;" horiz-adv-x="682" 
d="M1 0v63l64 17l217 613h123l212 -613l64 -17v-63h-288v62l74 18l-44 137h-216l-46 -137l76 -18v-62h-236zM315 541l-86 -256h173l-82 256h-5zM474 787l-219 -61l-20 52l198 105z" />
    <glyph glyph-name="Acircumflex" unicode="&#xc2;" horiz-adv-x="682" 
d="M1 0v63l64 17l217 613h123l212 -613l64 -17v-63h-288v62l74 18l-44 137h-216l-46 -137l76 -18v-62h-236zM315 541l-86 -256h173l-82 256h-5zM215 728l-23 39l119 105h61l120 -105l-23 -39l-127 54z" />
    <glyph glyph-name="Atilde" unicode="&#xc3;" horiz-adv-x="682" 
d="M1 0v63l64 17l217 613h123l212 -613l64 -17v-63h-288v62l74 18l-44 137h-216l-46 -137l76 -18v-62h-236zM315 541l-86 -256h173l-82 256h-5zM230 732l-50 29q41 97 109 97q24 0 61 -15.5t50 -15.5q31 0 54 38l51 -28q-42 -98 -110 -98q-24 0 -61 15.5t-50 15.5
q-30 0 -54 -38z" />
    <glyph glyph-name="Adieresis" unicode="&#xc4;" horiz-adv-x="682" 
d="M1 0v63l64 17l217 613h123l212 -613l64 -17v-63h-288v62l74 18l-44 137h-216l-46 -137l76 -18v-62h-236zM315 541l-86 -256h173l-82 256h-5zM251 733q-27 0 -47 19t-20 46q0 28 19.5 46t47.5 18t48 -18t20 -46q0 -27 -20 -46t-48 -19zM433 733q-28 0 -48 19t-20 46
q0 28 20 46t48 18t47.5 -18t19.5 -46t-19.5 -46.5t-47.5 -18.5z" />
    <glyph glyph-name="Aring" unicode="&#xc5;" horiz-adv-x="682" 
d="M1 0v63l64 17l217 613h123l212 -613l64 -17v-63h-288v62l74 18l-44 137h-216l-46 -137l76 -18v-62h-236zM315 541l-86 -256h173l-82 256h-5zM342 767q22 0 35 13.5t13 35.5t-13 36t-35 14t-35 -14t-13 -36t13 -35.5t35 -13.5zM342 719q-44 0 -73 28.5t-29 68.5t29 68.5
t73 28.5q43 0 72.5 -28.5t29.5 -68.5t-29.5 -68.5t-72.5 -28.5z" />
    <glyph glyph-name="AE" unicode="&#xc6;" horiz-adv-x="947" 
d="M158 81l79 -19v-62h-236v63l60 18l320 541l-63 9v62h584l10 -186h-72l-40 110h-213v-225h99l23 83h61v-240h-61l-23 85h-99v-244h221l51 136h73l-12 -212h-550v62l81 18v134h-216zM274 283h177v305h-3z" />
    <glyph glyph-name="Ccedilla" unicode="&#xc7;" horiz-adv-x="621" 
d="M252 -216v43q57 7 79.5 18t22.5 29q0 32 -80 33v88q-117 20 -183 104.5t-66 239.5q0 99 29 172t79.5 114t110.5 60.5t130 19.5q121 0 201 -28l6 -183h-74l-38 107q-51 22 -104 22q-193 0 -193 -264q0 -150 47.5 -219t153.5 -69q57 0 102 25l37 114h75l-7 -185
q-84 -37 -223 -37q-19 0 -28 1v-34q62 -3 89.5 -20.5t27.5 -53.5q0 -87 -194 -97z" />
    <glyph glyph-name="Egrave" unicode="&#xc8;" horiz-adv-x="606" 
d="M401 726l-219 61l41 96l198 -105zM19 0v62l81 18v533l-80 18v62h539l10 -186h-72l-40 110h-219v-225h105l24 83h61v-240h-61l-24 85h-105v-244h226l52 136h72l-11 -212h-558z" />
    <glyph glyph-name="Eacute" unicode="&#xc9;" horiz-adv-x="606" 
d="M448 787l-219 -61l-20 52l198 105zM19 0v62l81 18v533l-80 18v62h539l10 -186h-72l-40 110h-219v-225h105l24 83h61v-240h-61l-24 85h-105v-244h226l52 136h72l-11 -212h-558z" />
    <glyph glyph-name="Ecircumflex" unicode="&#xca;" horiz-adv-x="606" 
d="M189 728l-23 39l119 105h61l120 -105l-23 -39l-127 54zM19 0v62l81 18v533l-80 18v62h539l10 -186h-72l-40 110h-219v-225h105l24 83h61v-240h-61l-24 85h-105v-244h226l52 136h72l-11 -212h-558z" />
    <glyph glyph-name="Edieresis" unicode="&#xcb;" horiz-adv-x="606" 
d="M19 0v62l81 18v533l-80 18v62h539l10 -186h-72l-40 110h-219v-225h105l24 83h61v-240h-61l-24 85h-105v-244h226l52 136h72l-11 -212h-558zM225 733q-27 0 -47 19t-20 46q0 28 19.5 46t47.5 18t48 -18t20 -46q0 -27 -20 -46t-48 -19zM407 733q-28 0 -48 19t-20 46
q0 28 20 46t48 18t47.5 -18t19.5 -46t-19.5 -46.5t-47.5 -18.5z" />
    <glyph glyph-name="Igrave" unicode="&#xcc;" horiz-adv-x="338" 
d="M19 0v62l81 18v533l-81 18v62h300v-62l-80 -18v-533l80 -18v-62h-300zM254 726l-219 61l41 96l198 -105z" />
    <glyph glyph-name="Iacute" unicode="&#xcd;" horiz-adv-x="338" 
d="M19 0v62l81 18v533l-81 18v62h300v-62l-80 -18v-533l80 -18v-62h-300zM296 787l-219 -61l-20 52l198 105z" />
    <glyph glyph-name="Icircumflex" unicode="&#xce;" horiz-adv-x="338" 
d="M19 0v62l81 18v533l-81 18v62h300v-62l-80 -18v-533l80 -18v-62h-300zM42 728l-23 39l119 105h61l120 -105l-23 -39l-127 54z" />
    <glyph glyph-name="Idieresis" unicode="&#xcf;" horiz-adv-x="338" 
d="M19 0v62l81 18v533l-81 18v62h300v-62l-80 -18v-533l80 -18v-62h-300zM78 733q-27 0 -47 19t-20 46q0 28 19.5 46t47.5 18t48 -18t20 -46q0 -27 -20 -46t-48 -19zM260 733q-28 0 -48 19t-20 46q0 28 20 46t48 18t47.5 -18t19.5 -46t-19.5 -46.5t-47.5 -18.5z" />
    <glyph glyph-name="Eth" unicode="&#xd0;" horiz-adv-x="690" 
d="M27 310v82h73v221l-80 18v62h299q176 0 261 -82t85 -249q0 -179 -86 -270.5t-252 -91.5h-308v62l81 18v230h-73zM239 78h84q102 0 149 59.5t47 209.5q0 86 -13.5 140.5t-44 82t-66 36.5t-92.5 9h-64v-223h155v-82h-155v-232z" />
    <glyph glyph-name="Ntilde" unicode="&#xd1;" horiz-adv-x="718" 
d="M272 732l-50 29q41 97 109 97q24 0 61 -15.5t50 -15.5q31 0 54 38l51 -28q-42 -98 -110 -98q-24 0 -61 15.5t-50 15.5q-30 0 -54 -38zM19 0v61l81 19v533l-81 18v62h245l273 -470h5v389l-81 19v62h246v-61l-72 -19v-613h-117l-320 553h-4v-473l82 -19v-61h-257z" />
    <glyph glyph-name="Ograve" unicode="&#xd2;" horiz-adv-x="694" 
d="M432 726l-219 61l41 96l198 -105zM347 70q87 0 131.5 70t44.5 198q0 286 -177 286q-87 0 -131 -70.5t-44 -197.5q0 -144 41 -215t135 -71zM345 -12q-141 0 -230.5 93.5t-89.5 263.5q0 90 27.5 161t74 113.5t103 64t119.5 21.5q141 0 230 -92.5t89 -262.5
q0 -90 -27.5 -161.5t-73.5 -114t-102.5 -64.5t-119.5 -22z" />
    <glyph glyph-name="Oacute" unicode="&#xd3;" horiz-adv-x="694" 
d="M479 787l-219 -61l-20 52l198 105zM347 70q87 0 131.5 70t44.5 198q0 286 -177 286q-87 0 -131 -70.5t-44 -197.5q0 -144 41 -215t135 -71zM345 -12q-141 0 -230.5 93.5t-89.5 263.5q0 90 27.5 161t74 113.5t103 64t119.5 21.5q141 0 230 -92.5t89 -262.5
q0 -90 -27.5 -161.5t-73.5 -114t-102.5 -64.5t-119.5 -22z" />
    <glyph glyph-name="Ocircumflex" unicode="&#xd4;" horiz-adv-x="694" 
d="M220 728l-23 39l119 105h61l120 -105l-23 -39l-127 54zM347 70q87 0 131.5 70t44.5 198q0 286 -177 286q-87 0 -131 -70.5t-44 -197.5q0 -144 41 -215t135 -71zM345 -12q-141 0 -230.5 93.5t-89.5 263.5q0 90 27.5 161t74 113.5t103 64t119.5 21.5q141 0 230 -92.5
t89 -262.5q0 -90 -27.5 -161.5t-73.5 -114t-102.5 -64.5t-119.5 -22z" />
    <glyph glyph-name="Otilde" unicode="&#xd5;" horiz-adv-x="694" 
d="M235 732l-50 29q41 97 109 97q24 0 61 -15.5t50 -15.5q31 0 54 38l51 -28q-42 -98 -110 -98q-24 0 -61 15.5t-50 15.5q-30 0 -54 -38zM347 70q87 0 131.5 70t44.5 198q0 286 -177 286q-87 0 -131 -70.5t-44 -197.5q0 -144 41 -215t135 -71zM345 -12q-141 0 -230.5 93.5
t-89.5 263.5q0 90 27.5 161t74 113.5t103 64t119.5 21.5q141 0 230 -92.5t89 -262.5q0 -90 -27.5 -161.5t-73.5 -114t-102.5 -64.5t-119.5 -22z" />
    <glyph glyph-name="Odieresis" unicode="&#xd6;" horiz-adv-x="694" 
d="M256 733q-27 0 -47 19t-20 46q0 28 19.5 46t47.5 18t48 -18t20 -46q0 -27 -20 -46t-48 -19zM438 733q-28 0 -48 19t-20 46q0 28 20 46t48 18t47.5 -18t19.5 -46t-19.5 -46.5t-47.5 -18.5zM347 70q87 0 131.5 70t44.5 198q0 286 -177 286q-87 0 -131 -70.5t-44 -197.5
q0 -144 41 -215t135 -71zM345 -12q-141 0 -230.5 93.5t-89.5 263.5q0 90 27.5 161t74 113.5t103 64t119.5 21.5q141 0 230 -92.5t89 -262.5q0 -90 -27.5 -161.5t-73.5 -114t-102.5 -64.5t-119.5 -22z" />
    <glyph glyph-name="multiply" unicode="&#xd7;" horiz-adv-x="531" 
d="M411 539l57 -57l-145 -146l146 -146l-58 -57l-145 146l-145 -146l-57 57l145 146l-145 147l57 57l145 -146z" />
    <glyph glyph-name="Oslash" unicode="&#xd8;" horiz-adv-x="694" 
d="M90 -29l-55 38l68 85q-78 96 -78 251q0 90 27.5 161t74 113.5t103 64t119.5 21.5q113 0 192 -60l54 68l55 -39l-60 -75q78 -94 78 -249q0 -90 -27.5 -161.5t-73.5 -114t-102.5 -64.5t-119.5 -22q-113 0 -194 60zM347 70q88 0 133.5 70.5t45.5 197.5q0 95 -18 158
l-292 -367q42 -59 131 -59zM168 356q0 -98 17 -159l291 367q-43 60 -130 60q-88 0 -133 -70.5t-45 -197.5z" />
    <glyph glyph-name="Ugrave" unicode="&#xd9;" horiz-adv-x="691" 
d="M456 726l-219 61l41 96l198 -105zM354 -13q-134 0 -202.5 60.5t-68.5 167.5v398l-78 18v62h296v-62l-79 -17v-383q0 -158 151 -158t151 158v382l-79 17v63h241v-62l-70 -18v-388q0 -110 -66.5 -174t-195.5 -64z" />
    <glyph glyph-name="Uacute" unicode="&#xda;" horiz-adv-x="691" 
d="M502 787l-219 -61l-20 52l198 105zM354 -13q-134 0 -202.5 60.5t-68.5 167.5v398l-78 18v62h296v-62l-79 -17v-383q0 -158 151 -158t151 158v382l-79 17v63h241v-62l-70 -18v-388q0 -110 -66.5 -174t-195.5 -64z" />
    <glyph glyph-name="Ucircumflex" unicode="&#xdb;" horiz-adv-x="691" 
d="M244 728l-23 39l119 105h61l120 -105l-23 -39l-127 54zM354 -13q-134 0 -202.5 60.5t-68.5 167.5v398l-78 18v62h296v-62l-79 -17v-383q0 -158 151 -158t151 158v382l-79 17v63h241v-62l-70 -18v-388q0 -110 -66.5 -174t-195.5 -64z" />
    <glyph glyph-name="Udieresis" unicode="&#xdc;" horiz-adv-x="691" 
d="M354 -13q-134 0 -202.5 60.5t-68.5 167.5v398l-78 18v62h296v-62l-79 -17v-383q0 -158 151 -158t151 158v382l-79 17v63h241v-62l-70 -18v-388q0 -110 -66.5 -174t-195.5 -64zM280 733q-27 0 -47 19t-20 46q0 28 19.5 46t47.5 18t48 -18t20 -46q0 -27 -20 -46t-48 -19z
M462 733q-28 0 -48 19t-20 46q0 28 20 46t48 18t47.5 -18t19.5 -46t-19.5 -46.5t-47.5 -18.5z" />
    <glyph glyph-name="Yacute" unicode="&#xdd;" horiz-adv-x="633" 
d="M172 0v62l82 18v216l-192 317l-58 18v62h268v-62l-63 -17l138 -239h4l128 239l-66 17v62h216v-62l-57 -18l-179 -316v-217l80 -18v-62h-301zM471 787l-219 -61l-20 52l198 105z" />
    <glyph glyph-name="Thorn" unicode="&#xde;" horiz-adv-x="598" 
d="M19 0v62l81 18v533l-81 18v62h296v-62l-77 -18v-65h83q257 0 257 -187q0 -91 -62 -139.5t-161 -48.5q-25 0 -73 6v62q1 0 7 -0.5t15.5 -1t18.5 -0.5q114 0 114 117q0 61 -27 87t-88 26h-84v-389l96 -18v-62h-315z" />
    <glyph glyph-name="germandbls" unicode="&#xdf;" horiz-adv-x="625" 
d="M420 -13q-72 0 -140 24l-8 127h69l21 -65q28 -13 56 -13q34 0 54.5 15.5t20.5 43.5q0 15 -5 26t-20.5 24t-21 16.5t-30.5 19.5l-42 26q-42 24 -65 51.5t-23 70.5q0 28 13.5 55t32 49.5t37.5 43.5t32.5 45t13.5 47q0 37 -21 58.5t-63 21.5q-119 0 -119 -145v-528h-194v55
l68 16v372h-67v53l67 24v21q0 91 68.5 149t180.5 58q96 0 150.5 -39.5t54.5 -103.5q0 -33 -23 -66t-50 -54.5t-50 -47t-23 -45.5q0 -21 12 -34t47 -34l42 -25q27 -16 41.5 -26.5t34 -29.5t28 -43t8.5 -54q0 -70 -48.5 -114.5t-138.5 -44.5z" />
    <glyph glyph-name="agrave" unicode="&#xe0;" horiz-adv-x="500" 
d="M171 -13q-70 0 -113 39t-43 103q0 67 42.5 98.5t128.5 48.5l117 24v43q0 55 -21 75t-89 20t-132 -10v66q88 37 193 37q90 0 132.5 -39t42.5 -121v-273q0 -21 10.5 -28.5t32.5 -7.5h22v-54q-33 -19 -91 -19q-73 0 -87 57h-5q-51 -59 -140 -59zM221 66q48 0 82 30v135
l-82 -6q-43 -3 -61 -22.5t-18 -57.5q0 -79 79 -79zM331 571l-213 82l51 93l187 -125z" />
    <glyph glyph-name="aacute" unicode="&#xe1;" horiz-adv-x="500" 
d="M171 -13q-70 0 -113 39t-43 103q0 67 42.5 98.5t128.5 48.5l117 24v43q0 55 -21 75t-89 20t-132 -10v66q88 37 193 37q90 0 132.5 -39t42.5 -121v-273q0 -21 10.5 -28.5t32.5 -7.5h22v-54q-33 -19 -91 -19q-73 0 -87 57h-5q-51 -59 -140 -59zM221 66q48 0 82 30v135
l-82 -6q-43 -3 -61 -22.5t-18 -57.5q0 -79 79 -79zM164 571l-25 50l187 125l51 -93z" />
    <glyph glyph-name="acircumflex" unicode="&#xe2;" horiz-adv-x="500" 
d="M171 -13q-70 0 -113 39t-43 103q0 67 42.5 98.5t128.5 48.5l117 24v43q0 55 -21 75t-89 20t-132 -10v66q88 37 193 37q90 0 132.5 -39t42.5 -121v-273q0 -21 10.5 -28.5t32.5 -7.5h22v-54q-33 -19 -91 -19q-73 0 -87 57h-5q-51 -59 -140 -59zM221 66q48 0 82 30v135
l-82 -6q-43 -3 -61 -22.5t-18 -57.5q0 -79 79 -79zM128 574l-26 37l116 126h61l117 -126l-27 -37l-120 71z" />
    <glyph glyph-name="atilde" unicode="&#xe3;" horiz-adv-x="500" 
d="M171 -13q-70 0 -113 39t-43 103q0 67 42.5 98.5t128.5 48.5l117 24v43q0 55 -21 75t-89 20t-132 -10v66q88 37 193 37q90 0 132.5 -39t42.5 -121v-273q0 -21 10.5 -28.5t32.5 -7.5h22v-54q-33 -19 -91 -19q-73 0 -87 57h-5q-51 -59 -140 -59zM221 66q48 0 82 30v135
l-82 -6q-43 -3 -61 -22.5t-18 -57.5q0 -79 79 -79zM138 590l-51 29q43 98 110 98q24 0 59.5 -16t48.5 -16q31 0 54 38l51 -29q-43 -98 -110 -98q-24 0 -59.5 16t-48.5 16q-31 0 -54 -38z" />
    <glyph glyph-name="adieresis" unicode="&#xe4;" horiz-adv-x="500" 
d="M171 -13q-70 0 -113 39t-43 103q0 67 42.5 98.5t128.5 48.5l117 24v43q0 55 -21 75t-89 20t-132 -10v66q88 37 193 37q90 0 132.5 -39t42.5 -121v-273q0 -21 10.5 -28.5t32.5 -7.5h22v-54q-33 -19 -91 -19q-73 0 -87 57h-5q-51 -59 -140 -59zM221 66q48 0 82 30v135
l-82 -6q-43 -3 -61 -22.5t-18 -57.5q0 -79 79 -79zM158 594q-27 0 -47 19t-20 46q0 28 19.5 46t47.5 18t48 -18t20 -46q0 -27 -20 -46t-48 -19zM340 594q-28 0 -48 19t-20 46q0 28 20 46t48 18t47.5 -18t19.5 -46t-19.5 -46.5t-47.5 -18.5z" />
    <glyph glyph-name="aring" unicode="&#xe5;" horiz-adv-x="500" 
d="M171 -13q-70 0 -113 39t-43 103q0 67 42.5 98.5t128.5 48.5l117 24v43q0 55 -21 75t-89 20t-132 -10v66q88 37 193 37q90 0 132.5 -39t42.5 -121v-273q0 -21 10.5 -28.5t32.5 -7.5h22v-54q-33 -19 -91 -19q-73 0 -87 57h-5q-51 -59 -140 -59zM221 66q48 0 82 30v135
l-82 -6q-43 -3 -61 -22.5t-18 -57.5q0 -79 79 -79zM249 622q22 0 35 13.5t13 35.5q0 21 -13.5 35t-34.5 14t-34.5 -14t-13.5 -35q0 -22 13 -35.5t35 -13.5zM249 574q-44 0 -73 28.5t-29 68.5t29 68t73 28q43 0 72.5 -28t29.5 -68t-29.5 -68.5t-72.5 -28.5z" />
    <glyph glyph-name="ae" unicode="&#xe6;" horiz-adv-x="785" 
d="M175 -13q-73 0 -116.5 38.5t-43.5 103.5q0 68 43 102.5t128 49.5l117 22v40q0 55 -21 75t-89 20t-132 -10v66q88 37 189 37q103 0 138 -62q60 62 157 62q113 0 165.5 -70.5t52.5 -212.5h-333q9 -173 159 -173q67 0 149 26v-64q-78 -49 -179 -49q-141 0 -207 87
q-31 -39 -77.5 -63.5t-99.5 -24.5zM327 118q-23 47 -26 119l-80 -6q-79 -5 -79 -86q0 -79 80 -79q53 0 105 52zM430 311l201 7q0 139 -92 139q-99 0 -109 -146z" />
    <glyph glyph-name="ccedilla" unicode="&#xe7;" horiz-adv-x="473" 
d="M173 -216v43q57 7 79.5 18t22.5 29q0 32 -80 33v92q-85 22 -129 89t-44 168q0 139 76.5 207t202.5 68q85 0 145 -20v-144h-77l-17 81q-28 8 -61 8q-137 0 -137 -187q0 -193 166 -193q81 0 133 25v-66q-65 -47 -171 -47q-22 0 -32 1v-34q62 -3 89.5 -20.5t27.5 -53.5
q0 -87 -194 -97z" />
    <glyph glyph-name="egrave" unicode="&#xe8;" horiz-adv-x="514" 
d="M285 -12q-131 0 -197 73.5t-66 202.5q0 123 69.5 195t178.5 72q115 0 168.5 -69.5t53.5 -210.5h-340q10 -176 163 -176q70 0 152 26v-64q-78 -49 -182 -49zM152 314l208 7q0 136 -95 136q-103 0 -113 -143zM351 571l-213 82l51 93l187 -125z" />
    <glyph glyph-name="eacute" unicode="&#xe9;" horiz-adv-x="514" 
d="M184 571l-25 50l187 125l51 -93zM285 -12q-131 0 -197 73.5t-66 202.5q0 123 69.5 195t178.5 72q115 0 168.5 -69.5t53.5 -210.5h-340q10 -176 163 -176q70 0 152 26v-64q-78 -49 -182 -49zM152 314l208 7q0 136 -95 136q-103 0 -113 -143z" />
    <glyph glyph-name="ecircumflex" unicode="&#xea;" horiz-adv-x="514" 
d="M147 574l-26 37l116 126h61l117 -126l-27 -37l-120 71zM285 -12q-131 0 -197 73.5t-66 202.5q0 123 69.5 195t178.5 72q115 0 168.5 -69.5t53.5 -210.5h-340q10 -176 163 -176q70 0 152 26v-64q-78 -49 -182 -49zM152 314l208 7q0 136 -95 136q-103 0 -113 -143z" />
    <glyph glyph-name="edieresis" unicode="&#xeb;" horiz-adv-x="514" 
d="M177 594q-27 0 -47 19t-20 46q0 28 19.5 46t47.5 18t48 -18t20 -46q0 -27 -20 -46t-48 -19zM359 594q-28 0 -48 19t-20 46q0 28 20 46t48 18t47.5 -18t19.5 -46t-19.5 -46.5t-47.5 -18.5zM285 -12q-131 0 -197 73.5t-66 202.5q0 123 69.5 195t178.5 72q115 0 168.5 -69.5
t53.5 -210.5h-340q10 -176 163 -176q70 0 152 26v-64q-78 -49 -182 -49zM152 314l208 7q0 136 -95 136q-103 0 -113 -143z" />
    <glyph glyph-name="igrave" unicode="&#xec;" horiz-adv-x="289" 
d="M15 0v55l67 16v360l-73 16v59l187 24l13 -7v-452l67 -16v-55h-261zM224 571l-213 82l51 93l187 -125z" />
    <glyph glyph-name="iacute" unicode="&#xed;" horiz-adv-x="289" 
d="M57 571l-25 50l187 125l51 -93zM15 0v55l67 16v360l-73 16v59l187 24l13 -7v-452l67 -16v-55h-261z" />
    <glyph glyph-name="icircumflex" unicode="&#xee;" horiz-adv-x="289" 
d="M20 574l-26 37l116 126h61l117 -126l-27 -37l-120 71zM15 0v55l67 16v360l-73 16v59l187 24l13 -7v-452l67 -16v-55h-261z" />
    <glyph glyph-name="idieresis" unicode="&#xef;" horiz-adv-x="289" 
d="M50 594q-27 0 -47 19t-20 46q0 28 19.5 46t47.5 18t48 -18t20 -46q0 -27 -20 -46t-48 -19zM232 594q-28 0 -48 19t-20 46q0 28 20 46t48 18t47.5 -18t19.5 -46t-19.5 -46.5t-47.5 -18.5zM15 0v55l67 16v360l-73 16v59l187 24l13 -7v-452l67 -16v-55h-261z" />
    <glyph glyph-name="eth" unicode="&#xf0;" horiz-adv-x="556" 
d="M444 680l-83 -37q170 -132 170 -348q0 -149 -70 -228.5t-183 -79.5q-119 0 -187.5 73t-68.5 194q0 122 66.5 194t160.5 72q56 0 98 -26h6q-37 57 -94 103l-127 -56l-23 50l100 44q-20 14 -89 55l46 60q80 -31 143 -70l113 50zM279 62q56 0 88 44t32 160q0 89 -20 151
q-42 31 -100 31q-60 0 -92.5 -42.5t-32.5 -144.5q0 -199 125 -199z" />
    <glyph glyph-name="ntilde" unicode="&#xf1;" horiz-adv-x="601" 
d="M14 0v55l68 16v360l-69 16v59l177 24l13 -7v-49h6q86 57 173 57q70 0 106 -31.5t36 -103.5v-325l67 -16v-55h-255v55l62 15v287q0 43 -21.5 60.5t-68.5 17.5q-40 0 -99 -19v-346l61 -15v-55h-256zM193 590l-51 29q43 98 110 98q24 0 59.5 -16t48.5 -16q31 0 54 38l51 -29
q-43 -98 -110 -98q-24 0 -59.5 16t-48.5 16q-31 0 -54 -38z" />
    <glyph glyph-name="ograve" unicode="&#xf2;" horiz-adv-x="558" 
d="M281 63q122 0 122 192q0 107 -35 154t-91 47q-123 0 -123 -192q0 -107 35.5 -154t91.5 -47zM280 -13q-119 0 -188.5 73t-69.5 197t73.5 199t182.5 75q119 0 188.5 -72t69.5 -196t-73.5 -200t-182.5 -76zM362 571l-213 82l51 93l187 -125z" />
    <glyph glyph-name="oacute" unicode="&#xf3;" horiz-adv-x="558" 
d="M194 571l-25 50l187 125l51 -93zM281 63q122 0 122 192q0 107 -35 154t-91 47q-123 0 -123 -192q0 -107 35.5 -154t91.5 -47zM280 -13q-119 0 -188.5 73t-69.5 197t73.5 199t182.5 75q119 0 188.5 -72t69.5 -196t-73.5 -200t-182.5 -76z" />
    <glyph glyph-name="ocircumflex" unicode="&#xf4;" horiz-adv-x="558" 
d="M158 574l-26 37l116 126h61l117 -126l-27 -37l-120 71zM281 63q122 0 122 192q0 107 -35 154t-91 47q-123 0 -123 -192q0 -107 35.5 -154t91.5 -47zM280 -13q-119 0 -188.5 73t-69.5 197t73.5 199t182.5 75q119 0 188.5 -72t69.5 -196t-73.5 -200t-182.5 -76z" />
    <glyph glyph-name="otilde" unicode="&#xf5;" horiz-adv-x="558" 
d="M281 63q122 0 122 192q0 107 -35 154t-91 47q-123 0 -123 -192q0 -107 35.5 -154t91.5 -47zM280 -13q-119 0 -188.5 73t-69.5 197t73.5 199t182.5 75q119 0 188.5 -72t69.5 -196t-73.5 -200t-182.5 -76zM168 590l-51 29q43 98 110 98q24 0 59.5 -16t48.5 -16q31 0 54 38
l51 -29q-43 -98 -110 -98q-24 0 -59.5 16t-48.5 16q-31 0 -54 -38z" />
    <glyph glyph-name="odieresis" unicode="&#xf6;" horiz-adv-x="558" 
d="M188 594q-27 0 -47 19t-20 46q0 28 19.5 46t47.5 18t48 -18t20 -46q0 -27 -20 -46t-48 -19zM370 594q-28 0 -48 19t-20 46q0 28 20 46t48 18t47.5 -18t19.5 -46t-19.5 -46.5t-47.5 -18.5zM281 63q122 0 122 192q0 107 -35 154t-91 47q-123 0 -123 -192q0 -107 35.5 -154
t91.5 -47zM280 -13q-119 0 -188.5 73t-69.5 197t73.5 199t182.5 75q119 0 188.5 -72t69.5 -196t-73.5 -200t-182.5 -76z" />
    <glyph glyph-name="divide" unicode="&#xf7;" horiz-adv-x="531" 
d="M265 91q-31 0 -52.5 21.5t-21.5 49.5q0 30 21.5 51t52.5 21t52.5 -21t21.5 -51q0 -28 -21.5 -49.5t-52.5 -21.5zM53 299v83h425v-83h-425zM265 446q-31 0 -52.5 21t-21.5 50q0 30 21.5 51t52.5 21t52.5 -21t21.5 -51q0 -29 -21.5 -50t-52.5 -21z" />
    <glyph glyph-name="oslash" unicode="&#xf8;" horiz-adv-x="558" 
d="M67 -28l-51 38l59 69q-53 70 -53 178q0 124 73.5 199t182.5 75q90 0 153 -43l50 58l50 -39l-53 -61q58 -72 58 -183q0 -124 -73.5 -200t-182.5 -76q-95 0 -159 47zM281 62q126 0 126 193q0 54 -10 97l-213 -245q31 -45 97 -45zM150 264q0 -50 8 -90l211 243
q-32 40 -92 40q-127 0 -127 -193z" />
    <glyph glyph-name="ugrave" unicode="&#xf9;" horiz-adv-x="601" 
d="M223 -11q-149 0 -149 150v298l-69 16v58l181 18l13 -7v-349q0 -49 18 -70t67 -21q48 0 105 24v331l-66 16v58l179 18l13 -7v-437l68 -16v-56l-175 -23l-13 6v57h-6q-66 -64 -166 -64zM376 571l-213 82l51 93l187 -125z" />
    <glyph glyph-name="uacute" unicode="&#xfa;" horiz-adv-x="601" 
d="M209 571l-25 50l187 125l51 -93zM223 -11q-149 0 -149 150v298l-69 16v58l181 18l13 -7v-349q0 -49 18 -70t67 -21q48 0 105 24v331l-66 16v58l179 18l13 -7v-437l68 -16v-56l-175 -23l-13 6v57h-6q-66 -64 -166 -64z" />
    <glyph glyph-name="ucircumflex" unicode="&#xfb;" horiz-adv-x="601" 
d="M172 574l-26 37l116 126h61l117 -126l-27 -37l-120 71zM223 -11q-149 0 -149 150v298l-69 16v58l181 18l13 -7v-349q0 -49 18 -70t67 -21q48 0 105 24v331l-66 16v58l179 18l13 -7v-437l68 -16v-56l-175 -23l-13 6v57h-6q-66 -64 -166 -64z" />
    <glyph glyph-name="udieresis" unicode="&#xfc;" horiz-adv-x="601" 
d="M202 594q-27 0 -47 19t-20 46q0 28 19.5 46t47.5 18t48 -18t20 -46q0 -27 -20 -46t-48 -19zM384 594q-28 0 -48 19t-20 46q0 28 20 46t48 18t47.5 -18t19.5 -46t-19.5 -46.5t-47.5 -18.5zM223 -11q-149 0 -149 150v298l-69 16v58l181 18l13 -7v-349q0 -49 18 -70t67 -21
q48 0 105 24v331l-66 16v58l179 18l13 -7v-437l68 -16v-56l-175 -23l-13 6v57h-6q-66 -64 -166 -64z" />
    <glyph glyph-name="yacute" unicode="&#xfd;" horiz-adv-x="555" 
d="M141 -201q-49 0 -85 18v76q35 -8 53 -8q39 0 63 15.5t40 52.5l24 59l-183 438l-52 14v57h248v-57l-61 -13l114 -298h4l101 297l-59 14v57h205v-57l-51 -14l-196 -519q-26 -69 -63 -100.5t-102 -31.5zM215 571l-25 50l187 125l51 -93z" />
    <glyph glyph-name="thorn" unicode="&#xfe;" horiz-adv-x="572" 
d="M-2 -199v54l68 14v779l-69 16v60l181 23l14 -6v-263h5q71 54 153 54q84 0 140 -57.5t56 -193.5q0 -146 -72 -219.5t-194 -73.5q-53 0 -88 7v-125l80 -15v-54h-274zM281 62q65 0 99 45t34 154q0 96 -31 136.5t-94 40.5q-50 0 -97 -21v-329q39 -26 89 -26z" />
    <glyph glyph-name="ydieresis" unicode="&#xff;" horiz-adv-x="555" 
d="M141 -201q-49 0 -85 18v76q35 -8 53 -8q39 0 63 15.5t40 52.5l24 59l-183 438l-52 14v57h248v-57l-61 -13l114 -298h4l101 297l-59 14v57h205v-57l-51 -14l-196 -519q-26 -69 -63 -100.5t-102 -31.5zM208 594q-27 0 -47 19t-20 46q0 28 19.5 46t47.5 18t48 -18t20 -46
q0 -27 -20 -46t-48 -19zM390 594q-28 0 -48 19t-20 46q0 28 20 46t48 18t47.5 -18t19.5 -46t-19.5 -46.5t-47.5 -18.5z" />
    <glyph glyph-name="Amacron" unicode="&#x100;" horiz-adv-x="682" 
d="M1 0v63l64 17l217 613h123l212 -613l64 -17v-63h-288v62l74 18l-44 137h-216l-46 -137l76 -18v-62h-236zM315 541l-86 -256h173l-82 256h-5zM211 748v80h261v-80h-261z" />
    <glyph glyph-name="amacron" unicode="&#x101;" horiz-adv-x="500" 
d="M171 -13q-70 0 -113 39t-43 103q0 67 42.5 98.5t128.5 48.5l117 24v43q0 55 -21 75t-89 20t-132 -10v66q88 37 193 37q90 0 132.5 -39t42.5 -121v-273q0 -21 10.5 -28.5t32.5 -7.5h22v-54q-33 -19 -91 -19q-73 0 -87 57h-5q-51 -59 -140 -59zM221 66q48 0 82 30v135
l-82 -6q-43 -3 -61 -22.5t-18 -57.5q0 -79 79 -79zM118 602v80h261v-80h-261z" />
    <glyph glyph-name="Abreve" unicode="&#x102;" horiz-adv-x="682" 
d="M1 0v63l64 17l217 613h123l212 -613l64 -17v-63h-288v62l74 18l-44 137h-216l-46 -137l76 -18v-62h-236zM315 541l-86 -256h173l-82 256h-5zM342 732q-61 0 -98 35t-42 89h75q11 -41 65 -41t65 41h75q-4 -54 -41.5 -89t-98.5 -35z" />
    <glyph glyph-name="abreve" unicode="&#x103;" horiz-adv-x="500" 
d="M171 -13q-70 0 -113 39t-43 103q0 67 42.5 98.5t128.5 48.5l117 24v43q0 55 -21 75t-89 20t-132 -10v66q88 37 193 37q90 0 132.5 -39t42.5 -121v-273q0 -21 10.5 -28.5t32.5 -7.5h22v-54q-33 -19 -91 -19q-73 0 -87 57h-5q-51 -59 -140 -59zM221 66q48 0 82 30v135
l-82 -6q-43 -3 -61 -22.5t-18 -57.5q0 -79 79 -79zM244 583q-61 0 -100.5 38t-41.5 96h75q11 -53 67 -53t68 53h74q-2 -58 -41.5 -96t-100.5 -38z" />
    <glyph glyph-name="Aogonek" unicode="&#x104;" horiz-adv-x="682" 
d="M571 -200q-57 0 -84.5 22.5t-27.5 60.5q0 66 83 117h-149v62l74 18l-44 137h-216l-46 -137l76 -18v-62h-236v63l64 17l217 613h123l212 -613l64 -17v-63h-65q-53 -62 -53 -100t46 -38q13 0 29 2v-53q-31 -11 -67 -11zM229 285h173l-82 256h-5z" />
    <glyph glyph-name="aogonek" unicode="&#x105;" horiz-adv-x="500" 
d="M408 -200q-57 0 -84.5 22.5t-27.5 60.5q0 66 86 107q-54 8 -66 56h-5q-51 -59 -140 -59q-70 0 -113 39t-43 103q0 67 42.5 98.5t128.5 48.5l117 24v43q0 55 -21 75t-89 20t-132 -10v66q88 37 193 37q90 0 132.5 -39t42.5 -121v-273q0 -21 10.5 -28.5t32.5 -7.5h22v-54
q-42 -16 -67.5 -46t-25.5 -62q0 -38 45 -38q13 0 29 2v-53q-31 -11 -67 -11zM221 66q48 0 82 30v135l-82 -6q-43 -3 -61 -22.5t-18 -57.5q0 -79 79 -79z" />
    <glyph glyph-name="Cacute" unicode="&#x106;" horiz-adv-x="621" 
d="M357 -12q-154 0 -243 85t-89 266q0 99 29 172t79.5 114t110.5 60.5t130 19.5q121 0 201 -28l6 -183h-74l-38 107q-51 22 -104 22q-193 0 -193 -264q0 -150 47.5 -219t153.5 -69q57 0 102 25l37 114h75l-7 -185q-84 -37 -223 -37zM481 787l-219 -61l-20 52l198 105z" />
    <glyph glyph-name="cacute" unicode="&#x107;" horiz-adv-x="473" 
d="M194 571l-25 50l187 125l51 -93zM282 -12q-126 0 -193 71.5t-67 196.5q0 139 76.5 207t202.5 68q85 0 145 -20v-144h-77l-17 81q-28 8 -61 8q-137 0 -137 -187q0 -193 166 -193q81 0 133 25v-66q-65 -47 -171 -47z" />
    <glyph glyph-name="Ccircumflex" unicode="&#x108;" horiz-adv-x="621" 
d="M234 728l-23 39l119 105h61l120 -105l-23 -39l-127 54zM357 -12q-154 0 -243 85t-89 266q0 99 29 172t79.5 114t110.5 60.5t130 19.5q121 0 201 -28l6 -183h-74l-38 107q-51 22 -104 22q-193 0 -193 -264q0 -150 47.5 -219t153.5 -69q57 0 102 25l37 114h75l-7 -185
q-84 -37 -223 -37z" />
    <glyph glyph-name="ccircumflex" unicode="&#x109;" horiz-adv-x="473" 
d="M158 574l-26 37l116 126h61l117 -126l-27 -37l-120 71zM282 -12q-126 0 -193 71.5t-67 196.5q0 139 76.5 207t202.5 68q85 0 145 -20v-144h-77l-17 81q-28 8 -61 8q-137 0 -137 -187q0 -193 166 -193q81 0 133 25v-66q-65 -47 -171 -47z" />
    <glyph glyph-name="Cdotaccent" unicode="&#x10a;" horiz-adv-x="621" 
d="M357 -12q-154 0 -243 85t-89 266q0 99 29 172t79.5 114t110.5 60.5t130 19.5q121 0 201 -28l6 -183h-74l-38 107q-51 22 -104 22q-193 0 -193 -264q0 -150 47.5 -219t153.5 -69q57 0 102 25l37 114h75l-7 -185q-84 -37 -223 -37zM354 733q-30 0 -51.5 20t-21.5 49
q0 30 21 49t52 19q30 0 51 -19t21 -49q0 -29 -21 -49t-51 -20z" />
    <glyph glyph-name="cdotaccent" unicode="&#x10b;" horiz-adv-x="473" 
d="M282 -12q-126 0 -193 71.5t-67 196.5q0 139 76.5 207t202.5 68q85 0 145 -20v-144h-77l-17 81q-28 8 -61 8q-137 0 -137 -187q0 -193 166 -193q81 0 133 25v-66q-65 -47 -171 -47zM280 595q-30 0 -51.5 19.5t-21.5 48.5q0 30 21.5 49.5t51.5 19.5t51 -19.5t21 -49.5
q0 -29 -21 -48.5t-51 -19.5z" />
    <glyph glyph-name="Ccaron" unicode="&#x10c;" horiz-adv-x="621" 
d="M483 879l23 -38l-120 -106h-61l-119 106l23 38l127 -54zM357 -12q-154 0 -243 85t-89 266q0 99 29 172t79.5 114t110.5 60.5t130 19.5q121 0 201 -28l6 -183h-74l-38 107q-51 22 -104 22q-193 0 -193 -264q0 -150 47.5 -219t153.5 -69q57 0 102 25l37 114h75l-7 -185
q-84 -37 -223 -37z" />
    <glyph glyph-name="ccaron" unicode="&#x10d;" horiz-adv-x="473" 
d="M249 578l-116 126l26 37l121 -71l120 71l27 -37l-117 -126h-61zM282 -12q-126 0 -193 71.5t-67 196.5q0 139 76.5 207t202.5 68q85 0 145 -20v-144h-77l-17 81q-28 8 -61 8q-137 0 -137 -187q0 -193 166 -193q81 0 133 25v-66q-65 -47 -171 -47z" />
    <glyph glyph-name="Dcaron" unicode="&#x10e;" horiz-adv-x="690" 
d="M459 879l23 -38l-120 -106h-61l-119 106l23 38l127 -54zM19 0v62l81 18v533l-80 18v62h299q176 0 261 -82t85 -249q0 -179 -86 -270.5t-252 -91.5h-308zM239 78h84q102 0 149 59.5t47 209.5q0 86 -13.5 140.5t-44 82t-66 36.5t-92.5 9h-64v-537z" />
    <glyph glyph-name="dcaron" unicode="&#x10f;" horiz-adv-x="586" 
d="M604 565l-59 10l14 170l106 -17zM240 -12q-39 0 -74.5 13t-68 41.5t-52 81.5t-19.5 124q0 143 70.5 213t191.5 70q46 0 92 -14v132l-75 16v59l187 23l14 -6v-656l69 -16v-56l-171 -23l-13 6v52h-6q-48 -60 -145 -60zM284 80q50 0 96 24v325q-39 27 -89 27
q-65 0 -99.5 -43.5t-34.5 -150.5q0 -96 32 -139t95 -43z" />
    <glyph glyph-name="Dcroat" unicode="&#x110;" horiz-adv-x="690" 
d="M27 310v82h73v221l-80 18v62h299q176 0 261 -82t85 -249q0 -179 -86 -270.5t-252 -91.5h-308v62l81 18v230h-73zM239 78h84q102 0 149 59.5t47 209.5q0 86 -13.5 140.5t-44 82t-66 36.5t-92.5 9h-64v-223h155v-82h-155v-232z" />
    <glyph glyph-name="dcroat" unicode="&#x111;" horiz-adv-x="586" 
d="M219 576v46h161v27l-75 16v59l187 23l14 -6v-119h67v-46h-67v-491l69 -16v-56l-171 -23l-13 6v52h-6q-48 -60 -145 -60q-39 0 -74.5 13t-68 41.5t-52 81.5t-19.5 124q0 143 70.5 213t191.5 70q46 0 92 -14v59h-161zM284 80q50 0 96 24v325q-39 27 -89 27
q-65 0 -99.5 -43.5t-34.5 -150.5q0 -96 32 -139t95 -43z" />
    <glyph glyph-name="Emacron" unicode="&#x112;" horiz-adv-x="606" 
d="M19 0v62l81 18v533l-80 18v62h539l10 -186h-72l-40 110h-219v-225h105l24 83h61v-240h-61l-24 85h-105v-244h226l52 136h72l-11 -212h-558zM185 748v80h261v-80h-261z" />
    <glyph glyph-name="emacron" unicode="&#x113;" horiz-adv-x="514" 
d="M285 -12q-131 0 -197 73.5t-66 202.5q0 123 69.5 195t178.5 72q115 0 168.5 -69.5t53.5 -210.5h-340q10 -176 163 -176q70 0 152 26v-64q-78 -49 -182 -49zM152 314l208 7q0 136 -95 136q-103 0 -113 -143zM137 602v80h261v-80h-261z" />
    <glyph glyph-name="Ebreve" unicode="&#x114;" horiz-adv-x="606" 
d="M19 0v62l81 18v533l-80 18v62h539l10 -186h-72l-40 110h-219v-225h105l24 83h61v-240h-61l-24 85h-105v-244h226l52 136h72l-11 -212h-558zM316 732q-61 0 -98 35t-42 89h75q11 -41 65 -41t65 41h75q-4 -54 -41.5 -89t-98.5 -35z" />
    <glyph glyph-name="ebreve" unicode="&#x115;" horiz-adv-x="514" 
d="M285 -12q-131 0 -197 73.5t-66 202.5q0 123 69.5 195t178.5 72q115 0 168.5 -69.5t53.5 -210.5h-340q10 -176 163 -176q70 0 152 26v-64q-78 -49 -182 -49zM152 314l208 7q0 136 -95 136q-103 0 -113 -143zM268 583q-61 0 -100.5 38t-41.5 96h75q11 -53 67 -53t68 53h74
q-2 -58 -41.5 -96t-100.5 -38z" />
    <glyph glyph-name="Edotaccent" unicode="&#x116;" horiz-adv-x="606" 
d="M316 733q-30 0 -51.5 20t-21.5 49q0 30 21 49t52 19q30 0 51 -19t21 -49q0 -29 -21 -49t-51 -20zM19 0v62l81 18v533l-80 18v62h539l10 -186h-72l-40 110h-219v-225h105l24 83h61v-240h-61l-24 85h-105v-244h226l52 136h72l-11 -212h-558z" />
    <glyph glyph-name="edotaccent" unicode="&#x117;" horiz-adv-x="514" 
d="M285 -12q-131 0 -197 73.5t-66 202.5q0 123 69.5 195t178.5 72q115 0 168.5 -69.5t53.5 -210.5h-340q10 -176 163 -176q70 0 152 26v-64q-78 -49 -182 -49zM152 314l208 7q0 136 -95 136q-103 0 -113 -143zM269 595q-30 0 -51.5 19.5t-21.5 48.5q0 30 21.5 49.5
t51.5 19.5t51 -19.5t21 -49.5q0 -29 -21 -48.5t-51 -19.5z" />
    <glyph glyph-name="Eogonek" unicode="&#x118;" horiz-adv-x="606" 
d="M19 0v62l81 18v533l-80 18v62h539l10 -186h-72l-40 110h-219v-225h105l24 83h61v-240h-61l-24 85h-105v-244h226l52 136h72l-11 -212h-65q-53 -62 -53 -100t46 -38q13 0 29 2v-53q-31 -11 -67 -11q-57 0 -84.5 22.5t-27.5 60.5q0 68 87 117h-423z" />
    <glyph glyph-name="eogonek" unicode="&#x119;" horiz-adv-x="514" 
d="M405 -189q-31 -11 -67 -11q-57 0 -84.5 22.5t-27.5 60.5q0 64 88 106q-7 -1 -29 -1q-131 0 -197 73.5t-66 202.5q0 123 69.5 195t178.5 72q115 0 168.5 -69.5t53.5 -210.5h-340q10 -176 163 -176q70 0 152 26v-64q-136 -69 -136 -137q0 -38 46 -38q12 0 28 2v-53z
M265 457q-103 0 -113 -143l208 7q0 136 -95 136z" />
    <glyph glyph-name="Ecaron" unicode="&#x11a;" horiz-adv-x="606" 
d="M443 879l23 -38l-120 -106h-61l-119 106l23 38l127 -54zM19 0v62l81 18v533l-80 18v62h539l10 -186h-72l-40 110h-219v-225h105l24 83h61v-240h-61l-24 85h-105v-244h226l52 136h72l-11 -212h-558z" />
    <glyph glyph-name="ecaron" unicode="&#x11b;" horiz-adv-x="514" 
d="M237 578l-116 126l26 37l121 -71l120 71l27 -37l-117 -126h-61zM285 -12q-131 0 -197 73.5t-66 202.5q0 123 69.5 195t178.5 72q115 0 168.5 -69.5t53.5 -210.5h-340q10 -176 163 -176q70 0 152 26v-64q-78 -49 -182 -49zM152 314l208 7q0 136 -95 136q-103 0 -113 -143z
" />
    <glyph glyph-name="Gcircumflex" unicode="&#x11c;" horiz-adv-x="676" 
d="M240 728l-23 39l119 105h61l120 -105l-23 -39l-127 54zM380 -13q-355 0 -355 352q0 99 29.5 172t81 114t113.5 60.5t135 19.5q125 0 205 -28l8 -183h-74l-39 106q-43 23 -112 23q-100 0 -150 -68t-50 -196q0 -150 47.5 -220t154.5 -70q45 0 92 15v163l-81 17v62h281v-62
l-67 -17v-226q-93 -34 -219 -34z" />
    <glyph glyph-name="gcircumflex" unicode="&#x11d;" horiz-adv-x="526" 
d="M142 574l-26 37l116 126h61l117 -126l-27 -37l-120 71zM231 -205q-112 0 -169 35.5t-57 86.5q0 76 103 114v5q-60 21 -60 75q0 58 70 110q-76 45 -76 134q0 83 59 129.5t152 46.5q59 0 105 -17l157 22v-83l-86 5q35 -38 35 -92q0 -83 -59 -129.5t-152 -46.5q-45 0 -84 11
q-22 -21 -22 -47q0 -29 37 -29h172q71 0 114.5 -31.5t43.5 -102.5q0 -84 -73 -140t-210 -56zM241 -131q80 0 120 26t40 65q0 30 -19 42.5t-60 12.5h-152q-47 -21 -47 -75q0 -71 118 -71zM253 256q42 0 66 25.5t24 78.5q0 106 -90 106q-41 0 -65 -26t-24 -78q0 -106 89 -106z
" />
    <glyph glyph-name="Gbreve" unicode="&#x11e;" horiz-adv-x="676" 
d="M360 732q-61 0 -98 35t-42 89h75q11 -41 65 -41t65 41h75q-4 -54 -41.5 -89t-98.5 -35zM380 -13q-355 0 -355 352q0 99 29.5 172t81 114t113.5 60.5t135 19.5q125 0 205 -28l8 -183h-74l-39 106q-43 23 -112 23q-100 0 -150 -68t-50 -196q0 -150 47.5 -220t154.5 -70
q45 0 92 15v163l-81 17v62h281v-62l-67 -17v-226q-93 -34 -219 -34z" />
    <glyph glyph-name="gbreve" unicode="&#x11f;" horiz-adv-x="526" 
d="M231 -205q-112 0 -169 35.5t-57 86.5q0 76 103 114v5q-60 21 -60 75q0 58 70 110q-76 45 -76 134q0 83 59 129.5t152 46.5q59 0 105 -17l157 22v-83l-86 5q35 -38 35 -92q0 -83 -59 -129.5t-152 -46.5q-45 0 -84 11q-22 -21 -22 -47q0 -29 37 -29h172q71 0 114.5 -31.5
t43.5 -102.5q0 -84 -73 -140t-210 -56zM241 -131q80 0 120 26t40 65q0 30 -19 42.5t-60 12.5h-152q-47 -21 -47 -75q0 -71 118 -71zM253 256q42 0 66 25.5t24 78.5q0 106 -90 106q-41 0 -65 -26t-24 -78q0 -106 89 -106zM262 583q-61 0 -100.5 38t-41.5 96h75q11 -53 67 -53
t68 53h74q-2 -58 -41.5 -96t-100.5 -38z" />
    <glyph glyph-name="Gdotaccent" unicode="&#x120;" horiz-adv-x="676" 
d="M360 733q-30 0 -51.5 20t-21.5 49q0 30 21 49t52 19q30 0 51 -19t21 -49q0 -29 -21 -49t-51 -20zM380 -13q-355 0 -355 352q0 99 29.5 172t81 114t113.5 60.5t135 19.5q125 0 205 -28l8 -183h-74l-39 106q-43 23 -112 23q-100 0 -150 -68t-50 -196q0 -150 47.5 -220
t154.5 -70q45 0 92 15v163l-81 17v62h281v-62l-67 -17v-226q-93 -34 -219 -34z" />
    <glyph glyph-name="gdotaccent" unicode="&#x121;" horiz-adv-x="526" 
d="M231 -205q-112 0 -169 35.5t-57 86.5q0 76 103 114v5q-60 21 -60 75q0 58 70 110q-76 45 -76 134q0 83 59 129.5t152 46.5q59 0 105 -17l157 22v-83l-86 5q35 -38 35 -92q0 -83 -59 -129.5t-152 -46.5q-45 0 -84 11q-22 -21 -22 -47q0 -29 37 -29h172q71 0 114.5 -31.5
t43.5 -102.5q0 -84 -73 -140t-210 -56zM241 -131q80 0 120 26t40 65q0 30 -19 42.5t-60 12.5h-152q-47 -21 -47 -75q0 -71 118 -71zM253 256q42 0 66 25.5t24 78.5q0 106 -90 106q-41 0 -65 -26t-24 -78q0 -106 89 -106zM263 595q-30 0 -51.5 19.5t-21.5 48.5
q0 30 21.5 49.5t51.5 19.5t51 -19.5t21 -49.5q0 -29 -21 -48.5t-51 -19.5z" />
    <glyph glyph-name="Gcommaaccent" unicode="&#x122;" horiz-adv-x="676" 
d="M288 -185q13 58 13 145h124q-10 -92 -51 -145h-86zM380 -13q-355 0 -355 352q0 99 29.5 172t81 114t113.5 60.5t135 19.5q125 0 205 -28l8 -183h-74l-39 106q-43 23 -112 23q-100 0 -150 -68t-50 -196q0 -150 47.5 -220t154.5 -70q45 0 92 15v163l-81 17v62h281v-62
l-67 -17v-226q-93 -34 -219 -34z" />
    <glyph glyph-name="gcommaaccent" unicode="&#x123;" horiz-adv-x="526" 
d="M337 746q-13 -56 -13 -145h-124q11 93 51 145h86zM231 -205q-112 0 -169 35.5t-57 86.5q0 76 103 114v5q-60 21 -60 75q0 58 70 110q-76 45 -76 134q0 83 59 129.5t152 46.5q59 0 105 -17l157 22v-83l-86 5q35 -38 35 -92q0 -83 -59 -129.5t-152 -46.5q-45 0 -84 11
q-22 -21 -22 -47q0 -29 37 -29h172q71 0 114.5 -31.5t43.5 -102.5q0 -84 -73 -140t-210 -56zM241 -131q80 0 120 26t40 65q0 30 -19 42.5t-60 12.5h-152q-47 -21 -47 -75q0 -71 118 -71zM253 256q42 0 66 25.5t24 78.5q0 106 -90 106q-41 0 -65 -26t-24 -78q0 -106 89 -106z
" />
    <glyph glyph-name="Hcircumflex" unicode="&#x124;" horiz-adv-x="741" 
d="M19 0v62l81 18v533l-81 18v62h296v-62l-77 -18v-222h267v222l-78 18v62h295v-62l-79 -18v-533l80 -18v-62h-296v62l78 17v239h-267v-239l77 -17v-62h-296zM244 728l-23 39l119 105h61l120 -105l-23 -39l-127 54z" />
    <glyph glyph-name="hcircumflex" unicode="&#x125;" horiz-adv-x="600" 
d="M14 0v55l68 16v578l-69 16v59l183 23l13 -7v-264h5q86 55 168 55q70 0 106 -31.5t36 -103.5v-325l67 -16v-55h-255v55l62 15v287q0 44 -21.5 61.5t-68.5 17.5q-37 0 -99 -20v-346l61 -15v-55h-256zM177 782l-23 39l119 105h61l120 -105l-23 -39l-127 54z" />
    <glyph glyph-name="Hbar" unicode="&#x126;" horiz-adv-x="741" 
d="M17 476v56h83v81l-81 18v62h296v-61l-77 -18v-82h267v82l-78 18v61h295v-62l-79 -18v-81h81v-56h-81v-396l80 -18v-62h-296v62l78 17v239h-267v-239l77 -17v-62h-296v62l81 18v396h-83zM238 388h267v88h-267v-88z" />
    <glyph glyph-name="hbar" unicode="&#x127;" horiz-adv-x="600" 
d="M4 576v46h78v27l-69 16v59l183 23l13 -7v-118h152v-46h-152v-100h5q86 55 168 55q70 0 106 -31.5t36 -103.5v-325l67 -16v-55h-255v55l62 15v287q0 44 -21.5 61.5t-68.5 17.5q-37 0 -99 -20v-346l61 -15v-55h-256v55l68 16v505h-78z" />
    <glyph glyph-name="Itilde" unicode="&#x128;" horiz-adv-x="338" 
d="M19 0v62l81 18v533l-81 18v62h300v-62l-80 -18v-533l80 -18v-62h-300zM57 732l-50 29q41 97 109 97q24 0 61 -15.5t50 -15.5q31 0 54 38l51 -28q-42 -98 -110 -98q-24 0 -61 15.5t-50 15.5q-30 0 -54 -38z" />
    <glyph glyph-name="itilde" unicode="&#x129;" horiz-adv-x="289" 
d="M15 0v55l67 16v360l-73 16v59l187 24l13 -7v-452l67 -16v-55h-261zM30 590l-51 29q43 98 110 98q24 0 59.5 -16t48.5 -16q31 0 54 38l51 -29q-43 -98 -110 -98q-24 0 -59.5 16t-48.5 16q-31 0 -54 -38z" />
    <glyph glyph-name="Imacron" unicode="&#x12a;" horiz-adv-x="338" 
d="M19 0v62l81 18v533l-81 18v62h300v-62l-80 -18v-533l80 -18v-62h-300zM38 748v80h261v-80h-261z" />
    <glyph glyph-name="imacron" unicode="&#x12b;" horiz-adv-x="289" 
d="M15 0v55l67 16v360l-73 16v59l187 24l13 -7v-452l67 -16v-55h-261zM8 602v80h245v-80h-245z" />
    <glyph glyph-name="Ibreve" unicode="&#x12c;" horiz-adv-x="338" 
d="M19 0v62l81 18v533l-81 18v62h300v-62l-80 -18v-533l80 -18v-62h-300zM169 732q-61 0 -98 35t-42 89h75q11 -41 65 -41t65 41h75q-4 -54 -41.5 -89t-98.5 -35z" />
    <glyph glyph-name="ibreve" unicode="&#x12d;" horiz-adv-x="289" 
d="M15 0v55l67 16v360l-73 16v59l187 24l13 -7v-452l67 -16v-55h-261zM140 583q-61 0 -100.5 38t-41.5 96h75q11 -53 67 -53t68 53h74q-2 -58 -41.5 -96t-100.5 -38z" />
    <glyph glyph-name="Iogonek" unicode="&#x12e;" horiz-adv-x="338" 
d="M19 0v62l81 18v533l-81 18v62h300v-62l-80 -18v-533l80 -18v-62h-78q-45 -54 -45 -100q0 -38 45 -38q13 0 29 2v-53q-31 -11 -67 -11q-57 0 -84.5 22.5t-27.5 60.5q0 65 75 117h-147z" />
    <glyph glyph-name="iogonek" unicode="&#x12f;" horiz-adv-x="289" 
d="M15 0v55l67 16v360l-73 16v59l187 24l13 -7v-452l67 -16v-55h-63q-50 -62 -50 -100t46 -38q13 0 29 2v-53q-31 -11 -68 -11q-56 0 -83.5 22.5t-27.5 60.5q0 65 86 117h-130zM141 595q-30 0 -51.5 19.5t-21.5 48.5q0 30 21.5 49.5t51.5 19.5q31 0 52.5 -19.5t21.5 -49.5
q0 -29 -21.5 -48.5t-52.5 -19.5z" />
    <glyph glyph-name="Idotaccent" unicode="&#x130;" horiz-adv-x="338" 
d="M19 0v62l81 18v533l-81 18v62h300v-62l-80 -18v-533l80 -18v-62h-300zM169 733q-30 0 -51.5 20t-21.5 49q0 30 21 49t52 19q30 0 51 -19t21 -49q0 -29 -21 -49t-51 -20z" />
    <glyph glyph-name="dotlessi" unicode="&#x131;" horiz-adv-x="289" 
d="M15 0v55l67 16v360l-73 16v59l187 24l13 -7v-452l67 -16v-55h-261z" />
    <glyph glyph-name="IJ" unicode="&#x132;" horiz-adv-x="756" 
d="M19 0v62l81 18v533l-81 18v62h300v-62l-80 -18v-533l80 -18v-62h-300zM467 -9q-67 0 -119 25v80q52 -14 88 -14q45 0 68.5 22t23.5 79v430l-80 18v62h298v-62l-79 -18v-441q0 -88 -51 -134.5t-149 -46.5z" />
    <glyph glyph-name="ij" unicode="&#x133;" horiz-adv-x="557" 
d="M15 0v55l67 16v360l-73 16v59l187 24l13 -7v-452l67 -16v-55h-261zM141 595q-30 0 -51.5 19.5t-21.5 48.5q0 30 21.5 49.5t51.5 19.5q31 0 52.5 -19.5t21.5 -49.5q0 -29 -21.5 -48.5t-52.5 -19.5zM320 -197q-44 0 -82 15v66q21 -3 45 -3q40 0 61.5 19.5t21.5 67.5v463
l-74 16v59l187 24l13 -7v-560q0 -160 -172 -160zM424 595q-30 0 -51.5 19.5t-21.5 48.5q0 30 21.5 49.5t51.5 19.5q31 0 52.5 -19.5t21.5 -49.5q0 -29 -21.5 -48.5t-52.5 -19.5z" />
    <glyph glyph-name="Jcircumflex" unicode="&#x134;" horiz-adv-x="430" 
d="M142 728l-23 39l119 105h61l120 -105l-23 -39l-127 54zM141 -9q-74 0 -130 27v79q56 -15 97 -15q46 0 70 22t24 79v430l-81 18v62h299v-62l-79 -18v-441q0 -88 -51.5 -134.5t-148.5 -46.5z" />
    <glyph glyph-name="jcircumflex" unicode="&#x135;" horiz-adv-x="278" 
d="M41 -197q-44 0 -82 15v66q21 -3 45 -3q40 0 61.5 19.5t21.5 67.5v463l-74 16v59l187 24l13 -7v-560q0 -160 -172 -160zM17 574l-26 37l116 126h61l117 -126l-27 -37l-120 71z" />
    <glyph glyph-name="Kcommaaccent" unicode="&#x136;" horiz-adv-x="684" 
d="M294 -185q13 58 13 145h124q-10 -92 -51 -145h-86zM494 0l-220 310v47l210 256l-64 18v62h239v-62l-64 -18l-205 -241l212 -292l68 -18v-62h-176zM19 0v62l81 18v533l-81 18v62h299v-62l-80 -17v-535l80 -17v-62h-299z" />
    <glyph glyph-name="kcommaaccent" unicode="&#x137;" horiz-adv-x="558" 
d="M221 -185q13 58 13 145h124q-10 -92 -51 -145h-86zM404 0l-167 240v34l138 176l-58 14v57h220v-57l-68 -15l-127 -153l157 -225l56 -16v-55h-151zM14 0v55l68 15v579l-69 16v59l182 23l14 -7v-671l65 -14v-55h-260z" />
    <glyph glyph-name="Lacute" unicode="&#x139;" horiz-adv-x="573" 
d="M295 787l-219 -61l-20 52l198 105zM19 0v62l81 18v533l-81 18v62h307v-62l-88 -17v-537h202l49 157h71l-13 -234h-528z" />
    <glyph glyph-name="lacute" unicode="&#x13a;" horiz-adv-x="290" 
d="M275 834l-219 -61l-20 52l198 105zM14 0v55l69 16v578l-75 16v59l188 23l13 -7v-669l68 -16v-55h-263z" />
    <glyph glyph-name="Lcommaaccent" unicode="&#x13b;" horiz-adv-x="573" 
d="M223 -185q13 58 13 145h124q-10 -92 -51 -145h-86zM19 0v62l81 18v533l-81 18v62h307v-62l-88 -17v-537h202l49 157h71l-13 -234h-528z" />
    <glyph glyph-name="lcommaaccent" unicode="&#x13c;" horiz-adv-x="290" 
d="M71 -185q13 58 13 145h124q-10 -92 -51 -145h-86zM14 0v55l69 16v578l-75 16v59l188 23l13 -7v-669l68 -16v-55h-263z" />
    <glyph glyph-name="Lcaron" unicode="&#x13d;" horiz-adv-x="573" 
d="M377 544l15 172l112 -16l-60 -166zM19 0v62l81 18v533l-81 18v62h307v-62l-88 -17v-537h202l49 157h71l-13 -234h-528z" />
    <glyph glyph-name="lcaron" unicode="&#x13e;" horiz-adv-x="290" 
d="M308 565l-59 10l14 170l106 -17zM14 0v55l69 16v578l-75 16v59l188 23l13 -7v-669l68 -16v-55h-263z" />
    <glyph glyph-name="Ldot" unicode="&#x13f;" horiz-adv-x="573" 
d="M19 0v62l81 18v533l-81 18v62h307v-62l-88 -17v-537h202l49 153h71l-13 -230h-528zM471 310q-31 0 -52.5 21t-21.5 50q0 30 21.5 51t52.5 21t52 -21t21 -51q0 -29 -21 -50t-52 -21z" />
    <glyph glyph-name="ldot" unicode="&#x140;" horiz-adv-x="341" 
d="M14 0v55l69 16v578l-75 16v59l188 23l13 -7v-669l68 -16v-55h-263zM316 294q-29 0 -49 19t-20 47q0 29 20 48.5t49 19.5t49 -19.5t20 -48.5q0 -28 -20 -47t-49 -19z" />
    <glyph glyph-name="Lslash" unicode="&#x141;" horiz-adv-x="573" 
d="M24 216v83l76 29v285l-81 18v62h306v-62l-87 -17v-235l181 72v-83l-181 -72v-219h202l49 157h71l-13 -234h-528v62l81 18v165z" />
    <glyph glyph-name="lslash" unicode="&#x142;" horiz-adv-x="290" 
d="M8 271v80l75 43v255l-75 16v59l188 23l13 -7v-274l79 45v-80l-79 -45v-315l68 -16v-55h-263v55l69 16v243z" />
    <glyph glyph-name="Nacute" unicode="&#x143;" horiz-adv-x="718" 
d="M517 787l-219 -61l-20 52l198 105zM19 0v61l81 19v533l-81 18v62h245l273 -470h5v389l-81 19v62h246v-61l-72 -19v-613h-117l-320 553h-4v-473l82 -19v-61h-257z" />
    <glyph glyph-name="nacute" unicode="&#x144;" horiz-adv-x="601" 
d="M220 571l-25 50l187 125l51 -93zM14 0v55l68 16v360l-69 16v59l177 24l13 -7v-49h6q86 57 173 57q70 0 106 -31.5t36 -103.5v-325l67 -16v-55h-255v55l62 15v287q0 43 -21.5 60.5t-68.5 17.5q-40 0 -99 -19v-346l61 -15v-55h-256z" />
    <glyph glyph-name="Ncommaaccent" unicode="&#x145;" horiz-adv-x="718" 
d="M304 -185q13 58 13 145h124q-10 -92 -51 -145h-86zM19 0v61l81 19v533l-81 18v62h245l273 -470h5v389l-81 19v62h246v-61l-72 -19v-613h-117l-320 553h-4v-473l82 -19v-61h-257z" />
    <glyph glyph-name="ncommaaccent" unicode="&#x146;" horiz-adv-x="601" 
d="M232 -185q13 58 13 145h124q-10 -92 -51 -145h-86zM14 0v55l68 16v360l-69 16v59l177 24l13 -7v-49h6q86 57 173 57q70 0 106 -31.5t36 -103.5v-325l67 -16v-55h-255v55l62 15v287q0 43 -21.5 60.5t-68.5 17.5q-40 0 -99 -19v-346l61 -15v-55h-256z" />
    <glyph glyph-name="Ncaron" unicode="&#x147;" horiz-adv-x="718" 
d="M512 879l23 -38l-120 -106h-61l-119 106l23 38l127 -54zM19 0v61l81 19v533l-81 18v62h245l273 -470h5v389l-81 19v62h246v-61l-72 -19v-613h-117l-320 553h-4v-473l82 -19v-61h-257z" />
    <glyph glyph-name="ncaron" unicode="&#x148;" horiz-adv-x="601" 
d="M273 578l-116 126l26 37l121 -71l120 71l27 -37l-117 -126h-61zM14 0v55l68 16v360l-69 16v59l177 24l13 -7v-49h6q86 57 173 57q70 0 106 -31.5t36 -103.5v-325l67 -16v-55h-255v55l62 15v287q0 43 -21.5 60.5t-68.5 17.5q-40 0 -99 -19v-346l61 -15v-55h-256z" />
    <glyph glyph-name="napostrophe" unicode="&#x149;" horiz-adv-x="661" 
d="M-53 481q17 114 17 212h126q-16 -123 -62 -212h-81zM73 0v55l68 16v360l-69 16v59l177 24l13 -7v-49h6q86 57 173 57q70 0 106 -31.5t36 -103.5v-325l67 -16v-55h-255v55l62 15v287q0 43 -21.5 60.5t-68.5 17.5q-40 0 -99 -19v-346l61 -15v-55h-256z" />
    <glyph glyph-name="Eng" unicode="&#x14a;" horiz-adv-x="718" 
d="M468 -179q-61 0 -102 19v69q29 -6 64 -6q49 0 74 16t29 61l-335 573h-4v-473l82 -19v-61h-257v61l81 19v533l-81 18v62h245l273 -470h5v389l-81 19v62h246v-61l-72 -19v-626q0 -166 -167 -166z" />
    <glyph glyph-name="eng" unicode="&#x14b;" horiz-adv-x="583" 
d="M524 396v-433q0 -78 -43 -119t-124 -41q-43 0 -81 15v66q20 -3 39 -3q40 0 61.5 19.5t21.5 67.5v389q0 43 -21.5 60.5t-68.5 17.5q-40 0 -99 -19v-346l64 -15v-55h-259v55l68 16v360l-69 16v59l177 24l13 -7v-49h6q86 57 173 57q70 0 106 -31.5t36 -103.5z" />
    <glyph glyph-name="Omacron" unicode="&#x14c;" horiz-adv-x="694" 
d="M216 748v80h261v-80h-261zM347 70q87 0 131.5 70t44.5 198q0 286 -177 286q-87 0 -131 -70.5t-44 -197.5q0 -144 41 -215t135 -71zM345 -12q-141 0 -230.5 93.5t-89.5 263.5q0 90 27.5 161t74 113.5t103 64t119.5 21.5q141 0 230 -92.5t89 -262.5q0 -90 -27.5 -161.5
t-73.5 -114t-102.5 -64.5t-119.5 -22z" />
    <glyph glyph-name="omacron" unicode="&#x14d;" horiz-adv-x="558" 
d="M148 602v80h261v-80h-261zM281 63q122 0 122 192q0 107 -35 154t-91 47q-123 0 -123 -192q0 -107 35.5 -154t91.5 -47zM280 -13q-119 0 -188.5 73t-69.5 197t73.5 199t182.5 75q119 0 188.5 -72t69.5 -196t-73.5 -200t-182.5 -76z" />
    <glyph glyph-name="Obreve" unicode="&#x14e;" horiz-adv-x="694" 
d="M347 732q-61 0 -98 35t-42 89h75q11 -41 65 -41t65 41h75q-4 -54 -41.5 -89t-98.5 -35zM347 70q87 0 131.5 70t44.5 198q0 286 -177 286q-87 0 -131 -70.5t-44 -197.5q0 -144 41 -215t135 -71zM345 -12q-141 0 -230.5 93.5t-89.5 263.5q0 90 27.5 161t74 113.5t103 64
t119.5 21.5q141 0 230 -92.5t89 -262.5q0 -90 -27.5 -161.5t-73.5 -114t-102.5 -64.5t-119.5 -22z" />
    <glyph glyph-name="obreve" unicode="&#x14f;" horiz-adv-x="558" 
d="M281 63q122 0 122 192q0 107 -35 154t-91 47q-123 0 -123 -192q0 -107 35.5 -154t91.5 -47zM280 -13q-119 0 -188.5 73t-69.5 197t73.5 199t182.5 75q119 0 188.5 -72t69.5 -196t-73.5 -200t-182.5 -76zM278 583q-61 0 -100.5 38t-41.5 96h75q11 -53 67 -53t68 53h74
q-2 -58 -41.5 -96t-100.5 -38z" />
    <glyph glyph-name="Ohungarumlaut" unicode="&#x150;" horiz-adv-x="694" 
d="M271 729l-46 30l85 137l85 -55zM439 730l-44 31l89 136l83 -60zM347 70q87 0 131.5 70t44.5 198q0 286 -177 286q-87 0 -131 -70.5t-44 -197.5q0 -144 41 -215t135 -71zM345 -12q-141 0 -230.5 93.5t-89.5 263.5q0 90 27.5 161t74 113.5t103 64t119.5 21.5
q141 0 230 -92.5t89 -262.5q0 -90 -27.5 -161.5t-73.5 -114t-102.5 -64.5t-119.5 -22z" />
    <glyph glyph-name="ohungarumlaut" unicode="&#x151;" horiz-adv-x="558" 
d="M189 568l-42 28l103 161l80 -59zM362 568l-42 30l108 159l78 -62zM281 63q122 0 122 192q0 107 -35 154t-91 47q-123 0 -123 -192q0 -107 35.5 -154t91.5 -47zM280 -13q-119 0 -188.5 73t-69.5 197t73.5 199t182.5 75q119 0 188.5 -72t69.5 -196t-73.5 -200t-182.5 -76z
" />
    <glyph glyph-name="OE" unicode="&#x152;" horiz-adv-x="938" 
d="M380 0q-179 0 -267 82.5t-88 248.5q0 179 88.5 270.5t258.5 91.5h521l10 -186h-72l-40 110h-213v-225h99l23 83h61v-240h-61l-23 85h-99v-244h221l51 136h73l-12 -212h-531zM440 615h-64q-105 0 -155 -59.5t-50 -209.5q0 -86 14.5 -140.5t46 -82t69 -36.5t95.5 -9h44v537
z" />
    <glyph glyph-name="oe" unicode="&#x153;" horiz-adv-x="895" 
d="M666 -12q-142 0 -200 96q-66 -97 -186 -97q-119 0 -188.5 73t-69.5 197t73.5 199t182.5 75q129 0 192 -94q59 94 181 94q115 0 168.5 -69.5t53.5 -210.5h-339q9 -176 163 -176q71 0 151 26v-64q-76 -49 -182 -49zM281 63q122 0 122 192q0 107 -35 154t-91 47
q-123 0 -123 -192q0 -107 35.5 -154t91.5 -47zM647 457q-103 0 -113 -143l207 7q0 72 -23.5 104t-70.5 32z" />
    <glyph glyph-name="Racute" unicode="&#x154;" horiz-adv-x="663" 
d="M450 787l-219 -61l-20 52l198 105zM19 0v62l82 18v532l-80 19v62h315q251 0 251 -194q0 -120 -133 -168v-4l145 -248l64 -18v-61h-172l-167 298h-84v-218l76 -18v-62h-297zM240 369h87q119 0 119 128q0 61 -29 88.5t-93 27.5h-84v-244z" />
    <glyph glyph-name="racute" unicode="&#x155;" horiz-adv-x="378" 
d="M131 571l-25 50l187 125l51 -93zM14 0v55l68 16v360l-69 16v59l177 24l13 -7v-70h6q55 78 133 78q17 0 27 -4v-111q-16 4 -42 4q-69 0 -118 -29v-320l79 -16v-55h-274z" />
    <glyph glyph-name="Rcommaaccent" unicode="&#x156;" horiz-adv-x="663" 
d="M281 -185q13 58 13 145h124q-10 -92 -51 -145h-86zM19 0v62l82 18v532l-80 19v62h315q251 0 251 -194q0 -120 -133 -168v-4l145 -248l64 -18v-61h-172l-167 298h-84v-218l76 -18v-62h-297zM240 369h87q119 0 119 128q0 61 -29 88.5t-93 27.5h-84v-244z" />
    <glyph glyph-name="rcommaaccent" unicode="&#x157;" horiz-adv-x="378" 
d="M73 -185q13 58 13 145h124q-10 -92 -51 -145h-86zM14 0v55l68 16v360l-69 16v59l177 24l13 -7v-70h6q55 78 133 78q17 0 27 -4v-111q-16 4 -42 4q-69 0 -118 -29v-320l79 -16v-55h-274z" />
    <glyph glyph-name="Rcaron" unicode="&#x158;" horiz-adv-x="663" 
d="M443 879l23 -38l-120 -106h-61l-119 106l23 38l127 -54zM19 0v62l82 18v532l-80 19v62h315q251 0 251 -194q0 -120 -133 -168v-4l145 -248l64 -18v-61h-172l-167 298h-84v-218l76 -18v-62h-297zM240 369h87q119 0 119 128q0 61 -29 88.5t-93 27.5h-84v-244z" />
    <glyph glyph-name="rcaron" unicode="&#x159;" horiz-adv-x="378" 
d="M184 578l-116 126l26 37l121 -71l120 71l27 -37l-117 -126h-61zM14 0v55l68 16v360l-69 16v59l177 24l13 -7v-70h6q55 78 133 78q17 0 27 -4v-111q-16 4 -42 4q-69 0 -118 -29v-320l79 -16v-55h-274z" />
    <glyph glyph-name="Sacute" unicode="&#x15a;" horiz-adv-x="537" 
d="M253 -12q-122 0 -207 34l-8 169h76l30 -96q50 -26 113 -26q59 0 91 29t32 74q0 44 -28.5 69t-91.5 50l-67 28q-72 28 -109 71.5t-37 119.5q0 88 60 142t179 54q103 0 181 -26l8 -157h-75l-24 81q-44 22 -97 22q-49 0 -80 -22.5t-31 -64.5q0 -37 24 -61t78 -44l68 -28
q88 -34 130 -76t42 -125q0 -96 -65 -156.5t-192 -60.5zM411 787l-219 -61l-20 52l198 105z" />
    <glyph glyph-name="sacute" unicode="&#x15b;" horiz-adv-x="443" 
d="M142 571l-25 50l187 125l51 -93zM201 -13q-89 0 -169 30l-9 141h73l24 -78q38 -20 88 -20q43 0 69 17t26 50q0 32 -18 47t-67 30l-56 16q-68 19 -101.5 55t-33.5 96q0 70 52.5 115t152.5 45q88 0 155 -23v-133h-70l-19 69q-30 15 -74 15q-87 0 -87 -61q0 -28 19.5 -44
t69.5 -30l59 -17q72 -21 103.5 -57t31.5 -93q0 -76 -55.5 -123t-163.5 -47z" />
    <glyph glyph-name="Scircumflex" unicode="&#x15c;" horiz-adv-x="537" 
d="M153 728l-23 39l119 105h61l120 -105l-23 -39l-127 54zM253 -12q-122 0 -207 34l-8 169h76l30 -96q50 -26 113 -26q59 0 91 29t32 74q0 44 -28.5 69t-91.5 50l-67 28q-72 28 -109 71.5t-37 119.5q0 88 60 142t179 54q103 0 181 -26l8 -157h-75l-24 81q-44 22 -97 22
q-49 0 -80 -22.5t-31 -64.5q0 -37 24 -61t78 -44l68 -28q88 -34 130 -76t42 -125q0 -96 -65 -156.5t-192 -60.5z" />
    <glyph glyph-name="scircumflex" unicode="&#x15d;" horiz-adv-x="443" 
d="M105 574l-26 37l116 126h61l117 -126l-27 -37l-120 71zM201 -13q-89 0 -169 30l-9 141h73l24 -78q38 -20 88 -20q43 0 69 17t26 50q0 32 -18 47t-67 30l-56 16q-68 19 -101.5 55t-33.5 96q0 70 52.5 115t152.5 45q88 0 155 -23v-133h-70l-19 69q-30 15 -74 15
q-87 0 -87 -61q0 -28 19.5 -44t69.5 -30l59 -17q72 -21 103.5 -57t31.5 -93q0 -76 -55.5 -123t-163.5 -47z" />
    <glyph glyph-name="Scedilla" unicode="&#x15e;" horiz-adv-x="537" 
d="M184 -216v43q57 7 79.5 18t22.5 29q0 32 -80 33v83q-95 6 -160 32l-8 169h76l30 -96q50 -26 113 -26q59 0 91 29t32 74q0 44 -28.5 69t-91.5 50l-67 28q-72 28 -109 71.5t-37 119.5q0 88 60 142t179 54q103 0 181 -26l8 -157h-75l-24 81q-44 22 -97 22q-49 0 -80 -22.5
t-31 -64.5q0 -37 24 -61t78 -44l68 -28q88 -34 130 -76t42 -125q0 -94 -63 -154.5t-186 -62.5v-33q62 -3 89.5 -20.5t27.5 -53.5q0 -87 -194 -97z" />
    <glyph glyph-name="scedilla" unicode="&#x15f;" horiz-adv-x="443" 
d="M130 -216v43q57 7 79.5 18t22.5 29q0 32 -80 33v83q-65 6 -120 27l-9 141h73l24 -78q38 -20 88 -20q43 0 69 17t26 50q0 32 -18 47t-67 30l-56 16q-68 19 -101.5 55t-33.5 96q0 70 52.5 115t152.5 45q88 0 155 -23v-133h-70l-19 69q-30 15 -74 15q-87 0 -87 -61
q0 -28 19.5 -44t69.5 -30l59 -17q72 -21 103.5 -57t31.5 -93q0 -76 -54 -122.5t-159 -47.5v-32q62 -3 89.5 -20.5t27.5 -53.5q0 -87 -194 -97z" />
    <glyph glyph-name="Scaron" unicode="&#x160;" horiz-adv-x="537" 
d="M407 879l23 -38l-120 -106h-61l-119 106l23 38l127 -54zM253 -12q-122 0 -207 34l-8 169h76l30 -96q50 -26 113 -26q59 0 91 29t32 74q0 44 -28.5 69t-91.5 50l-67 28q-72 28 -109 71.5t-37 119.5q0 88 60 142t179 54q103 0 181 -26l8 -157h-75l-24 81q-44 22 -97 22
q-49 0 -80 -22.5t-31 -64.5q0 -37 24 -61t78 -44l68 -28q88 -34 130 -76t42 -125q0 -96 -65 -156.5t-192 -60.5z" />
    <glyph glyph-name="scaron" unicode="&#x161;" horiz-adv-x="443" 
d="M195 578l-116 126l26 37l121 -71l120 71l27 -37l-117 -126h-61zM201 -13q-89 0 -169 30l-9 141h73l24 -78q38 -20 88 -20q43 0 69 17t26 50q0 32 -18 47t-67 30l-56 16q-68 19 -101.5 55t-33.5 96q0 70 52.5 115t152.5 45q88 0 155 -23v-133h-70l-19 69q-30 15 -74 15
q-87 0 -87 -61q0 -28 19.5 -44t69.5 -30l59 -17q72 -21 103.5 -57t31.5 -93q0 -76 -55.5 -123t-163.5 -47z" />
    <glyph glyph-name="Tcommaaccent" unicode="&#x162;" horiz-adv-x="620" 
d="M238 -185q13 58 13 145h124q-10 -92 -51 -145h-86zM156 0v62l85 18v536h-122l-35 -135h-74l10 212h580l10 -212h-74l-35 135h-121v-536l84 -18v-62h-308z" />
    <glyph glyph-name="tcommaaccent" unicode="&#x163;" horiz-adv-x="359" 
d="M126 -185q13 58 13 145h124q-10 -92 -51 -145h-86zM224 -10q-74 0 -109.5 30t-35.5 103v320h-67v53l78 25l18 122h97v-122h125v-78h-125v-297q0 -40 16.5 -57t58.5 -17q26 0 58 7v-59q-46 -30 -114 -30z" />
    <glyph glyph-name="Tcaron" unicode="&#x164;" horiz-adv-x="620" 
d="M437 879l23 -38l-120 -106h-61l-119 106l23 38l127 -54zM156 0v62l85 18v536h-122l-35 -135h-74l10 212h580l10 -212h-74l-35 135h-121v-536l84 -18v-62h-308z" />
    <glyph glyph-name="tcaron" unicode="&#x165;" horiz-adv-x="359" 
d="M313 565l-59 10l14 170l106 -17zM224 -10q-74 0 -109.5 30t-35.5 103v320h-67v53l78 25l18 122h97v-122h125v-78h-125v-297q0 -40 16.5 -57t58.5 -17q26 0 58 7v-59q-46 -30 -114 -30z" />
    <glyph glyph-name="Tbar" unicode="&#x166;" horiz-adv-x="620" 
d="M100 347v65h141v204h-122l-35 -135h-74l10 212h580l10 -212h-74l-35 135h-121v-204h140v-65h-140v-267l84 -18v-62h-308v62l85 18v267h-141z" />
    <glyph glyph-name="tbar" unicode="&#x167;" horiz-adv-x="359" 
d="M12 303v53h67v87h-67v53l78 25l18 122h97v-122h125v-78h-125v-87h125v-53h-125v-157q0 -40 16.5 -57t58.5 -17q26 0 58 7v-59q-46 -30 -114 -30q-74 0 -109.5 30t-35.5 103v180h-67z" />
    <glyph glyph-name="Utilde" unicode="&#x168;" horiz-adv-x="691" 
d="M354 -13q-134 0 -202.5 60.5t-68.5 167.5v398l-78 18v62h296v-62l-79 -17v-383q0 -158 151 -158t151 158v382l-79 17v63h241v-62l-70 -18v-388q0 -110 -66.5 -174t-195.5 -64zM258 732l-50 29q41 97 109 97q24 0 61 -15.5t50 -15.5q31 0 54 38l51 -28q-42 -98 -110 -98
q-24 0 -61 15.5t-50 15.5q-30 0 -54 -38z" />
    <glyph glyph-name="utilde" unicode="&#x169;" horiz-adv-x="601" 
d="M223 -11q-149 0 -149 150v298l-69 16v58l181 18l13 -7v-349q0 -49 18 -70t67 -21q48 0 105 24v331l-66 16v58l179 18l13 -7v-437l68 -16v-56l-175 -23l-13 6v57h-6q-66 -64 -166 -64zM183 590l-51 29q43 98 110 98q24 0 59.5 -16t48.5 -16q31 0 54 38l51 -29
q-43 -98 -110 -98q-24 0 -59.5 16t-48.5 16q-31 0 -54 -38z" />
    <glyph glyph-name="Umacron" unicode="&#x16a;" horiz-adv-x="691" 
d="M354 -13q-134 0 -202.5 60.5t-68.5 167.5v398l-78 18v62h296v-62l-79 -17v-383q0 -158 151 -158t151 158v382l-79 17v63h241v-62l-70 -18v-388q0 -110 -66.5 -174t-195.5 -64zM240 748v80h261v-80h-261z" />
    <glyph glyph-name="umacron" unicode="&#x16b;" horiz-adv-x="601" 
d="M223 -11q-149 0 -149 150v298l-69 16v58l181 18l13 -7v-349q0 -49 18 -70t67 -21q48 0 105 24v331l-66 16v58l179 18l13 -7v-437l68 -16v-56l-175 -23l-13 6v57h-6q-66 -64 -166 -64zM162 602v80h261v-80h-261z" />
    <glyph glyph-name="Ubreve" unicode="&#x16c;" horiz-adv-x="691" 
d="M354 -13q-134 0 -202.5 60.5t-68.5 167.5v398l-78 18v62h296v-62l-79 -17v-383q0 -158 151 -158t151 158v382l-79 17v63h241v-62l-70 -18v-388q0 -110 -66.5 -174t-195.5 -64zM371 732q-61 0 -98 35t-42 89h75q11 -41 65 -41t65 41h75q-4 -54 -41.5 -89t-98.5 -35z" />
    <glyph glyph-name="ubreve" unicode="&#x16d;" horiz-adv-x="601" 
d="M223 -11q-149 0 -149 150v298l-69 16v58l181 18l13 -7v-349q0 -49 18 -70t67 -21q48 0 105 24v331l-66 16v58l179 18l13 -7v-437l68 -16v-56l-175 -23l-13 6v57h-6q-66 -64 -166 -64zM293 583q-61 0 -100.5 38t-41.5 96h75q11 -53 67 -53t68 53h74q-2 -58 -41.5 -96
t-100.5 -38z" />
    <glyph glyph-name="Uring" unicode="&#x16e;" horiz-adv-x="691" 
d="M354 -13q-134 0 -202.5 60.5t-68.5 167.5v398l-78 18v62h296v-62l-79 -17v-383q0 -158 151 -158t151 158v382l-79 17v63h241v-62l-70 -18v-388q0 -110 -66.5 -174t-195.5 -64zM371 753q22 0 35 13.5t13 35.5t-13 36t-35 14t-35 -14t-13 -36t13 -35.5t35 -13.5zM371 705
q-44 0 -73 28.5t-29 68.5t29 68.5t73 28.5q43 0 72.5 -28.5t29.5 -68.5t-29.5 -68.5t-72.5 -28.5z" />
    <glyph glyph-name="uring" unicode="&#x16f;" horiz-adv-x="601" 
d="M287 622q22 0 35 13.5t13 35.5q0 21 -13.5 35t-34.5 14t-34.5 -14t-13.5 -35q0 -22 13 -35.5t35 -13.5zM287 574q-44 0 -73 28.5t-29 68.5t29 68t73 28q43 0 72.5 -28t29.5 -68t-29.5 -68.5t-72.5 -28.5zM223 -11q-149 0 -149 150v298l-69 16v58l181 18l13 -7v-349
q0 -49 18 -70t67 -21q48 0 105 24v331l-66 16v58l179 18l13 -7v-437l68 -16v-56l-175 -23l-13 6v57h-6q-66 -64 -166 -64z" />
    <glyph glyph-name="Uhungarumlaut" unicode="&#x170;" horiz-adv-x="691" 
d="M294 729l-46 30l85 137l85 -55zM462 730l-44 31l89 136l83 -60zM354 -13q-134 0 -202.5 60.5t-68.5 167.5v398l-78 18v62h296v-62l-79 -17v-383q0 -158 151 -158t151 158v382l-79 17v63h241v-62l-70 -18v-388q0 -110 -66.5 -174t-195.5 -64z" />
    <glyph glyph-name="uhungarumlaut" unicode="&#x171;" horiz-adv-x="601" 
d="M223 -11q-149 0 -149 150v298l-69 16v58l181 18l13 -7v-349q0 -49 18 -70t67 -21q48 0 105 24v331l-66 16v58l179 18l13 -7v-437l68 -16v-56l-175 -23l-13 6v57h-6q-66 -64 -166 -64zM203 568l-42 28l103 161l80 -59zM376 568l-42 30l108 159l78 -62z" />
    <glyph glyph-name="Uogonek" unicode="&#x172;" horiz-adv-x="691" 
d="M351 -13q-132 0 -200 61t-68 167v398l-78 18v62h296v-62l-79 -17v-383q0 -158 151 -158t151 158v382l-79 17v63h241v-62l-70 -18v-388q0 -141 -104 -201q-3 -2 -22.5 -13t-24.5 -14.5l-20 -14t-20 -17t-13 -17.5t-11 -22.5t-3 -25.5q0 -38 46 -38q13 0 29 2v-53
q-31 -11 -68 -11q-56 0 -83.5 22.5t-27.5 60.5q0 60 78 105q-5 -1 -21 -1z" />
    <glyph glyph-name="uogonek" unicode="&#x173;" horiz-adv-x="601" 
d="M426 -200q-57 0 -84.5 22.5t-27.5 60.5q0 63 81 110v60h-6q-66 -64 -166 -64q-149 0 -149 150v298l-69 16v58l181 18l13 -7v-349q0 -49 18 -70t67 -21q48 0 105 24v331l-66 16v58l179 18l13 -7v-437l68 -16v-56l-111 -15q-53 -56 -53 -98q0 -38 45 -38q13 0 29 2v-53
q-31 -11 -67 -11z" />
    <glyph glyph-name="Wcircumflex" unicode="&#x174;" horiz-adv-x="964" 
d="M374 728l-23 39l119 105h61l120 -105l-23 -39l-127 54zM223 0l-160 613l-56 18v62h266v-62l-69 -18l107 -434h5l139 514h92l140 -509h4l105 429l-71 18v62h232v-62l-63 -18l-160 -613h-124l-127 481h-4l-132 -481h-124z" />
    <glyph glyph-name="wcircumflex" unicode="&#x175;" horiz-adv-x="801" 
d="M295 574l-26 37l116 126h61l117 -126l-27 -37l-120 71zM186 0l-137 450l-48 14v57h233v-57l-57 -14l82 -291h4l113 362h86l112 -362h4l82 291l-55 14v57h194v-57l-48 -14l-137 -450h-103l-105 351h-3l-115 -351h-102z" />
    <glyph glyph-name="Ycircumflex" unicode="&#x176;" horiz-adv-x="633" 
d="M172 0v62l82 18v216l-192 317l-58 18v62h268v-62l-63 -17l138 -239h4l128 239l-66 17v62h216v-62l-57 -18l-179 -316v-217l80 -18v-62h-301zM212 728l-23 39l119 105h61l120 -105l-23 -39l-127 54z" />
    <glyph glyph-name="ycircumflex" unicode="&#x177;" horiz-adv-x="555" 
d="M141 -201q-49 0 -85 18v76q35 -8 53 -8q39 0 63 15.5t40 52.5l24 59l-183 438l-52 14v57h248v-57l-61 -13l114 -298h4l101 297l-59 14v57h205v-57l-51 -14l-196 -519q-26 -69 -63 -100.5t-102 -31.5zM178 574l-26 37l116 126h61l117 -126l-27 -37l-120 71z" />
    <glyph glyph-name="Ydieresis" unicode="&#x178;" horiz-adv-x="633" 
d="M172 0v62l82 18v216l-192 317l-58 18v62h268v-62l-63 -17l138 -239h4l128 239l-66 17v62h216v-62l-57 -18l-179 -316v-217l80 -18v-62h-301zM248 733q-27 0 -47 19t-20 46q0 28 19.5 46t47.5 18t48 -18t20 -46q0 -27 -20 -46t-48 -19zM430 733q-28 0 -48 19t-20 46
q0 28 20 46t48 18t47.5 -18t19.5 -46t-19.5 -46.5t-47.5 -18.5z" />
    <glyph glyph-name="Zacute" unicode="&#x179;" horiz-adv-x="556" 
d="M422 787l-219 -61l-20 52l198 105zM14 0v73l364 537v4h-230l-43 -124h-75l11 203h499v-73l-365 -537v-4h251l45 131h73l-10 -210h-520z" />
    <glyph glyph-name="zacute" unicode="&#x17a;" horiz-adv-x="485" 
d="M163 571l-25 50l187 125l51 -93zM24 0v66l282 381v4h-175l-29 -100h-64l9 170h404v-66l-278 -380v-4h182l35 111h66l-13 -182h-419z" />
    <glyph glyph-name="Zdotaccent" unicode="&#x17b;" horiz-adv-x="556" 
d="M14 0v73l364 537v4h-230l-43 -124h-75l11 203h499v-73l-365 -537v-4h251l45 131h73l-10 -210h-520zM286 733q-30 0 -51.5 20t-21.5 49q0 30 21 49t52 19q30 0 51 -19t21 -49q0 -29 -21 -49t-51 -20z" />
    <glyph glyph-name="zdotaccent" unicode="&#x17c;" horiz-adv-x="485" 
d="M24 0v66l282 381v4h-175l-29 -100h-64l9 170h404v-66l-278 -380v-4h182l35 111h66l-13 -182h-419zM247 595q-30 0 -51.5 19.5t-21.5 48.5q0 30 21.5 49.5t51.5 19.5t51 -19.5t21 -49.5q0 -29 -21 -48.5t-51 -19.5z" />
    <glyph glyph-name="Zcaron" unicode="&#x17d;" horiz-adv-x="556" 
d="M413 879l23 -38l-120 -106h-61l-119 106l23 38l127 -54zM14 0v73l364 537v4h-230l-43 -124h-75l11 203h499v-73l-365 -537v-4h251l45 131h73l-10 -210h-520z" />
    <glyph glyph-name="zcaron" unicode="&#x17e;" horiz-adv-x="485" 
d="M216 578l-116 126l26 37l121 -71l120 71l27 -37l-117 -126h-61zM24 0v66l282 381v4h-175l-29 -100h-64l9 170h404v-66l-278 -380v-4h182l35 111h66l-13 -182h-419z" />
    <glyph glyph-name="florin" unicode="&#x192;" horiz-adv-x="430" 
d="M38 341v77h89l20 117q31 167 187 167q55 0 99 -20v-71q-35 7 -62 7q-43 0 -65 -22.5t-32 -80.5l-18 -97h113v-77h-126l-69 -386q-25 -138 -164 -138q-50 0 -86 18v69q24 -4 49 -4q61 0 75 77l65 364h-75z" />
    <glyph glyph-name="Aringacute" unicode="&#x1fa;" horiz-adv-x="682" 
d="M1 0v63l64 17l217 613h123l212 -613l64 -17v-63h-288v62l74 18l-44 137h-216l-46 -137l76 -18v-62h-236zM315 541l-86 -256h173l-82 256h-5zM460 968l-219 -61l-20 52l198 105zM340 757q22 0 35 13.5t13 35.5t-13 36t-35 14t-35 -14t-13 -36t13 -35.5t35 -13.5zM340 709
q-44 0 -73 28.5t-29 68.5t29 68.5t73 28.5q43 0 72.5 -28.5t29.5 -68.5t-29.5 -68.5t-72.5 -28.5z" />
    <glyph glyph-name="aringacute" unicode="&#x1fb;" horiz-adv-x="500" 
d="M171 -13q-70 0 -113 39t-43 103q0 67 42.5 98.5t128.5 48.5l117 24v43q0 55 -21 75t-89 20t-132 -10v66q88 37 193 37q90 0 132.5 -39t42.5 -121v-273q0 -21 10.5 -28.5t32.5 -7.5h22v-54q-33 -19 -91 -19q-73 0 -87 57h-5q-51 -59 -140 -59zM221 66q48 0 82 30v135
l-82 -6q-43 -3 -61 -22.5t-18 -57.5q0 -79 79 -79zM249 608q22 0 35 13.5t13 35.5q0 21 -13.5 35t-34.5 14t-34.5 -14t-13.5 -35q0 -22 13 -35.5t35 -13.5zM249 560q-44 0 -73 28.5t-29 68.5t29 68t73 28q43 0 72.5 -28t29.5 -68t-29.5 -68.5t-72.5 -28.5zM371 826l-219 -61
l-20 52l198 105z" />
    <glyph glyph-name="AEacute" unicode="&#x1fc;" horiz-adv-x="947" 
d="M753 787l-219 -61l-20 52l198 105zM158 81l79 -19v-62h-236v63l60 18l320 541l-63 9v62h584l10 -186h-72l-40 110h-213v-225h99l23 83h61v-240h-61l-23 85h-99v-244h221l51 136h73l-12 -212h-550v62l81 18v134h-216zM274 283h177v305h-3z" />
    <glyph glyph-name="aeacute" unicode="&#x1fd;" horiz-adv-x="785" 
d="M344 571l-25 50l187 125l51 -93zM175 -13q-73 0 -116.5 38.5t-43.5 103.5q0 68 43 102.5t128 49.5l117 22v40q0 55 -21 75t-89 20t-132 -10v66q88 37 189 37q103 0 138 -62q60 62 157 62q113 0 165.5 -70.5t52.5 -212.5h-333q9 -173 159 -173q67 0 149 26v-64
q-78 -49 -179 -49q-141 0 -207 87q-31 -39 -77.5 -63.5t-99.5 -24.5zM327 118q-23 47 -26 119l-80 -6q-79 -5 -79 -86q0 -79 80 -79q53 0 105 52zM430 311l201 7q0 139 -92 139q-99 0 -109 -146z" />
    <glyph glyph-name="Oslashacute" unicode="&#x1fe;" horiz-adv-x="694" 
d="M90 -29l-55 38l68 85q-78 96 -78 251q0 90 27.5 161t74 113.5t103 64t119.5 21.5q113 0 192 -60l54 68l55 -39l-60 -75q78 -94 78 -249q0 -90 -27.5 -161.5t-73.5 -114t-102.5 -64.5t-119.5 -22q-113 0 -194 60zM347 70q88 0 133.5 70.5t45.5 197.5q0 95 -18 158
l-292 -367q42 -59 131 -59zM168 356q0 -98 17 -159l291 367q-43 60 -130 60q-88 0 -133 -70.5t-45 -197.5zM479 787l-219 -61l-20 52l198 105z" />
    <glyph glyph-name="oslashacute" unicode="&#x1ff;" horiz-adv-x="558" 
d="M67 -28l-51 38l59 69q-53 70 -53 178q0 124 73.5 199t182.5 75q90 0 153 -43l50 58l50 -39l-53 -61q58 -72 58 -183q0 -124 -73.5 -200t-182.5 -76q-95 0 -159 47zM281 62q126 0 126 193q0 54 -10 97l-213 -245q31 -45 97 -45zM150 264q0 -50 8 -90l211 243
q-32 40 -92 40q-127 0 -127 -193zM193 571l-25 50l187 125l51 -93z" />
    <glyph glyph-name="Scommaaccent" unicode="&#x218;" horiz-adv-x="537" 
d="M203 -185q13 58 13 145h124q-10 -92 -51 -145h-86zM253 -12q-122 0 -207 34l-8 169h76l30 -96q50 -26 113 -26q59 0 91 29t32 74q0 44 -28.5 69t-91.5 50l-67 28q-72 28 -109 71.5t-37 119.5q0 88 60 142t179 54q103 0 181 -26l8 -157h-75l-24 81q-44 22 -97 22
q-49 0 -80 -22.5t-31 -64.5q0 -37 24 -61t78 -44l68 -28q88 -34 130 -76t42 -125q0 -96 -65 -156.5t-192 -60.5z" />
    <glyph glyph-name="scommaaccent" unicode="&#x219;" horiz-adv-x="443" 
d="M148 -185q13 58 13 145h124q-10 -92 -51 -145h-86zM201 -13q-89 0 -169 30l-9 141h73l24 -78q38 -20 88 -20q43 0 69 17t26 50q0 32 -18 47t-67 30l-56 16q-68 19 -101.5 55t-33.5 96q0 70 52.5 115t152.5 45q88 0 155 -23v-133h-70l-19 69q-30 15 -74 15q-87 0 -87 -61
q0 -28 19.5 -44t69.5 -30l59 -17q72 -21 103.5 -57t31.5 -93q0 -76 -55.5 -123t-163.5 -47z" />
    <glyph glyph-name="uni0237" unicode="&#x237;" horiz-adv-x="278" 
d="M41 -197q-44 0 -82 15v66q21 -3 45 -3q40 0 61.5 19.5t21.5 67.5v463l-74 16v59l187 24l13 -7v-560q0 -160 -172 -160z" />
    <glyph glyph-name="circumflex" unicode="&#x2c6;" 
d="M125 574l-26 37l116 126h61l117 -126l-27 -37l-120 71z" />
    <glyph glyph-name="caron" unicode="&#x2c7;" 
d="M215 578l-116 126l26 37l121 -71l120 71l27 -37l-117 -126h-61z" />
    <glyph glyph-name="breve" unicode="&#x2d8;" 
d="M263 583q-61 0 -100.5 38t-41.5 96h75q11 -53 67 -53t68 53h74q-2 -58 -41.5 -96t-100.5 -38z" />
    <glyph glyph-name="dotaccent" unicode="&#x2d9;" 
d="M246 595q-30 0 -51.5 19.5t-21.5 48.5q0 30 21.5 49.5t51.5 19.5t51 -19.5t21 -49.5q0 -29 -21 -48.5t-51 -19.5z" />
    <glyph glyph-name="ring" unicode="&#x2da;" 
d="M246 622q22 0 35 13.5t13 35.5q0 21 -13.5 35t-34.5 14t-34.5 -14t-13.5 -35q0 -22 13 -35.5t35 -13.5zM246 574q-44 0 -73 28.5t-29 68.5t29 68t73 28q43 0 72.5 -28t29.5 -68t-29.5 -68.5t-72.5 -28.5z" />
    <glyph glyph-name="ogonek" unicode="&#x2db;" horiz-adv-x="507" 
d="M253 -200q-57 0 -84.5 22.5t-27.5 60.5q0 69 99 117h58q-52 -60 -52 -100q0 -38 46 -38q12 0 28 2v-53q-31 -11 -67 -11z" />
    <glyph glyph-name="tilde" unicode="&#x2dc;" 
d="M136 590l-51 29q43 98 110 98q24 0 59.5 -16t48.5 -16q31 0 54 38l51 -29q-43 -98 -110 -98q-24 0 -59.5 16t-48.5 16q-31 0 -54 -38z" />
    <glyph glyph-name="hungarumlaut" unicode="&#x2dd;" 
d="M153 568l-42 28l103 161l80 -59zM326 568l-42 30l108 159l78 -62z" />
    <glyph glyph-name="Wgrave" unicode="&#x1e80;" horiz-adv-x="964" 
d="M586 726l-219 61l41 96l198 -105zM223 0l-160 613l-56 18v62h266v-62l-69 -18l107 -434h5l139 514h92l140 -509h4l105 429l-71 18v62h232v-62l-63 -18l-160 -613h-124l-127 481h-4l-132 -481h-124z" />
    <glyph glyph-name="wgrave" unicode="&#x1e81;" horiz-adv-x="801" 
d="M186 0l-137 450l-48 14v57h233v-57l-57 -14l82 -291h4l113 362h86l112 -362h4l82 291l-55 14v57h194v-57l-48 -14l-137 -450h-103l-105 351h-3l-115 -351h-102zM499 571l-213 82l51 93l187 -125z" />
    <glyph glyph-name="Wacute" unicode="&#x1e82;" horiz-adv-x="964" 
d="M632 787l-219 -61l-20 52l198 105zM223 0l-160 613l-56 18v62h266v-62l-69 -18l107 -434h5l139 514h92l140 -509h4l105 429l-71 18v62h232v-62l-63 -18l-160 -613h-124l-127 481h-4l-132 -481h-124z" />
    <glyph glyph-name="wacute" unicode="&#x1e83;" horiz-adv-x="801" 
d="M332 571l-25 50l187 125l51 -93zM186 0l-137 450l-48 14v57h233v-57l-57 -14l82 -291h4l113 362h86l112 -362h4l82 291l-55 14v57h194v-57l-48 -14l-137 -450h-103l-105 351h-3l-115 -351h-102z" />
    <glyph glyph-name="Wdieresis" unicode="&#x1e84;" horiz-adv-x="964" 
d="M410 733q-27 0 -47 19t-20 46q0 28 19.5 46t47.5 18t48 -18t20 -46q0 -27 -20 -46t-48 -19zM592 733q-28 0 -48 19t-20 46q0 28 20 46t48 18t47.5 -18t19.5 -46t-19.5 -46.5t-47.5 -18.5zM223 0l-160 613l-56 18v62h266v-62l-69 -18l107 -434h5l139 514h92l140 -509h4
l105 429l-71 18v62h232v-62l-63 -18l-160 -613h-124l-127 481h-4l-132 -481h-124z" />
    <glyph glyph-name="wdieresis" unicode="&#x1e85;" horiz-adv-x="801" 
d="M325 594q-27 0 -47 19t-20 46q0 28 19.5 46t47.5 18t48 -18t20 -46q0 -27 -20 -46t-48 -19zM507 594q-28 0 -48 19t-20 46q0 28 20 46t48 18t47.5 -18t19.5 -46t-19.5 -46.5t-47.5 -18.5zM186 0l-137 450l-48 14v57h233v-57l-57 -14l82 -291h4l113 362h86l112 -362h4
l82 291l-55 14v57h194v-57l-48 -14l-137 -450h-103l-105 351h-3l-115 -351h-102z" />
    <glyph glyph-name="Ygrave" unicode="&#x1ef2;" horiz-adv-x="633" 
d="M172 0v62l82 18v216l-192 317l-58 18v62h268v-62l-63 -17l138 -239h4l128 239l-66 17v62h216v-62l-57 -18l-179 -316v-217l80 -18v-62h-301zM424 726l-219 61l41 96l198 -105z" />
    <glyph glyph-name="ygrave" unicode="&#x1ef3;" horiz-adv-x="555" 
d="M141 -201q-49 0 -85 18v76q35 -8 53 -8q39 0 63 15.5t40 52.5l24 59l-183 438l-52 14v57h248v-57l-61 -13l114 -298h4l101 297l-59 14v57h205v-57l-51 -14l-196 -519q-26 -69 -63 -100.5t-102 -31.5zM382 571l-213 82l51 93l187 -125z" />
    <glyph glyph-name="uni2009" unicode="&#x2009;" horiz-adv-x="84" 
 />
    <glyph glyph-name="endash" unicode="&#x2013;" horiz-adv-x="399" 
d="M30 251v73h339v-73h-339z" />
    <glyph glyph-name="emdash" unicode="&#x2014;" horiz-adv-x="688" 
d="M30 251v73h628v-73h-628z" />
    <glyph glyph-name="quoteleft" unicode="&#x2018;" horiz-adv-x="228" 
d="M43 481q15 118 63 212h80q-17 -127 -17 -212h-126z" />
    <glyph glyph-name="quoteright" unicode="&#x2019;" horiz-adv-x="228" 
d="M42 481q17 114 17 212h126q-16 -123 -62 -212h-81z" />
    <glyph glyph-name="quotesinglbase" unicode="&#x201a;" horiz-adv-x="228" 
d="M42 -85q17 114 17 212h126q-16 -123 -62 -212h-81z" />
    <glyph glyph-name="quotedblleft" unicode="&#x201c;" horiz-adv-x="406" 
d="M43 481q15 118 63 212h80q-17 -127 -17 -212h-126zM221 481q16 121 62 212h81q-17 -114 -17 -212h-126z" />
    <glyph glyph-name="quotedblright" unicode="&#x201d;" horiz-adv-x="406" 
d="M42 481q17 114 17 212h126q-16 -123 -62 -212h-81zM220 481q17 114 17 212h126q-16 -123 -62 -212h-81z" />
    <glyph glyph-name="quotedblbase" unicode="&#x201e;" horiz-adv-x="406" 
d="M42 -85q17 114 17 212h126q-16 -123 -62 -212h-81zM220 -85q17 114 17 212h126q-16 -123 -62 -212h-81z" />
    <glyph glyph-name="dagger" unicode="&#x2020;" horiz-adv-x="421" 
d="M27 428v116l144 -25l-23 174h125l-23 -174l144 25v-116l-145 23l23 -113v-46l-31 -292h-61l-31 292v46l23 113z" />
    <glyph glyph-name="daggerdbl" unicode="&#x2021;" horiz-adv-x="429" 
d="M31 431v116l145 -25l-24 171h125l-24 -171l145 25v-116l-145 24l25 -91v-35l-25 -91l145 25v-116l-145 24l24 -171h-125l25 171l-146 -24v116l145 -25l-25 91v35l25 91z" />
    <glyph glyph-name="bullet" unicode="&#x2022;" horiz-adv-x="360" 
d="M178 181q-57 0 -97 41t-40 98q0 59 40 99t97 40t99 -40.5t42 -98.5q0 -57 -42 -98t-99 -41z" />
    <glyph glyph-name="ellipsis" unicode="&#x2026;" horiz-adv-x="723" 
d="M117 -14q-33 0 -55 21.5t-22 52.5q0 32 22 53.5t55 21.5q32 0 54 -21.5t22 -53.5q0 -31 -22 -52.5t-54 -21.5zM361 -14q-32 0 -54.5 21.5t-22.5 52.5t22.5 53t54.5 22q33 0 55 -21.5t22 -53.5q0 -31 -22 -52.5t-55 -21.5zM606 -14q-32 0 -54 21.5t-22 52.5q0 32 22 53.5
t54 21.5q33 0 55 -21.5t22 -53.5q0 -31 -22 -52.5t-55 -21.5z" />
    <glyph glyph-name="perthousand" unicode="&#x2030;" horiz-adv-x="1257" 
d="M200 375q37 0 52.5 31.5t15.5 100.5q0 71 -15 105t-52 34q-38 0 -53.5 -33t-15.5 -102q0 -68 15.5 -102t52.5 -34zM200 316q-76 0 -126 49.5t-50 141.5q0 95 51.5 146.5t125.5 51.5q73 0 124.5 -50.5t51.5 -142.5q0 -94 -51 -145t-126 -51zM145 -40l477 753h82l-477 -753
h-82zM656 47q37 0 52.5 31.5t15.5 100.5q0 70 -15 104.5t-52 34.5q-38 0 -53.5 -33t-15.5 -102q0 -68 15.5 -102t52.5 -34zM656 -12q-76 0 -126 49.5t-50 141.5q0 95 51.5 146.5t125.5 51.5q72 0 124 -50.5t52 -142.5q0 -94 -51 -145t-126 -51zM1056 47q37 0 52.5 31.5
t15.5 100.5q0 70 -15 104.5t-52 34.5q-38 0 -53.5 -33t-15.5 -102q0 -68 15.5 -102t52.5 -34zM1056 -12q-76 0 -126 49.5t-50 141.5q0 95 51.5 146.5t125.5 51.5q72 0 124 -50.5t52 -142.5q0 -94 -51 -145t-126 -51z" />
    <glyph glyph-name="uni2032" unicode="&#x2032;" horiz-adv-x="228" 
d="M41 481l17 212h128l-61 -212h-84z" />
    <glyph glyph-name="uni2033" unicode="&#x2033;" horiz-adv-x="405" 
d="M41 481l17 212h128l-61 -212h-84zM218 481l17 212h128l-61 -212h-84z" />
    <glyph glyph-name="guilsinglleft" unicode="&#x2039;" horiz-adv-x="262" 
d="M143 57l-107 178v35l107 179h81l-79 -196l79 -196h-81z" />
    <glyph glyph-name="guilsinglright" unicode="&#x203a;" horiz-adv-x="262" 
d="M38 57l80 195l-80 197h82l106 -179v-35l-106 -178h-82z" />
    <glyph glyph-name="fraction" unicode="&#x2044;" horiz-adv-x="223" 
d="M-174 -40l483 753h83l-483 -753h-83z" />
    <glyph glyph-name="Euro" unicode="&#x20ac;" horiz-adv-x="614" 
d="M26 374v64h73q21 140 102 203.5t199 63.5q91 0 166 -26l5 -170h-71l-34 97q-33 18 -74 18q-140 0 -161 -186h192v-64h-196v-14q0 -38 1 -55h195v-64h-188q14 -86 56.5 -123t123.5 -37q76 0 159 32v-71q-81 -54 -189 -54q-248 0 -286 253h-73v64h66v35q0 17 1 34h-67z" />
    <glyph glyph-name="trademark" unicode="&#x2122;" horiz-adv-x="756" 
d="M332 406v36l33 7v200l-33 7v37h139l59 -171h3l60 171h145v-37l-36 -7v-199l36 -8v-36h-142v36l29 8v181h-4l-75 -216h-52l-74 215h-3v-180l29 -8v-36h-114zM86 406v36l34 7v202h-39l-17 -63h-45l4 105h275l4 -105h-45l-17 63h-40v-202l35 -7v-36h-149z" />
    <glyph glyph-name="onethird" unicode="&#x2153;" horiz-adv-x="850" 
d="M652 -7q-72 0 -124 28v52q47 -15 94 -15q88 0 88 65q0 35 -19.5 49.5t-62.5 14.5h-36v56h31q77 0 77 58q0 59 -72 59q-47 0 -83 -12v51q48 25 117 25q66 0 102 -27t36 -77q0 -74 -83 -98v-3q44 -7 71.5 -32.5t27.5 -71.5q0 -57 -43.5 -89.5t-120.5 -32.5zM43 282v47
l60 10v268l-65 -5v46l124 55h45v-364l61 -10v-47h-225zM125 -40l483 753h83l-483 -753h-83z" />
    <glyph glyph-name="twothirds" unicode="&#x2154;" horiz-adv-x="898" 
d="M701 -7q-72 0 -124 28v52q47 -15 94 -15q88 0 88 65q0 35 -19.5 49.5t-62.5 14.5h-36v56h31q77 0 77 58q0 59 -72 59q-47 0 -83 -12v51q48 25 117 25q66 0 102 -27t36 -77q0 -74 -83 -98v-3q44 -7 71.5 -32.5t27.5 -71.5q0 -57 -43.5 -89.5t-120.5 -32.5zM27 282v55
l100 95q83 79 83 133q0 68 -78 68q-40 0 -89 -17v55q62 35 131 35q68 0 106 -32.5t38 -91.5q0 -48 -31.5 -89.5t-97.5 -90.5l-62 -48v-1h127l25 47h50l-9 -118h-293zM171 -40l483 753h83l-483 -753h-83z" />
    <glyph glyph-name="oneeighth" unicode="&#x215b;" horiz-adv-x="879" 
d="M675 -8q-82 0 -124.5 30t-42.5 83q0 35 24.5 61.5t64.5 40.5q-73 33 -73 103q0 51 41 82.5t112 31.5q70 0 109.5 -27.5t39.5 -75.5q0 -63 -77 -93q96 -35 96 -111q0 -58 -44.5 -91.5t-125.5 -33.5zM671 46q77 0 77 58q0 27 -23 43t-81 35q-50 -27 -50 -73q0 -63 77 -63z
M697 251q44 24 44 66q0 52 -62 52q-28 0 -45 -12.5t-17 -34.5q0 -27 18 -41.5t62 -29.5zM43 282v47l60 10v268l-65 -5v46l124 55h45v-364l61 -10v-47h-225zM120 -40l483 753h83l-483 -753h-83z" />
    <glyph glyph-name="threeeighths" unicode="&#x215c;" horiz-adv-x="900" 
d="M695 -8q-82 0 -124.5 30t-42.5 83q0 35 24.5 61.5t64.5 40.5q-73 33 -73 103q0 51 41 82.5t112 31.5q70 0 109.5 -27.5t39.5 -75.5q0 -63 -77 -93q96 -35 96 -111q0 -58 -44.5 -91.5t-125.5 -33.5zM691 46q77 0 77 58q0 27 -23 43t-81 35q-50 -27 -50 -73q0 -63 77 -63z
M717 251q44 24 44 66q0 52 -62 52q-28 0 -45 -12.5t-17 -34.5q0 -27 18 -41.5t62 -29.5zM144 -40l483 753h83l-483 -753h-83zM158 275q-72 0 -124 28v52q47 -15 94 -15q88 0 88 65q0 35 -19.5 49.5t-62.5 14.5h-36v56h31q77 0 77 58q0 59 -72 59q-47 0 -83 -12v51
q48 25 117 25q66 0 102 -27t36 -77q0 -74 -83 -98v-3q44 -7 71.5 -32.5t27.5 -71.5q0 -57 -43.5 -89.5t-120.5 -32.5z" />
    <glyph glyph-name="fiveeighths" unicode="&#x215d;" horiz-adv-x="880" 
d="M675 -8q-82 0 -124.5 30t-42.5 83q0 35 24.5 61.5t64.5 40.5q-73 33 -73 103q0 51 41 82.5t112 31.5q70 0 109.5 -27.5t39.5 -75.5q0 -63 -77 -93q96 -35 96 -111q0 -58 -44.5 -91.5t-125.5 -33.5zM671 46q77 0 77 58q0 27 -23 43t-81 35q-50 -27 -50 -73q0 -63 77 -63z
M697 251q44 24 44 66q0 52 -62 52q-28 0 -45 -12.5t-17 -34.5q0 -27 18 -41.5t62 -29.5zM142 275q-68 0 -119 30v50q45 -15 88 -15q93 0 93 72t-94 72q-22 0 -66 -7l15 222h234l-7 -75h-171l-7 -86q26 6 54 6q69 0 108.5 -33.5t39.5 -94.5q0 -63 -44 -102t-124 -39zM126 -40
l483 753h83l-483 -753h-83z" />
    <glyph glyph-name="seveneighths" unicode="&#x215e;" horiz-adv-x="869" 
d="M665 -8q-82 0 -124.5 30t-42.5 83q0 35 24.5 61.5t64.5 40.5q-73 33 -73 103q0 51 41 82.5t112 31.5q70 0 109.5 -27.5t39.5 -75.5q0 -63 -77 -93q96 -35 96 -111q0 -58 -44.5 -91.5t-125.5 -33.5zM661 46q77 0 77 58q0 27 -23 43t-81 35q-50 -27 -50 -73q0 -63 77 -63z
M687 251q44 24 44 66q0 52 -62 52q-28 0 -45 -12.5t-17 -34.5q0 -27 18 -41.5t62 -29.5zM80 282l191 339v3h-166l-17 -47h-54l7 122h299v-63l-146 -354h-114zM101 -40l483 753h83l-483 -753h-83z" />
    <glyph glyph-name="minus" unicode="&#x2212;" horiz-adv-x="531" 
d="M53 299v83h425v-83h-425z" />
    <glyph glyph-name="uni24C5" unicode="&#x24c5;" horiz-adv-x="782" 
d="M390 -14q-150 0 -252 104.5t-102 253.5t102 252.5t252 103.5q149 0 252.5 -104t103.5 -252t-103.5 -253t-252.5 -105zM390 38q128 0 210.5 89t82.5 217t-82.5 217t-210.5 89t-210 -88.5t-82 -217.5t82 -217.5t210 -88.5zM394 309v43q8 -1 18 -1q28 0 40.5 14.5t12.5 47.5
t-15 47.5t-48 14.5h-30v-263l45 -11v-42h-176v42l40 11v264l-40 9v42h162q152 0 152 -110q0 -58 -36.5 -85t-89.5 -27q-23 0 -35 4z" />
    <glyph glyph-name="space_uni0326" 
d="M169 -185q13 58 13 145h124q-10 -92 -51 -145h-86z" />
    <glyph glyph-name="caron.alt" 
d="M257 565l-59 10l14 170l106 -17z" />
    <glyph glyph-name="space_uni0326.alt" 
d="M315 746q-13 -56 -13 -145h-124q11 93 51 145h86z" />
    <glyph glyph-name="acute.pl" 
d="M285 571l-62 16l58 167l112 -46z" />
    <glyph glyph-name="grave.uc" 
d="M335 726l-219 61l41 96l198 -105z" />
    <glyph glyph-name="dieresis.uc" 
d="M155 733q-27 0 -47 19t-20 46q0 28 19.5 46t47.5 18t48 -18t20 -46q0 -27 -20 -46t-48 -19zM337 733q-28 0 -48 19t-20 46q0 28 20 46t48 18t47.5 -18t19.5 -46t-19.5 -46.5t-47.5 -18.5z" />
    <glyph glyph-name="macron.uc" 
d="M115 748v80h261v-80h-261z" />
    <glyph glyph-name="acute.uc" 
d="M377 787l-219 -61l-20 52l198 105z" />
    <glyph glyph-name="circumflex.uc" 
d="M119 728l-23 39l119 105h61l120 -105l-23 -39l-127 54z" />
    <glyph glyph-name="caron.uc" 
d="M373 879l23 -38l-120 -106h-61l-119 106l23 38l127 -54z" />
    <glyph glyph-name="breve.uc" 
d="M263 732q-61 0 -98 35t-42 89h75q11 -41 65 -41t65 41h75q-4 -54 -41.5 -89t-98.5 -35z" />
    <glyph glyph-name="dotaccent.uc" 
d="M246 733q-30 0 -51.5 20t-21.5 49q0 30 21 49t52 19q30 0 51 -19t21 -49q0 -29 -21 -49t-51 -20z" />
    <glyph glyph-name="ring.uc" 
d="M246 767q22 0 35 13.5t13 35.5t-13 36t-35 14t-35 -14t-13 -36t13 -35.5t35 -13.5zM246 719q-44 0 -73 28.5t-29 68.5t29 68.5t73 28.5q43 0 72.5 -28.5t29.5 -68.5t-29.5 -68.5t-72.5 -28.5z" />
    <glyph glyph-name="tilde.uc" 
d="M134 732l-50 29q41 97 109 97q24 0 61 -15.5t50 -15.5q31 0 54 38l51 -28q-42 -98 -110 -98q-24 0 -61 15.5t-50 15.5q-30 0 -54 -38z" />
    <glyph glyph-name="hungarumlaut.uc" 
d="M164 729l-46 30l85 137l85 -55zM332 730l-44 31l89 136l83 -60z" />
    <glyph glyph-name="acute.ucpl" 
d="M291 727l-69 16l57 159l115 -45z" />
    <glyph glyph-name="Cacute.pl" horiz-adv-x="621" 
d="M357 -12q-154 0 -243 85t-89 266q0 99 29 172t79.5 114t110.5 60.5t130 19.5q121 0 201 -28l6 -183h-74l-38 107q-51 22 -104 22q-193 0 -193 -264q0 -150 47.5 -219t153.5 -69q57 0 102 25l37 114h75l-7 -185q-84 -37 -223 -37zM380 727l-69 16l57 159l115 -45z" />
    <glyph glyph-name="Nacute.pl" horiz-adv-x="718" 
d="M402 727l-69 16l57 159l115 -45zM19 0v61l81 19v533l-81 18v62h245l273 -470h5v389l-81 19v62h246v-61l-72 -19v-613h-117l-320 553h-4v-473l82 -19v-61h-257z" />
    <glyph glyph-name="Oacute.pl" horiz-adv-x="694" 
d="M366 727l-69 16l57 159l115 -45zM347 70q87 0 131.5 70t44.5 198q0 286 -177 286q-87 0 -131 -70.5t-44 -197.5q0 -144 41 -215t135 -71zM345 -12q-141 0 -230.5 93.5t-89.5 263.5q0 90 27.5 161t74 113.5t103 64t119.5 21.5q141 0 230 -92.5t89 -262.5
q0 -90 -27.5 -161.5t-73.5 -114t-102.5 -64.5t-119.5 -22z" />
    <glyph glyph-name="Sacute.pl" horiz-adv-x="537" 
d="M253 -12q-122 0 -207 34l-8 169h76l30 -96q50 -26 113 -26q59 0 91 29t32 74q0 44 -28.5 69t-91.5 50l-67 28q-72 28 -109 71.5t-37 119.5q0 88 60 142t179 54q103 0 181 -26l8 -157h-75l-24 81q-44 22 -97 22q-49 0 -80 -22.5t-31 -64.5q0 -37 24 -61t78 -44l68 -28
q88 -34 130 -76t42 -125q0 -96 -65 -156.5t-192 -60.5zM304 727l-69 16l57 159l115 -45z" />
    <glyph glyph-name="Zacute.pl" horiz-adv-x="556" 
d="M14 0v73l364 537v4h-230l-43 -124h-75l11 203h499v-73l-365 -537v-4h251l45 131h73l-10 -210h-520zM318 727l-69 16l57 159l115 -45z" />
    <glyph glyph-name="cacute.pl" horiz-adv-x="473" 
d="M282 -12q-126 0 -193 71.5t-67 196.5q0 139 76.5 207t202.5 68q85 0 145 -20v-144h-77l-17 81q-28 8 -61 8q-137 0 -137 -187q0 -193 166 -193q81 0 133 25v-66q-65 -47 -171 -47zM302 571l-62 16l58 167l112 -46z" />
    <glyph glyph-name="idotaccent" horiz-adv-x="289" 
d="M15 0v55l67 16v360l-73 16v59l187 24l13 -7v-452l67 -16v-55h-261zM141 595q-30 0 -51.5 19.5t-21.5 48.5q0 30 21.5 49.5t51.5 19.5q31 0 52.5 -19.5t21.5 -49.5q0 -29 -21.5 -48.5t-52.5 -19.5z" />
    <glyph glyph-name="nacute.pl" horiz-adv-x="601" 
d="M319 571l-62 16l58 167l112 -46zM14 0v55l68 16v360l-69 16v59l177 24l13 -7v-49h6q86 57 173 57q70 0 106 -31.5t36 -103.5v-325l67 -16v-55h-255v55l62 15v287q0 43 -21.5 60.5t-68.5 17.5q-40 0 -99 -19v-346l61 -15v-55h-256z" />
    <glyph glyph-name="oacute.pl" horiz-adv-x="558" 
d="M281 63q122 0 122 192q0 107 -35 154t-91 47q-123 0 -123 -192q0 -107 35.5 -154t91.5 -47zM280 -13q-119 0 -188.5 73t-69.5 197t73.5 199t182.5 75q119 0 188.5 -72t69.5 -196t-73.5 -200t-182.5 -76zM302 571l-62 16l58 167l112 -46z" />
    <glyph glyph-name="sacute.pl" horiz-adv-x="443" 
d="M201 -13q-89 0 -169 30l-9 141h73l24 -78q38 -20 88 -20q43 0 69 17t26 50q0 32 -18 47t-67 30l-56 16q-68 19 -101.5 55t-33.5 96q0 70 52.5 115t152.5 45q88 0 155 -23v-133h-70l-19 69q-30 15 -74 15q-87 0 -87 -61q0 -28 19.5 -44t69.5 -30l59 -17q72 -21 103.5 -57
t31.5 -93q0 -76 -55.5 -123t-163.5 -47zM248 571l-62 16l58 167l112 -46z" />
    <glyph glyph-name="zacute.pl" horiz-adv-x="485" 
d="M24 0v66l282 381v4h-175l-29 -100h-64l9 170h404v-66l-278 -380v-4h182l35 111h66l-13 -182h-419zM272 571l-62 16l58 167l112 -46z" />
    <glyph glyph-name="dollar.old" horiz-adv-x="516" 
d="M168 -108l12 100q-83 6 -141 28l-8 151h71l31 -88q25 -13 57 -17l27 219l-30 11q-150 49 -150 179q0 82 57 131t170 50l8 63h67l-9 -66q54 -6 116 -26l8 -134h-70l-23 73q-18 7 -40 11l-24 -193l24 -9q82 -27 124.5 -68.5t42.5 -118.5q0 -89 -60 -142.5t-180 -56.5
l-12 -97h-68zM370 160q0 38 -21 61t-67 41l-25 -200q56 2 84.5 28.5t28.5 69.5zM148 500q0 -35 20 -55.5t65 -37.5l22 176q-49 -1 -78 -22.5t-29 -60.5z" />
    <glyph glyph-name="Euro.old" horiz-adv-x="607" 
d="M26 353v60h73q23 126 103 184t193 58q87 0 164 -25l5 -164h-70l-34 95q-31 17 -74 17q-134 0 -157 -165h189v-60h-193v-14q0 -39 2 -56h191v-61h-183q16 -76 58.5 -111t117.5 -35q68 0 155 32v-66q-79 -54 -185 -54q-112 0 -185.5 58.5t-95.5 175.5h-74v61h67
q-1 12 -1 38q0 21 1 32h-67z" />
    <glyph glyph-name="sterling.old" horiz-adv-x="527" 
d="M54 281v75h63v73q0 111 63.5 168.5t156.5 57.5q96 0 153 -43v-70q-54 20 -113 20q-127 0 -135 -144l-3 -62h168v-75h-172l-1 -24q-3 -62 -20 -94.5t-52 -63.5v-2h336l-12 -97h-452v65q42 25 62.5 62.5t20.5 100.5v53h-63z" />
    <glyph glyph-name="yen.old" horiz-adv-x="593" 
d="M73 274v60h136l-152 230l-50 19v60h256v-60l-62 -17l124 -204h3l116 204l-62 17v60h204v-60l-50 -19l-142 -230h139v-60h-164v-59h164v-59h-164v-77l80 -18v-61h-294v61l82 18v77h-164v59h164v59h-164z" />
    <glyph glyph-name="zero.old" horiz-adv-x="614" 
d="M309 65q68 0 101.5 53.5t33.5 172.5q0 124 -34 180.5t-103 56.5q-138 0 -138 -228q0 -123 34.5 -179t105.5 -56zM308 -12q-123 0 -199.5 76.5t-76.5 227.5q0 155 78.5 234t197.5 79t196.5 -77t77.5 -229q0 -154 -77 -232.5t-197 -78.5z" />
    <glyph glyph-name="one.old" horiz-adv-x="402" 
d="M37 0v59l102 17v397l-108 -11v59l192 80h52v-525l100 -17v-59h-338z" />
    <glyph glyph-name="two.old" horiz-adv-x="491" 
d="M12 0v68l158 135q136 117 136 203q0 105 -125 105q-61 0 -147 -28v69q90 53 201 53q101 0 158 -46.5t57 -132.5q0 -72 -48 -128t-163 -139l-86 -62v-2h215l41 74h59l-11 -169h-445z" />
    <glyph glyph-name="three.old" horiz-adv-x="493" 
d="M209 -110q-113 0 -196 47v67q81 -28 157 -28q72 0 112.5 31.5t40.5 88.5q0 69 -35 97.5t-111 28.5h-52v76h43q66 0 101 29t35 83q0 108 -126 108q-66 0 -137 -22v66q79 43 183 43q102 0 156.5 -44.5t54.5 -128.5q0 -62 -34.5 -104t-98.5 -59v-4q73 -11 116.5 -55
t43.5 -121q0 -91 -67.5 -145t-185.5 -54z" />
    <glyph glyph-name="four.old" horiz-adv-x="581" 
d="M321 -101v184h-306v72l329 438h109v-431h97v-79h-97v-184h-132zM111 162h210v277h-4l-206 -274v-3z" />
    <glyph glyph-name="five.old" horiz-adv-x="498" 
d="M205 -111q-100 0 -185 48v66q84 -28 150 -28q73 0 116.5 37t43.5 103q0 70 -40 101.5t-122 31.5q-43 0 -110 -13l24 358h359l-9 -102h-272l-13 -167q42 8 86 8q112 0 173 -55t61 -156q0 -104 -70.5 -168t-191.5 -64z" />
    <glyph glyph-name="six.old" horiz-adv-x="566" 
d="M292 -13q-122 0 -191 89.5t-69 240.5q0 99 26.5 175.5t72.5 122t102 68t120 22.5q99 0 155 -37v-68q-45 17 -129 17q-193 0 -211 -238q72 52 165 52t149 -56t56 -152q0 -102 -65 -169t-181 -67zM291 62q111 0 111 150q0 139 -114 139q-69 0 -120 -36q-1 -4 -1 -21
q0 -232 124 -232z" />
    <glyph glyph-name="seven.old" horiz-adv-x="496" 
d="M89 -100l303 587v4h-285l-27 -74h-66l9 176h456v-83l-243 -610h-147z" />
    <glyph glyph-name="eight.old" horiz-adv-x="578" 
d="M290 -13q-123 0 -190 49t-67 137q0 60 41.5 105.5t102.5 67.5q-118 58 -118 175q0 80 62 132t168 52t167 -45t61 -124q0 -105 -126 -158q155 -61 155 -187q0 -93 -67 -148.5t-189 -55.5zM284 61q67 0 100.5 29.5t33.5 80.5t-39 79t-139 65q-93 -46 -93 -137
q0 -56 35 -86.5t102 -30.5zM322 407q83 45 83 122q0 51 -32 76.5t-81 25.5t-80 -26.5t-31 -67.5q0 -49 32 -76.5t109 -53.5z" />
    <glyph glyph-name="nine.old" horiz-adv-x="566" 
d="M211 -112q-100 0 -156 37v68q50 -19 129 -19q94 0 149 53t65 186q-75 -52 -165 -52q-93 0 -149 56t-56 153q0 102 64.5 168.5t181.5 66.5q123 0 191.5 -88t68.5 -242q0 -195 -89 -291t-234 -96zM278 241q69 0 120 36q1 4 1 22q0 231 -124 231q-111 0 -111 -150
q0 -139 114 -139z" />
    <glyph glyph-name="percent.old" horiz-adv-x="826" 
d="M194 341q36 0 51 28.5t15 90.5q0 63 -15 94t-51 31t-51 -29.5t-15 -91.5t15 -92.5t51 -30.5zM194 285q-73 0 -121.5 45.5t-48.5 129.5q0 87 49.5 134t120.5 47t120.5 -46t49.5 -131q0 -86 -49 -132.5t-121 -46.5zM140 -32l459 681h81l-459 -681h-81zM632 47q36 0 51 28.5
t15 90.5q0 63 -15 94t-51 31t-51 -29.5t-15 -91.5t15 -92.5t51 -30.5zM631 -10q-72 0 -120 45.5t-48 130.5q0 87 49 134t120 47t120.5 -46t49.5 -131q0 -86 -49 -133t-122 -47z" />
    <glyph glyph-name="perthousand.old" horiz-adv-x="1201" 
d="M194 341q36 0 51 28.5t15 90.5q0 63 -15 94t-51 31t-51 -29.5t-15 -91.5t15 -92.5t51 -30.5zM194 285q-73 0 -121.5 45.5t-48.5 129.5q0 87 49.5 134t120.5 47t120.5 -46t49.5 -131q0 -86 -49 -132.5t-121 -46.5zM136 -32l458 681h82l-459 -681h-81zM623 47q37 0 52 28.5
t15 90.5q0 63 -15 94t-51 31t-51.5 -29.5t-15.5 -91.5t15 -92.5t51 -30.5zM623 -10q-72 0 -120.5 45.5t-48.5 130.5q0 87 49.5 134t120.5 47t120.5 -46t49.5 -131q0 -86 -49 -133t-122 -47zM1006 47q36 0 51 28.5t15 90.5q0 63 -15 94t-50 31q-36 0 -51.5 -29.5t-15.5 -91.5
t15 -92.5t51 -30.5zM1006 -10q-72 0 -120.5 45.5t-48.5 130.5q0 87 49.5 134t120.5 47q70 0 119.5 -46t49.5 -131q0 -86 -49 -133t-121 -47z" />
    <glyph glyph-name="plus.old" horiz-adv-x="531" 
d="M222 530h87v-176h169v-83h-169v-176h-87v176h-169v83h169v176z" />
    <glyph glyph-name="minus.old" horiz-adv-x="531" 
d="M53 271v83h425v-83h-425z" />
    <glyph glyph-name="multiply.old" horiz-adv-x="531" 
d="M121 105l-57 57l145 146l-145 147l57 57l145 -146l145 145l57 -57l-145 -146l146 -146l-58 -57l-145 146z" />
    <glyph glyph-name="divide.old" horiz-adv-x="531" 
d="M265 63q-31 0 -52.5 21.5t-21.5 49.5q0 30 21.5 51t52.5 21t52.5 -21t21.5 -51q0 -28 -21.5 -49.5t-52.5 -21.5zM53 271v83h425v-83h-425zM265 418q-31 0 -52.5 21t-21.5 50q0 30 21.5 51t52.5 21t52.5 -21t21.5 -51q0 -29 -21.5 -50t-52.5 -21z" />
    <glyph glyph-name="equal.old" horiz-adv-x="524" 
d="M55 147v83h414v-83h-414zM55 329v83h414v-83h-414z" />
    <glyph glyph-name="less.old" horiz-adv-x="504" 
d="M55 344l385 174v-94l-279 -117l279 -118v-94l-385 175v74z" />
    <glyph glyph-name="greater.old" horiz-adv-x="504" 
d="M449 270l-386 -175v94l280 117l-280 118v94l386 -174v-74z" />
    <glyph glyph-name="numbersign.old" horiz-adv-x="515" 
d="M61 379v103h95l25 161h74l-26 -161h106l26 161h73l-25 -161h77v-103h-94l-16 -103h78v-103h-94l-28 -173h-73l27 173h-106l-27 -173h-74l28 173h-79v103h95l16 103h-78zM213 379l-17 -103h106l17 103h-106z" />
    <glyph glyph-name="zero.num" horiz-adv-x="427" 
d="M214 332q79 0 79 155q0 85 -19 123t-60 38q-79 0 -79 -156q0 -84 19 -122t60 -38zM214 274q-83 0 -133.5 53.5t-50.5 159.5q0 109 52 164t132 55q82 0 132.5 -54t50.5 -160q0 -108 -51.5 -163t-131.5 -55z" />
    <glyph glyph-name="one.num" horiz-adv-x="294" 
d="M40 282v47l60 10v268l-65 -5v46l124 55h45v-364l61 -10v-47h-225z" />
    <glyph glyph-name="two.num" horiz-adv-x="356" 
d="M24 282v55l100 95q83 79 83 133q0 68 -78 68q-40 0 -89 -17v55q62 35 131 35q68 0 106 -32.5t38 -91.5q0 -48 -31.5 -89.5t-97.5 -90.5l-62 -48v-1h127l25 47h50l-9 -118h-293z" />
    <glyph glyph-name="three.num" horiz-adv-x="350" 
d="M155 275q-72 0 -124 28v52q47 -15 94 -15q88 0 88 65q0 35 -19.5 49.5t-62.5 14.5h-36v56h31q77 0 77 58q0 59 -72 59q-47 0 -83 -12v51q48 25 117 25q66 0 102 -27t36 -77q0 -74 -83 -98v-3q44 -7 71.5 -32.5t27.5 -71.5q0 -57 -43.5 -89.5t-120.5 -32.5z" />
    <glyph glyph-name="four.num" horiz-adv-x="396" 
d="M160 282v47l50 10v63h-185v50l200 247h84v-241h56v-56h-56v-63l51 -10v-47h-200zM98 458h112v140h-3l-109 -138v-2z" />
    <glyph glyph-name="five.num" horiz-adv-x="338" 
d="M139 275q-68 0 -119 30v50q45 -15 88 -15q93 0 93 72t-94 72q-22 0 -66 -7l15 222h234l-7 -75h-171l-7 -86q26 6 54 6q69 0 108.5 -33.5t39.5 -94.5q0 -63 -44 -102t-124 -39z" />
    <glyph glyph-name="six.num" horiz-adv-x="395" 
d="M203 274q-81 0 -126.5 54t-45.5 147q0 116 58 173.5t144 57.5q67 0 106 -23v-54q-27 10 -83 10q-114 0 -123 -122q50 27 102 27q60 0 95 -34t35 -92q0 -62 -42 -103t-120 -41zM203 331q64 0 64 82q0 74 -66 74q-42 0 -68 -17v-15q0 -124 70 -124z" />
    <glyph glyph-name="seven.num" horiz-adv-x="355" 
d="M77 282l191 339v3h-166l-17 -47h-54l7 122h299v-63l-146 -354h-114z" />
    <glyph glyph-name="eight.num" horiz-adv-x="400" 
d="M199 274q-82 0 -124.5 30t-42.5 83q0 35 24.5 61.5t64.5 40.5q-73 33 -73 103q0 51 41 82.5t112 31.5q70 0 109.5 -27.5t39.5 -75.5q0 -63 -77 -93q96 -34 96 -111q0 -58 -44.5 -91.5t-125.5 -33.5zM195 328q77 0 77 58q0 27 -23 43t-81 36q-50 -28 -50 -74q0 -63 77 -63
zM221 533q44 24 44 67q0 51 -62 51q-28 0 -45 -12.5t-17 -34.5q0 -27 18 -41.5t62 -29.5z" />
    <glyph glyph-name="nine.num" horiz-adv-x="394" 
d="M158 274q-63 0 -104 24v54q35 -11 82 -11q59 0 90.5 27t35.5 96q-46 -28 -103 -28q-60 0 -95 34t-35 92q0 62 42 103t120 41q81 0 127 -54.5t46 -146.5q0 -116 -55 -173.5t-151 -57.5zM194 494q42 0 68 17v14q0 124 -71 124q-30 0 -47 -21.5t-17 -60.5q0 -73 67 -73z" />
    <glyph glyph-name="zero.den" horiz-adv-x="427" 
d="M214 50q79 0 79 155q0 85 -19 123t-60 38q-79 0 -79 -156q0 -84 19 -122t60 -38zM214 -8q-83 0 -133.5 53.5t-50.5 159.5q0 109 52 164t132 55q82 0 132.5 -54t50.5 -160q0 -108 -51.5 -163t-131.5 -55z" />
    <glyph glyph-name="one.den" horiz-adv-x="294" 
d="M40 0v47l60 10v268l-65 -5v46l124 55h45v-364l61 -10v-47h-225z" />
    <glyph glyph-name="two.den" horiz-adv-x="356" 
d="M24 0v55l100 95q83 79 83 133q0 68 -78 68q-40 0 -89 -17v55q62 35 131 35q68 0 106 -32.5t38 -91.5q0 -48 -31.5 -89.5t-97.5 -90.5l-62 -48v-1h127l25 47h50l-9 -118h-293z" />
    <glyph glyph-name="three.den" horiz-adv-x="350" 
d="M155 -7q-72 0 -124 28v52q47 -15 94 -15q88 0 88 65q0 35 -19.5 49.5t-62.5 14.5h-36v56h31q77 0 77 58q0 59 -72 59q-47 0 -83 -12v51q48 25 117 25q66 0 102 -27t36 -77q0 -74 -83 -98v-3q44 -7 71.5 -32.5t27.5 -71.5q0 -57 -43.5 -89.5t-120.5 -32.5z" />
    <glyph glyph-name="four.den" horiz-adv-x="396" 
d="M160 0v47l50 10v63h-185v50l200 247h84v-241h56v-56h-56v-63l51 -10v-47h-200zM98 176h112v140h-3l-109 -138v-2z" />
    <glyph glyph-name="five.den" horiz-adv-x="338" 
d="M139 -7q-68 0 -119 30v50q45 -15 88 -15q93 0 93 72t-94 72q-22 0 -66 -7l15 222h232l-6 -74h-170l-7 -87q26 6 54 6q69 0 108.5 -33.5t39.5 -94.5q0 -63 -44 -102t-124 -39z" />
    <glyph glyph-name="six.den" horiz-adv-x="395" 
d="M203 -8q-81 0 -126.5 54t-45.5 147q0 116 58 173.5t144 57.5q67 0 106 -23v-54q-27 10 -83 10q-114 0 -123 -122q50 27 102 27q60 0 95 -34t35 -92q0 -62 -42 -103t-120 -41zM203 49q64 0 64 82q0 74 -66 74q-42 0 -68 -17v-15q0 -124 70 -124z" />
    <glyph glyph-name="seven.den" horiz-adv-x="355" 
d="M77 0l191 339v3h-166l-17 -47h-54l7 122h299v-63l-146 -354h-114z" />
    <glyph glyph-name="eight.den" horiz-adv-x="400" 
d="M199 -8q-82 0 -124.5 30t-42.5 83q0 35 24.5 61.5t64.5 40.5q-73 33 -73 103q0 51 41 82.5t112 31.5q70 0 109.5 -27.5t39.5 -75.5q0 -63 -77 -93q96 -35 96 -111q0 -58 -44.5 -91.5t-125.5 -33.5zM195 46q77 0 77 58q0 27 -23 43t-81 35q-50 -27 -50 -73q0 -63 77 -63z
M221 251q44 24 44 66q0 52 -62 52q-28 0 -45 -12.5t-17 -34.5q0 -27 18 -41.5t62 -29.5z" />
    <glyph glyph-name="nine.den" horiz-adv-x="394" 
d="M158 -8q-63 0 -104 24v54q35 -11 82 -11q59 0 90.5 27t35.5 96q-46 -28 -103 -28q-60 0 -95 34t-35 92q0 62 42 103t120 41q81 0 127 -54.5t46 -146.5q0 -116 -55 -173.5t-151 -57.5zM194 212q42 0 68 17v14q0 124 -71 124q-30 0 -47 -21.5t-17 -60.5q0 -73 67 -73z" />
    <glyph glyph-name="zero.sub" horiz-adv-x="427" 
d="M214 -70q79 0 79 155q0 85 -19 123t-60 38q-79 0 -79 -156q0 -84 19 -122t60 -38zM214 -128q-83 0 -133.5 53.5t-50.5 159.5q0 109 52 164t132 55q82 0 132.5 -54t50.5 -160q0 -108 -51.5 -163t-131.5 -55z" />
    <glyph glyph-name="one.sub" horiz-adv-x="294" 
d="M40 -120v47l60 10v268l-65 -5v46l124 55h45v-364l61 -10v-47h-225z" />
    <glyph glyph-name="two.sub" horiz-adv-x="356" 
d="M24 -120v55l100 95q83 79 83 133q0 68 -78 68q-40 0 -89 -17v55q62 35 131 35q68 0 106 -32.5t38 -91.5q0 -48 -31.5 -89.5t-97.5 -90.5l-62 -48v-2h127l25 48h50l-9 -118h-293z" />
    <glyph glyph-name="three.sub" horiz-adv-x="350" 
d="M155 -127q-72 0 -124 28v51q50 -14 94 -14q88 0 88 65q0 35 -19.5 49.5t-62.5 14.5h-36v56h31q77 0 77 58q0 59 -72 59q-47 0 -83 -12v51q48 25 117 25q66 0 102 -27t36 -77q0 -74 -83 -98v-3q44 -7 71.5 -32.5t27.5 -71.5q0 -57 -43.5 -89.5t-120.5 -32.5z" />
    <glyph glyph-name="four.sub" horiz-adv-x="396" 
d="M160 -120v47l50 10v63h-185v50l200 247h84v-241h56v-56h-56v-63l51 -10v-47h-200zM98 56h112v140h-3l-109 -138v-2z" />
    <glyph glyph-name="five.sub" horiz-adv-x="338" 
d="M139 -127q-68 0 -119 30v50q45 -15 88 -15q93 0 93 72t-94 72q-22 0 -66 -7l15 222h232l-6 -74h-170l-7 -87q26 6 54 6q69 0 108.5 -33.5t39.5 -94.5q0 -63 -44 -102t-124 -39z" />
    <glyph glyph-name="six.sub" horiz-adv-x="395" 
d="M203 -128q-81 0 -126.5 54t-45.5 147q0 116 58 173.5t144 57.5q67 0 106 -23v-54q-27 10 -83 10q-114 0 -123 -122q50 27 102 27q60 0 95 -34t35 -92q0 -62 -42 -103t-120 -41zM203 -71q64 0 64 82q0 74 -66 74q-42 0 -68 -17v-15q0 -124 70 -124z" />
    <glyph glyph-name="seven.sub" horiz-adv-x="355" 
d="M77 -120l191 339v3h-166l-17 -47h-54l7 122h299v-63l-146 -354h-114z" />
    <glyph glyph-name="eight.sub" horiz-adv-x="400" 
d="M199 -128q-82 0 -124.5 30t-42.5 83q0 35 24.5 61.5t64.5 40.5q-73 33 -73 103q0 51 41 82.5t112 31.5q70 0 109.5 -27.5t39.5 -75.5q0 -63 -77 -93q96 -35 96 -111q0 -58 -44.5 -91.5t-125.5 -33.5zM195 -74q77 0 77 58q0 27 -23 43t-81 35q-50 -27 -50 -73
q0 -63 77 -63zM221 131q44 24 44 66q0 52 -62 52q-28 0 -45 -12.5t-17 -34.5q0 -27 18 -41.5t62 -29.5z" />
    <glyph glyph-name="nine.sub" horiz-adv-x="394" 
d="M158 -128q-62 0 -104 23v54q38 -10 82 -10q59 0 90.5 27t35.5 96q-46 -28 -103 -28q-60 0 -95 34t-35 92q0 62 42 103t120 41q81 0 127 -54.5t46 -146.5q0 -116 -55 -173.5t-151 -57.5zM194 92q42 0 68 17v14q0 124 -71 124q-30 0 -47 -21.5t-17 -60.5q0 -73 67 -73z" />
    <glyph glyph-name="zero.sup" horiz-adv-x="427" 
d="M214 372q79 0 79 155q0 85 -19 123t-60 38q-79 0 -79 -156q0 -84 19 -122t60 -38zM214 314q-83 0 -133.5 53.5t-50.5 159.5q0 109 52 164t132 55q82 0 132.5 -54t50.5 -160q0 -108 -51.5 -163t-131.5 -55z" />
    <glyph glyph-name="one.sup" horiz-adv-x="294" 
d="M40 322v47l60 10v268l-65 -5v46l124 55h45v-364l61 -10v-47h-225z" />
    <glyph glyph-name="two.sup" horiz-adv-x="356" 
d="M24 322v55l100 95q83 79 83 133q0 68 -78 68q-40 0 -89 -17v55q62 35 131 35q68 0 106 -32.5t38 -91.5q0 -48 -31.5 -89.5t-97.5 -90.5l-62 -48v-1h127l25 47h50l-9 -118h-293z" />
    <glyph glyph-name="three.sup" horiz-adv-x="350" 
d="M155 315q-72 0 -124 28v52q47 -15 94 -15q88 0 88 65q0 35 -19.5 49.5t-62.5 14.5h-36v56h31q77 0 77 58q0 59 -72 59q-47 0 -83 -12v51q48 25 117 25q66 0 102 -27t36 -77q0 -74 -83 -98v-3q44 -7 71.5 -32.5t27.5 -71.5q0 -57 -43.5 -89.5t-120.5 -32.5z" />
    <glyph glyph-name="four.sup" horiz-adv-x="396" 
d="M160 322v47l50 10v63h-185v50l200 247h84v-241h56v-56h-56v-63l51 -10v-47h-200zM98 498h112v140h-3l-109 -138v-2z" />
    <glyph glyph-name="five.sup" horiz-adv-x="338" 
d="M139 315q-68 0 -119 30v50q45 -15 88 -15q93 0 93 72t-94 72q-22 0 -66 -7l15 222h232l-6 -74h-170l-7 -87q26 6 54 6q69 0 108.5 -33.5t39.5 -94.5q0 -63 -44 -102t-124 -39z" />
    <glyph glyph-name="six.sup" horiz-adv-x="395" 
d="M203 314q-81 0 -126.5 54t-45.5 147q0 116 58 173.5t144 57.5q67 0 106 -23v-54q-27 10 -83 10q-114 0 -123 -122q50 27 102 27q60 0 95 -34t35 -92q0 -62 -42 -103t-120 -41zM203 371q64 0 64 82q0 74 -66 74q-42 0 -68 -17v-15q0 -124 70 -124z" />
    <glyph glyph-name="seven.sup" horiz-adv-x="355" 
d="M77 322l191 339v3h-166l-17 -47h-54l7 122h299v-63l-146 -354h-114z" />
    <glyph glyph-name="eight.sup" horiz-adv-x="400" 
d="M199 314q-82 0 -124.5 30t-42.5 83q0 35 24.5 61.5t64.5 40.5q-73 33 -73 103q0 51 41 82.5t112 31.5q70 0 109.5 -27.5t39.5 -75.5q0 -63 -77 -93q96 -34 96 -111q0 -58 -44.5 -91.5t-125.5 -33.5zM195 368q77 0 77 58q0 27 -23 43t-81 36q-50 -28 -50 -74q0 -63 77 -63
zM221 573q44 24 44 67q0 51 -62 51q-28 0 -45 -12.5t-17 -34.5q0 -27 18 -41.5t62 -29.5z" />
    <glyph glyph-name="nine.sup" horiz-adv-x="394" 
d="M158 314q-63 0 -104 24v54q35 -11 82 -11q59 0 90.5 27t35.5 96q-46 -28 -103 -28q-60 0 -95 34t-35 92q0 62 42 103t120 41q81 0 127 -54.5t46 -146.5q0 -116 -55 -173.5t-151 -57.5zM194 534q42 0 68 17v14q0 124 -71 124q-30 0 -47 -21.5t-17 -60.5q0 -73 67 -73z" />
    <glyph glyph-name="K.alt" horiz-adv-x="688" 
d="M19 0v62l81 18v533l-81 18v62h299v-62l-80 -17v-274l243 274l-62 17v62h240v-62l-64 -18l-197 -212l214 -321l69 -18v-62h-179l-200 304l-64 -60v-165l80 -17v-62h-299z" />
    <glyph glyph-name="P.alt" horiz-adv-x="587" 
d="M19 0v62l81 18v533l-81 18v62h287q141 0 204 -51.5t63 -149.5q0 -212 -238 -212q-52 0 -97 8v-208l96 -18v-62h-315zM238 612v-256q38 -4 71 -4q68 0 95.5 32.5t27.5 100.5q0 67 -28 97t-90 30h-76z" />
    <glyph glyph-name="R.alt" horiz-adv-x="669" 
d="M456 344v-4q63 -13 92.5 -44t29.5 -95v-79q0 -31 14 -42.5t44 -11.5h23v-58q-33 -20 -89 -20q-64 0 -97 29.5t-33 101.5v87q0 51 -23.5 70.5t-91.5 19.5h-85v-218l76 -18v-62h-297v62l82 18v532l-80 19v62h301q261 0 261 -188q0 -128 -127 -161zM240 369h92q61 0 86.5 33
t25.5 98q0 60 -29 86.5t-94 26.5h-81v-244z" />
    <glyph glyph-name="a.alt" horiz-adv-x="500" 
d="M171 -13q-70 0 -113 39t-43 103q0 67 42.5 98.5t128.5 48.5l117 24v47q0 59 -20 82.5t-83 23.5q-28 0 -51 -4l-18 -79h-78v131q90 30 195 30q96 0 138.5 -38.5t42.5 -121.5v-273q0 -21 10.5 -28.5t32.5 -7.5h22v-54q-33 -19 -91 -19q-73 0 -87 57h-5q-51 -59 -140 -59z
M221 66q48 0 82 30v135l-82 -6q-43 -3 -61 -22.5t-18 -57.5q0 -79 79 -79z" />
    <glyph glyph-name="k.alt" horiz-adv-x="558" 
d="M14 0v55l68 15v581l-69 16v58l182 23l14 -7v-452l34 13l130 148l-57 14v57h218v-57l-65 -15l-129 -148l159 -232l56 -14v-55h-154l-155 230l-37 -4v-157l65 -14v-55h-260z" />
    <glyph glyph-name="Kcommaaccent.alt" horiz-adv-x="688" 
d="M19 0v62l81 18v533l-81 18v62h299v-62l-80 -17v-274l243 274l-62 17v62h240v-62l-64 -18l-197 -212l214 -321l69 -18v-62h-179l-200 304l-64 -60v-165l80 -17v-62h-299zM293 -185q13 58 13 145h124q-10 -92 -51 -145h-86z" />
    <glyph glyph-name="Racute.alt" horiz-adv-x="669" 
d="M456 787l-219 -61l-20 52l198 105zM456 344v-4q63 -13 92.5 -44t29.5 -95v-79q0 -31 14 -42.5t44 -11.5h23v-58q-33 -20 -89 -20q-64 0 -97 29.5t-33 101.5v87q0 51 -23.5 70.5t-91.5 19.5h-85v-218l76 -18v-62h-297v62l82 18v532l-80 19v62h301q261 0 261 -188
q0 -128 -127 -161zM240 369h92q61 0 86.5 33t25.5 98q0 60 -29 86.5t-94 26.5h-81v-244z" />
    <glyph glyph-name="Rcaron.alt" horiz-adv-x="669" 
d="M448 879l23 -38l-120 -106h-61l-119 106l23 38l127 -54zM456 344v-4q63 -13 92.5 -44t29.5 -95v-79q0 -31 14 -42.5t44 -11.5h23v-58q-33 -20 -89 -20q-64 0 -97 29.5t-33 101.5v87q0 51 -23.5 70.5t-91.5 19.5h-85v-218l76 -18v-62h-297v62l82 18v532l-80 19v62h301
q261 0 261 -188q0 -128 -127 -161zM240 369h92q61 0 86.5 33t25.5 98q0 60 -29 86.5t-94 26.5h-81v-244z" />
    <glyph glyph-name="Rcommaaccent.alt" horiz-adv-x="669" 
d="M276 -185q13 58 13 145h124q-10 -92 -51 -145h-86zM456 344v-4q63 -13 92.5 -44t29.5 -95v-79q0 -31 14 -42.5t44 -11.5h23v-58q-33 -20 -89 -20q-64 0 -97 29.5t-33 101.5v87q0 51 -23.5 70.5t-91.5 19.5h-85v-218l76 -18v-62h-297v62l82 18v532l-80 19v62h301
q261 0 261 -188q0 -128 -127 -161zM240 369h92q61 0 86.5 33t25.5 98q0 60 -29 86.5t-94 26.5h-81v-244z" />
    <glyph glyph-name="Thorn.alt" horiz-adv-x="593" 
d="M19 0v62l81 18v533l-81 18v62h296v-62l-77 -18v-71h73q262 0 262 -183q0 -94 -61 -143t-177 -49q-57 0 -97 9v-96l96 -18v-62h-315zM238 464v-221q36 -4 71 -4q68 0 95.5 27.5t27.5 88.5q0 59 -28 84t-90 25h-76z" />
    <glyph glyph-name="aacute.alt" horiz-adv-x="500" 
d="M155 571l-25 50l187 125l51 -93zM171 -13q-70 0 -113 39t-43 103q0 67 42.5 98.5t128.5 48.5l117 24v47q0 59 -20 82.5t-83 23.5q-28 0 -51 -4l-18 -79h-78v131q90 30 195 30q96 0 138.5 -38.5t42.5 -121.5v-273q0 -21 10.5 -28.5t32.5 -7.5h22v-54q-33 -19 -91 -19
q-73 0 -87 57h-5q-51 -59 -140 -59zM221 66q48 0 82 30v135l-82 -6q-43 -3 -61 -22.5t-18 -57.5q0 -79 79 -79z" />
    <glyph glyph-name="abreve.alt" horiz-adv-x="500" 
d="M171 -13q-70 0 -113 39t-43 103q0 67 42.5 98.5t128.5 48.5l117 24v47q0 59 -20 82.5t-83 23.5q-28 0 -51 -4l-18 -79h-78v131q90 30 195 30q96 0 138.5 -38.5t42.5 -121.5v-273q0 -21 10.5 -28.5t32.5 -7.5h22v-54q-33 -19 -91 -19q-73 0 -87 57h-5q-51 -59 -140 -59z
M221 66q48 0 82 30v135l-82 -6q-43 -3 -61 -22.5t-18 -57.5q0 -79 79 -79zM235 583q-61 0 -100.5 38t-41.5 96h75q11 -53 67 -53t68 53h74q-2 -58 -41.5 -96t-100.5 -38z" />
    <glyph glyph-name="acircumflex.alt" horiz-adv-x="500" 
d="M118 574l-26 37l116 126h61l117 -126l-27 -37l-120 71zM171 -13q-70 0 -113 39t-43 103q0 67 42.5 98.5t128.5 48.5l117 24v47q0 59 -20 82.5t-83 23.5q-28 0 -51 -4l-18 -79h-78v131q90 30 195 30q96 0 138.5 -38.5t42.5 -121.5v-273q0 -21 10.5 -28.5t32.5 -7.5h22v-54
q-33 -19 -91 -19q-73 0 -87 57h-5q-51 -59 -140 -59zM221 66q48 0 82 30v135l-82 -6q-43 -3 -61 -22.5t-18 -57.5q0 -79 79 -79z" />
    <glyph glyph-name="adieresis.alt" horiz-adv-x="500" 
d="M148 594q-27 0 -47 19t-20 46q0 28 19.5 46t47.5 18t48 -18t20 -46q0 -27 -20 -46t-48 -19zM330 594q-28 0 -48 19t-20 46q0 28 20 46t48 18t47.5 -18t19.5 -46t-19.5 -46.5t-47.5 -18.5zM171 -13q-70 0 -113 39t-43 103q0 67 42.5 98.5t128.5 48.5l117 24v47
q0 59 -20 82.5t-83 23.5q-28 0 -51 -4l-18 -79h-78v131q90 30 195 30q96 0 138.5 -38.5t42.5 -121.5v-273q0 -21 10.5 -28.5t32.5 -7.5h22v-54q-33 -19 -91 -19q-73 0 -87 57h-5q-51 -59 -140 -59zM221 66q48 0 82 30v135l-82 -6q-43 -3 -61 -22.5t-18 -57.5q0 -79 79 -79z
" />
    <glyph glyph-name="agrave.alt" horiz-adv-x="500" 
d="M171 -13q-70 0 -113 39t-43 103q0 67 42.5 98.5t128.5 48.5l117 24v47q0 59 -20 82.5t-83 23.5q-28 0 -51 -4l-18 -79h-78v131q90 30 195 30q96 0 138.5 -38.5t42.5 -121.5v-273q0 -21 10.5 -28.5t32.5 -7.5h22v-54q-33 -19 -91 -19q-73 0 -87 57h-5q-51 -59 -140 -59z
M221 66q48 0 82 30v135l-82 -6q-43 -3 -61 -22.5t-18 -57.5q0 -79 79 -79zM322 571l-213 82l51 93l187 -125z" />
    <glyph glyph-name="amacron.alt" horiz-adv-x="500" 
d="M171 -13q-70 0 -113 39t-43 103q0 67 42.5 98.5t128.5 48.5l117 24v47q0 59 -20 82.5t-83 23.5q-28 0 -51 -4l-18 -79h-78v131q90 30 195 30q96 0 138.5 -38.5t42.5 -121.5v-273q0 -21 10.5 -28.5t32.5 -7.5h22v-54q-33 -19 -91 -19q-73 0 -87 57h-5q-51 -59 -140 -59z
M221 66q48 0 82 30v135l-82 -6q-43 -3 -61 -22.5t-18 -57.5q0 -79 79 -79zM108 602v80h261v-80h-261z" />
    <glyph glyph-name="aogonek.alt" horiz-adv-x="500" 
d="M408 -200q-57 0 -84.5 22.5t-27.5 60.5q0 66 86 107q-54 8 -66 56h-5q-51 -59 -140 -59q-70 0 -113 39t-43 103q0 67 42.5 98.5t128.5 48.5l117 24v47q0 59 -20 82.5t-83 23.5q-28 0 -51 -4l-18 -79h-78v131q90 30 195 30q96 0 138.5 -38.5t42.5 -121.5v-273
q0 -21 10.5 -28.5t32.5 -7.5h22v-54q-42 -16 -67.5 -46t-25.5 -62q0 -38 45 -38q13 0 29 2v-53q-31 -11 -67 -11zM221 66q48 0 82 30v135l-82 -6q-43 -3 -61 -22.5t-18 -57.5q0 -79 79 -79z" />
    <glyph glyph-name="aring.alt" horiz-adv-x="500" 
d="M239 622q22 0 35 13.5t13 35.5q0 21 -13.5 35t-34.5 14t-34.5 -14t-13.5 -35q0 -22 13 -35.5t35 -13.5zM239 574q-44 0 -73 28.5t-29 68.5t29 68t73 28q43 0 72.5 -28t29.5 -68t-29.5 -68.5t-72.5 -28.5zM171 -13q-70 0 -113 39t-43 103q0 67 42.5 98.5t128.5 48.5
l117 24v47q0 59 -20 82.5t-83 23.5q-28 0 -51 -4l-18 -79h-78v131q90 30 195 30q96 0 138.5 -38.5t42.5 -121.5v-273q0 -21 10.5 -28.5t32.5 -7.5h22v-54q-33 -19 -91 -19q-73 0 -87 57h-5q-51 -59 -140 -59zM221 66q48 0 82 30v135l-82 -6q-43 -3 -61 -22.5t-18 -57.5
q0 -79 79 -79z" />
    <glyph glyph-name="aringacute.alt" horiz-adv-x="500" 
d="M239 608q22 0 35 13.5t13 35.5q0 21 -13.5 35t-34.5 14t-34.5 -14t-13.5 -35q0 -22 13 -35.5t35 -13.5zM239 560q-44 0 -73 28.5t-29 68.5t29 68t73 28q43 0 72.5 -28t29.5 -68t-29.5 -68.5t-72.5 -28.5zM171 -13q-70 0 -113 39t-43 103q0 67 42.5 98.5t128.5 48.5
l117 24v47q0 59 -20 82.5t-83 23.5q-28 0 -51 -4l-18 -79h-78v131q90 30 195 30q96 0 138.5 -38.5t42.5 -121.5v-273q0 -21 10.5 -28.5t32.5 -7.5h22v-54q-33 -19 -91 -19q-73 0 -87 57h-5q-51 -59 -140 -59zM221 66q48 0 82 30v135l-82 -6q-43 -3 -61 -22.5t-18 -57.5
q0 -79 79 -79zM365 826l-219 -61l-20 52l198 105z" />
    <glyph glyph-name="atilde.alt" horiz-adv-x="500" 
d="M171 -13q-70 0 -113 39t-43 103q0 67 42.5 98.5t128.5 48.5l117 24v47q0 59 -20 82.5t-83 23.5q-28 0 -51 -4l-18 -79h-78v131q90 30 195 30q96 0 138.5 -38.5t42.5 -121.5v-273q0 -21 10.5 -28.5t32.5 -7.5h22v-54q-33 -19 -91 -19q-73 0 -87 57h-5q-51 -59 -140 -59z
M221 66q48 0 82 30v135l-82 -6q-43 -3 -61 -22.5t-18 -57.5q0 -79 79 -79zM129 590l-51 29q43 98 110 98q24 0 59.5 -16t48.5 -16q31 0 54 38l51 -29q-43 -98 -110 -98q-24 0 -59.5 16t-48.5 16q-31 0 -54 -38z" />
    <glyph glyph-name="ae.alt" horiz-adv-x="785" 
d="M248 531q105 0 140 -62q60 62 157 62q113 0 165.5 -70.5t52.5 -212.5h-333q9 -173 159 -173q67 0 149 26v-64q-78 -49 -179 -49q-141 0 -207 87q-31 -39 -77.5 -63.5t-99.5 -24.5q-73 0 -116.5 38.5t-43.5 103.5q0 68 43 102.5t128 49.5l117 22v44q0 59 -20 82.5
t-83 23.5q-28 0 -51 -4l-18 -79h-78v131q90 30 195 30zM327 118q-23 47 -26 119l-80 -6q-79 -5 -79 -86q0 -79 80 -79q53 0 105 52zM430 311l201 7q0 139 -92 139q-99 0 -109 -146z" />
    <glyph glyph-name="aeacute.alt" horiz-adv-x="785" 
d="M344 571l-25 50l187 125l51 -93zM248 531q105 0 140 -62q60 62 157 62q113 0 165.5 -70.5t52.5 -212.5h-333q9 -173 159 -173q67 0 149 26v-64q-78 -49 -179 -49q-141 0 -207 87q-31 -39 -77.5 -63.5t-99.5 -24.5q-73 0 -116.5 38.5t-43.5 103.5q0 68 43 102.5t128 49.5
l117 22v44q0 59 -20 82.5t-83 23.5q-28 0 -51 -4l-18 -79h-78v131q90 30 195 30zM327 118q-23 47 -26 119l-80 -6q-79 -5 -79 -86q0 -79 80 -79q53 0 105 52zM430 311l201 7q0 139 -92 139q-99 0 -109 -146z" />
    <glyph glyph-name="kcommaaccent.alt" horiz-adv-x="558" 
d="M14 0v55l68 15v581l-69 16v58l182 23l14 -7v-452l34 13l130 148l-57 14v57h218v-57l-65 -15l-129 -148l159 -232l56 -14v-55h-154l-155 230l-37 -4v-157l65 -14v-55h-260zM216 -185q13 58 13 145h124q-10 -92 -51 -145h-86z" />
    <glyph glyph-name="f_f_k.alt" horiz-adv-x="1170" 
d="M1013 0l-156 230l-37 -4v-157l66 -14v-55h-252v55l60 15v581q-49 14 -83 14q-50 0 -72.5 -21t-22.5 -77v-46h109v-78h-109v-373l59 -15v-55h-245v55l60 15v373h-178v-373l59 -15v-55h-253v55l68 16v372h-67v53l67 24v54q0 84 47 124t118 40q52 0 95 -19v-69q-22 5 -52 5
q-40 0 -61 -21.5t-21 -74.5v-38h178v61q0 86 54.5 126t137.5 40q64 0 142 -29l83 29l13 -7v-452l33 11l131 150l-57 14v57h219v-57l-66 -15l-129 -148l160 -232l55 -14v-55h-153z" />
    <glyph glyph-name="f_k.alt" horiz-adv-x="866" 
d="M709 0l-156 230l-37 -4v-157l66 -14v-55h-252v55l60 15v581q-49 14 -83 14q-50 0 -72.5 -21t-22.5 -77v-46h109v-78h-109v-373l59 -15v-55h-253v55l68 16v372h-67v53l67 24v62q0 86 54.5 126t137.5 40q64 0 142 -29l83 29l13 -7v-452l34 12l130 149l-57 14v57h219v-57
l-66 -15l-129 -148l160 -232l55 -14v-55h-153z" />
    <glyph glyph-name="registered.alt" horiz-adv-x="774" 
d="M227 168v42l37 10v251l-36 9v42h169q66 0 102.5 -26.5t36.5 -74.5q0 -65 -65 -85v-5l69 -112l33 -9v-42h-102l-84 146h-33v-95l35 -9v-42h-162zM354 361h39q54 0 54 55q0 29 -13 41.5t-43 12.5h-37v-109zM386 38q128 0 210.5 89t82.5 217t-82.5 217t-210.5 89t-210.5 -89
t-82.5 -217t82.5 -217t210.5 -89zM386 -14q-150 0 -252 104.5t-102 253.5t102 252.5t252 103.5q149 0 252.5 -104t103.5 -252t-103.5 -253t-252.5 -105z" />
    <glyph glyph-name="questiondown.uc" horiz-adv-x="423" 
d="M237 -12q-95 0 -151.5 43t-56.5 137q0 61 28 99t92 79q5 3 17 11l16.5 11t13.5 9.5t12.5 10.5t9 10.5t8 12t4.5 12.5t2 15q0 24 -8 56h70q18 -40 18 -79q0 -38 -19 -62.5t-67 -63.5q-35 -28 -49.5 -52t-14.5 -63q0 -50 30.5 -75.5t84.5 -25.5q63 0 124 19v-66
q-74 -38 -164 -38zM257 567q-30 0 -51 20.5t-21 48.5q0 29 21 49.5t51 20.5t50.5 -20.5t20.5 -49.5q0 -28 -20.5 -48.5t-50.5 -20.5z" />
    <glyph glyph-name="exclamdown.uc" horiz-adv-x="259" 
d="M61 0l30 493h81l28 -493h-139zM130 567q-30 0 -50.5 20.5t-20.5 48.5q0 29 20.5 49.5t50.5 20.5t50.5 -20.5t20.5 -49.5q0 -28 -20.5 -48.5t-50.5 -20.5z" />
    <glyph glyph-name="hyphen.uc" horiz-adv-x="322" 
d="M38 286v100h246v-100h-246z" />
    <glyph glyph-name="endash.uc" horiz-adv-x="436" 
d="M30 301v73h376v-73h-376z" />
    <glyph glyph-name="emdash.uc" horiz-adv-x="745" 
d="M30 301v73h685v-73h-685z" />
    <glyph glyph-name="guilsinglleft.uc" horiz-adv-x="269" 
d="M147 87l-109 178v35l109 179h83l-82 -196l82 -196h-83z" />
    <glyph glyph-name="guilsinglright.uc" horiz-adv-x="269" 
d="M40 87l81 195l-81 197h83l109 -179v-35l-109 -178h-83z" />
    <glyph glyph-name="guillemotleft.uc" horiz-adv-x="452" 
d="M147 87l-109 178v35l109 179h83l-82 -196l82 -196h-83zM330 87l-109 178v35l109 179h83l-81 -196l81 -196h-83z" />
    <glyph glyph-name="guillemotright.uc" horiz-adv-x="452" 
d="M40 87l81 195l-81 197h83l109 -179v-35l-109 -178h-83zM223 87l81 195l-81 197h83l109 -179v-35l-109 -178h-83z" />
    <glyph glyph-name="parenleft.uc" horiz-adv-x="330" 
d="M271 -111q-49 39 -86 77t-74 92.5t-57 125t-20 152.5q0 257 237 447l44 -41q-154 -178 -154 -388q0 -142 40 -240.5t114 -184.5z" />
    <glyph glyph-name="parenright.uc" horiz-adv-x="330" 
d="M59 -111l-45 40q155 177 155 388q0 143 -40 241t-115 184l45 41q49 -39 85.5 -77t74 -92.5t57.5 -125t20 -152.5q0 -75 -20.5 -144.5t-56.5 -125t-75 -98t-85 -79.5z" />
    <glyph glyph-name="bracketleft.uc" horiz-adv-x="328" 
d="M58 -86v853h240v-62l-118 -18v-694l118 -17v-62h-240z" />
    <glyph glyph-name="bracketright.uc" horiz-adv-x="328" 
d="M30 -86v62l118 17v694l-118 18v62h240v-853h-240z" />
    <glyph glyph-name="braceleft.uc" horiz-adv-x="379" 
d="M349 -86q-131 4 -185 38.5t-54 99.5q0 28 16.5 91.5t16.5 81.5q0 32 -22 49t-91 25v83q69 8 91 25t22 49q0 18 -16.5 81t-16.5 91q0 65 54 100t185 39v-62q-66 -11 -88.5 -26t-22.5 -51q0 -20 10 -79.5t10 -85.5q0 -46 -27.5 -74t-108.5 -46v-5q82 -19 109 -47t27 -74
q0 -26 -10 -85t-10 -79q0 -37 23 -52t88 -25v-62z" />
    <glyph glyph-name="braceright.uc" horiz-adv-x="379" 
d="M30 -86v62q65 10 88 25t23 52q0 20 -10 79t-10 85q0 46 27 74t109 47v5q-81 18 -108.5 46t-27.5 74q0 26 10 85.5t10 79.5q0 36 -22.5 51t-88.5 26v62q132 -4 185.5 -39t53.5 -100q0 -28 -16 -91t-16 -81q0 -32 22 -49t91 -25v-83q-69 -9 -91 -25.5t-22 -48.5
q0 -18 16 -81.5t16 -91.5q0 -65 -53.5 -99.5t-185.5 -38.5z" />
    <glyph glyph-name="slash.uc" horiz-adv-x="353" 
d="M107 -60h-89l223 793h89z" />
    <glyph glyph-name="backslash.uc" horiz-adv-x="353" 
d="M334 -60h-89l-223 793h89z" />
    <glyph glyph-name="bar.uc" horiz-adv-x="228" 
d="M72 -60v793h83v-793h-83z" />
    <glyph glyph-name="at.uc" horiz-adv-x="828" 
d="M412 -37q-176 0 -273.5 89.5t-97.5 247.5q0 175 116 299.5t296 124.5q153 0 245 -86.5t92 -235.5q0 -122 -64.5 -197.5t-161.5 -75.5q-88 0 -105 61h-6q-51 -54 -116 -54q-50 0 -84 38t-34 106q0 110 59.5 186t151.5 76q56 0 105 -32l23 24h59l-57 -292q-10 -51 26 -51
q57 0 97 56.5t40 153.5q0 127 -70 197t-201 70q-156 0 -248.5 -105.5t-92.5 -261.5q0 -138 76.5 -209.5t226.5 -71.5q111 0 209 32v-50q-89 -39 -211 -39zM383 207q34 0 70 32l39 208q-16 35 -57 35q-49 0 -77 -58t-28 -142q0 -75 53 -75z" />
    </font>
</defs>
</svg>
