<?xml version="1.0" standalone="no"?>
<!DOCTYPE svg PUBLIC "-//W3C//DTD SVG 1.1//EN" "http://www.w3.org/Graphics/SVG/1.1/DTD/svg11.dtd" >
<svg xmlns="http://www.w3.org/2000/svg" xmlns:xlink="http://www.w3.org/1999/xlink" version="1.1">
<metadata>
Created by FontForge 20170731 at Tue May  2 20:54:33 2017
 By Aleksey,,,
(c)2008-09 Paul Barnes and Christian Schwartz, under exclusive license to Schwartzco Inc./Commercial Type. All rights reserved.
</metadata>
<defs>
<font id="GuardianEgyp-Regular" horiz-adv-x="488" >
  <font-face 
    font-family="Guardian Egyp Regular"
    font-weight="400"
    font-stretch="normal"
    units-per-em="1000"
    panose-1="2 6 5 3 5 5 3 6 8 3"
    ascent="790"
    descent="-210"
    x-height="513"
    cap-height="693"
    bbox="-170 -213 1185 1033"
    underline-thickness="50"
    underline-position="-200"
    unicode-range="U+0020-FB04"
  />
<missing-glyph horiz-adv-x="494" 
 />
    <glyph glyph-name="f_f" unicode="ff" horiz-adv-x="609" 
d="M20 0v34l74 16v404h-71v35l71 25v62q0 81 45 121.5t114 40.5q49 0 89 -21v-45q-30 6 -62 6q-46 0 -70 -25.5t-24 -88.5v-51h206v59q0 90 47 133t122 43q60 0 100 -23v-45q-38 8 -73 8q-53 0 -78.5 -26.5t-25.5 -95.5v-53h125v-59h-125v-404l88 -16v-34h-250v34l70 16v404
h-206v-404l69 -16v-34h-235z" />
    <glyph glyph-name="f_i" unicode="fi" horiz-adv-x="572" 
d="M20 0v34l74 16v404h-71v35l71 25v79q0 76 44 115.5t112 39.5q46 0 75 -20v-45q-30 5 -50 5q-45 0 -67 -24t-22 -81v-70h287l11 -6v-457l75 -16v-34h-237v34l70 16v404h-206v-404l69 -16v-34h-235zM434 605q-23 0 -40 17t-17 39q0 23 17 39.5t40 16.5q24 0 40.5 -16.5
t16.5 -39.5q0 -22 -16.5 -39t-40.5 -17z" />
    <glyph glyph-name="f_l" unicode="fl" horiz-adv-x="572" 
d="M322 0v34l70 16v621q-56 17 -97 17q-57 0 -83 -25.5t-26 -91.5v-58h125v-59h-125v-404l69 -16v-34h-235v34l74 16v404h-71v35l71 25v69q0 84 53 124.5t130 40.5q64 0 141 -33l54 32l12 -6v-691l75 -16v-34h-237z" />
    <glyph glyph-name="f_f_i" unicode="ffi" horiz-adv-x="870" 
d="M20 0v34l74 16v404h-71v35l71 25v62q0 81 45 121.5t114 40.5q49 0 89 -21v-45q-30 6 -62 6q-46 0 -70 -25.5t-24 -88.5v-51h206v80q0 76 44 115.5t112 39.5q46 0 75 -20v-45q-30 5 -50 5q-45 0 -67 -24t-22 -81v-70h287l11 -6v-457l75 -16v-34h-237v34l70 16v404h-206
v-404l69 -16v-34h-231v34l70 16v404h-206v-404l69 -16v-34h-235zM732 605q-23 0 -40 17t-17 39q0 23 17 39.5t40 16.5q24 0 40.5 -16.5t16.5 -39.5q0 -22 -16.5 -39t-40.5 -17z" />
    <glyph glyph-name="f_f_l" unicode="ffl" horiz-adv-x="870" 
d="M20 0v34l74 16v404h-71v35l71 25v62q0 81 45 121.5t114 40.5q49 0 89 -21v-45q-30 6 -62 6q-46 0 -70 -25.5t-24 -88.5v-51h206v70q0 84 53 124.5t130 40.5q64 0 141 -33l54 32l12 -6v-691l75 -16v-34h-237v34l70 16v621q-56 17 -97 17q-57 0 -83 -25.5t-26 -91.5v-58
h125v-59h-125v-404l69 -16v-34h-231v34l70 16v404h-206v-404l69 -16v-34h-235z" />
    <glyph glyph-name="f_b" unicode="fb" horiz-adv-x="871" 
d="M483 741v-271h5q75 53 155 53q40 0 73 -11.5t62.5 -37.5t46.5 -76.5t17 -121.5q0 -139 -71 -213.5t-193 -74.5q-98 0 -186 37v646q-56 17 -97 17q-57 0 -83 -25.5t-26 -91.5v-58h125v-59h-125v-404l88 -16v-34h-254v34l74 16v404h-71v35l71 25v69q0 84 53 124.5t130 40.5
q64 0 141 -33l53 32zM589 41q158 0 158 217q0 104 -38 149t-113 45q-56 0 -113 -25v-355q16 -10 24.5 -15t31 -10.5t50.5 -5.5z" />
    <glyph glyph-name="f_f_b" unicode="ffb" horiz-adv-x="1169" 
d="M781 741v-271h5q75 53 155 53q40 0 73 -11.5t62.5 -37.5t46.5 -76.5t17 -121.5q0 -139 -71 -213.5t-193 -74.5q-98 0 -186 37v646q-56 17 -97 17q-57 0 -83 -25.5t-26 -91.5v-58h125v-59h-125v-404l88 -16v-34h-250v34l70 16v404h-206v-404l69 -16v-34h-235v34l74 16v404
h-71v35l71 25v62q0 81 45 121.5t114 40.5q49 0 89 -21v-45q-30 6 -62 6q-46 0 -70 -25.5t-24 -88.5v-51h206v70q0 84 53 124.5t130 40.5q64 0 141 -33l53 32zM887 41q158 0 158 217q0 104 -38 149t-113 45q-56 0 -113 -25v-355q16 -10 24.5 -15t31 -10.5t50.5 -5.5z" />
    <glyph glyph-name="f_f_h" unicode="ffh" horiz-adv-x="1181" 
d="M782 741v-269h6q88 51 167 51q73 0 108.5 -31.5t35.5 -105.5v-336l75 -16v-34h-240v34l73 16v312q0 51 -25.5 71t-81.5 20q-48 0 -118 -24v-379l73 -16v-34h-235v34l70 16v621q-56 17 -97 17q-57 0 -83 -25.5t-26 -91.5v-58h125v-59h-125v-404l69 -16v-34h-231v34l70 16
v404h-206v-404l69 -16v-34h-235v34l74 16v404h-71v35l71 25v62q0 81 45 121.5t114 40.5q49 0 89 -21v-45q-30 6 -62 6q-46 0 -70 -25.5t-24 -88.5v-51h206v70q0 84 53 124.5t130 40.5q64 0 141 -33l54 32z" />
    <glyph glyph-name="f_f_j" unicode="ffj" horiz-adv-x="856" 
d="M782 507v-563q0 -68 -40 -104.5t-113 -36.5q-34 0 -74 15v42q21 -3 45 -3q42 0 66 21t24 76v500h-206v-404l88 -16v-34h-250v34l70 16v404h-206v-404l69 -16v-34h-235v34l74 16v404h-71v35l71 25v62q0 81 45 121.5t114 40.5q49 0 89 -21v-45q-30 6 -62 6q-46 0 -70 -25.5
t-24 -88.5v-51h206v80q0 76 44 115.5t112 39.5q46 0 75 -20v-45q-30 5 -50 5q-45 0 -67 -24t-22 -81v-70h287zM732 605q-23 0 -40 17t-17 39q0 23 17 39.5t40 16.5q24 0 40.5 -16.5t16.5 -39.5q0 -22 -16.5 -39t-40.5 -17z" />
    <glyph glyph-name="f_f_k" unicode="ffk" horiz-adv-x="1130" 
d="M782 741v-692l77 -15v-34h-239v34l70 16v621q-56 17 -97 17q-57 0 -83 -25.5t-26 -91.5v-58h125v-59h-125v-404l69 -16v-34h-231v34l70 16v404h-206v-404l69 -16v-34h-235v34l74 16v404h-71v35l71 25v62q0 81 45 121.5t114 40.5q49 0 89 -21v-45q-30 6 -62 6
q-46 0 -70 -25.5t-24 -88.5v-51h206v70q0 84 53 124.5t130 40.5q64 0 141 -33l54 32zM994 0l-179 257v14l151 191l-60 15v36h202v-36l-73 -15l-141 -166l171 -246l65 -16v-34h-136z" />
    <glyph glyph-name="f_h" unicode="fh" horiz-adv-x="883" 
d="M484 741v-269h6q88 51 167 51q73 0 108.5 -31.5t35.5 -105.5v-336l75 -16v-34h-240v34l73 16v312q0 51 -25.5 71t-81.5 20q-48 0 -118 -24v-379l73 -16v-34h-235v34l70 16v621q-56 17 -97 17q-57 0 -83 -25.5t-26 -91.5v-58h125v-59h-125v-404l69 -16v-34h-235v34l74 16
v404h-71v35l71 25v69q0 84 53 124.5t130 40.5q64 0 141 -33l54 32z" />
    <glyph glyph-name="f_j" unicode="fj" horiz-adv-x="558" 
d="M484 507v-563q0 -68 -40 -104.5t-113 -36.5q-34 0 -74 15v42q21 -3 45 -3q42 0 66 21t24 76v500h-206v-404l88 -16v-34h-254v34l74 16v404h-71v35l71 25v79q0 76 44 115.5t112 39.5q46 0 75 -20v-45q-30 5 -50 5q-45 0 -67 -24t-22 -81v-70h287zM434 605q-23 0 -40 17
t-17 39q0 23 17 39.5t40 16.5q24 0 40.5 -16.5t16.5 -39.5q0 -22 -16.5 -39t-40.5 -17z" />
    <glyph glyph-name="f_k" unicode="fk" horiz-adv-x="832" 
d="M484 741v-692l77 -15v-34h-239v34l70 16v621q-56 17 -97 17q-57 0 -83 -25.5t-26 -91.5v-58h125v-59h-125v-404l69 -16v-34h-235v34l74 16v404h-71v35l71 25v69q0 84 53 124.5t130 40.5q64 0 141 -33l54 32zM696 0l-179 257v14l151 191l-60 15v36h202v-36l-73 -15
l-141 -166l171 -246l65 -16v-34h-136z" />
    <glyph glyph-name=".notdef" horiz-adv-x="494" 
 />
    <glyph glyph-name=".null" horiz-adv-x="0" 
 />
    <glyph glyph-name="nonmarkingreturn" horiz-adv-x="333" 
 />
    <glyph glyph-name="space" unicode=" " horiz-adv-x="190" 
 />
    <glyph glyph-name="exclam" unicode="!" horiz-adv-x="249" 
d="M95 190l-25 503h105l-25 -503h-55zM124 -13q-24 0 -41 17t-17 41t16.5 41t41.5 17t42 -17t17 -41q0 -23 -17.5 -40.5t-41.5 -17.5z" />
    <glyph glyph-name="quotedbl" unicode="&#x22;" horiz-adv-x="373" 
d="M235 488l-21 205h104l-23 -205h-60zM76 488l-21 205h104l-23 -205h-60z" />
    <glyph glyph-name="numbersign" unicode="#" horiz-adv-x="504" 
d="M64 408v88h94l31 197h60l-31 -197h116l31 197h60l-31 -197h80v-88h-94l-18 -112h81v-88h-95l-33 -208h-60l33 208h-116l-33 -208h-60l33 208h-79v88h93l18 112h-80zM204 408l-18 -112h116l18 112h-116z" />
    <glyph glyph-name="dollar" unicode="$" horiz-adv-x="503" 
d="M233 -117h-59l11 107q-74 5 -142 32l-7 155h48l32 -103q35 -18 75 -25l29 275l-44 19q-63 27 -98 68.5t-35 111.5q0 79 55.5 131t161.5 52l6 59h59l-7 -63q47 -5 112 -28l7 -135h-47l-27 89q-35 12 -51 15l-26 -245l26 -11q37 -16 60.5 -29.5t49 -35.5t38 -53t12.5 -72
q0 -87 -56.5 -146t-171.5 -63zM386 168q0 48 -26 77t-84 55l-26 -254q65 2 100.5 36.5t35.5 85.5zM124 545q0 -44 26 -72t80 -51l24 226h-2q-56 0 -92 -27t-36 -76z" />
    <glyph glyph-name="percent" unicode="%" horiz-adv-x="826" 
d="M193 323q-72 0 -119 50t-47 138q0 91 48.5 142.5t118.5 51.5q69 0 117.5 -50.5t48.5 -139.5q0 -90 -47.5 -141t-119.5 -51zM632 -12q-72 0 -119 50t-47 138q0 91 48.5 142.5t118.5 51.5q69 0 117.5 -50.5t48.5 -139.5q0 -90 -47.5 -141t-119.5 -51zM134 -40l480 753h69
l-480 -753h-69zM632 35q43 0 62 34.5t19 106.5q0 147 -80 147q-82 0 -82 -143q0 -145 81 -145zM193 370q43 0 62 34.5t19 106.5q0 147 -80 147q-82 0 -82 -143q0 -145 81 -145z" />
    <glyph glyph-name="ampersand" unicode="&#x26;" horiz-adv-x="678" 
d="M248 -12q-101 0 -163.5 51.5t-62.5 135.5q0 65 40.5 111.5t122.5 93.5q-62 80 -62 152q0 78 52.5 125.5t129.5 47.5q66 0 112.5 -37t46.5 -100q0 -61 -41.5 -100.5t-124.5 -83.5l174 -208q36 58 52 134l-79 20v41h213v-40l-69 -20q-23 -99 -80 -179l60 -72l84 -19v-41
h-154l-53 63q-85 -75 -198 -75zM124 186q0 -60 39 -99t106 -39q79 0 143 56l-196 237q-92 -62 -92 -155zM374 564q0 41 -20 63t-54 22q-39 0 -62.5 -28.5t-23.5 -76.5q0 -56 54 -123q57 32 81.5 63t24.5 80z" />
    <glyph glyph-name="quotesingle" unicode="'" horiz-adv-x="214" 
d="M76 488l-21 205h104l-23 -205h-60z" />
    <glyph glyph-name="parenleft" unicode="(" horiz-adv-x="311" 
d="M266 -142q-46 38 -80 75t-71 91.5t-57 125.5t-20 152q0 75 20.5 144.5t56 125t72 97t79.5 77.5l32 -30q-70 -78 -115 -180.5t-45 -213.5q0 -257 160 -434z" />
    <glyph glyph-name="parenright" unicode=")" horiz-adv-x="311" 
d="M45 -142l-32 30q70 78 115 180.5t45 213.5q0 257 -160 434l32 30q46 -38 80 -75t71 -91.5t57 -125.5t20 -152q0 -75 -20.5 -144.5t-56 -125t-72 -97t-79.5 -77.5z" />
    <glyph glyph-name="asterisk" unicode="*" horiz-adv-x="364" 
d="M144 394l19 115l-93 -72l-36 59l112 46l-112 47l36 59l93 -73l-19 118h75l-19 -118l94 73l36 -59l-112 -47l112 -46l-36 -59l-94 72l19 -115h-75z" />
    <glyph glyph-name="plus" unicode="+" horiz-adv-x="526" 
d="M58 309v62h172v179h66v-179h172v-62h-172v-179h-66v179h-172z" />
    <glyph glyph-name="comma" unicode="," horiz-adv-x="221" 
d="M48 -104q17 100 17 205h104q-15 -116 -61 -205h-60z" />
    <glyph glyph-name="hyphen" unicode="-" horiz-adv-x="302" 
d="M41 248v78h220v-78h-220z" />
    <glyph glyph-name="period" unicode="." horiz-adv-x="221" 
d="M109 -15q-27 0 -45.5 18t-18.5 45t18.5 45t45.5 18t45.5 -18t18.5 -45t-18.5 -45t-45.5 -18z" />
    <glyph glyph-name="slash" unicode="/" horiz-adv-x="334" 
d="M4 -120l240 853h65l-240 -853h-65z" />
    <glyph glyph-name="zero" unicode="0" horiz-adv-x="626" 
d="M313 -13q-125 0 -201 89t-76 265q0 180 78 272t200 92q121 0 198 -89.5t77 -267.5t-76.5 -269.5t-199.5 -91.5zM313 42q90 0 132.5 73t42.5 226q0 309 -174 309q-177 0 -177 -302q0 -306 176 -306z" />
    <glyph glyph-name="one" unicode="1" horiz-adv-x="378" 
d="M43 0v41l103 17v543l-113 -11v41l187 71h26v-644l103 -17v-41h-306z" />
    <glyph glyph-name="two" unicode="2" horiz-adv-x="514" 
d="M11 0v49l172 174q82 83 122 144.5t40 130.5q0 136 -157 136q-61 0 -148 -32v48q94 55 190 55q100 0 158 -49.5t58 -147.5q0 -75 -54 -149.5t-166 -173.5l-116 -102v-2h268l45 95h46l-12 -176h-446z" />
    <glyph glyph-name="three" unicode="3" horiz-adv-x="493" 
d="M214 -11q-108 0 -191 46v48q84 -29 162 -29q77 0 123 36t46 102q0 76 -40 108t-127 32h-44v60h36q151 0 151 124t-137 124q-74 0 -141 -23v47q84 41 171 41q96 0 150 -44.5t54 -126.5q0 -61 -36 -104t-95 -61v-4q159 -30 159 -178q0 -92 -64.5 -145t-176.5 -53z" />
    <glyph glyph-name="four" unicode="4" horiz-adv-x="570" 
d="M238 0v41l94 17v141h-313v60l328 434h81v-429h112v-65h-112v-141l94 -17v-41h-284zM100 264h232v306h-4l-228 -303v-3z" />
    <glyph glyph-name="five" unicode="5" horiz-adv-x="504" 
d="M200 -11q-90 0 -177 49v47q88 -31 154 -31q82 0 130.5 39.5t48.5 113.5q0 75 -45.5 116t-133.5 41q-34 0 -112 -13l26 342h351l-9 -83h-287l-15 -190q44 10 90 10q112 0 175 -58.5t63 -156.5q0 -104 -69.5 -165t-189.5 -61z" />
    <glyph glyph-name="six" unicode="6" horiz-adv-x="564" 
d="M292 -13q-119 0 -186.5 86t-67.5 239q0 103 26.5 181.5t72 123t101 66.5t118.5 22q86 0 139 -34v-49q-48 20 -125 20q-208 0 -230 -272q90 55 184 55q90 0 148.5 -56t58.5 -152q0 -100 -64.5 -165t-174.5 -65zM291 42q69 0 104 44t35 122q0 79 -38 116t-102 37
q-87 0 -151 -41v-16q0 -262 152 -262z" />
    <glyph glyph-name="seven" unicode="7" 
d="M92 0l324 607v4h-321l-29 -76h-47l9 158h446v-71l-272 -622h-110z" />
    <glyph glyph-name="eight" unicode="8" horiz-adv-x="565" 
d="M284 -13q-118 0 -184 48.5t-66 134.5q0 64 44 109t110 71q-125 60 -125 178q0 75 59 126t156 51q100 0 160.5 -44t60.5 -123q0 -104 -129 -164q161 -65 161 -190q0 -87 -64.5 -142t-182.5 -55zM281 42q78 0 117 32.5t39 91.5t-43 90.5t-154 72.5q-114 -57 -114 -154
q0 -133 155 -133zM315 394q94 50 94 139q0 60 -35 88.5t-94 28.5q-58 0 -93 -29.5t-35 -77.5q0 -56 37 -87.5t126 -61.5z" />
    <glyph glyph-name="nine" unicode="9" horiz-adv-x="564" 
d="M200 -13q-79 0 -132 34v49q48 -20 118 -20q107 0 167 60t70 212q-88 -55 -184 -55q-89 0 -147.5 56t-58.5 152q0 100 64.5 165t174.5 65q118 0 186 -88t68 -237q0 -201 -87 -297t-239 -96zM274 332q87 0 151 40v16q0 262 -152 262q-69 0 -104 -44.5t-35 -121.5
q0 -78 38 -115t102 -37z" />
    <glyph glyph-name="colon" unicode=":" horiz-adv-x="228" 
d="M114 281q-27 0 -45.5 18t-18.5 45t18.5 45t45.5 18t45.5 -18t18.5 -45t-18.5 -45t-45.5 -18zM114 -15q-27 0 -45.5 18t-18.5 45t18.5 45t45.5 18t45.5 -18t18.5 -45t-18.5 -45t-45.5 -18z" />
    <glyph glyph-name="semicolon" unicode=";" horiz-adv-x="228" 
d="M47 -104q17 100 17 205h104q-15 -116 -61 -205h-60zM114 281q-27 0 -45.5 18t-18.5 45t18.5 45t45.5 18t45.5 -18t18.5 -45t-18.5 -45t-45.5 -18z" />
    <glyph glyph-name="less" unicode="&#x3c;" horiz-adv-x="506" 
d="M435 139l-374 175v51l374 175v-71l-294 -129l294 -130v-71z" />
    <glyph glyph-name="equal" unicode="=" horiz-adv-x="516" 
d="M61 364v62h394v-62h-394zM61 194v62h394v-62h-394z" />
    <glyph glyph-name="greater" unicode="&#x3e;" horiz-adv-x="506" 
d="M71 139v71l294 129l-294 130v71l374 -175v-51z" />
    <glyph glyph-name="question" unicode="?" horiz-adv-x="408" 
d="M136 188q-19 45 -19 84q0 28 13 51.5t29 38t55 44.5q37 29 52 54.5t15 67.5q0 58 -34.5 86t-92.5 28q-62 0 -130 -21v48q77 36 159 36q86 0 139.5 -42t53.5 -133q0 -60 -28 -97t-96 -81q-4 -3 -15 -10t-14.5 -9.5t-12 -9t-12 -10t-9 -10t-8 -12.5t-4.5 -14t-2 -17
q0 -26 10 -72h-49zM161 -13q-24 0 -41 17t-17 41t16.5 41t41.5 17q24 0 41.5 -17t17.5 -41q0 -23 -17.5 -40.5t-41.5 -17.5z" />
    <glyph glyph-name="at" unicode="@" horiz-adv-x="886" 
d="M445 -155q-194 0 -298.5 96t-104.5 270q0 126 54.5 232.5t157.5 171.5t234 65q165 0 263 -93.5t98 -257.5q0 -130 -71 -217t-177 -87q-90 0 -104 65h-6q-57 -57 -122 -57q-54 0 -91 40t-37 113q0 121 64 209.5t167 88.5q9 0 17 -0.5t14.5 -1.5t13.5 -2.5t11.5 -2.5t11 -4
t9.5 -4.5t9.5 -5t8 -4.5t9 -5.5t8.5 -5.5l25 27h46l-67 -339q-11 -58 27 -58q74 0 122 69t48 179q0 144 -77 224t-222 80q-175 0 -276.5 -120t-101.5 -298q0 -315 337 -315q125 0 231 37v-45q-98 -44 -231 -44zM405 91q45 0 93 42l48 257q-19 42 -75 42q-45 0 -77 -37
t-45.5 -91t-13.5 -118q0 -95 70 -95z" />
    <glyph glyph-name="A" unicode="A" horiz-adv-x="651" 
d="M-3 0v42l69 18l222 633h82l215 -633l69 -18v-42h-256v41l79 19l-53 164h-233l-55 -164l80 -19v-41h-219zM309 569l-100 -294h199l-94 294h-5z" />
    <glyph glyph-name="B" unicode="B" horiz-adv-x="605" 
d="M20 0v41l89 19v574l-88 18v41h283q121 0 180.5 -41.5t59.5 -128.5q0 -56 -33.5 -100.5t-102.5 -57.5v-5q92 -13 132 -55.5t40 -119.5q0 -82 -64.5 -133.5t-185.5 -51.5h-310zM209 56h106q80 0 119 32t39 104q0 75 -38 108t-116 33h-110v-277zM209 384h89q139 0 139 120
q0 78 -34 105.5t-107 27.5h-87v-253z" />
    <glyph glyph-name="C" unicode="C" horiz-adv-x="603" 
d="M351 -12q-152 0 -237.5 84.5t-85.5 265.5q0 80 19 144t50.5 105t75.5 68t92 38.5t102 11.5q111 0 191 -26l5 -169h-46l-41 114q-57 25 -121 25q-110 0 -165.5 -75.5t-55.5 -215.5q0 -156 55.5 -234.5t175.5 -78.5q64 0 115 28l41 124h48l-6 -174q-83 -35 -212 -35z" />
    <glyph glyph-name="D" unicode="D" horiz-adv-x="671" 
d="M20 0v41l89 19v573l-88 19v41h276q182 0 264.5 -83t82.5 -246q0 -364 -336 -364h-288zM209 55h101q118 0 172.5 65.5t54.5 228.5q0 76 -11.5 128.5t-31 84t-53.5 48.5t-69.5 22.5t-88.5 5.5h-74v-583z" />
    <glyph glyph-name="E" unicode="E" horiz-adv-x="585" 
d="M20 0v41l89 19v573l-88 19v41h514l11 -172h-48l-43 117h-246v-255h132l27 95h43v-242h-43l-27 96h-132v-277h256l54 145h48l-13 -200h-534z" />
    <glyph glyph-name="F" unicode="F" horiz-adv-x="580" 
d="M20 0v41l89 18v574l-88 19v41h515l11 -178h-48l-43 123h-247v-268h134l26 94h43v-243h-44l-25 98h-134v-259l96 -19v-41h-285z" />
    <glyph glyph-name="G" unicode="G" horiz-adv-x="659" 
d="M373 -13q-345 0 -345 351q0 99 29 173t79.5 115t109 60t127.5 19q115 0 198 -25l8 -171h-46l-42 113q-51 27 -128 27q-113 0 -171 -76t-58 -215q0 -156 55.5 -234.5t176.5 -78.5q56 0 110 18v194l-92 17v41h266v-41l-74 -17v-239q-88 -31 -203 -31z" />
    <glyph glyph-name="H" unicode="H" horiz-adv-x="724" 
d="M20 0v41l88 18v574l-88 19v41h275v-41l-87 -19v-253h310v253l-89 19v41h275v-41l-86 -19v-574l86 -18v-41h-275v41l89 18v270h-310v-270l87 -18v-41h-275z" />
    <glyph glyph-name="I" unicode="I" horiz-adv-x="315" 
d="M20 0v41l88 18v575l-88 18v41h275v-41l-87 -18v-575l87 -18v-41h-275z" />
    <glyph glyph-name="J" unicode="J" horiz-adv-x="403" 
d="M126 -10q-64 0 -116 25v56q56 -17 103 -17t71 23t24 83v473l-88 19v41h275v-41l-87 -19v-483q0 -77 -47.5 -118.5t-134.5 -41.5z" />
    <glyph glyph-name="K" unicode="K" horiz-adv-x="651" 
d="M20 0v41l88 18v575l-88 18v41h279v-41l-91 -18v-575l91 -18v-41h-279zM483 0l-235 328v22l231 284l-64 18v41h215v-41l-67 -18l-225 -265l225 -309l75 -19v-41h-155z" />
    <glyph glyph-name="L" unicode="L" horiz-adv-x="554" 
d="M20 0v41l88 18v575l-88 18v41h284v-41l-96 -18v-579h234l49 164h47l-13 -219h-505z" />
    <glyph glyph-name="M" unicode="M" horiz-adv-x="864" 
d="M20 0v40l88 19v575l-88 18v41h234l170 -508h4l173 508h243v-41l-96 -18v-574l96 -19v-41h-270v41l76 19v561h-3l-206 -587h-61l-199 587h-3v-561l78 -19v-41h-236z" />
    <glyph glyph-name="N" unicode="N" horiz-adv-x="707" 
d="M20 0v39l89 20v574l-89 19v41h222l302 -516h5v455l-88 20v41h236v-40l-79 -20v-633h-79l-356 608h-4v-548l89 -20v-40h-248z" />
    <glyph glyph-name="O" unicode="O" horiz-adv-x="682" 
d="M340 -12q-135 0 -223.5 95t-88.5 264q0 89 27 159.5t72.5 113t100.5 64t115 21.5q135 0 223 -94t88 -262q0 -89 -27 -160t-72 -114t-100 -65t-115 -22zM342 45q101 0 153.5 80t52.5 212q0 312 -209 312q-102 0 -153.5 -80.5t-51.5 -212.5q0 -311 208 -311z" />
    <glyph glyph-name="P" unicode="P" horiz-adv-x="553" 
d="M20 0v41l88 19v574l-88 18v41h264q141 0 202 -49t61 -143q0 -101 -63 -151t-160 -50q-11 0 -26.5 1t-26.5 3l-11 1v43h6q7 -1 19 -1.5t24 -0.5q65 0 99.5 38.5t34.5 109.5q0 75 -33 107.5t-106 32.5h-96v-574l105 -19v-41h-293z" />
    <glyph glyph-name="Q" unicode="Q" horiz-adv-x="682" 
d="M662 -128l-402 124q-44 13 -81 36.5t-73 63.5t-57 104.5t-21 146.5q0 89 27 159.5t72.5 113t100.5 64t115 21.5q135 0 223 -94t88 -262q0 -142 -62 -225.5t-161 -110.5v-2l255 -52zM342 45q101 0 153.5 80t52.5 212q0 312 -209 312q-102 0 -153.5 -80.5t-51.5 -212.5
q0 -311 208 -311z" />
    <glyph glyph-name="R" unicode="R" horiz-adv-x="636" 
d="M20 0v41l90 19v573l-87 19v41h290q240 0 240 -187q0 -125 -142 -171v-4l159 -272l71 -19v-40h-149l-176 311h-106v-251l86 -19v-41h-276zM210 362h101q74 0 106.5 40t32.5 102q0 69 -32.5 99.5t-107.5 30.5h-100v-272z" />
    <glyph glyph-name="S" unicode="S" horiz-adv-x="519" 
d="M248 -12q-107 0 -195 34l-7 158h48l32 -102q59 -32 132 -32q67 0 104 35t37 87q0 51 -30 79.5t-96 56.5l-84 36q-131 54 -131 183q0 79 56 131t162 52q96 0 171 -25l7 -148h-47l-27 89q-49 26 -112 26q-55 0 -90.5 -26t-35.5 -76q0 -44 24.5 -71t79.5 -50l84 -35
q79 -34 119.5 -74.5t40.5 -118.5q0 -89 -60.5 -149t-181.5 -60z" />
    <glyph glyph-name="T" unicode="T" horiz-adv-x="593" 
d="M155 0v41l91 18v579h-151l-38 -143h-48l11 198h553l11 -198h-48l-38 143h-151v-579l91 -18v-41h-283z" />
    <glyph glyph-name="U" unicode="U" horiz-adv-x="675" 
d="M343 -13q-125 0 -190.5 60t-65.5 164v423l-86 18v41h275v-41l-88 -18v-406q0 -177 170 -177q171 0 171 178v404l-88 18v42h233v-41l-76 -18v-414q0 -108 -67 -170.5t-188 -62.5z" />
    <glyph glyph-name="V" unicode="V" horiz-adv-x="642" 
d="M282 0l-217 633l-63 19v41h249v-41l-80 -19l164 -505h5l165 505l-79 19v41h214v-41l-64 -19l-216 -633h-78z" />
    <glyph glyph-name="W" unicode="W" horiz-adv-x="936" 
d="M233 0l-169 633l-60 19v41h235v-41l-75 -19l126 -486h5l153 546h61l154 -546h4l123 486l-75 19v41h217v-41l-70 -19l-170 -633h-81l-144 522h-4l-149 -522h-81z" />
    <glyph glyph-name="X" unicode="X" horiz-adv-x="671" 
d="M20 0v41l74 19l189 293l-177 281l-75 18v41h263v-41l-71 -18l129 -222l130 222l-76 18v41h224v-41l-75 -18l-169 -275l191 -300l74 -18v-41h-258v41l73 18l-151 243l-148 -242l76 -20v-40h-223z" />
    <glyph glyph-name="Y" unicode="Y" horiz-adv-x="608" 
d="M173 0v41l88 19v247l-200 326l-61 19v41h238v-41l-69 -19l161 -269h4l146 269l-74 19v41h202v-41l-60 -19l-187 -328v-245l86 -19v-41h-274z" />
    <glyph glyph-name="Z" unicode="Z" horiz-adv-x="530" 
d="M11 0v46l384 586v4h-273l-43 -132h-49l10 189h476v-46l-385 -586v-4h297l44 132h48l-10 -189h-499z" />
    <glyph glyph-name="bracketleft" unicode="[" horiz-adv-x="314" 
d="M64 -120v853h217v-41l-127 -18v-735l127 -18v-41h-217z" />
    <glyph glyph-name="backslash" unicode="\" horiz-adv-x="334" 
d="M265 -120l-240 853h65l240 -853h-65z" />
    <glyph glyph-name="bracketright" unicode="]" horiz-adv-x="314" 
d="M33 -120v41l127 18v735l-127 18v41h217v-853h-217z" />
    <glyph glyph-name="asciicircum" unicode="^" horiz-adv-x="394" 
d="M22 453l146 240h58l146 -240h-54l-121 157l-121 -157h-54z" />
    <glyph glyph-name="underscore" unicode="_" horiz-adv-x="310" 
d="M-10 -120v52h330v-52h-330z" />
    <glyph glyph-name="grave" unicode="`" 
d="M324 568l-197 90l45 72l172 -128z" />
    <glyph glyph-name="a" unicode="a" horiz-adv-x="473" 
d="M172 -13q-69 0 -112.5 38t-43.5 102q0 62 39.5 92t117.5 46l131 27v54q0 64 -21 86t-94 22q-62 0 -130 -11v43q85 37 175 37q83 0 122.5 -37t39.5 -114v-295q0 -23 11.5 -30.5t36.5 -7.5h25v-34q-30 -15 -81 -15q-64 0 -74 53h-6q-52 -56 -136 -56zM205 49q58 0 99 37
v147l-102 -8q-50 -4 -71 -26t-21 -62q0 -41 24 -64.5t71 -23.5z" />
    <glyph glyph-name="b" unicode="b" horiz-adv-x="541" 
d="M248 -12q-98 0 -186 37v643l-76 16v38l155 23l12 -5v-270h5q75 53 155 53q40 0 73 -11.5t62.5 -37.5t46.5 -76.5t17 -121.5q0 -139 -71 -213.5t-193 -74.5zM259 41q158 0 158 217q0 104 -38 149t-113 45q-56 0 -113 -25v-355q16 -10 24.5 -15t31 -10.5t50.5 -5.5z" />
    <glyph glyph-name="c" unicode="c" horiz-adv-x="452" 
d="M273 -12q-118 0 -183 71t-65 193q0 137 75 204t194 67q71 0 133 -20v-129h-52l-20 85q-29 9 -72 9q-77 0 -120 -52t-43 -153q0 -111 49 -160t130 -49q86 0 138 26v-46q-66 -46 -164 -46z" />
    <glyph glyph-name="d" unicode="d" horiz-adv-x="566" 
d="M247 -12q-39 0 -75 13t-69 40.5t-53 79.5t-20 123q0 138 70 208.5t193 70.5q46 0 95 -14v159l-82 16v38l162 23l12 -5v-677l75 -16v-34l-150 -23l-11 5v52h-6q-47 -59 -141 -59zM275 58q57 0 113 29v350q-47 32 -106 32q-76 0 -117 -48.5t-41 -164.5q0 -198 151 -198z
" />
    <glyph glyph-name="e" unicode="e" horiz-adv-x="493" 
d="M275 -12q-126 0 -188 74t-62 199q0 120 67 191t168 71q209 0 209 -265h-349q3 -101 48 -153t126 -52q73 0 150 27v-45q-79 -47 -169 -47zM120 308l245 8q0 153 -111 153q-124 0 -134 -161z" />
    <glyph glyph-name="f" unicode="f" horiz-adv-x="311" 
d="M20 0v34l74 16v404h-71v35l71 25v58q0 90 47 133t122 43q60 0 100 -23v-45q-38 8 -73 8q-53 0 -78.5 -26.5t-25.5 -95.5v-53h125v-59h-125v-404l88 -16v-34h-254z" />
    <glyph glyph-name="g" unicode="g" horiz-adv-x="500" 
d="M217 -206q-104 0 -156.5 37t-52.5 86q0 37 27 67.5t71 49.5v5q-54 20 -54 69q0 54 65 108q-72 43 -72 133q0 82 56 128t141 46q56 0 99 -18l150 21v-68l-95 6q42 -42 42 -104q0 -82 -56 -127.5t-141 -45.5q-51 0 -90 13q-28 -27 -28 -57q0 -31 38 -31h171q154 0 154 -126
q0 -82 -71 -137t-198 -55zM225 -149q89 0 134.5 31.5t45.5 78.5q0 65 -88 65h-167q-55 -25 -55 -91q0 -39 32 -61.5t98 -22.5zM241 238q49 0 77.5 29.5t28.5 86.5q0 59 -29 88.5t-77 29.5q-49 0 -77 -30t-28 -86q0 -60 28.5 -89t76.5 -29z" />
    <glyph glyph-name="h" unicode="h" horiz-adv-x="580" 
d="M14 0v34l75 16v618l-75 16v38l156 23l11 -6v-267h6q88 51 167 51q73 0 108.5 -31.5t35.5 -105.5v-336l75 -16v-34h-240v34l73 16v312q0 51 -25.5 71t-81.5 20q-48 0 -118 -24v-379l73 -16v-34h-240z" />
    <glyph glyph-name="i" unicode="i" horiz-adv-x="269" 
d="M15 0v34l74 16v393l-80 16v38l161 24l11 -6v-465l75 -16v-34h-241zM131 605q-23 0 -40 17t-17 39q0 23 17 39.5t40 16.5q24 0 40.5 -16.5t16.5 -39.5q0 -22 -16.5 -39t-40.5 -17z" />
    <glyph glyph-name="j" unicode="j" horiz-adv-x="261" 
d="M34 -197q-34 0 -74 15v42q21 -3 45 -3q42 0 66 21t24 76v489l-80 16v38l161 24l11 -6v-571q0 -68 -40 -104.5t-113 -36.5zM137 605q-23 0 -40 17t-17 39q0 23 17 39.5t40 16.5q24 0 40.5 -16.5t16.5 -39.5q0 -22 -16.5 -39t-40.5 -17z" />
    <glyph glyph-name="k" unicode="k" horiz-adv-x="529" 
d="M14 0v34l75 15v619l-75 16v38l155 23l12 -6v-690l77 -15v-34h-244zM393 0l-179 257v14l151 191l-60 15v36h202v-36l-73 -15l-141 -166l171 -246l65 -16v-34h-136z" />
    <glyph glyph-name="l" unicode="l" horiz-adv-x="269" 
d="M14 0v34l75 16v618l-81 16v38l161 23l12 -6v-689l75 -16v-34h-242z" />
    <glyph glyph-name="m" unicode="m" horiz-adv-x="878" 
d="M14 0v34l75 16v393l-75 16v38l151 24l11 -6v-44h6q88 52 170 52q88 0 119 -57h6q90 57 178 57q139 0 139 -142v-331l74 -16v-34h-239v34l73 16v306q0 54 -26 75.5t-81 21.5q-45 0 -112 -23q4 -22 4 -49v-331l73 -16v-34h-238v34l74 16v306q0 53 -25 75t-77 22
q-46 0 -113 -23v-380l73 -16v-34h-240z" />
    <glyph glyph-name="n" unicode="n" horiz-adv-x="582" 
d="M14 0v34l75 16v393l-75 16v38l151 24l11 -6v-45h6q91 53 172 53q73 0 108.5 -31.5t35.5 -105.5v-336l75 -16v-34h-240v34l73 16v312q0 51 -25.5 70.5t-81.5 19.5q-51 0 -118 -23v-379l73 -16v-34h-240z" />
    <glyph glyph-name="o" unicode="o" horiz-adv-x="541" 
d="M272 -13q-111 0 -179 73t-68 193q0 119 70.5 194.5t173.5 75.5q111 0 179 -72.5t68 -192.5q0 -119 -71 -195t-173 -76zM273 42q64 0 105.5 49t41.5 159q0 113 -43.5 165.5t-108.5 52.5q-64 0 -105.5 -49t-41.5 -159q0 -113 43.5 -165.5t108.5 -52.5z" />
    <glyph glyph-name="p" unicode="p" horiz-adv-x="565" 
d="M11 -199v34l74 14v594l-75 16v38l150 24l11 -6v-48h6q74 56 160 56q40 0 72.5 -11.5t62 -37.5t46.5 -76.5t17 -121.5q0 -139 -71 -213.5t-192 -74.5q-53 0 -95 9v-146l87 -16v-34h-253zM283 41q158 0 158 217q0 104 -38 149t-113 45q-56 0 -113 -25v-357q49 -29 106 -29z
" />
    <glyph glyph-name="q" unicode="q" horiz-adv-x="552" 
d="M301 -199v34l87 16v193h-6q-35 -28 -66.5 -42t-77.5 -14q-39 0 -73.5 12t-66 38.5t-50 78t-18.5 122.5q0 138 70.5 211t188.5 73q101 0 191 -31v-643l74 -14v-34h-253zM275 58q57 0 113 29v350q-16 11 -25 16t-32 10.5t-53 5.5q-154 0 -154 -213q0 -198 151 -198z" />
    <glyph glyph-name="r" unicode="r" horiz-adv-x="350" 
d="M14 0v34l75 16v393l-75 16v38l151 24l11 -6v-65h6q60 73 132 73q18 0 28 -4v-80q-19 3 -39 3q-69 0 -122 -35v-357l82 -16v-34h-249z" />
    <glyph glyph-name="s" unicode="s" horiz-adv-x="418" 
d="M193 -13q-75 0 -159 28l-8 138h48l27 -89q42 -22 99 -22q49 0 79 20t30 58q0 37 -20.5 55.5t-76.5 36.5l-55 18q-62 20 -93.5 54.5t-31.5 89.5q0 63 48.5 105.5t136.5 42.5q77 0 142 -19v-130h-45l-24 78q-29 17 -82 17q-97 0 -97 -72q0 -33 21.5 -52t77.5 -36l55 -18
q69 -23 98 -56.5t29 -88.5q0 -69 -52 -113.5t-147 -44.5z" />
    <glyph glyph-name="t" unicode="t" horiz-adv-x="342" 
d="M217 -9q-67 0 -99 28t-32 96v339h-73v35l80 24l16 120h69v-120h134v-59h-134v-320q0 -44 17 -63.5t63 -19.5q29 0 64 7v-37q-44 -30 -105 -30z" />
    <glyph glyph-name="u" unicode="u" horiz-adv-x="582" 
d="M226 -10q-146 0 -146 150v310l-76 16v38l156 16l11 -6v-351q0 -57 21 -82t78 -25q59 0 126 29v365l-73 16v38l154 16l11 -6v-451l75 -16v-34l-150 -23l-11 5v56h-6q-67 -61 -170 -61z" />
    <glyph glyph-name="v" unicode="v" horiz-adv-x="529" 
d="M229 0l-175 462l-56 15v36h220v-36l-63 -12l127 -363h4l129 363l-63 12v36h179v-36l-56 -15l-173 -462h-73z" />
    <glyph glyph-name="w" unicode="w" horiz-adv-x="773" 
d="M193 0l-142 462l-53 15v36h212v-36l-64 -15l97 -337h4l125 388h61l123 -388h4l98 337l-63 15v36h180v-36l-53 -15l-143 -462h-69l-116 381h-3l-130 -381h-68z" />
    <glyph glyph-name="x" unicode="x" horiz-adv-x="529" 
d="M9 0v34l61 15l143 204l-141 209l-59 15v36h222v-36l-59 -13l105 -162h2l103 162l-63 13v36h186v-36l-58 -15l-137 -196l145 -217l61 -15v-34h-225v34l63 13l-110 166h-2l-111 -166l64 -13v-34h-190z" />
    <glyph glyph-name="y" unicode="y" horiz-adv-x="526" 
d="M122 -199q-45 0 -77 19v52q41 -9 53 -9q43 0 68 18t44 62l30 71l-186 448l-56 15v36h225v-36l-68 -14l129 -333h4l114 332l-65 15v36h191v-36l-56 -15l-203 -538q-24 -64 -56.5 -93.5t-90.5 -29.5z" />
    <glyph glyph-name="z" unicode="z" horiz-adv-x="472" 
d="M27 0v48l299 411v4h-204l-30 -111h-47l8 161h381v-46l-299 -413v-4h216l37 122h48l-13 -172h-396z" />
    <glyph glyph-name="braceleft" unicode="{" horiz-adv-x="368" 
d="M335 -120q-122 4 -170.5 37t-48.5 93q0 30 15.5 99.5t15.5 89.5q0 33 -22.5 50.5t-96.5 25.5v63q74 9 96.5 26.5t22.5 49.5q0 20 -15.5 90t-15.5 99q0 60 48.5 93t170.5 37v-41q-75 -12 -99.5 -27t-24.5 -56q0 -22 12 -84.5t12 -93.5q0 -46 -26 -74.5t-116 -47.5v-5
q90 -19 116 -47.5t26 -74.5q0 -31 -12 -93.5t-12 -84.5q0 -41 24.5 -56t99.5 -27v-41z" />
    <glyph glyph-name="bar" unicode="|" horiz-adv-x="214" 
d="M76 -120v853h62v-853h-62z" />
    <glyph glyph-name="braceright" unicode="}" horiz-adv-x="368" 
d="M33 -120v41q75 12 99.5 27t24.5 56q0 22 -12 84.5t-12 93.5q0 46 26 74.5t116 47.5v5q-90 19 -116 47.5t-26 74.5q0 31 12 93.5t12 84.5q0 41 -24.5 56t-99.5 27v41q122 -4 170.5 -37t48.5 -93q0 -29 -15.5 -99t-15.5 -90q0 -33 22.5 -50.5t96.5 -25.5v-63
q-74 -9 -96.5 -26.5t-22.5 -49.5q0 -20 15.5 -89.5t15.5 -99.5q0 -60 -48.5 -93t-170.5 -37z" />
    <glyph glyph-name="asciitilde" unicode="~" horiz-adv-x="400" 
d="M61 235l-41 19q23 58 50 84t66 26q29 0 73.5 -23.5t59.5 -23.5q37 0 70 56l41 -19q-23 -58 -50 -84t-66 -26q-29 0 -73.5 23.5t-59.5 23.5q-37 0 -70 -56z" />
    <glyph glyph-name="uni00A0" unicode="&#xa0;" horiz-adv-x="190" 
 />
    <glyph glyph-name="exclamdown" unicode="&#xa1;" horiz-adv-x="249" 
d="M74 -120l25 503h55l25 -503h-105zM125 470q-25 0 -42 17t-17 41t17 41t42 17q24 0 41 -17t17 -41t-16.5 -41t-41.5 -17z" />
    <glyph glyph-name="cent" unicode="&#xa2;" horiz-adv-x="452" 
d="M255 -119h-57l12 113q-89 18 -137 85.5t-48 172.5q0 129 66.5 195.5t173.5 74.5l7 64h57l-7 -64q51 -3 105 -19v-129h-52l-20 85q-23 6 -39 8l-43 -412q8 -1 26 -1q86 0 138 26v-46q-66 -46 -164 -46h-7zM120 263q0 -152 98 -194l41 398q-66 -8 -102.5 -59.5
t-36.5 -144.5z" />
    <glyph glyph-name="sterling" unicode="&#xa3;" horiz-adv-x="534" 
d="M132 318h-67v59h67v102q0 113 64 169.5t152 56.5q54 0 85 -10.5t62 -33.5v-48q-59 21 -120 21q-29 0 -52.5 -6t-45.5 -22.5t-35 -49.5t-15 -81l-4 -98h182v-59h-184l-2 -62q-2 -64 -19 -98.5t-54 -70.5v-2h355l-10 -85h-452v53q49 30 71 70t22 109v86z" />
    <glyph glyph-name="yen" unicode="&#xa5;" horiz-adv-x="580" 
d="M77 320v52h145l-167 261l-51 19v41h228v-41l-69 -19l152 -249h4l139 249l-74 19v41h192v-41l-50 -19l-156 -261h147v-52h-171v-78h171v-52h-171v-130l89 -19v-41h-276v41l89 19v130h-171v52h171v78h-171z" />
    <glyph glyph-name="brokenbar" unicode="&#xa6;" horiz-adv-x="214" 
d="M76 -120v399h62v-399h-62zM76 371v362h62v-362h-62z" />
    <glyph glyph-name="section" unicode="&#xa7;" horiz-adv-x="493" 
d="M239 -132q-79 0 -165 30l-8 131h48l28 -82q50 -24 101 -24q45 0 76 20.5t31 60.5q0 35 -23.5 59.5t-75.5 45.5l-81 32q-73 29 -109 64.5t-36 91.5q0 93 117 133q-65 42 -65 125q0 67 49.5 108.5t137.5 41.5q74 0 143 -21v-121h-45l-24 70q-30 17 -83 17q-43 0 -71.5 -19
t-28.5 -58q0 -35 18 -55.5t69 -40.5l81 -32q74 -29 109.5 -63t35.5 -90q0 -98 -114 -138q80 -50 80 -129q0 -67 -51 -112t-144 -45zM270 374l-68 26q-39 -8 -65 -31t-26 -55q0 -36 25.5 -57t86.5 -45l69 -27q39 7 64.5 30t25.5 57q0 36 -25.5 57t-86.5 45z" />
    <glyph glyph-name="dieresis" unicode="&#xa8;" 
d="M161 602q-22 0 -38 16.5t-16 37.5q0 22 16 38t38 16q23 0 39 -15.5t16 -38.5q0 -21 -16 -37.5t-39 -16.5zM327 602q-22 0 -38.5 16.5t-16.5 37.5q0 22 16 38t39 16t38.5 -16t15.5 -38q0 -21 -16 -37.5t-38 -16.5z" />
    <glyph glyph-name="copyright" unicode="&#xa9;" horiz-adv-x="776" 
d="M387 -14q-150 0 -252 104.5t-102 253.5t102 252.5t252 103.5q149 0 252.5 -104t103.5 -252t-103.5 -253t-252.5 -105zM387 27q132 0 217.5 92t85.5 225t-85.5 224.5t-217.5 91.5q-133 0 -218 -91.5t-85 -224.5t85 -225t218 -92zM396 157q-83 0 -133.5 48t-50.5 137
q0 96 54.5 145t137.5 49q57 0 108 -15l5 -100h-35l-26 63q-28 12 -58 12q-99 0 -99 -144q0 -76 23.5 -115.5t80.5 -39.5q41 0 53 8l28 75h37l-7 -104q-57 -19 -118 -19z" />
    <glyph glyph-name="ordfeminine" unicode="&#xaa;" horiz-adv-x="455" 
d="M171 220q-62 0 -101 34.5t-39 92.5q0 56 38 85.5t108 42.5l113 22v46q0 55 -20 74t-84 19q-47 0 -117 -10v43q76 34 158 34q151 0 151 -136v-261q0 -20 10 -27t33 -7h22v-34q-30 -15 -73 -15q-63 0 -71 48h-5q-49 -51 -123 -51zM201 280q56 0 89 29v132l-87 -6
q-84 -6 -84 -80q0 -36 21.5 -55.5t60.5 -19.5z" />
    <glyph glyph-name="guillemotleft" unicode="&#xab;" horiz-adv-x="412" 
d="M309 55l-106 183v29l106 183h60l-81 -197l81 -198h-60zM147 55l-106 183v29l106 183h60l-81 -197l81 -198h-60z" />
    <glyph glyph-name="registered" unicode="&#xae;" horiz-adv-x="433" 
d="M216 314q-82 0 -138.5 57.5t-56.5 139.5t56.5 139t138.5 57t139 -57t57 -139q0 -81 -57 -139t-139 -58zM216 347q69 0 112.5 47t43.5 117q0 69 -44 116.5t-112 47.5t-111.5 -47.5t-43.5 -116.5q0 -70 43 -117t112 -47zM129 420v19l22 6v135l-22 6v21h88q76 0 76 -52
q0 -32 -38 -45v-3l41 -63l16 -5v-19h-51l-45 75h-20v-50l21 -6v-19h-88zM196 522h20q18 0 24.5 7.5t6.5 23.5t-6.5 22t-24.5 6h-20v-59z" />
    <glyph glyph-name="macron" unicode="&#xaf;" 
d="M122 605v62h244v-62h-244z" />
    <glyph glyph-name="degree" unicode="&#xb0;" horiz-adv-x="336" 
d="M168 430q-59 0 -98.5 40t-39.5 96t39.5 96t98.5 40t98.5 -40t39.5 -96t-39.5 -96t-98.5 -40zM168 472q39 0 62 27.5t23 66.5t-23 66.5t-62 27.5t-62 -27.5t-23 -66.5t23 -66.5t62 -27.5z" />
    <glyph glyph-name="acute" unicode="&#xb4;" 
d="M164 568l-20 34l172 128l45 -72z" />
    <glyph glyph-name="paragraph" unicode="&#xb6;" horiz-adv-x="567" 
d="M308 -120v455q-32 -4 -50 -4q-87 0 -145 47t-58 138q0 177 239 177h282v-41l-78 -18v-754h-62v760h-66v-760h-62z" />
    <glyph glyph-name="periodcentered" unicode="&#xb7;" horiz-adv-x="218" 
d="M109 261q-27 0 -45.5 18t-18.5 45t18.5 45t45.5 18t45.5 -18t18.5 -45t-18.5 -45t-45.5 -18z" />
    <glyph glyph-name="cedilla" unicode="&#xb8;" 
d="M200 -213v36q58 8 80.5 20t22.5 31q0 18 -18 25.5t-64 7.5v93h46v-48q113 -4 113 -72q0 -83 -180 -93z" />
    <glyph glyph-name="ordmasculine" unicode="&#xba;" horiz-adv-x="498" 
d="M250 220q-100 0 -161 65.5t-61 174.5q0 107 63.5 175t155.5 68q100 0 161.5 -65.5t61.5 -173.5q0 -107 -64 -175.5t-156 -68.5zM251 271q57 0 92.5 43.5t35.5 142.5q0 102 -37.5 148.5t-94.5 46.5t-93 -43.5t-36 -142.5q0 -102 37.5 -148.5t95.5 -46.5z" />
    <glyph glyph-name="guillemotright" unicode="&#xbb;" horiz-adv-x="412" 
d="M205 55l81 197l-81 198h60l106 -183v-29l-106 -183h-60zM43 55l81 197l-81 198h60l106 -183v-29l-106 -183h-60z" />
    <glyph glyph-name="onequarter" unicode="&#xbc;" horiz-adv-x="806" 
d="M248 282h-199v34l61 10v303l-67 -6v33l117 47h27v-377l61 -10v-34zM125 -40l480 753h69l-480 -753h-69zM762 0h-184v34l55 10v76h-188v41l199 255h64v-250h62v-46h-62v-76l54 -10v-34zM504 167v-1h129v165h-3z" />
    <glyph glyph-name="onehalf" unicode="&#xbd;" horiz-adv-x="826" 
d="M248 282h-199v34l61 10v303l-67 -6v33l117 47h27v-377l61 -10v-34zM106 -40l480 753h69l-480 -753h-69zM784 0h-280v39l103 101q46 46 69 80.5t23 71.5q0 76 -88 76q-36 0 -90 -18v39q60 34 121 34q64 0 100.5 -31t36.5 -90q0 -46 -32.5 -90t-99.5 -99l-67 -55v-1h148
l26 53h38z" />
    <glyph glyph-name="threequarters" unicode="&#xbe;" horiz-adv-x="828" 
d="M156 275q-67 0 -119 29v37q50 -16 97 -16q45 0 70.5 19t25.5 56q0 42 -22 59t-71 17h-31v43h26q85 0 85 69q0 68 -78 68q-47 0 -84 -12v36q48 25 108 25q61 0 95.5 -27t34.5 -77q0 -74 -81 -98v-2q98 -17 98 -106q0 -56 -41 -88t-113 -32zM150 -43l480 753h69l-480 -753
h-69zM784 -3h-184v34l55 10v76h-188v41l199 255h64v-250h62v-46h-62v-76l54 -10v-34zM526 164v-1h129v165h-3z" />
    <glyph glyph-name="questiondown" unicode="&#xbf;" horiz-adv-x="408" 
d="M225 -132q-86 0 -139.5 42t-53.5 133q0 60 28 97t96 81q4 3 15 10t14.5 9.5t12 9t12 10t9 10t8 12.5t4.5 14t2 17q0 26 -10 72h49q19 -45 19 -84q0 -28 -13 -51.5t-29 -38t-55 -44.5q-37 -29 -52 -54.5t-15 -67.5q0 -58 34.5 -86t92.5 -28q62 0 130 21v-48
q-77 -36 -159 -36zM247 470q-24 0 -41.5 17t-17.5 41q0 23 17.5 40.5t41.5 17.5t41 -17t17 -41t-16.5 -41t-41.5 -17z" />
    <glyph glyph-name="Agrave" unicode="&#xc0;" horiz-adv-x="651" 
d="M-3 0v42l69 18l222 633h82l215 -633l69 -18v-42h-256v41l79 19l-53 164h-233l-55 -164l80 -19v-41h-219zM309 569l-100 -294h199l-94 294h-5zM403 728l-206 66l36 76l186 -106z" />
    <glyph glyph-name="Aacute" unicode="&#xc1;" horiz-adv-x="651" 
d="M-3 0v42l69 18l222 633h82l215 -633l69 -18v-42h-256v41l79 19l-53 164h-233l-55 -164l80 -19v-41h-219zM309 569l-100 -294h199l-94 294h-5zM455 794l-206 -66l-16 36l186 106z" />
    <glyph glyph-name="Acircumflex" unicode="&#xc2;" horiz-adv-x="651" 
d="M-3 0v42l69 18l222 633h82l215 -633l69 -18v-42h-256v41l79 19l-53 164h-233l-55 -164l80 -19v-41h-219zM309 569l-100 -294h199l-94 294h-5zM203 732l-17 31l119 98h46l119 -98l-17 -31l-125 55z" />
    <glyph glyph-name="Atilde" unicode="&#xc3;" horiz-adv-x="651" 
d="M-3 0v42l69 18l222 633h82l215 -633l69 -18v-42h-256v41l79 19l-53 164h-233l-55 -164l80 -19v-41h-219zM309 569l-100 -294h199l-94 294h-5zM218 736l-40 18q38 93 98 93q23 0 59.5 -17t48.5 -17q29 0 54 41l40 -18q-38 -93 -98 -93q-23 0 -59.5 17t-48.5 17
q-29 0 -54 -41z" />
    <glyph glyph-name="Adieresis" unicode="&#xc4;" horiz-adv-x="651" 
d="M-3 0v42l69 18l222 633h82l215 -633l69 -18v-42h-256v41l79 19l-53 164h-233l-55 -164l80 -19v-41h-219zM309 569l-100 -294h199l-94 294h-5zM245 737q-22 0 -38 16.5t-16 37.5q0 22 16 38t38 16q23 0 39 -15.5t16 -38.5q0 -21 -16 -37.5t-39 -16.5zM411 737
q-22 0 -38.5 16.5t-16.5 37.5q0 22 16 38t39 16t38.5 -15.5t15.5 -38.5q0 -21 -16 -37.5t-38 -16.5z" />
    <glyph glyph-name="Aring" unicode="&#xc5;" horiz-adv-x="651" 
d="M-3 0v42l69 18l222 633h82l215 -633l69 -18v-42h-256v41l79 19l-53 164h-233l-55 -164l80 -19v-41h-219zM309 569l-100 -294h199l-94 294h-5zM328 723q-39 0 -66 26t-27 62q0 37 27 63t66 26t66 -26t27 -63q0 -36 -27 -62t-66 -26zM328 762q22 0 35.5 13.5t13.5 35.5
t-13.5 36t-35.5 14t-35.5 -14t-13.5 -36t13.5 -35.5t35.5 -13.5z" />
    <glyph glyph-name="AE" unicode="&#xc6;" horiz-adv-x="916" 
d="M-3 0v42l62 18l334 582l-67 10v41h543l11 -172h-48l-43 117h-238v-255h124l27 95h43v-242h-43l-27 96h-124v-277h248l54 145h48l-13 -200h-524v41l89 19v164h-231l-93 -164l79 -19v-41h-211zM453 629h-3l-199 -354h202v354z" />
    <glyph glyph-name="Ccedilla" unicode="&#xc7;" horiz-adv-x="603" 
d="M253 -213v36q58 8 80.5 20t22.5 31q0 18 -18 25.5t-64 7.5v87q-246 41 -246 344q0 80 19 144t50.5 105t75.5 68t92 38.5t102 11.5q111 0 191 -26l5 -169h-46l-41 114q-57 25 -121 25q-110 0 -165.5 -75.5t-55.5 -215.5q0 -156 55.5 -234.5t175.5 -78.5q64 0 115 28
l41 124h48l-6 -174q-83 -35 -212 -35q-21 0 -31 1v-37q113 -4 113 -72q0 -83 -180 -93z" />
    <glyph glyph-name="Egrave" unicode="&#xc8;" horiz-adv-x="585" 
d="M20 0v41l89 19v573l-88 19v41h514l11 -172h-48l-43 117h-246v-255h132l27 95h43v-242h-43l-27 96h-132v-277h256l54 145h48l-13 -200h-534zM384 728l-206 66l36 76l186 -106z" />
    <glyph glyph-name="Eacute" unicode="&#xc9;" horiz-adv-x="585" 
d="M20 0v41l89 19v573l-88 19v41h514l11 -172h-48l-43 117h-246v-255h132l27 95h43v-242h-43l-27 96h-132v-277h256l54 145h48l-13 -200h-534zM436 794l-206 -66l-16 36l186 106z" />
    <glyph glyph-name="Ecircumflex" unicode="&#xca;" horiz-adv-x="585" 
d="M20 0v41l89 19v573l-88 19v41h514l11 -172h-48l-43 117h-246v-255h132l27 95h43v-242h-43l-27 96h-132v-277h256l54 145h48l-13 -200h-534zM184 732l-17 31l119 98h46l119 -98l-17 -31l-125 55z" />
    <glyph glyph-name="Edieresis" unicode="&#xcb;" horiz-adv-x="585" 
d="M20 0v41l89 19v573l-88 19v41h514l11 -172h-48l-43 117h-246v-255h132l27 95h43v-242h-43l-27 96h-132v-277h256l54 145h48l-13 -200h-534zM226 737q-22 0 -38 16.5t-16 37.5q0 22 16 38t38 16q23 0 39 -15.5t16 -38.5q0 -21 -16 -37.5t-39 -16.5zM392 737
q-22 0 -38.5 16.5t-16.5 37.5q0 22 16 38t39 16q22 0 38 -15.5t16 -38.5q0 -21 -16 -37.5t-38 -16.5z" />
    <glyph glyph-name="Igrave" unicode="&#xcc;" horiz-adv-x="315" 
d="M20 0v41l88 18v575l-88 18v41h275v-41l-87 -18v-575l87 -18v-41h-275zM232 728l-206 66l36 76l186 -106z" />
    <glyph glyph-name="Iacute" unicode="&#xcd;" horiz-adv-x="315" 
d="M20 0v41l88 18v575l-88 18v41h275v-41l-87 -18v-575l87 -18v-41h-275zM277 794l-206 -66l-16 36l186 106z" />
    <glyph glyph-name="Icircumflex" unicode="&#xce;" horiz-adv-x="315" 
d="M20 0v41l88 18v575l-88 18v41h275v-41l-87 -18v-575l87 -18v-41h-275zM32 732l-17 31l119 98h46l119 -98l-17 -31l-125 55z" />
    <glyph glyph-name="Idieresis" unicode="&#xcf;" horiz-adv-x="315" 
d="M20 0v41l88 18v575l-88 18v41h275v-41l-87 -18v-575l87 -18v-41h-275zM74 737q-22 0 -38 16.5t-16 37.5q0 22 16 38t38 16q23 0 39 -15.5t16 -38.5q0 -21 -16 -37.5t-39 -16.5zM240 737q-22 0 -38.5 16.5t-16.5 37.5q0 22 16 38t39 16q22 0 38 -15.5t16 -38.5
q0 -21 -16 -37.5t-38 -16.5z" />
    <glyph glyph-name="Eth" unicode="&#xd0;" horiz-adv-x="671" 
d="M28 319v59h81v255l-88 19v41h276q182 0 264.5 -83t82.5 -246q0 -364 -336 -364h-288v41l89 19v259h-81zM209 55h101q118 0 172.5 65.5t54.5 228.5q0 76 -11.5 128.5t-31 84t-53.5 48.5t-69.5 22.5t-88.5 5.5h-74v-260h179v-59h-179v-264z" />
    <glyph glyph-name="Ntilde" unicode="&#xd1;" horiz-adv-x="707" 
d="M20 0v39l89 20v574l-89 19v41h222l302 -516h5v455l-88 20v41h236v-40l-79 -20v-633h-79l-356 608h-4v-548l89 -20v-40h-248zM270 736l-40 18q38 93 98 93q23 0 59.5 -17t48.5 -17q29 0 54 41l40 -18q-38 -93 -98 -93q-23 0 -59.5 17t-48.5 17q-29 0 -54 -41z" />
    <glyph glyph-name="Ograve" unicode="&#xd2;" horiz-adv-x="682" 
d="M340 -12q-135 0 -223.5 95t-88.5 264q0 89 27 159.5t72.5 113t100.5 64t115 21.5q135 0 223 -94t88 -262q0 -89 -27 -160t-72 -114t-100 -65t-115 -22zM342 45q101 0 153.5 80t52.5 212q0 312 -209 312q-102 0 -153.5 -80.5t-51.5 -212.5q0 -311 208 -311zM416 728
l-206 66l36 76l186 -106z" />
    <glyph glyph-name="Oacute" unicode="&#xd3;" horiz-adv-x="682" 
d="M340 -12q-135 0 -223.5 95t-88.5 264q0 89 27 159.5t72.5 113t100.5 64t115 21.5q135 0 223 -94t88 -262q0 -89 -27 -160t-72 -114t-100 -65t-115 -22zM342 45q101 0 153.5 80t52.5 212q0 312 -209 312q-102 0 -153.5 -80.5t-51.5 -212.5q0 -311 208 -311zM468 794
l-206 -66l-16 36l186 106z" />
    <glyph glyph-name="Ocircumflex" unicode="&#xd4;" horiz-adv-x="682" 
d="M340 -12q-135 0 -223.5 95t-88.5 264q0 89 27 159.5t72.5 113t100.5 64t115 21.5q135 0 223 -94t88 -262q0 -89 -27 -160t-72 -114t-100 -65t-115 -22zM342 45q101 0 153.5 80t52.5 212q0 312 -209 312q-102 0 -153.5 -80.5t-51.5 -212.5q0 -311 208 -311zM216 732
l-17 31l119 98h46l119 -98l-17 -31l-125 55z" />
    <glyph glyph-name="Otilde" unicode="&#xd5;" horiz-adv-x="682" 
d="M340 -12q-135 0 -223.5 95t-88.5 264q0 89 27 159.5t72.5 113t100.5 64t115 21.5q135 0 223 -94t88 -262q0 -89 -27 -160t-72 -114t-100 -65t-115 -22zM342 45q101 0 153.5 80t52.5 212q0 312 -209 312q-102 0 -153.5 -80.5t-51.5 -212.5q0 -311 208 -311zM231 736
l-40 18q38 93 98 93q23 0 59.5 -17t48.5 -17q29 0 54 41l40 -18q-38 -93 -98 -93q-23 0 -59.5 17t-48.5 17q-29 0 -54 -41z" />
    <glyph glyph-name="Odieresis" unicode="&#xd6;" horiz-adv-x="682" 
d="M340 -12q-135 0 -223.5 95t-88.5 264q0 89 27 159.5t72.5 113t100.5 64t115 21.5q135 0 223 -94t88 -262q0 -89 -27 -160t-72 -114t-100 -65t-115 -22zM342 45q101 0 153.5 80t52.5 212q0 312 -209 312q-102 0 -153.5 -80.5t-51.5 -212.5q0 -311 208 -311zM258 737
q-22 0 -38 16.5t-16 37.5q0 22 16 38t38 16q23 0 39 -15.5t16 -38.5q0 -21 -16 -37.5t-39 -16.5zM424 737q-22 0 -38.5 16.5t-16.5 37.5q0 22 16 38t39 16q22 0 38 -15.5t16 -38.5q0 -21 -16 -37.5t-38 -16.5z" />
    <glyph glyph-name="multiply" unicode="&#xd7;" horiz-adv-x="526" 
d="M115 147l-44 44l148 148l-148 149l44 44l148 -149l148 148l44 -44l-148 -148l149 -148l-44 -44l-149 148z" />
    <glyph glyph-name="Oslash" unicode="&#xd8;" horiz-adv-x="682" 
d="M340 -12q-114 0 -196 68l-66 -83l-44 34l71 89q-77 96 -77 251q0 89 27 159.5t72.5 113t100.5 64t115 21.5q115 0 196 -69l60 74l44 -34l-65 -80q76 -97 76 -247q0 -89 -27 -160t-72 -114t-100 -65t-115 -22zM134 356q0 -119 27 -191l331 412q-52 72 -153 72
q-102 0 -153.5 -80.5t-51.5 -212.5zM342 45q101 0 153.5 80t52.5 212q0 115 -28 187l-330 -411q49 -68 152 -68z" />
    <glyph glyph-name="Ugrave" unicode="&#xd9;" horiz-adv-x="675" 
d="M343 -13q-125 0 -190.5 60t-65.5 164v423l-86 18v41h275v-41l-88 -18v-406q0 -177 170 -177q171 0 171 178v404l-88 18v42h233v-41l-76 -18v-414q0 -108 -67 -170.5t-188 -62.5zM437 728l-206 66l36 76l186 -106z" />
    <glyph glyph-name="Uacute" unicode="&#xda;" horiz-adv-x="675" 
d="M343 -13q-125 0 -190.5 60t-65.5 164v423l-86 18v41h275v-41l-88 -18v-406q0 -177 170 -177q171 0 171 178v404l-88 18v42h233v-41l-76 -18v-414q0 -108 -67 -170.5t-188 -62.5zM489 794l-206 -66l-16 36l186 106z" />
    <glyph glyph-name="Ucircumflex" unicode="&#xdb;" horiz-adv-x="675" 
d="M343 -13q-125 0 -190.5 60t-65.5 164v423l-86 18v41h275v-41l-88 -18v-406q0 -177 170 -177q171 0 171 178v404l-88 18v42h233v-41l-76 -18v-414q0 -108 -67 -170.5t-188 -62.5zM237 732l-17 31l119 98h46l119 -98l-17 -31l-125 55z" />
    <glyph glyph-name="Udieresis" unicode="&#xdc;" horiz-adv-x="675" 
d="M343 -13q-125 0 -190.5 60t-65.5 164v423l-86 18v41h275v-41l-88 -18v-406q0 -177 170 -177q171 0 171 178v404l-88 18v42h233v-41l-76 -18v-414q0 -108 -67 -170.5t-188 -62.5zM279 737q-22 0 -38 16.5t-16 37.5q0 22 16 38t38 16q23 0 39 -15.5t16 -38.5
q0 -21 -16 -37.5t-39 -16.5zM445 737q-22 0 -38.5 16.5t-16.5 37.5q0 22 16 38t39 16t38.5 -15.5t15.5 -38.5q0 -21 -16 -37.5t-38 -16.5z" />
    <glyph glyph-name="Yacute" unicode="&#xdd;" horiz-adv-x="608" 
d="M173 0v41l88 19v247l-200 326l-61 19v41h238v-41l-69 -19l161 -269h4l146 269l-74 19v41h202v-41l-60 -19l-187 -328v-245l86 -19v-41h-274zM450 794l-206 -66l-16 36l186 106z" />
    <glyph glyph-name="Thorn" unicode="&#xde;" horiz-adv-x="569" 
d="M20 0v41l88 19v573l-88 19v41h275v-41l-87 -19v-81h90q249 0 249 -184q0 -93 -63.5 -141t-159.5 -48q-11 0 -26.5 1.5t-26.5 2.5l-11 1v43l6 -1q7 0 19 -0.5t24 -0.5q65 0 99.5 35.5t34.5 100.5q0 70 -31.5 101t-103.5 31h-100v-433l105 -19v-41h-293z" />
    <glyph glyph-name="germandbls" unicode="&#xdf;" horiz-adv-x="597" 
d="M399 -13q-69 0 -135 24l-7 118h48l25 -70q34 -17 71 -17q43 0 68 18.5t25 53.5q0 16 -6 29.5t-20 25.5t-24.5 19t-31.5 19l-44 25q-30 17 -47 29.5t-32.5 37t-15.5 55.5q0 30 15.5 58.5t37.5 51t44 44.5t37.5 47t15.5 50q0 41 -24.5 64.5t-72.5 23.5q-73 0 -106.5 -45
t-33.5 -117v-531h-166v34l74 16v404h-71v35l71 25v29q0 87 65 146t166 59q85 0 136.5 -36t51.5 -98q0 -34 -25 -69t-54.5 -59t-54.5 -52t-25 -50q0 -23 12 -37.5t46 -33.5l44 -25q66 -38 87 -60q34 -36 34 -89q0 -64 -47.5 -108t-130.5 -44z" />
    <glyph glyph-name="agrave" unicode="&#xe0;" horiz-adv-x="473" 
d="M172 -13q-69 0 -112.5 38t-43.5 102q0 62 39.5 92t117.5 46l131 27v54q0 64 -21 86t-94 22q-62 0 -130 -11v43q85 37 175 37q83 0 122.5 -37t39.5 -114v-295q0 -23 11.5 -30.5t36.5 -7.5h25v-34q-30 -15 -81 -15q-64 0 -74 53h-6q-52 -56 -136 -56zM205 49q58 0 99 37
v147l-102 -8q-50 -4 -71 -26t-21 -62q0 -41 24 -64.5t71 -23.5zM309 568l-197 90l45 72l172 -128z" />
    <glyph glyph-name="aacute" unicode="&#xe1;" horiz-adv-x="473" 
d="M172 -13q-69 0 -112.5 38t-43.5 102q0 62 39.5 92t117.5 46l131 27v54q0 64 -21 86t-94 22q-62 0 -130 -11v43q85 37 175 37q83 0 122.5 -37t39.5 -114v-295q0 -23 11.5 -30.5t36.5 -7.5h25v-34q-30 -15 -81 -15q-64 0 -74 53h-6q-52 -56 -136 -56zM205 49q58 0 99 37
v147l-102 -8q-50 -4 -71 -26t-21 -62q0 -41 24 -64.5t71 -23.5zM155 568l-20 34l172 128l45 -72z" />
    <glyph glyph-name="acircumflex" unicode="&#xe2;" horiz-adv-x="473" 
d="M172 -13q-69 0 -112.5 38t-43.5 102q0 62 39.5 92t117.5 46l131 27v54q0 64 -21 86t-94 22q-62 0 -130 -11v43q85 37 175 37q83 0 122.5 -37t39.5 -114v-295q0 -23 11.5 -30.5t36.5 -7.5h25v-34q-30 -15 -81 -15q-64 0 -74 53h-6q-52 -56 -136 -56zM205 49q58 0 99 37
v147l-102 -8q-50 -4 -71 -26t-21 -62q0 -41 24 -64.5t71 -23.5zM117 573l-21 29l115 121h46l115 -121l-21 -29l-117 74z" />
    <glyph glyph-name="atilde" unicode="&#xe3;" horiz-adv-x="473" 
d="M172 -13q-69 0 -112.5 38t-43.5 102q0 62 39.5 92t117.5 46l131 27v54q0 64 -21 86t-94 22q-62 0 -130 -11v43q85 37 175 37q83 0 122.5 -37t39.5 -114v-295q0 -23 11.5 -30.5t36.5 -7.5h25v-34q-30 -15 -81 -15q-64 0 -74 53h-6q-52 -56 -136 -56zM205 49q58 0 99 37
v147l-102 -8q-50 -4 -71 -26t-21 -62q0 -41 24 -64.5t71 -23.5zM124 595l-40 18q38 93 98 93q23 0 59.5 -17t48.5 -17q29 0 54 41l40 -18q-38 -93 -98 -93q-23 0 -59.5 17t-48.5 17q-29 0 -54 -41z" />
    <glyph glyph-name="adieresis" unicode="&#xe4;" horiz-adv-x="473" 
d="M172 -13q-69 0 -112.5 38t-43.5 102q0 62 39.5 92t117.5 46l131 27v54q0 64 -21 86t-94 22q-62 0 -130 -11v43q85 37 175 37q83 0 122.5 -37t39.5 -114v-295q0 -23 11.5 -30.5t36.5 -7.5h25v-34q-30 -15 -81 -15q-64 0 -74 53h-6q-52 -56 -136 -56zM205 49q58 0 99 37
v147l-102 -8q-50 -4 -71 -26t-21 -62q0 -41 24 -64.5t71 -23.5zM151 602q-22 0 -38 16.5t-16 37.5q0 22 16 38t38 16q23 0 39 -15.5t16 -38.5q0 -21 -16 -37.5t-39 -16.5zM317 602q-22 0 -38.5 16.5t-16.5 37.5q0 22 16 38t39 16t38.5 -16t15.5 -38q0 -21 -16 -37.5
t-38 -16.5z" />
    <glyph glyph-name="aring" unicode="&#xe5;" horiz-adv-x="473" 
d="M172 -13q-69 0 -112.5 38t-43.5 102q0 62 39.5 92t117.5 46l131 27v54q0 64 -21 86t-94 22q-62 0 -130 -11v43q85 37 175 37q83 0 122.5 -37t39.5 -114v-295q0 -23 11.5 -30.5t36.5 -7.5h25v-34q-30 -15 -81 -15q-64 0 -74 53h-6q-52 -56 -136 -56zM205 49q58 0 99 37
v147l-102 -8q-50 -4 -71 -26t-21 -62q0 -41 24 -64.5t71 -23.5zM234 573q-39 0 -66 26t-27 62q0 37 27 63t66 26t66 -26t27 -63q0 -36 -27 -62t-66 -26zM234 612q22 0 35.5 13.5t13.5 35.5t-13.5 36t-35.5 14t-35.5 -14t-13.5 -36t13.5 -35.5t35.5 -13.5z" />
    <glyph glyph-name="ae" unicode="&#xe6;" horiz-adv-x="760" 
d="M172 -13q-69 0 -112.5 38t-43.5 102t40 98t117 48l131 24v49q0 64 -21 86t-94 22q-62 0 -130 -11v43q85 37 175 37q106 0 137 -71q60 71 160 71q205 0 205 -269h-340q6 -201 169 -201q69 0 146 27v-45q-79 -47 -165 -47q-133 0 -196 87q-29 -38 -76.5 -63t-101.5 -25z
M330 109q-26 53 -29 132l-99 -8q-92 -7 -92 -96q0 -41 24 -64.5t71 -23.5q62 0 125 60zM396 304l236 8q0 80 -26 118.5t-81 38.5q-119 0 -129 -165z" />
    <glyph glyph-name="ccedilla" unicode="&#xe7;" horiz-adv-x="452" 
d="M172 -213v36q58 8 80.5 20t22.5 31q0 18 -18 25.5t-64 7.5v91q-81 22 -124.5 88t-43.5 166q0 137 75 204t194 67q71 0 133 -20v-129h-52l-20 85q-29 9 -72 9q-77 0 -120 -52t-43 -153q0 -111 49 -160t130 -49q86 0 138 26v-46q-66 -46 -164 -46q-12 0 -34 2v-38
q113 -4 113 -72q0 -83 -180 -93z" />
    <glyph glyph-name="egrave" unicode="&#xe8;" horiz-adv-x="493" 
d="M275 -12q-126 0 -188 74t-62 199q0 120 67 191t168 71q209 0 209 -265h-349q3 -101 48 -153t126 -52q73 0 150 27v-45q-79 -47 -169 -47zM120 308l245 8q0 153 -111 153q-124 0 -134 -161zM334 568l-197 90l45 72l172 -128z" />
    <glyph glyph-name="eacute" unicode="&#xe9;" horiz-adv-x="493" 
d="M275 -12q-126 0 -188 74t-62 199q0 120 67 191t168 71q209 0 209 -265h-349q3 -101 48 -153t126 -52q73 0 150 27v-45q-79 -47 -169 -47zM120 308l245 8q0 153 -111 153q-124 0 -134 -161zM180 568l-20 34l172 128l45 -72z" />
    <glyph glyph-name="ecircumflex" unicode="&#xea;" horiz-adv-x="493" 
d="M275 -12q-126 0 -188 74t-62 199q0 120 67 191t168 71q209 0 209 -265h-349q3 -101 48 -153t126 -52q73 0 150 27v-45q-79 -47 -169 -47zM120 308l245 8q0 153 -111 153q-124 0 -134 -161zM142 573l-21 29l115 121h46l115 -121l-21 -29l-117 74z" />
    <glyph glyph-name="edieresis" unicode="&#xeb;" horiz-adv-x="493" 
d="M275 -12q-126 0 -188 74t-62 199q0 120 67 191t168 71q209 0 209 -265h-349q3 -101 48 -153t126 -52q73 0 150 27v-45q-79 -47 -169 -47zM120 308l245 8q0 153 -111 153q-124 0 -134 -161zM176 602q-22 0 -38 16.5t-16 37.5q0 22 16 38t38 16q23 0 39 -15.5t16 -38.5
q0 -21 -16 -37.5t-39 -16.5zM342 602q-22 0 -38.5 16.5t-16.5 37.5q0 22 16 38t39 16q22 0 38 -16t16 -38q0 -21 -16 -37.5t-38 -16.5z" />
    <glyph glyph-name="igrave" unicode="&#xec;" horiz-adv-x="269" 
d="M15 0v34l74 16v393l-80 16v38l161 24l11 -6v-465l75 -16v-34h-241zM207 568l-197 90l45 72l172 -128z" />
    <glyph glyph-name="iacute" unicode="&#xed;" horiz-adv-x="269" 
d="M15 0v34l74 16v393l-80 16v38l161 24l11 -6v-465l75 -16v-34h-241zM53 568l-20 34l172 128l45 -72z" />
    <glyph glyph-name="icircumflex" unicode="&#xee;" horiz-adv-x="269" 
d="M15 0v34l74 16v393l-80 16v38l161 24l11 -6v-465l75 -16v-34h-241zM15 573l-21 29l115 121h46l115 -121l-21 -29l-117 74z" />
    <glyph glyph-name="idieresis" unicode="&#xef;" horiz-adv-x="269" 
d="M15 0v34l74 16v393l-80 16v38l161 24l11 -6v-465l75 -16v-34h-241zM49 602q-22 0 -38 16.5t-16 37.5q0 22 16 38t38 16q23 0 39 -15.5t16 -38.5q0 -21 -16 -37.5t-39 -16.5zM215 602q-22 0 -38.5 16.5t-16.5 37.5q0 22 16 38t39 16t38.5 -16t15.5 -38q0 -21 -16 -37.5
t-38 -16.5z" />
    <glyph glyph-name="eth" unicode="&#xf0;" horiz-adv-x="539" 
d="M367 492h6q-38 62 -101 119l-133 -58l-19 45l109 47q-44 32 -98 64l23 39q84 -35 142 -73l120 52l19 -45l-92 -40q167 -134 167 -354q0 -144 -68 -222.5t-173 -78.5q-111 0 -177.5 72.5t-66.5 193.5q0 119 66 194.5t165 75.5q65 0 111 -31zM414 270q0 90 -19 156
q-52 41 -126 41q-148 0 -148 -207q0 -113 42.5 -165.5t106.5 -52.5q144 0 144 228z" />
    <glyph glyph-name="ntilde" unicode="&#xf1;" horiz-adv-x="582" 
d="M14 0v34l75 16v393l-75 16v38l151 24l11 -6v-45h6q91 53 172 53q73 0 108.5 -31.5t35.5 -105.5v-336l75 -16v-34h-240v34l73 16v312q0 51 -25.5 70.5t-81.5 19.5q-51 0 -118 -23v-379l73 -16v-34h-240zM183 595l-40 18q38 93 98 93q23 0 59.5 -17t48.5 -17q29 0 54 41
l40 -18q-38 -93 -98 -93q-23 0 -59.5 17t-48.5 17q-29 0 -54 -41z" />
    <glyph glyph-name="ograve" unicode="&#xf2;" horiz-adv-x="541" 
d="M272 -13q-111 0 -179 73t-68 193q0 119 70.5 194.5t173.5 75.5q111 0 179 -72.5t68 -192.5q0 -119 -71 -195t-173 -76zM273 42q64 0 105.5 49t41.5 159q0 113 -43.5 165.5t-108.5 52.5q-64 0 -105.5 -49t-41.5 -159q0 -113 43.5 -165.5t108.5 -52.5zM345 568l-197 90
l45 72l172 -128z" />
    <glyph glyph-name="oacute" unicode="&#xf3;" horiz-adv-x="541" 
d="M272 -13q-111 0 -179 73t-68 193q0 119 70.5 194.5t173.5 75.5q111 0 179 -72.5t68 -192.5q0 -119 -71 -195t-173 -76zM273 42q64 0 105.5 49t41.5 159q0 113 -43.5 165.5t-108.5 52.5q-64 0 -105.5 -49t-41.5 -159q0 -113 43.5 -165.5t108.5 -52.5zM191 568l-20 34
l172 128l45 -72z" />
    <glyph glyph-name="ocircumflex" unicode="&#xf4;" horiz-adv-x="541" 
d="M272 -13q-111 0 -179 73t-68 193q0 119 70.5 194.5t173.5 75.5q111 0 179 -72.5t68 -192.5q0 -119 -71 -195t-173 -76zM273 42q64 0 105.5 49t41.5 159q0 113 -43.5 165.5t-108.5 52.5q-64 0 -105.5 -49t-41.5 -159q0 -113 43.5 -165.5t108.5 -52.5zM153 573l-21 29
l115 121h46l115 -121l-21 -29l-117 74z" />
    <glyph glyph-name="otilde" unicode="&#xf5;" horiz-adv-x="541" 
d="M272 -13q-111 0 -179 73t-68 193q0 119 70.5 194.5t173.5 75.5q111 0 179 -72.5t68 -192.5q0 -119 -71 -195t-173 -76zM273 42q64 0 105.5 49t41.5 159q0 113 -43.5 165.5t-108.5 52.5q-64 0 -105.5 -49t-41.5 -159q0 -113 43.5 -165.5t108.5 -52.5zM160 595l-40 18
q38 93 98 93q23 0 59.5 -17t48.5 -17q29 0 54 41l40 -18q-38 -93 -98 -93q-23 0 -59.5 17t-48.5 17q-29 0 -54 -41z" />
    <glyph glyph-name="odieresis" unicode="&#xf6;" horiz-adv-x="541" 
d="M272 -13q-111 0 -179 73t-68 193q0 119 70.5 194.5t173.5 75.5q111 0 179 -72.5t68 -192.5q0 -119 -71 -195t-173 -76zM273 42q64 0 105.5 49t41.5 159q0 113 -43.5 165.5t-108.5 52.5q-64 0 -105.5 -49t-41.5 -159q0 -113 43.5 -165.5t108.5 -52.5zM187 602
q-22 0 -38 16.5t-16 37.5q0 22 16 38t38 16q23 0 39 -15.5t16 -38.5q0 -21 -16 -37.5t-39 -16.5zM353 602q-22 0 -38.5 16.5t-16.5 37.5q0 22 16 38t39 16t38.5 -16t15.5 -38q0 -21 -16 -37.5t-38 -16.5z" />
    <glyph glyph-name="divide" unicode="&#xf7;" horiz-adv-x="526" 
d="M58 309v62h410v-62h-410zM262 115q-26 0 -44 18.5t-18 42.5q0 26 18 44t44 18t44.5 -18t18.5 -44q0 -24 -19 -42.5t-44 -18.5zM262 442q-26 0 -44 18.5t-18 42.5q0 26 18 44t44 18t44.5 -18t18.5 -44q0 -24 -19 -42.5t-44 -18.5z" />
    <glyph glyph-name="oslash" unicode="&#xf8;" horiz-adv-x="541" 
d="M272 -13q-97 0 -161 55l-58 -65l-42 34l63 71q-49 71 -49 171q0 119 70.5 194.5t173.5 75.5q88 0 153 -49l54 61l41 -34l-57 -65q56 -72 56 -178q0 -119 -71 -195t-173 -76zM273 42q64 0 105.5 49t41.5 159q0 74 -18 121l-243 -274q39 -55 114 -55zM121 260
q0 -61 13 -110l241 271q-40 47 -107 47q-64 0 -105.5 -49t-41.5 -159z" />
    <glyph glyph-name="ugrave" unicode="&#xf9;" horiz-adv-x="582" 
d="M226 -10q-146 0 -146 150v310l-76 16v38l156 16l11 -6v-351q0 -57 21 -82t78 -25q59 0 126 29v365l-73 16v38l154 16l11 -6v-451l75 -16v-34l-150 -23l-11 5v56h-6q-67 -61 -170 -61zM357 568l-197 90l45 72l172 -128z" />
    <glyph glyph-name="uacute" unicode="&#xfa;" horiz-adv-x="582" 
d="M226 -10q-146 0 -146 150v310l-76 16v38l156 16l11 -6v-351q0 -57 21 -82t78 -25q59 0 126 29v365l-73 16v38l154 16l11 -6v-451l75 -16v-34l-150 -23l-11 5v56h-6q-67 -61 -170 -61zM203 568l-20 34l172 128l45 -72z" />
    <glyph glyph-name="ucircumflex" unicode="&#xfb;" horiz-adv-x="582" 
d="M226 -10q-146 0 -146 150v310l-76 16v38l156 16l11 -6v-351q0 -57 21 -82t78 -25q59 0 126 29v365l-73 16v38l154 16l11 -6v-451l75 -16v-34l-150 -23l-11 5v56h-6q-67 -61 -170 -61zM165 573l-21 29l115 121h46l115 -121l-21 -29l-117 74z" />
    <glyph glyph-name="udieresis" unicode="&#xfc;" horiz-adv-x="582" 
d="M226 -10q-146 0 -146 150v310l-76 16v38l156 16l11 -6v-351q0 -57 21 -82t78 -25q59 0 126 29v365l-73 16v38l154 16l11 -6v-451l75 -16v-34l-150 -23l-11 5v56h-6q-67 -61 -170 -61zM199 602q-22 0 -38 16.5t-16 37.5q0 22 16 38t38 16q23 0 39 -15.5t16 -38.5
q0 -21 -16 -37.5t-39 -16.5zM365 602q-22 0 -38.5 16.5t-16.5 37.5q0 22 16 38t39 16t38.5 -16t15.5 -38q0 -21 -16 -37.5t-38 -16.5z" />
    <glyph glyph-name="yacute" unicode="&#xfd;" horiz-adv-x="526" 
d="M122 -199q-45 0 -77 19v52q41 -9 53 -9q43 0 68 18t44 62l30 71l-186 448l-56 15v36h225v-36l-68 -14l129 -333h4l114 332l-65 15v36h191v-36l-56 -15l-203 -538q-24 -64 -56.5 -93.5t-90.5 -29.5zM206 568l-20 34l172 128l45 -72z" />
    <glyph glyph-name="thorn" unicode="&#xfe;" horiz-adv-x="550" 
d="M-4 -199v34l74 14v819l-76 16v38l155 23l12 -5v-270h5q73 53 156 53q40 0 72.5 -11.5t62 -37.5t46.5 -76.5t17 -121.5q0 -139 -71 -213.5t-192 -74.5q-53 0 -95 9v-146l87 -16v-34h-253zM268 41q157 0 157 217q0 104 -38 149t-112 45q-57 0 -114 -25v-355q49 -31 107 -31
z" />
    <glyph glyph-name="ydieresis" unicode="&#xff;" horiz-adv-x="526" 
d="M122 -199q-45 0 -77 19v52q41 -9 53 -9q43 0 68 18t44 62l30 71l-186 448l-56 15v36h225v-36l-68 -14l129 -333h4l114 332l-65 15v36h191v-36l-56 -15l-203 -538q-24 -64 -56.5 -93.5t-90.5 -29.5zM202 602q-22 0 -38 16.5t-16 37.5q0 22 16 38t38 16q23 0 39 -15.5
t16 -38.5q0 -21 -16 -37.5t-39 -16.5zM368 602q-22 0 -38.5 16.5t-16.5 37.5q0 22 16 38t39 16q22 0 38 -16t16 -38q0 -21 -16 -37.5t-38 -16.5z" />
    <glyph glyph-name="Amacron" unicode="&#x100;" horiz-adv-x="651" 
d="M-3 0v42l69 18l222 633h82l215 -633l69 -18v-42h-256v41l79 19l-53 164h-233l-55 -164l80 -19v-41h-219zM309 569l-100 -294h199l-94 294h-5zM206 755v62h244v-62h-244z" />
    <glyph glyph-name="amacron" unicode="&#x101;" horiz-adv-x="473" 
d="M172 -13q-69 0 -112.5 38t-43.5 102q0 62 39.5 92t117.5 46l131 27v54q0 64 -21 86t-94 22q-62 0 -130 -11v43q85 37 175 37q83 0 122.5 -37t39.5 -114v-295q0 -23 11.5 -30.5t36.5 -7.5h25v-34q-30 -15 -81 -15q-64 0 -74 53h-6q-52 -56 -136 -56zM205 49q58 0 99 37
v147l-102 -8q-50 -4 -71 -26t-21 -62q0 -41 24 -64.5t71 -23.5zM112 605v62h244v-62h-244z" />
    <glyph glyph-name="Abreve" unicode="&#x102;" horiz-adv-x="651" 
d="M-3 0v42l69 18l222 633h82l215 -633l69 -18v-42h-256v41l79 19l-53 164h-233l-55 -164l80 -19v-41h-219zM309 569l-100 -294h199l-94 294h-5zM329 736q-55 0 -90 32t-40 82h57q15 -46 73 -46q57 0 72 46h57q-5 -49 -40 -81.5t-89 -32.5z" />
    <glyph glyph-name="abreve" unicode="&#x103;" horiz-adv-x="473" 
d="M172 -13q-69 0 -112.5 38t-43.5 102q0 62 39.5 92t117.5 46l131 27v54q0 64 -21 86t-94 22q-62 0 -130 -11v43q85 37 175 37q83 0 122.5 -37t39.5 -114v-295q0 -23 11.5 -30.5t36.5 -7.5h25v-34q-30 -15 -81 -15q-64 0 -74 53h-6q-52 -56 -136 -56zM205 49q58 0 99 37
v147l-102 -8q-50 -4 -71 -26t-21 -62q0 -41 24 -64.5t71 -23.5zM228 581q-55 0 -92.5 35.5t-39.5 90.5h57q13 -61 75 -61t75 61h57q-2 -55 -39.5 -90.5t-92.5 -35.5z" />
    <glyph glyph-name="Aogonek" unicode="&#x104;" horiz-adv-x="651" 
d="M550 -201q-103 0 -103 80q0 59 81 121h-130v41l79 19l-53 164h-233l-55 -164l80 -19v-41h-219v42l69 18l222 633h82l215 -633l69 -18v-42h-71q-55 -68 -55 -111q0 -42 49 -42q14 0 30 2v-42q-26 -8 -57 -8zM309 569l-100 -294h199l-94 294h-5z" />
    <glyph glyph-name="aogonek" unicode="&#x105;" horiz-adv-x="473" 
d="M393 -201q-103 0 -103 80q0 63 87 111q-54 5 -63 53h-6q-52 -56 -136 -56q-69 0 -112.5 38t-43.5 102q0 62 39.5 92t117.5 46l131 27v54q0 64 -21 86t-94 22q-62 0 -130 -11v43q85 37 175 37q83 0 122.5 -37t39.5 -114v-295q0 -23 11.5 -30.5t36.5 -7.5h25v-34
q-45 -15 -71.5 -48t-26.5 -68q0 -42 49 -42q14 0 30 2v-42q-26 -8 -57 -8zM205 49q58 0 99 37v147l-102 -8q-50 -4 -71 -26t-21 -62q0 -41 24 -64.5t71 -23.5z" />
    <glyph glyph-name="Cacute" unicode="&#x106;" horiz-adv-x="603" 
d="M351 -12q-152 0 -237.5 84.5t-85.5 265.5q0 80 19 144t50.5 105t75.5 68t92 38.5t102 11.5q111 0 191 -26l5 -169h-46l-41 114q-57 25 -121 25q-110 0 -165.5 -75.5t-55.5 -215.5q0 -156 55.5 -234.5t175.5 -78.5q64 0 115 28l41 124h48l-6 -174q-83 -35 -212 -35z
M466 794l-206 -66l-16 36l186 106z" />
    <glyph glyph-name="cacute" unicode="&#x107;" horiz-adv-x="452" 
d="M273 -12q-118 0 -183 71t-65 193q0 137 75 204t194 67q71 0 133 -20v-129h-52l-20 85q-29 9 -72 9q-77 0 -120 -52t-43 -153q0 -111 49 -160t130 -49q86 0 138 26v-46q-66 -46 -164 -46zM191 568l-20 34l172 128l45 -72z" />
    <glyph glyph-name="Ccircumflex" unicode="&#x108;" horiz-adv-x="603" 
d="M351 -12q-152 0 -237.5 84.5t-85.5 265.5q0 80 19 144t50.5 105t75.5 68t92 38.5t102 11.5q111 0 191 -26l5 -169h-46l-41 114q-57 25 -121 25q-110 0 -165.5 -75.5t-55.5 -215.5q0 -156 55.5 -234.5t175.5 -78.5q64 0 115 28l41 124h48l-6 -174q-83 -35 -212 -35z
M231 732l-17 31l119 98h46l119 -98l-17 -31l-125 55z" />
    <glyph glyph-name="ccircumflex" unicode="&#x109;" horiz-adv-x="452" 
d="M273 -12q-118 0 -183 71t-65 193q0 137 75 204t194 67q71 0 133 -20v-129h-52l-20 85q-29 9 -72 9q-77 0 -120 -52t-43 -153q0 -111 49 -160t130 -49q86 0 138 26v-46q-66 -46 -164 -46zM155 573l-21 29l115 121h46l115 -121l-21 -29l-117 74z" />
    <glyph glyph-name="Cdotaccent" unicode="&#x10a;" horiz-adv-x="603" 
d="M351 -12q-152 0 -237.5 84.5t-85.5 265.5q0 80 19 144t50.5 105t75.5 68t92 38.5t102 11.5q111 0 191 -26l5 -169h-46l-41 114q-57 25 -121 25q-110 0 -165.5 -75.5t-55.5 -215.5q0 -156 55.5 -234.5t175.5 -78.5q64 0 115 28l41 124h48l-6 -174q-83 -35 -212 -35z
M346 738q-23 0 -40 17t-17 39q0 23 17 39.5t40 16.5q24 0 40.5 -16.5t16.5 -39.5q0 -22 -16.5 -39t-40.5 -17z" />
    <glyph glyph-name="cdotaccent" unicode="&#x10b;" horiz-adv-x="452" 
d="M273 -12q-118 0 -183 71t-65 193q0 137 75 204t194 67q71 0 133 -20v-129h-52l-20 85q-29 9 -72 9q-77 0 -120 -52t-43 -153q0 -111 49 -160t130 -49q86 0 138 26v-46q-66 -46 -164 -46zM273 605q-23 0 -40 17t-17 39q0 23 17 39.5t40 16.5q24 0 40.5 -16.5t16.5 -39.5
q0 -22 -16.5 -39t-40.5 -17z" />
    <glyph glyph-name="Ccaron" unicode="&#x10c;" horiz-adv-x="603" 
d="M351 -12q-152 0 -237.5 84.5t-85.5 265.5q0 80 19 144t50.5 105t75.5 68t92 38.5t102 11.5q111 0 191 -26l5 -169h-46l-41 114q-57 25 -121 25q-110 0 -165.5 -75.5t-55.5 -215.5q0 -156 55.5 -234.5t175.5 -78.5q64 0 115 28l41 124h48l-6 -174q-83 -35 -212 -35z
M474 869l17 -31l-119 -98h-46l-119 98l17 31l125 -55z" />
    <glyph glyph-name="ccaron" unicode="&#x10d;" horiz-adv-x="452" 
d="M273 -12q-118 0 -183 71t-65 193q0 137 75 204t194 67q71 0 133 -20v-129h-52l-20 85q-29 9 -72 9q-77 0 -120 -52t-43 -153q0 -111 49 -160t130 -49q86 0 138 26v-46q-66 -46 -164 -46zM250 576l-115 121l21 29l117 -74l117 74l21 -29l-115 -121h-46z" />
    <glyph glyph-name="Dcaron" unicode="&#x10e;" horiz-adv-x="671" 
d="M20 0v41l89 19v573l-88 19v41h276q182 0 264.5 -83t82.5 -246q0 -364 -336 -364h-288zM209 55h101q118 0 172.5 65.5t54.5 228.5q0 76 -11.5 128.5t-31 84t-53.5 48.5t-69.5 22.5t-88.5 5.5h-74v-583zM451 869l17 -31l-119 -98h-46l-119 98l17 31l125 -55z" />
    <glyph glyph-name="dcaron" unicode="&#x10f;" horiz-adv-x="566" 
d="M247 -12q-39 0 -75 13t-69 40.5t-53 79.5t-20 123q0 138 70 208.5t193 70.5q46 0 95 -14v159l-82 16v38l162 23l12 -5v-677l75 -16v-34l-150 -23l-11 5v52h-6q-47 -59 -141 -59zM275 58q57 0 113 29v350q-47 32 -106 32q-76 0 -117 -48.5t-41 -164.5q0 -198 151 -198z
M567 569l-41 7l15 166l85 -16z" />
    <glyph glyph-name="Dcroat" unicode="&#x110;" horiz-adv-x="671" 
d="M28 319v59h81v255l-88 19v41h276q182 0 264.5 -83t82.5 -246q0 -364 -336 -364h-288v41l89 19v259h-81zM209 55h101q118 0 172.5 65.5t54.5 228.5q0 76 -11.5 128.5t-31 84t-53.5 48.5t-69.5 22.5t-88.5 5.5h-74v-260h179v-59h-179v-264z" />
    <glyph glyph-name="dcroat" unicode="&#x111;" horiz-adv-x="566" 
d="M210 583v44h178v41l-82 16v38l162 23l12 -5v-113h72v-44h-72v-520l75 -16v-34l-150 -23l-11 5v52h-6q-47 -59 -141 -59q-39 0 -75 13t-69 40.5t-53 79.5t-20 123q0 138 70 208.5t193 70.5q46 0 95 -14v74h-178zM275 58q57 0 113 29v350q-47 32 -106 32q-76 0 -117 -48.5
t-41 -164.5q0 -198 151 -198z" />
    <glyph glyph-name="Emacron" unicode="&#x112;" horiz-adv-x="585" 
d="M20 0v41l89 19v573l-88 19v41h514l11 -172h-48l-43 117h-246v-255h132l27 95h43v-242h-43l-27 96h-132v-277h256l54 145h48l-13 -200h-534zM187 755v62h244v-62h-244z" />
    <glyph glyph-name="emacron" unicode="&#x113;" horiz-adv-x="493" 
d="M275 -12q-126 0 -188 74t-62 199q0 120 67 191t168 71q209 0 209 -265h-349q3 -101 48 -153t126 -52q73 0 150 27v-45q-79 -47 -169 -47zM120 308l245 8q0 153 -111 153q-124 0 -134 -161zM137 605v62h244v-62h-244z" />
    <glyph glyph-name="Ebreve" unicode="&#x114;" horiz-adv-x="585" 
d="M20 0v41l89 19v573l-88 19v41h514l11 -172h-48l-43 117h-246v-255h132l27 95h43v-242h-43l-27 96h-132v-277h256l54 145h48l-13 -200h-534zM310 736q-55 0 -90 32t-40 82h57q15 -46 73 -46q57 0 72 46h57q-5 -49 -40 -81.5t-89 -32.5z" />
    <glyph glyph-name="ebreve" unicode="&#x115;" horiz-adv-x="493" 
d="M275 -12q-126 0 -188 74t-62 199q0 120 67 191t168 71q209 0 209 -265h-349q3 -101 48 -153t126 -52q73 0 150 27v-45q-79 -47 -169 -47zM120 308l245 8q0 153 -111 153q-124 0 -134 -161zM259 581q-55 0 -92.5 35.5t-39.5 90.5h57q13 -61 75 -61t75 61h57
q-2 -55 -39.5 -90.5t-92.5 -35.5z" />
    <glyph glyph-name="Edotaccent" unicode="&#x116;" horiz-adv-x="585" 
d="M20 0v41l89 19v573l-88 19v41h514l11 -172h-48l-43 117h-246v-255h132l27 95h43v-242h-43l-27 96h-132v-277h256l54 145h48l-13 -200h-534zM309 738q-23 0 -40 17t-17 39q0 23 17 39.5t40 16.5q24 0 40.5 -16.5t16.5 -39.5q0 -22 -16.5 -39t-40.5 -17z" />
    <glyph glyph-name="edotaccent" unicode="&#x117;" horiz-adv-x="493" 
d="M275 -12q-126 0 -188 74t-62 199q0 120 67 191t168 71q209 0 209 -265h-349q3 -101 48 -153t126 -52q73 0 150 27v-45q-79 -47 -169 -47zM120 308l245 8q0 153 -111 153q-124 0 -134 -161zM259 605q-23 0 -40 17t-17 39q0 23 17 39.5t40 16.5q24 0 40.5 -16.5t16.5 -39.5
q0 -22 -16.5 -39t-40.5 -17z" />
    <glyph glyph-name="Eogonek" unicode="&#x118;" horiz-adv-x="585" 
d="M20 0v41l89 19v573l-88 19v41h514l11 -172h-48l-43 117h-246v-255h132l27 95h43v-242h-43l-27 96h-132v-277h256l54 145h48l-13 -200h-64q-55 -68 -55 -111q0 -42 49 -42q14 0 30 2v-42q-26 -8 -57 -8q-103 0 -103 80q0 61 83 121h-417z" />
    <glyph glyph-name="eogonek" unicode="&#x119;" horiz-adv-x="493" 
d="M321 -201q-103 0 -103 80q0 64 92 111q-20 -2 -35 -2q-126 0 -188 74t-62 199q0 120 67 191t168 71q209 0 209 -265h-349q3 -101 48 -153t126 -52q73 0 150 27v-45q-145 -76 -145 -146q0 -42 49 -42q14 0 30 2v-42q-26 -8 -57 -8zM120 308l245 8q0 153 -111 153
q-124 0 -134 -161z" />
    <glyph glyph-name="Ecaron" unicode="&#x11a;" horiz-adv-x="585" 
d="M20 0v41l89 19v573l-88 19v41h514l11 -172h-48l-43 117h-246v-255h132l27 95h43v-242h-43l-27 96h-132v-277h256l54 145h48l-13 -200h-534zM434 869l17 -31l-119 -98h-46l-119 98l17 31l125 -55z" />
    <glyph glyph-name="ecaron" unicode="&#x11b;" horiz-adv-x="493" 
d="M275 -12q-126 0 -188 74t-62 199q0 120 67 191t168 71q209 0 209 -265h-349q3 -101 48 -153t126 -52q73 0 150 27v-45q-79 -47 -169 -47zM120 308l245 8q0 153 -111 153q-124 0 -134 -161zM236 576l-115 121l21 29l117 -74l117 74l21 -29l-115 -121h-46z" />
    <glyph glyph-name="Gcircumflex" unicode="&#x11c;" horiz-adv-x="659" 
d="M373 -13q-345 0 -345 351q0 99 29 173t79.5 115t109 60t127.5 19q115 0 198 -25l8 -171h-46l-42 113q-51 27 -128 27q-113 0 -171 -76t-58 -215q0 -156 55.5 -234.5t176.5 -78.5q56 0 110 18v194l-92 17v41h266v-41l-74 -17v-239q-88 -31 -203 -31zM236 732l-17 31
l119 98h46l119 -98l-17 -31l-125 55z" />
    <glyph glyph-name="gcircumflex" unicode="&#x11d;" horiz-adv-x="500" 
d="M217 -206q-104 0 -156.5 37t-52.5 86q0 37 27 67.5t71 49.5v5q-54 20 -54 69q0 54 65 108q-72 43 -72 133q0 82 56 128t141 46q56 0 99 -18l150 21v-68l-95 6q42 -42 42 -104q0 -82 -56 -127.5t-141 -45.5q-51 0 -90 13q-28 -27 -28 -57q0 -31 38 -31h171q154 0 154 -126
q0 -82 -71 -137t-198 -55zM225 -149q89 0 134.5 31.5t45.5 78.5q0 65 -88 65h-167q-55 -25 -55 -91q0 -39 32 -61.5t98 -22.5zM241 238q49 0 77.5 29.5t28.5 86.5q0 59 -29 88.5t-77 29.5q-49 0 -77 -30t-28 -86q0 -60 28.5 -89t76.5 -29zM134 573l-21 29l115 121h46
l115 -121l-21 -29l-117 74z" />
    <glyph glyph-name="Gbreve" unicode="&#x11e;" horiz-adv-x="659" 
d="M373 -13q-345 0 -345 351q0 99 29 173t79.5 115t109 60t127.5 19q115 0 198 -25l8 -171h-46l-42 113q-51 27 -128 27q-113 0 -171 -76t-58 -215q0 -156 55.5 -234.5t176.5 -78.5q56 0 110 18v194l-92 17v41h266v-41l-74 -17v-239q-88 -31 -203 -31zM352 736q-55 0 -90 32
t-40 82h57q15 -46 73 -46q57 0 72 46h57q-5 -49 -40 -81.5t-89 -32.5z" />
    <glyph glyph-name="gbreve" unicode="&#x11f;" horiz-adv-x="500" 
d="M217 -206q-104 0 -156.5 37t-52.5 86q0 37 27 67.5t71 49.5v5q-54 20 -54 69q0 54 65 108q-72 43 -72 133q0 82 56 128t141 46q56 0 99 -18l150 21v-68l-95 6q42 -42 42 -104q0 -82 -56 -127.5t-141 -45.5q-51 0 -90 13q-28 -27 -28 -57q0 -31 38 -31h171q154 0 154 -126
q0 -82 -71 -137t-198 -55zM225 -149q89 0 134.5 31.5t45.5 78.5q0 65 -88 65h-167q-55 -25 -55 -91q0 -39 32 -61.5t98 -22.5zM241 238q49 0 77.5 29.5t28.5 86.5q0 59 -29 88.5t-77 29.5q-49 0 -77 -30t-28 -86q0 -60 28.5 -89t76.5 -29zM251 581q-55 0 -92.5 35.5
t-39.5 90.5h57q13 -61 75 -61t75 61h57q-2 -55 -39.5 -90.5t-92.5 -35.5z" />
    <glyph glyph-name="Gdotaccent" unicode="&#x120;" horiz-adv-x="659" 
d="M373 -13q-345 0 -345 351q0 99 29 173t79.5 115t109 60t127.5 19q115 0 198 -25l8 -171h-46l-42 113q-51 27 -128 27q-113 0 -171 -76t-58 -215q0 -156 55.5 -234.5t176.5 -78.5q56 0 110 18v194l-92 17v41h266v-41l-74 -17v-239q-88 -31 -203 -31zM351 738q-23 0 -40 17
t-17 39q0 23 17 39.5t40 16.5q24 0 40.5 -16.5t16.5 -39.5q0 -22 -16.5 -39t-40.5 -17z" />
    <glyph glyph-name="gdotaccent" unicode="&#x121;" horiz-adv-x="500" 
d="M217 -206q-104 0 -156.5 37t-52.5 86q0 37 27 67.5t71 49.5v5q-54 20 -54 69q0 54 65 108q-72 43 -72 133q0 82 56 128t141 46q56 0 99 -18l150 21v-68l-95 6q42 -42 42 -104q0 -82 -56 -127.5t-141 -45.5q-51 0 -90 13q-28 -27 -28 -57q0 -31 38 -31h171q154 0 154 -126
q0 -82 -71 -137t-198 -55zM225 -149q89 0 134.5 31.5t45.5 78.5q0 65 -88 65h-167q-55 -25 -55 -91q0 -39 32 -61.5t98 -22.5zM241 238q49 0 77.5 29.5t28.5 86.5q0 59 -29 88.5t-77 29.5q-49 0 -77 -30t-28 -86q0 -60 28.5 -89t76.5 -29zM251 605q-23 0 -40 17t-17 39
q0 23 17 39.5t40 16.5q24 0 40.5 -16.5t16.5 -39.5q0 -22 -16.5 -39t-40.5 -17z" />
    <glyph glyph-name="Gcommaaccent" unicode="&#x122;" horiz-adv-x="659" 
d="M373 -13q-345 0 -345 351q0 99 29 173t79.5 115t109 60t127.5 19q115 0 198 -25l8 -171h-46l-42 113q-51 27 -128 27q-113 0 -171 -76t-58 -215q0 -156 55.5 -234.5t176.5 -78.5q56 0 110 18v194l-92 17v41h266v-41l-74 -17v-239q-88 -31 -203 -31zM291 -182
q15 54 15 140h94q-10 -90 -52 -140h-57z" />
    <glyph glyph-name="gcommaaccent" unicode="&#x123;" horiz-adv-x="500" 
d="M217 -206q-104 0 -156.5 37t-52.5 86q0 37 27 67.5t71 49.5v5q-54 20 -54 69q0 54 65 108q-72 43 -72 133q0 82 56 128t141 46q56 0 99 -18l150 21v-68l-95 6q42 -42 42 -104q0 -82 -56 -127.5t-141 -45.5q-51 0 -90 13q-28 -27 -28 -57q0 -31 38 -31h171q154 0 154 -126
q0 -82 -71 -137t-198 -55zM225 -149q89 0 134.5 31.5t45.5 78.5q0 65 -88 65h-167q-55 -25 -55 -91q0 -39 32 -61.5t98 -22.5zM241 238q49 0 77.5 29.5t28.5 86.5q0 59 -29 88.5t-77 29.5q-49 0 -77 -30t-28 -86q0 -60 28.5 -89t76.5 -29zM313 746q-15 -54 -15 -140h-94
q10 90 52 140h57z" />
    <glyph glyph-name="Hcircumflex" unicode="&#x124;" horiz-adv-x="724" 
d="M20 0v41l88 18v574l-88 19v41h275v-41l-87 -19v-253h310v253l-89 19v41h275v-41l-86 -19v-574l86 -18v-41h-275v41l89 18v270h-310v-270l87 -18v-41h-275zM237 732l-17 31l119 98h46l119 -98l-17 -31l-125 55z" />
    <glyph glyph-name="hcircumflex" unicode="&#x125;" horiz-adv-x="580" 
d="M14 0v34l75 16v618l-75 16v38l156 23l11 -6v-267h6q88 51 167 51q73 0 108.5 -31.5t35.5 -105.5v-336l75 -16v-34h-240v34l73 16v312q0 51 -25.5 71t-81.5 20q-48 0 -118 -24v-379l73 -16v-34h-240zM168 792l-17 31l119 98h46l119 -98l-17 -31l-125 55z" />
    <glyph glyph-name="Hbar" unicode="&#x126;" horiz-adv-x="724" 
d="M20 487v48h88v98l-88 19v41h275v-41l-87 -19v-98h310v98l-89 19v41h275v-41l-86 -19v-98h86v-48h-86v-428l86 -18v-41h-275v41l89 18v270h-310v-270l87 -18v-41h-275v41l88 18v428h-88zM208 380h310v107h-310v-107z" />
    <glyph glyph-name="hbar" unicode="&#x127;" horiz-adv-x="580" 
d="M6 583v44h83v41l-75 16v38l156 23l11 -6v-112h167v-44h-167v-111h6q88 51 167 51q73 0 108.5 -31.5t35.5 -105.5v-336l75 -16v-34h-240v34l73 16v312q0 51 -25.5 71t-81.5 20q-48 0 -118 -24v-379l73 -16v-34h-240v34l75 16v533h-83z" />
    <glyph glyph-name="Itilde" unicode="&#x128;" horiz-adv-x="315" 
d="M20 0v41l88 18v575l-88 18v41h275v-41l-87 -18v-575l87 -18v-41h-275zM47 736l-40 18q38 93 98 93q23 0 59.5 -17t48.5 -17q29 0 54 41l40 -18q-38 -93 -98 -93q-23 0 -59.5 17t-48.5 17q-29 0 -54 -41z" />
    <glyph glyph-name="itilde" unicode="&#x129;" horiz-adv-x="269" 
d="M15 0v34l74 16v393l-80 16v38l161 24l11 -6v-465l75 -16v-34h-241zM22 595l-40 18q38 93 98 93q23 0 59.5 -17t48.5 -17q29 0 54 41l40 -18q-38 -93 -98 -93q-23 0 -59.5 17t-48.5 17q-29 0 -54 -41z" />
    <glyph glyph-name="Imacron" unicode="&#x12a;" horiz-adv-x="315" 
d="M20 0v41l88 18v575l-88 18v41h275v-41l-87 -18v-575l87 -18v-41h-275zM35 755v62h244v-62h-244z" />
    <glyph glyph-name="imacron" unicode="&#x12b;" horiz-adv-x="269" 
d="M15 0v34l74 16v393l-80 16v38l161 24l11 -6v-465l75 -16v-34h-241zM6 605v62h229v-62h-229z" />
    <glyph glyph-name="Ibreve" unicode="&#x12c;" horiz-adv-x="315" 
d="M20 0v41l88 18v575l-88 18v41h275v-41l-87 -18v-575l87 -18v-41h-275zM158 736q-55 0 -90 32t-40 82h57q15 -46 73 -46q57 0 72 46h57q-5 -49 -40 -81.5t-89 -32.5z" />
    <glyph glyph-name="ibreve" unicode="&#x12d;" horiz-adv-x="269" 
d="M15 0v34l74 16v393l-80 16v38l161 24l11 -6v-465l75 -16v-34h-241zM132 581q-55 0 -92.5 35.5t-39.5 90.5h57q13 -61 75 -61t75 61h57q-2 -55 -39.5 -90.5t-92.5 -35.5z" />
    <glyph glyph-name="Iogonek" unicode="&#x12e;" horiz-adv-x="315" 
d="M20 0v41l88 18v575l-88 18v41h275v-41l-87 -18v-575l87 -18v-41h-80q-47 -58 -47 -111q0 -42 49 -42q14 0 30 2v-42q-26 -8 -57 -8q-103 0 -103 80q0 63 71 121h-138z" />
    <glyph glyph-name="iogonek" unicode="&#x12f;" horiz-adv-x="269" 
d="M15 0v34l74 16v393l-80 16v38l161 24l11 -6v-465l75 -16v-34h-68q-55 -68 -55 -111q0 -42 49 -42q14 0 30 2v-42q-26 -8 -57 -8q-103 0 -103 80q0 26 16 51.5t29.5 38t37.5 31.5h-120zM131 605q-23 0 -40 17t-17 39q0 23 17 39.5t40 16.5q24 0 40.5 -16.5t16.5 -39.5
q0 -22 -16.5 -39t-40.5 -17z" />
    <glyph glyph-name="Idotaccent" unicode="&#x130;" horiz-adv-x="315" 
d="M20 0v41l88 18v575l-88 18v41h275v-41l-87 -18v-575l87 -18v-41h-275zM157 738q-23 0 -40 17t-17 39q0 23 17 39.5t40 16.5q24 0 40.5 -16.5t16.5 -39.5q0 -22 -16.5 -39t-40.5 -17z" />
    <glyph glyph-name="dotlessi" unicode="&#x131;" horiz-adv-x="269" 
d="M15 0v34l74 16v393l-80 16v38l161 24l11 -6v-465l75 -16v-34h-241z" />
    <glyph glyph-name="IJ" unicode="&#x132;" horiz-adv-x="708" 
d="M20 0v41l88 18v575l-88 18v41h275v-41l-87 -18v-575l87 -18v-41h-275zM431 -10q-56 0 -107 22v57q54 -15 94 -15q47 0 71 23t24 83v473l-88 19v41h275v-41l-87 -19v-483q0 -77 -47.5 -118.5t-134.5 -41.5z" />
    <glyph glyph-name="ij" unicode="&#x133;" horiz-adv-x="530" 
d="M15 0v34l74 16v393l-80 16v38l161 24l11 -6v-465l75 -16v-34h-241zM131 605q-23 0 -40 17t-17 39q0 23 17 39.5t40 16.5q24 0 40.5 -16.5t16.5 -39.5q0 -22 -16.5 -39t-40.5 -17zM303 -197q-34 0 -74 15v42q21 -3 45 -3q42 0 66 21t24 76v489l-80 16v38l161 24l11 -6
v-571q0 -68 -40 -104.5t-113 -36.5zM406 605q-23 0 -40 17t-17 39q0 23 17 39.5t40 16.5q24 0 40.5 -16.5t16.5 -39.5q0 -22 -16.5 -39t-40.5 -17z" />
    <glyph glyph-name="Jcircumflex" unicode="&#x134;" horiz-adv-x="403" 
d="M126 -10q-64 0 -116 25v56q56 -17 103 -17t71 23t24 83v473l-88 19v41h275v-41l-87 -19v-483q0 -77 -47.5 -118.5t-134.5 -41.5zM131 732l-17 31l119 98h46l119 -98l-17 -31l-125 55z" />
    <glyph glyph-name="jcircumflex" unicode="&#x135;" horiz-adv-x="261" 
d="M34 -197q-34 0 -74 15v42q21 -3 45 -3q42 0 66 21t24 76v489l-80 16v38l161 24l11 -6v-571q0 -68 -40 -104.5t-113 -36.5zM14 573l-21 29l115 121h46l115 -121l-21 -29l-117 74z" />
    <glyph glyph-name="Kcommaaccent" unicode="&#x136;" horiz-adv-x="651" 
d="M20 0v41l88 18v575l-88 18v41h279v-41l-91 -18v-575l91 -18v-41h-279zM483 0l-235 328v22l231 284l-64 18v41h215v-41l-67 -18l-225 -265l225 -309l75 -19v-41h-155zM287 -182q15 54 15 140h94q-10 -90 -52 -140h-57z" />
    <glyph glyph-name="kcommaaccent" unicode="&#x137;" horiz-adv-x="529" 
d="M14 0v34l75 15v619l-75 16v38l155 23l12 -6v-690l77 -15v-34h-244zM393 0l-179 257v14l151 191l-60 15v36h202v-36l-73 -15l-141 -166l171 -246l65 -16v-34h-136zM217 -182q15 54 15 140h94q-10 -90 -52 -140h-57z" />
    <glyph glyph-name="Lacute" unicode="&#x139;" horiz-adv-x="554" 
d="M20 0v41l88 18v575l-88 18v41h284v-41l-96 -18v-579h234l49 164h47l-13 -219h-505zM276 794l-206 -66l-16 36l186 106z" />
    <glyph glyph-name="lacute" unicode="&#x13a;" horiz-adv-x="269" 
d="M14 0v34l75 16v618l-81 16v38l161 23l12 -6v-689l75 -16v-34h-242zM259 844l-206 -66l-16 36l186 106z" />
    <glyph glyph-name="Lcommaaccent" unicode="&#x13b;" horiz-adv-x="554" 
d="M20 0v41l88 18v575l-88 18v41h284v-41l-96 -18v-579h234l49 164h47l-13 -219h-505zM227 -182q15 54 15 140h94q-10 -90 -52 -140h-57z" />
    <glyph glyph-name="lcommaaccent" unicode="&#x13c;" horiz-adv-x="269" 
d="M14 0v34l75 16v618l-81 16v38l161 23l12 -6v-689l75 -16v-34h-242zM72 -182q15 54 15 140h94q-10 -90 -52 -140h-57z" />
    <glyph glyph-name="Lcaron" unicode="&#x13d;" horiz-adv-x="554" 
d="M415 545l-50 7l14 166l95 -16zM20 0v41l88 18v575l-88 18v41h284v-41l-96 -18v-579h234l49 164h47l-13 -219h-505z" />
    <glyph glyph-name="lcaron" unicode="&#x13e;" horiz-adv-x="269" 
d="M14 0v34l75 16v618l-81 16v38l161 23l12 -6v-689l75 -16v-34h-242zM268 569l-41 7l15 166l85 -16z" />
    <glyph glyph-name="Ldot" unicode="&#x13f;" horiz-adv-x="554" 
d="M20 0v41l88 18v575l-88 18v41h284v-41l-96 -18v-579h234l49 164h47l-13 -219h-505zM449 314q-27 0 -45.5 18t-18.5 45t18.5 45t45.5 18t45.5 -18t18.5 -45t-18.5 -45t-45.5 -18z" />
    <glyph glyph-name="ldot" unicode="&#x140;" horiz-adv-x="294" 
d="M14 0v34l75 16v618l-81 16v38l161 23l12 -6v-689l75 -16v-34h-242zM282 298q-24 0 -41 16.5t-17 40.5t17 40t41 16t41 -16t17 -40t-17 -40.5t-41 -16.5z" />
    <glyph glyph-name="Lslash" unicode="&#x141;" horiz-adv-x="554" 
d="M28 220v62l80 33v319l-88 18v41h284v-41l-96 -18v-277l200 85v-62l-200 -85v-240h234l49 164h47l-13 -219h-505v41l88 18v194z" />
    <glyph glyph-name="lslash" unicode="&#x142;" horiz-adv-x="269" 
d="M7 281v62l82 50v275l-81 16v38l161 23l12 -6v-289l85 53v-62l-85 -53v-338l75 -16v-34h-242v34l75 16v281z" />
    <glyph glyph-name="Nacute" unicode="&#x143;" horiz-adv-x="707" 
d="M20 0v39l89 20v574l-89 19v41h222l302 -516h5v455l-88 20v41h236v-40l-79 -20v-633h-79l-356 608h-4v-548l89 -20v-40h-248zM507 794l-206 -66l-16 36l186 106z" />
    <glyph glyph-name="nacute" unicode="&#x144;" horiz-adv-x="582" 
d="M14 0v34l75 16v393l-75 16v38l151 24l11 -6v-45h6q91 53 172 53q73 0 108.5 -31.5t35.5 -105.5v-336l75 -16v-34h-240v34l73 16v312q0 51 -25.5 70.5t-81.5 19.5q-51 0 -118 -23v-379l73 -16v-34h-240zM214 568l-20 34l172 128l45 -72z" />
    <glyph glyph-name="Ncommaaccent" unicode="&#x145;" horiz-adv-x="707" 
d="M20 0v39l89 20v574l-89 19v41h222l302 -516h5v455l-88 20v41h236v-40l-79 -20v-633h-79l-356 608h-4v-548l89 -20v-40h-248zM310 -182q15 54 15 140h94q-10 -90 -52 -140h-57z" />
    <glyph glyph-name="ncommaaccent" unicode="&#x146;" horiz-adv-x="582" 
d="M14 0v34l75 16v393l-75 16v38l151 24l11 -6v-45h6q91 53 172 53q73 0 108.5 -31.5t35.5 -105.5v-336l75 -16v-34h-240v34l73 16v312q0 51 -25.5 70.5t-81.5 19.5q-51 0 -118 -23v-379l73 -16v-34h-240zM233 -182q15 54 15 140h94q-10 -90 -52 -140h-57z" />
    <glyph glyph-name="Ncaron" unicode="&#x147;" horiz-adv-x="707" 
d="M20 0v39l89 20v574l-89 19v41h222l302 -516h5v455l-88 20v41h236v-40l-79 -20v-633h-79l-356 608h-4v-548l89 -20v-40h-248zM505 869l17 -31l-119 -98h-46l-119 98l17 31l125 -55z" />
    <glyph glyph-name="ncaron" unicode="&#x148;" horiz-adv-x="582" 
d="M14 0v34l75 16v393l-75 16v38l151 24l11 -6v-45h6q91 53 172 53q73 0 108.5 -31.5t35.5 -105.5v-336l75 -16v-34h-240v34l73 16v312q0 51 -25.5 70.5t-81.5 19.5q-51 0 -118 -23v-379l73 -16v-34h-240zM270 576l-115 121l21 29l117 -74l117 74l21 -29l-115 -121h-46z" />
    <glyph glyph-name="napostrophe" unicode="&#x149;" horiz-adv-x="612" 
d="M44 0v34l75 16v393l-75 16v38l151 24l11 -6v-45h6q91 53 172 53q73 0 108.5 -31.5t35.5 -105.5v-336l75 -16v-34h-240v34l73 16v312q0 51 -25.5 70.5t-81.5 19.5q-51 0 -118 -23v-379l73 -16v-34h-240zM-56 488q20 118 20 205h101q-19 -120 -63 -205h-58z" />
    <glyph glyph-name="Eng" unicode="&#x14a;" horiz-adv-x="707" 
d="M467 -177q-54 0 -97 18v46q33 -7 62 -7q58 0 86.5 21.5t30.5 82.5l-366 624h-4v-548l89 -20v-40h-248v39l89 20v574l-89 19v41h222l302 -516h5v455l-88 20v41h236v-40l-79 -20v-663q0 -71 -39 -109t-112 -38z" />
    <glyph glyph-name="eng" unicode="&#x14b;" horiz-adv-x="565" 
d="M498 386v-442q0 -67 -39.5 -104t-106.5 -37q-36 0 -73 14v42q24 -2 37 -2q42 0 66 21t24 76v408q0 51 -25.5 70.5t-81.5 19.5q-51 0 -118 -23v-379l73 -16v-34h-240v34l75 16v393l-75 16v38l151 24l11 -6v-45h6q91 53 172 53q73 0 108.5 -31.5t35.5 -105.5z" />
    <glyph glyph-name="Omacron" unicode="&#x14c;" horiz-adv-x="682" 
d="M340 -12q-135 0 -223.5 95t-88.5 264q0 89 27 159.5t72.5 113t100.5 64t115 21.5q135 0 223 -94t88 -262q0 -89 -27 -160t-72 -114t-100 -65t-115 -22zM342 45q101 0 153.5 80t52.5 212q0 312 -209 312q-102 0 -153.5 -80.5t-51.5 -212.5q0 -311 208 -311zM219 755v62
h244v-62h-244z" />
    <glyph glyph-name="omacron" unicode="&#x14d;" horiz-adv-x="541" 
d="M272 -13q-111 0 -179 73t-68 193q0 119 70.5 194.5t173.5 75.5q111 0 179 -72.5t68 -192.5q0 -119 -71 -195t-173 -76zM273 42q64 0 105.5 49t41.5 159q0 113 -43.5 165.5t-108.5 52.5q-64 0 -105.5 -49t-41.5 -159q0 -113 43.5 -165.5t108.5 -52.5zM148 605v62h244v-62
h-244z" />
    <glyph glyph-name="Obreve" unicode="&#x14e;" horiz-adv-x="682" 
d="M340 -12q-135 0 -223.5 95t-88.5 264q0 89 27 159.5t72.5 113t100.5 64t115 21.5q135 0 223 -94t88 -262q0 -89 -27 -160t-72 -114t-100 -65t-115 -22zM342 45q101 0 153.5 80t52.5 212q0 312 -209 312q-102 0 -153.5 -80.5t-51.5 -212.5q0 -311 208 -311zM342 736
q-55 0 -90 32t-40 82h57q15 -46 73 -46q57 0 72 46h57q-5 -49 -40 -81.5t-89 -32.5z" />
    <glyph glyph-name="obreve" unicode="&#x14f;" horiz-adv-x="541" 
d="M272 -13q-111 0 -179 73t-68 193q0 119 70.5 194.5t173.5 75.5q111 0 179 -72.5t68 -192.5q0 -119 -71 -195t-173 -76zM273 42q64 0 105.5 49t41.5 159q0 113 -43.5 165.5t-108.5 52.5q-64 0 -105.5 -49t-41.5 -159q0 -113 43.5 -165.5t108.5 -52.5zM270 581
q-55 0 -92.5 35.5t-39.5 90.5h57q13 -61 75 -61t75 61h57q-2 -55 -39.5 -90.5t-92.5 -35.5z" />
    <glyph glyph-name="Ohungarumlaut" unicode="&#x150;" horiz-adv-x="682" 
d="M340 -12q-135 0 -223.5 95t-88.5 264q0 89 27 159.5t72.5 113t100.5 64t115 21.5q135 0 223 -94t88 -262q0 -89 -27 -160t-72 -114t-100 -65t-115 -22zM342 45q101 0 153.5 80t52.5 212q0 312 -209 312q-102 0 -153.5 -80.5t-51.5 -212.5q0 -311 208 -311zM424 733
l-30 23l88 126l65 -47zM264 733l-30 23l88 126l65 -47z" />
    <glyph glyph-name="ohungarumlaut" unicode="&#x151;" horiz-adv-x="541" 
d="M272 -13q-111 0 -179 73t-68 193q0 119 70.5 194.5t173.5 75.5q111 0 179 -72.5t68 -192.5q0 -119 -71 -195t-173 -76zM273 42q64 0 105.5 49t41.5 159q0 113 -43.5 165.5t-108.5 52.5q-64 0 -105.5 -49t-41.5 -159q0 -113 43.5 -165.5t108.5 -52.5zM348 566l-33 20
l97 154l65 -47zM188 566l-33 20l97 154l65 -47z" />
    <glyph glyph-name="OE" unicode="&#x152;" horiz-adv-x="910" 
d="M387 0q-187 0 -273.5 83.5t-86.5 245.5q0 364 349 364h487l11 -172h-48l-43 117h-236v-255h122l27 95h43v-242h-43l-27 96h-122v-277h246l54 145h48l-13 -200h-495zM401 55h46v583h-73q-122 0 -181 -66t-59 -228q0 -75 12.5 -128t33 -84.5t56.5 -48.5t73 -22.5t92 -5.5z
" />
    <glyph glyph-name="oe" unicode="&#x153;" horiz-adv-x="888" 
d="M272 -13q-111 0 -179 73t-68 193q0 119 70.5 194.5t173.5 75.5q135 0 199 -108q29 52 77.5 80t109.5 28q209 0 209 -265h-349q3 -101 48 -153t126 -52q73 0 150 27v-45q-79 -47 -169 -47q-149 0 -205 109q-67 -110 -193 -110zM273 42q64 0 105.5 49t41.5 159
q0 113 -43.5 165.5t-108.5 52.5q-64 0 -105.5 -49t-41.5 -159q0 -113 43.5 -165.5t108.5 -52.5zM515 308l245 8q0 153 -111 153q-124 0 -134 -161z" />
    <glyph glyph-name="Racute" unicode="&#x154;" horiz-adv-x="636" 
d="M20 0v41l90 19v573l-87 19v41h290q240 0 240 -187q0 -125 -142 -171v-4l159 -272l71 -19v-40h-149l-176 311h-106v-251l86 -19v-41h-276zM210 362h101q74 0 106.5 40t32.5 102q0 69 -32.5 99.5t-107.5 30.5h-100v-272zM432 794l-206 -66l-16 36l186 106z" />
    <glyph glyph-name="racute" unicode="&#x155;" horiz-adv-x="350" 
d="M14 0v34l75 16v393l-75 16v38l151 24l11 -6v-65h6q60 73 132 73q18 0 28 -4v-80q-19 3 -39 3q-69 0 -122 -35v-357l82 -16v-34h-249zM123 568l-20 34l172 128l45 -72z" />
    <glyph glyph-name="Rcommaaccent" unicode="&#x156;" horiz-adv-x="636" 
d="M20 0v41l90 19v573l-87 19v41h290q240 0 240 -187q0 -125 -142 -171v-4l159 -272l71 -19v-40h-149l-176 311h-106v-251l86 -19v-41h-276zM210 362h101q74 0 106.5 40t32.5 102q0 69 -32.5 99.5t-107.5 30.5h-100v-272zM277 -182q15 54 15 140h94q-10 -90 -52 -140h-57z
" />
    <glyph glyph-name="rcommaaccent" unicode="&#x157;" horiz-adv-x="350" 
d="M14 0v34l75 16v393l-75 16v38l151 24l11 -6v-65h6q60 73 132 73q18 0 28 -4v-80q-19 3 -39 3q-69 0 -122 -35v-357l82 -16v-34h-249zM76 -182q15 54 15 140h94q-10 -90 -52 -140h-57z" />
    <glyph glyph-name="Rcaron" unicode="&#x158;" horiz-adv-x="636" 
d="M20 0v41l90 19v573l-87 19v41h290q240 0 240 -187q0 -125 -142 -171v-4l159 -272l71 -19v-40h-149l-176 311h-106v-251l86 -19v-41h-276zM210 362h101q74 0 106.5 40t32.5 102q0 69 -32.5 99.5t-107.5 30.5h-100v-272zM430 869l17 -31l-119 -98h-46l-119 98l17 31
l125 -55z" />
    <glyph glyph-name="rcaron" unicode="&#x159;" horiz-adv-x="350" 
d="M14 0v34l75 16v393l-75 16v38l151 24l11 -6v-65h6q60 73 132 73q18 0 28 -4v-80q-19 3 -39 3q-69 0 -122 -35v-357l82 -16v-34h-249zM179 576l-115 121l21 29l117 -74l117 74l21 -29l-115 -121h-46z" />
    <glyph glyph-name="Sacute" unicode="&#x15a;" horiz-adv-x="519" 
d="M248 -12q-107 0 -195 34l-7 158h48l32 -102q59 -32 132 -32q67 0 104 35t37 87q0 51 -30 79.5t-96 56.5l-84 36q-131 54 -131 183q0 79 56 131t162 52q96 0 171 -25l7 -148h-47l-27 89q-49 26 -112 26q-55 0 -90.5 -26t-35.5 -76q0 -44 24.5 -71t79.5 -50l84 -35
q79 -34 119.5 -74.5t40.5 -118.5q0 -89 -60.5 -149t-181.5 -60zM400 794l-206 -66l-16 36l186 106z" />
    <glyph glyph-name="sacute" unicode="&#x15b;" horiz-adv-x="418" 
d="M193 -13q-75 0 -159 28l-8 138h48l27 -89q42 -22 99 -22q49 0 79 20t30 58q0 37 -20.5 55.5t-76.5 36.5l-55 18q-62 20 -93.5 54.5t-31.5 89.5q0 63 48.5 105.5t136.5 42.5q77 0 142 -19v-130h-45l-24 78q-29 17 -82 17q-97 0 -97 -72q0 -33 21.5 -52t77.5 -36l55 -18
q69 -23 98 -56.5t29 -88.5q0 -69 -52 -113.5t-147 -44.5zM134 568l-20 34l172 128l45 -72z" />
    <glyph glyph-name="Scircumflex" unicode="&#x15c;" horiz-adv-x="519" 
d="M248 -12q-107 0 -195 34l-7 158h48l32 -102q59 -32 132 -32q67 0 104 35t37 87q0 51 -30 79.5t-96 56.5l-84 36q-131 54 -131 183q0 79 56 131t162 52q96 0 171 -25l7 -148h-47l-27 89q-49 26 -112 26q-55 0 -90.5 -26t-35.5 -76q0 -44 24.5 -71t79.5 -50l84 -35
q79 -34 119.5 -74.5t40.5 -118.5q0 -89 -60.5 -149t-181.5 -60zM148 732l-17 31l119 98h46l119 -98l-17 -31l-125 55z" />
    <glyph glyph-name="scircumflex" unicode="&#x15d;" horiz-adv-x="418" 
d="M193 -13q-75 0 -159 28l-8 138h48l27 -89q42 -22 99 -22q49 0 79 20t30 58q0 37 -20.5 55.5t-76.5 36.5l-55 18q-62 20 -93.5 54.5t-31.5 89.5q0 63 48.5 105.5t136.5 42.5q77 0 142 -19v-130h-45l-24 78q-29 17 -82 17q-97 0 -97 -72q0 -33 21.5 -52t77.5 -36l55 -18
q69 -23 98 -56.5t29 -88.5q0 -69 -52 -113.5t-147 -44.5zM96 573l-21 29l115 121h46l115 -121l-21 -29l-117 74z" />
    <glyph glyph-name="Scedilla" unicode="&#x15e;" horiz-adv-x="519" 
d="M189 -213v36q58 8 80.5 20t22.5 31q0 18 -18 25.5t-64 7.5v82q-86 5 -157 33l-7 158h48l32 -102q59 -32 132 -32q67 0 104 35t37 87q0 51 -30 79.5t-96 56.5l-84 36q-131 54 -131 183q0 79 56 131t162 52q96 0 171 -25l7 -148h-47l-27 89q-49 26 -112 26q-55 0 -90.5 -26
t-35.5 -76q0 -44 24.5 -71t79.5 -50l84 -35q79 -34 119.5 -74.5t40.5 -118.5q0 -88 -58.5 -147.5t-175.5 -61.5v-36q113 -4 113 -72q0 -83 -180 -93z" />
    <glyph glyph-name="scedilla" unicode="&#x15f;" horiz-adv-x="418" 
d="M126 -213v36q58 8 80.5 20t22.5 31q0 18 -18 25.5t-64 7.5v83q-56 5 -113 25l-8 138h48l27 -89q42 -22 99 -22q49 0 79 20t30 58q0 37 -20.5 55.5t-76.5 36.5l-55 18q-62 20 -93.5 54.5t-31.5 89.5q0 63 48.5 105.5t136.5 42.5q77 0 142 -19v-130h-45l-24 78
q-29 17 -82 17q-97 0 -97 -72q0 -33 21.5 -52t77.5 -36l55 -18q69 -23 98 -56.5t29 -88.5q0 -69 -52 -113.5t-147 -44.5v-35q113 -4 113 -72q0 -83 -180 -93z" />
    <glyph glyph-name="Scaron" unicode="&#x160;" horiz-adv-x="519" 
d="M248 -12q-107 0 -195 34l-7 158h48l32 -102q59 -32 132 -32q67 0 104 35t37 87q0 51 -30 79.5t-96 56.5l-84 36q-131 54 -131 183q0 79 56 131t162 52q96 0 171 -25l7 -148h-47l-27 89q-49 26 -112 26q-55 0 -90.5 -26t-35.5 -76q0 -44 24.5 -71t79.5 -50l84 -35
q79 -34 119.5 -74.5t40.5 -118.5q0 -89 -60.5 -149t-181.5 -60zM398 869l17 -31l-119 -98h-46l-119 98l17 31l125 -55z" />
    <glyph glyph-name="scaron" unicode="&#x161;" horiz-adv-x="418" 
d="M193 -13q-75 0 -159 28l-8 138h48l27 -89q42 -22 99 -22q49 0 79 20t30 58q0 37 -20.5 55.5t-76.5 36.5l-55 18q-62 20 -93.5 54.5t-31.5 89.5q0 63 48.5 105.5t136.5 42.5q77 0 142 -19v-130h-45l-24 78q-29 17 -82 17q-97 0 -97 -72q0 -33 21.5 -52t77.5 -36l55 -18
q69 -23 98 -56.5t29 -88.5q0 -69 -52 -113.5t-147 -44.5zM190 576l-115 121l21 29l117 -74l117 74l21 -29l-115 -121h-46z" />
    <glyph glyph-name="Tcommaaccent" unicode="&#x162;" horiz-adv-x="593" 
d="M155 0v41l91 18v579h-151l-38 -143h-48l11 198h553l11 -198h-48l-38 143h-151v-579l91 -18v-41h-283zM236 -182q15 54 15 140h94q-10 -90 -52 -140h-57z" />
    <glyph glyph-name="tcommaaccent" unicode="&#x163;" horiz-adv-x="342" 
d="M217 -9q-67 0 -99 28t-32 96v339h-73v35l80 24l16 120h69v-120h134v-59h-134v-320q0 -44 17 -63.5t63 -19.5q29 0 64 7v-37q-44 -30 -105 -30zM136 -182q15 54 15 140h94q-10 -90 -52 -140h-57z" />
    <glyph glyph-name="Tcaron" unicode="&#x164;" horiz-adv-x="593" 
d="M155 0v41l91 18v579h-151l-38 -143h-48l11 198h553l11 -198h-48l-38 143h-151v-579l91 -18v-41h-283zM421 869l17 -31l-119 -98h-46l-119 98l17 31l125 -55z" />
    <glyph glyph-name="tcaron" unicode="&#x165;" horiz-adv-x="342" 
d="M217 -9q-67 0 -99 28t-32 96v339h-73v35l80 24l16 120h69v-120h134v-59h-134v-320q0 -44 17 -63.5t63 -19.5q29 0 64 7v-37q-44 -30 -105 -30zM277 569l-41 7l15 166l85 -16z" />
    <glyph glyph-name="Tbar" unicode="&#x166;" horiz-adv-x="593" 
d="M100 370v48h146v220h-151l-38 -143h-48l11 198h553l11 -198h-48l-38 143h-151v-220h146v-48h-146v-311l91 -18v-41h-283v41l91 18v311h-146z" />
    <glyph glyph-name="tbar" unicode="&#x167;" horiz-adv-x="342" 
d="M13 306v44h73v104h-73v35l80 24l16 120h69v-120h134v-59h-134v-104h134v-44h-134v-172q0 -44 17 -63.5t63 -19.5q29 0 64 7v-37q-44 -30 -105 -30q-67 0 -99 28t-32 96v191h-73z" />
    <glyph glyph-name="Utilde" unicode="&#x168;" horiz-adv-x="675" 
d="M343 -13q-125 0 -190.5 60t-65.5 164v423l-86 18v41h275v-41l-88 -18v-406q0 -177 170 -177q171 0 171 178v404l-88 18v42h233v-41l-76 -18v-414q0 -108 -67 -170.5t-188 -62.5zM252 736l-40 18q38 93 98 93q23 0 59.5 -17t48.5 -17q29 0 54 41l40 -18q-38 -93 -98 -93
q-23 0 -59.5 17t-48.5 17q-29 0 -54 -41z" />
    <glyph glyph-name="utilde" unicode="&#x169;" horiz-adv-x="582" 
d="M226 -10q-146 0 -146 150v310l-76 16v38l156 16l11 -6v-351q0 -57 21 -82t78 -25q59 0 126 29v365l-73 16v38l154 16l11 -6v-451l75 -16v-34l-150 -23l-11 5v56h-6q-67 -61 -170 -61zM172 595l-40 18q38 93 98 93q23 0 59.5 -17t48.5 -17q29 0 54 41l40 -18
q-38 -93 -98 -93q-23 0 -59.5 17t-48.5 17q-29 0 -54 -41z" />
    <glyph glyph-name="Umacron" unicode="&#x16a;" horiz-adv-x="675" 
d="M343 -13q-125 0 -190.5 60t-65.5 164v423l-86 18v41h275v-41l-88 -18v-406q0 -177 170 -177q171 0 171 178v404l-88 18v42h233v-41l-76 -18v-414q0 -108 -67 -170.5t-188 -62.5zM240 755v62h244v-62h-244z" />
    <glyph glyph-name="umacron" unicode="&#x16b;" horiz-adv-x="582" 
d="M226 -10q-146 0 -146 150v310l-76 16v38l156 16l11 -6v-351q0 -57 21 -82t78 -25q59 0 126 29v365l-73 16v38l154 16l11 -6v-451l75 -16v-34l-150 -23l-11 5v56h-6q-67 -61 -170 -61zM160 605v62h244v-62h-244z" />
    <glyph glyph-name="Ubreve" unicode="&#x16c;" horiz-adv-x="675" 
d="M343 -13q-125 0 -190.5 60t-65.5 164v423l-86 18v41h275v-41l-88 -18v-406q0 -177 170 -177q171 0 171 178v404l-88 18v42h233v-41l-76 -18v-414q0 -108 -67 -170.5t-188 -62.5zM363 736q-55 0 -90 32t-40 82h57q15 -46 73 -46q57 0 72 46h57q-5 -49 -40 -81.5t-89 -32.5
z" />
    <glyph glyph-name="ubreve" unicode="&#x16d;" horiz-adv-x="582" 
d="M226 -10q-146 0 -146 150v310l-76 16v38l156 16l11 -6v-351q0 -57 21 -82t78 -25q59 0 126 29v365l-73 16v38l154 16l11 -6v-451l75 -16v-34l-150 -23l-11 5v56h-6q-67 -61 -170 -61zM282 581q-55 0 -92.5 35.5t-39.5 90.5h57q13 -61 75 -61t75 61h57q-2 -55 -39.5 -90.5
t-92.5 -35.5z" />
    <glyph glyph-name="Uring" unicode="&#x16e;" horiz-adv-x="675" 
d="M343 -13q-125 0 -190.5 60t-65.5 164v423l-86 18v41h275v-41l-88 -18v-406q0 -177 170 -177q171 0 171 178v404l-88 18v42h233v-41l-76 -18v-414q0 -108 -67 -170.5t-188 -62.5zM362 703q-39 0 -66 26t-27 62q0 37 27 63t66 26t66 -26t27 -63q0 -36 -27 -62t-66 -26z
M362 742q22 0 35.5 13.5t13.5 35.5t-13.5 36t-35.5 14t-35.5 -14t-13.5 -36t13.5 -35.5t35.5 -13.5z" />
    <glyph glyph-name="uring" unicode="&#x16f;" horiz-adv-x="582" 
d="M226 -10q-146 0 -146 150v310l-76 16v38l156 16l11 -6v-351q0 -57 21 -82t78 -25q59 0 126 29v365l-73 16v38l154 16l11 -6v-451l75 -16v-34l-150 -23l-11 5v56h-6q-67 -61 -170 -61zM273 573q-39 0 -66 26t-27 62q0 37 27 63t66 26t66 -26t27 -63q0 -36 -27 -62t-66 -26
zM273 612q22 0 35.5 13.5t13.5 35.5t-13.5 36t-35.5 14t-35.5 -14t-13.5 -36t13.5 -35.5t35.5 -13.5z" />
    <glyph glyph-name="Uhungarumlaut" unicode="&#x170;" horiz-adv-x="675" 
d="M343 -13q-125 0 -190.5 60t-65.5 164v423l-86 18v41h275v-41l-88 -18v-406q0 -177 170 -177q171 0 171 178v404l-88 18v42h233v-41l-76 -18v-414q0 -108 -67 -170.5t-188 -62.5zM445 733l-30 23l88 126l65 -47zM285 733l-30 23l88 126l65 -47z" />
    <glyph glyph-name="uhungarumlaut" unicode="&#x171;" horiz-adv-x="582" 
d="M226 -10q-146 0 -146 150v310l-76 16v38l156 16l11 -6v-351q0 -57 21 -82t78 -25q59 0 126 29v365l-73 16v38l154 16l11 -6v-451l75 -16v-34l-150 -23l-11 5v56h-6q-67 -61 -170 -61zM360 566l-33 20l97 154l65 -47zM200 566l-33 20l97 154l65 -47z" />
    <glyph glyph-name="Uogonek" unicode="&#x172;" horiz-adv-x="675" 
d="M397 -201q-103 0 -103 80q0 57 77 109q-8 -1 -28 -1q-125 0 -190.5 60t-65.5 164v423l-86 18v41h275v-41l-88 -18v-406q0 -177 170 -177q171 0 171 178v404l-88 18v42h233v-41l-76 -18v-414q0 -132 -97 -193q-7 -5 -33.5 -20t-36.5 -23t-26.5 -23t-23 -32.5t-6.5 -39.5
q0 -42 49 -42q14 0 30 2v-42q-26 -8 -57 -8z" />
    <glyph glyph-name="uogonek" unicode="&#x173;" horiz-adv-x="582" 
d="M424 -201q-103 0 -103 80q0 61 81 114v58h-6q-67 -61 -170 -61q-146 0 -146 150v310l-76 16v38l156 16l11 -6v-351q0 -57 21 -82t78 -25q59 0 126 29v365l-73 16v38l154 16l11 -6v-451l75 -16v-34l-105 -16q-56 -61 -56 -108q0 -42 49 -42q14 0 30 2v-42q-26 -8 -57 -8z
" />
    <glyph glyph-name="Wcircumflex" unicode="&#x174;" horiz-adv-x="936" 
d="M233 0l-169 633l-60 19v41h235v-41l-75 -19l126 -486h5l153 546h61l154 -546h4l123 486l-75 19v41h217v-41l-70 -19l-170 -633h-81l-144 522h-4l-149 -522h-81zM351 732l-17 31l119 98h46l119 -98l-17 -31l-125 55z" />
    <glyph glyph-name="wcircumflex" unicode="&#x175;" horiz-adv-x="773" 
d="M193 0l-142 462l-53 15v36h212v-36l-64 -15l97 -337h4l125 388h61l123 -388h4l98 337l-63 15v36h180v-36l-53 -15l-143 -462h-69l-116 381h-3l-130 -381h-68zM284 573l-21 29l115 121h46l115 -121l-21 -29l-117 74z" />
    <glyph glyph-name="Ycircumflex" unicode="&#x176;" horiz-adv-x="608" 
d="M173 0v41l88 19v247l-200 326l-61 19v41h238v-41l-69 -19l161 -269h4l146 269l-74 19v41h202v-41l-60 -19l-187 -328v-245l86 -19v-41h-274zM198 732l-17 31l119 98h46l119 -98l-17 -31l-125 55z" />
    <glyph glyph-name="ycircumflex" unicode="&#x177;" horiz-adv-x="526" 
d="M122 -199q-45 0 -77 19v52q41 -9 53 -9q43 0 68 18t44 62l30 71l-186 448l-56 15v36h225v-36l-68 -14l129 -333h4l114 332l-65 15v36h191v-36l-56 -15l-203 -538q-24 -64 -56.5 -93.5t-90.5 -29.5zM168 573l-21 29l115 121h46l115 -121l-21 -29l-117 74z" />
    <glyph glyph-name="Ydieresis" unicode="&#x178;" horiz-adv-x="608" 
d="M173 0v41l88 19v247l-200 326l-61 19v41h238v-41l-69 -19l161 -269h4l146 269l-74 19v41h202v-41l-60 -19l-187 -328v-245l86 -19v-41h-274zM240 737q-22 0 -38 16.5t-16 37.5q0 22 16 38t38 16q23 0 39 -15.5t16 -38.5q0 -21 -16 -37.5t-39 -16.5zM406 737
q-22 0 -38.5 16.5t-16.5 37.5q0 22 16 38t39 16q22 0 38 -15.5t16 -38.5q0 -21 -16 -37.5t-38 -16.5z" />
    <glyph glyph-name="Zacute" unicode="&#x179;" horiz-adv-x="530" 
d="M11 0v46l384 586v4h-273l-43 -132h-49l10 189h476v-46l-385 -586v-4h297l44 132h48l-10 -189h-499zM397 794l-206 -66l-16 36l186 106z" />
    <glyph glyph-name="zacute" unicode="&#x17a;" horiz-adv-x="472" 
d="M27 0v48l299 411v4h-204l-30 -111h-47l8 161h381v-46l-299 -413v-4h216l37 122h48l-13 -172h-396zM160 568l-20 34l172 128l45 -72z" />
    <glyph glyph-name="Zdotaccent" unicode="&#x17b;" horiz-adv-x="530" 
d="M11 0v46l384 586v4h-273l-43 -132h-49l10 189h476v-46l-385 -586v-4h297l44 132h48l-10 -189h-499zM270 738q-23 0 -40 17t-17 39q0 23 17 39.5t40 16.5q24 0 40.5 -16.5t16.5 -39.5q0 -22 -16.5 -39t-40.5 -17z" />
    <glyph glyph-name="zdotaccent" unicode="&#x17c;" horiz-adv-x="472" 
d="M27 0v48l299 411v4h-204l-30 -111h-47l8 161h381v-46l-299 -413v-4h216l37 122h48l-13 -172h-396zM239 605q-23 0 -40 17t-17 39q0 23 17 39.5t40 16.5q24 0 40.5 -16.5t16.5 -39.5q0 -22 -16.5 -39t-40.5 -17z" />
    <glyph glyph-name="Zcaron" unicode="&#x17d;" horiz-adv-x="530" 
d="M11 0v46l384 586v4h-273l-43 -132h-49l10 189h476v-46l-385 -586v-4h297l44 132h48l-10 -189h-499zM395 869l17 -31l-119 -98h-46l-119 98l17 31l125 -55z" />
    <glyph glyph-name="zcaron" unicode="&#x17e;" horiz-adv-x="472" 
d="M27 0v48l299 411v4h-204l-30 -111h-47l8 161h381v-46l-299 -413v-4h216l37 122h48l-13 -172h-396zM216 576l-115 121l21 29l117 -74l117 74l21 -29l-115 -121h-46z" />
    <glyph glyph-name="florin" unicode="&#x192;" horiz-adv-x="391" 
d="M30 360v59h93l22 125q15 82 61 120.5t111 38.5q46 0 84 -19v-47q-33 6 -64 6q-45 0 -68.5 -25.5t-35.5 -92.5l-20 -106h119v-59h-129l-74 -411q-24 -132 -145 -132q-39 0 -75 18v46q24 -4 52 -4q33 0 52.5 20t28.5 68l70 395h-82z" />
    <glyph glyph-name="Aringacute" unicode="&#x1fa;" horiz-adv-x="651" 
d="M-3 0v42l69 18l222 633h82l215 -633l69 -18v-42h-256v41l79 19l-53 164h-233l-55 -164l80 -19v-41h-219zM309 569l-100 -294h199l-94 294h-5zM325 709q-39 0 -66 26t-27 62q0 37 27 63t66 26t66 -26t27 -63q0 -36 -27 -62t-66 -26zM325 748q22 0 35.5 13.5t13.5 35.5
t-13.5 36t-35.5 14t-35.5 -14t-13.5 -36t13.5 -35.5t35.5 -13.5zM436 957l-206 -66l-16 36l186 106z" />
    <glyph glyph-name="aringacute" unicode="&#x1fb;" horiz-adv-x="473" 
d="M172 -13q-69 0 -112.5 38t-43.5 102q0 62 39.5 92t117.5 46l131 27v54q0 64 -21 86t-94 22q-62 0 -130 -11v43q85 37 175 37q83 0 122.5 -37t39.5 -114v-295q0 -23 11.5 -30.5t36.5 -7.5h25v-34q-30 -15 -81 -15q-64 0 -74 53h-6q-52 -56 -136 -56zM205 49q58 0 99 37
v147l-102 -8q-50 -4 -71 -26t-21 -62q0 -41 24 -64.5t71 -23.5zM234 553q-39 0 -66 26t-27 62q0 37 27 63t66 26t66 -26t27 -63q0 -36 -27 -62t-66 -26zM234 592q22 0 35.5 13.5t13.5 35.5t-13.5 36t-35.5 14t-35.5 -14t-13.5 -36t13.5 -35.5t35.5 -13.5zM350 811l-206 -66
l-16 36l186 106z" />
    <glyph glyph-name="AEacute" unicode="&#x1fc;" horiz-adv-x="916" 
d="M-3 0v42l62 18l334 582l-67 10v41h543l11 -172h-48l-43 117h-238v-255h124l27 95h43v-242h-43l-27 96h-124v-277h248l54 145h48l-13 -200h-524v41l89 19v164h-231l-93 -164l79 -19v-41h-211zM453 629h-3l-199 -354h202v354zM738 794l-206 -66l-16 36l186 106z" />
    <glyph glyph-name="aeacute" unicode="&#x1fd;" horiz-adv-x="760" 
d="M172 -13q-69 0 -112.5 38t-43.5 102t40 98t117 48l131 24v49q0 64 -21 86t-94 22q-62 0 -130 -11v43q85 37 175 37q106 0 137 -71q60 71 160 71q205 0 205 -269h-340q6 -201 169 -201q69 0 146 27v-45q-79 -47 -165 -47q-133 0 -196 87q-29 -38 -76.5 -63t-101.5 -25z
M330 109q-26 53 -29 132l-99 -8q-92 -7 -92 -96q0 -41 24 -64.5t71 -23.5q62 0 125 60zM396 304l236 8q0 80 -26 118.5t-81 38.5q-119 0 -129 -165zM345 568l-20 34l172 128l45 -72z" />
    <glyph glyph-name="Oslashacute" unicode="&#x1fe;" horiz-adv-x="682" 
d="M340 -12q-114 0 -196 68l-66 -83l-44 34l71 89q-77 96 -77 251q0 89 27 159.5t72.5 113t100.5 64t115 21.5q115 0 196 -69l60 74l44 -34l-65 -80q76 -97 76 -247q0 -89 -27 -160t-72 -114t-100 -65t-115 -22zM134 356q0 -119 27 -191l331 412q-52 72 -153 72
q-102 0 -153.5 -80.5t-51.5 -212.5zM342 45q101 0 153.5 80t52.5 212q0 115 -28 187l-330 -411q49 -68 152 -68zM468 794l-206 -66l-16 36l186 106z" />
    <glyph glyph-name="oslashacute" unicode="&#x1ff;" horiz-adv-x="541" 
d="M272 -13q-97 0 -161 55l-58 -65l-42 34l63 71q-49 71 -49 171q0 119 70.5 194.5t173.5 75.5q88 0 153 -49l54 61l41 -34l-57 -65q56 -72 56 -178q0 -119 -71 -195t-173 -76zM273 42q64 0 105.5 49t41.5 159q0 74 -18 121l-243 -274q39 -55 114 -55zM121 260
q0 -61 13 -110l241 271q-40 47 -107 47q-64 0 -105.5 -49t-41.5 -159zM189 568l-20 34l172 128l45 -72z" />
    <glyph glyph-name="Scommaaccent" unicode="&#x218;" horiz-adv-x="519" 
d="M248 -12q-107 0 -195 34l-7 158h48l32 -102q59 -32 132 -32q67 0 104 35t37 87q0 51 -30 79.5t-96 56.5l-84 36q-131 54 -131 183q0 79 56 131t162 52q96 0 171 -25l7 -148h-47l-27 89q-49 26 -112 26q-55 0 -90.5 -26t-35.5 -76q0 -44 24.5 -71t79.5 -50l84 -35
q79 -34 119.5 -74.5t40.5 -118.5q0 -89 -60.5 -149t-181.5 -60zM213 -182q15 54 15 140h94q-10 -90 -52 -140h-57z" />
    <glyph glyph-name="scommaaccent" unicode="&#x219;" horiz-adv-x="418" 
d="M193 -13q-75 0 -159 28l-8 138h48l27 -89q42 -22 99 -22q49 0 79 20t30 58q0 37 -20.5 55.5t-76.5 36.5l-55 18q-62 20 -93.5 54.5t-31.5 89.5q0 63 48.5 105.5t136.5 42.5q77 0 142 -19v-130h-45l-24 78q-29 17 -82 17q-97 0 -97 -72q0 -33 21.5 -52t77.5 -36l55 -18
q69 -23 98 -56.5t29 -88.5q0 -69 -52 -113.5t-147 -44.5zM144 -182q15 54 15 140h94q-10 -90 -52 -140h-57z" />
    <glyph glyph-name="uni0237" unicode="&#x237;" horiz-adv-x="261" 
d="M34 -197q-34 0 -74 15v42q21 -3 45 -3q42 0 66 21t24 76v489l-80 16v38l161 24l11 -6v-571q0 -68 -40 -104.5t-113 -36.5z" />
    <glyph glyph-name="circumflex" unicode="&#x2c6;" 
d="M127 573l-21 29l115 121h46l115 -121l-21 -29l-117 74z" />
    <glyph glyph-name="caron" unicode="&#x2c7;" 
d="M221 576l-115 121l21 29l117 -74l117 74l21 -29l-115 -121h-46z" />
    <glyph glyph-name="breve" unicode="&#x2d8;" 
d="M269 581q-55 0 -92.5 35.5t-39.5 90.5h57q13 -61 75 -61t75 61h57q-2 -55 -39.5 -90.5t-92.5 -35.5z" />
    <glyph glyph-name="dotaccent" unicode="&#x2d9;" 
d="M244 605q-23 0 -40 17t-17 39q0 23 17 39.5t40 16.5q24 0 40.5 -16.5t16.5 -39.5q0 -22 -16.5 -39t-40.5 -17z" />
    <glyph glyph-name="ring" unicode="&#x2da;" 
d="M244 573q-39 0 -66 26t-27 62q0 37 27 63t66 26t66 -26t27 -63q0 -36 -27 -62t-66 -26zM244 612q22 0 35.5 13.5t13.5 35.5t-13.5 36t-35.5 14t-35.5 -14t-13.5 -36t13.5 -35.5t35.5 -13.5z" />
    <glyph glyph-name="ogonek" unicode="&#x2db;" 
d="M248 -201q-103 0 -103 80q0 63 93 121h43q-55 -68 -55 -111q0 -42 49 -42q14 0 30 2v-42q-26 -8 -57 -8z" />
    <glyph glyph-name="tilde" unicode="&#x2dc;" 
d="M134 595l-40 18q38 93 98 93q23 0 59.5 -17t48.5 -17q29 0 54 41l40 -18q-38 -93 -98 -93q-23 0 -59.5 17t-48.5 17q-29 0 -54 -41z" />
    <glyph glyph-name="hungarumlaut" unicode="&#x2dd;" 
d="M309 566l-33 20l97 154l65 -47zM149 566l-33 20l97 154l65 -47z" />
    <glyph glyph-name="Wgrave" unicode="&#x1e80;" horiz-adv-x="936" 
d="M233 0l-169 633l-60 19v41h235v-41l-75 -19l126 -486h5l153 546h61l154 -546h4l123 486l-75 19v41h217v-41l-70 -19l-170 -633h-81l-144 522h-4l-149 -522h-81zM551 728l-206 66l36 76l186 -106z" />
    <glyph glyph-name="wgrave" unicode="&#x1e81;" horiz-adv-x="773" 
d="M193 0l-142 462l-53 15v36h212v-36l-64 -15l97 -337h4l125 388h61l123 -388h4l98 337l-63 15v36h180v-36l-53 -15l-143 -462h-69l-116 381h-3l-130 -381h-68zM476 568l-197 90l45 72l172 -128z" />
    <glyph glyph-name="Wacute" unicode="&#x1e82;" horiz-adv-x="936" 
d="M233 0l-169 633l-60 19v41h235v-41l-75 -19l126 -486h5l153 546h61l154 -546h4l123 486l-75 19v41h217v-41l-70 -19l-170 -633h-81l-144 522h-4l-149 -522h-81zM603 794l-206 -66l-16 36l186 106z" />
    <glyph glyph-name="wacute" unicode="&#x1e83;" horiz-adv-x="773" 
d="M193 0l-142 462l-53 15v36h212v-36l-64 -15l97 -337h4l125 388h61l123 -388h4l98 337l-63 15v36h180v-36l-53 -15l-143 -462h-69l-116 381h-3l-130 -381h-68zM322 568l-20 34l172 128l45 -72z" />
    <glyph glyph-name="Wdieresis" unicode="&#x1e84;" horiz-adv-x="936" 
d="M233 0l-169 633l-60 19v41h235v-41l-75 -19l126 -486h5l153 546h61l154 -546h4l123 486l-75 19v41h217v-41l-70 -19l-170 -633h-81l-144 522h-4l-149 -522h-81zM393 737q-22 0 -38 16.5t-16 37.5q0 22 16 38t38 16q23 0 39 -15.5t16 -38.5q0 -21 -16 -37.5t-39 -16.5z
M559 737q-22 0 -38.5 16.5t-16.5 37.5q0 22 16 38t39 16t38.5 -15.5t15.5 -38.5q0 -21 -16 -37.5t-38 -16.5z" />
    <glyph glyph-name="wdieresis" unicode="&#x1e85;" horiz-adv-x="773" 
d="M193 0l-142 462l-53 15v36h212v-36l-64 -15l97 -337h4l125 388h61l123 -388h4l98 337l-63 15v36h180v-36l-53 -15l-143 -462h-69l-116 381h-3l-130 -381h-68zM318 602q-22 0 -38 16.5t-16 37.5q0 22 16 38t38 16q23 0 39 -15.5t16 -38.5q0 -21 -16 -37.5t-39 -16.5z
M484 602q-22 0 -38.5 16.5t-16.5 37.5q0 22 16 38t39 16q22 0 38 -16t16 -38q0 -21 -16 -37.5t-38 -16.5z" />
    <glyph glyph-name="Ygrave" unicode="&#x1ef2;" horiz-adv-x="608" 
d="M173 0v41l88 19v247l-200 326l-61 19v41h238v-41l-69 -19l161 -269h4l146 269l-74 19v41h202v-41l-60 -19l-187 -328v-245l86 -19v-41h-274zM398 728l-206 66l36 76l186 -106z" />
    <glyph glyph-name="ygrave" unicode="&#x1ef3;" horiz-adv-x="526" 
d="M122 -199q-45 0 -77 19v52q41 -9 53 -9q43 0 68 18t44 62l30 71l-186 448l-56 15v36h225v-36l-68 -14l129 -333h4l114 332l-65 15v36h191v-36l-56 -15l-203 -538q-24 -64 -56.5 -93.5t-90.5 -29.5zM360 568l-197 90l45 72l172 -128z" />
    <glyph glyph-name="uni2009" unicode="&#x2009;" horiz-adv-x="90" 
 />
    <glyph glyph-name="endash" unicode="&#x2013;" horiz-adv-x="392" 
d="M31 261v52h330v-52h-330z" />
    <glyph glyph-name="emdash" unicode="&#x2014;" horiz-adv-x="672" 
d="M31 261v52h610v-52h-610z" />
    <glyph glyph-name="quoteleft" unicode="&#x2018;" horiz-adv-x="214" 
d="M47 488q19 120 63 205h58q-20 -118 -20 -205h-101z" />
    <glyph glyph-name="quoteright" unicode="&#x2019;" horiz-adv-x="214" 
d="M46 488q20 118 20 205h101q-19 -120 -63 -205h-58z" />
    <glyph glyph-name="quotesinglbase" unicode="&#x201a;" horiz-adv-x="214" 
d="M46 -94q20 118 20 205h101q-19 -120 -63 -205h-58z" />
    <glyph glyph-name="quotedblleft" unicode="&#x201c;" horiz-adv-x="373" 
d="M206 488q19 120 63 205h58q-20 -118 -20 -205h-101zM47 488q19 120 63 205h58q-20 -118 -20 -205h-101z" />
    <glyph glyph-name="quotedblright" unicode="&#x201d;" horiz-adv-x="373" 
d="M205 488q20 118 20 205h101q-19 -120 -63 -205h-58zM46 488q20 118 20 205h101q-19 -120 -63 -205h-58z" />
    <glyph glyph-name="quotedblbase" unicode="&#x201e;" horiz-adv-x="373" 
d="M205 -94q20 118 20 205h101q-19 -120 -63 -205h-58zM46 -94q20 118 20 205h101q-19 -120 -63 -205h-58z" />
    <glyph glyph-name="dagger" unicode="&#x2020;" horiz-adv-x="404" 
d="M26 441v86l151 -22l-18 188h86l-18 -188l151 22v-86l-150 21l17 -116v-43l-24 -303h-38l-24 303v43l17 116z" />
    <glyph glyph-name="daggerdbl" unicode="&#x2021;" horiz-adv-x="416" 
d="M32 441v86l151 -22l-18 188h86l-18 -188l151 22v-86l-149 21l19 -101v-29l-19 -101l149 21v-86l-151 21l18 -187h-86l18 187l-151 -21v86l149 -21l-19 101v29l19 101z" />
    <glyph glyph-name="bullet" unicode="&#x2022;" horiz-adv-x="353" 
d="M175 192q-53 0 -90.5 38.5t-37.5 92.5q0 55 37.5 93t90.5 38t92 -38t39 -93q0 -54 -39 -92.5t-92 -38.5z" />
    <glyph glyph-name="ellipsis" unicode="&#x2026;" horiz-adv-x="689" 
d="M580 -15q-27 0 -45.5 18t-18.5 45t18.5 45t45.5 18t45.5 -18t18.5 -45t-18.5 -45t-45.5 -18zM109 -15q-27 0 -45.5 18t-18.5 45t18.5 45t45.5 18t45.5 -18t18.5 -45t-18.5 -45t-45.5 -18zM344 -15q-27 0 -45.5 18t-18.5 45t18.5 45t45.5 18t45.5 -18t18.5 -45t-18.5 -45
t-45.5 -18z" />
    <glyph glyph-name="perthousand" unicode="&#x2030;" horiz-adv-x="1212" 
d="M193 323q-72 0 -119 50t-47 138q0 91 48.5 142.5t118.5 51.5q69 0 117.5 -50.5t48.5 -139.5q0 -90 -47.5 -141t-119.5 -51zM632 -12q-72 0 -119 50t-47 138q0 91 48.5 142.5t118.5 51.5q69 0 117.5 -50.5t48.5 -139.5q0 -90 -47.5 -141t-119.5 -51zM1018 -12
q-72 0 -119 50t-47 138q0 91 48.5 142.5t118.5 51.5q69 0 117.5 -50.5t48.5 -139.5q0 -90 -47.5 -141t-119.5 -51zM134 -40l480 753h69l-480 -753h-69zM632 35q43 0 62 34.5t19 106.5q0 147 -80 147q-82 0 -82 -143q0 -145 81 -145zM1018 35q43 0 62 34.5t19 106.5
q0 147 -80 147q-82 0 -82 -143q0 -145 81 -145zM193 370q43 0 62 34.5t19 106.5q0 147 -80 147q-82 0 -82 -143q0 -145 81 -145z" />
    <glyph glyph-name="uni2032" unicode="&#x2032;" horiz-adv-x="214" 
d="M45 488l20 205h104l-64 -205h-60z" />
    <glyph glyph-name="uni2033" unicode="&#x2033;" horiz-adv-x="373" 
d="M204 488l20 205h104l-64 -205h-60zM45 488l20 205h104l-64 -205h-60z" />
    <glyph glyph-name="guilsinglleft" unicode="&#x2039;" horiz-adv-x="250" 
d="M147 55l-106 183v29l106 183h60l-81 -197l81 -198h-60z" />
    <glyph glyph-name="guilsinglright" unicode="&#x203a;" horiz-adv-x="250" 
d="M43 55l81 197l-81 198h60l106 -183v-29l-106 -183h-60z" />
    <glyph glyph-name="fraction" unicode="&#x2044;" horiz-adv-x="217" 
d="M-170 -40l480 753h69l-480 -753h-69z" />
    <glyph glyph-name="Euro" unicode="&#x20ac;" horiz-adv-x="606" 
d="M385 -12q-246 0 -281 260h-77v52h73q-1 12 -1 39q0 26 1 39h-73v52h78q11 74 38.5 129t68.5 86t88 45.5t101 14.5q73 0 153 -26l5 -160h-43l-41 109q-39 21 -86 21q-167 0 -189 -219h219v-52h-222v-19q0 -41 1 -59h221v-52h-216q14 -104 61.5 -149t138.5 -45q77 0 160 32
v-46q-75 -52 -178 -52z" />
    <glyph glyph-name="trademark" unicode="&#x2122;" horiz-adv-x="713" 
d="M314 416v26l35 7v210l-35 8v26h120l67 -182h3l69 182h122v-26l-39 -8v-209l39 -8v-26h-129v26l30 8v194h-3l-82 -215h-38l-80 215h-3v-194l32 -8v-26h-108zM84 416v26l36 7v212h-47l-18 -63h-34l4 95h251l5 -95h-35l-18 63h-47v-212l36 -7v-26h-133z" />
    <glyph glyph-name="onethird" unicode="&#x2153;" horiz-adv-x="817" 
d="M248 282h-199v34l61 10v303l-67 -6v33l117 47h27v-377l61 -10v-34zM116 -40l480 753h69l-480 -753h-69zM627 -7q-67 0 -119 29v37q50 -16 97 -16q45 0 70.5 19t25.5 56q0 42 -22 59t-71 17h-31v43h26q85 0 85 69q0 68 -78 68q-46 0 -84 -12v36q48 25 108 25
q61 0 95.5 -27t34.5 -77q0 -74 -81 -98v-2q98 -17 98 -106q0 -56 -41 -88t-113 -32z" />
    <glyph glyph-name="twothirds" unicode="&#x2154;" horiz-adv-x="873" 
d="M304 282h-280v39l103 101q46 46 69 80.5t23 71.5q0 76 -88 76q-36 0 -90 -18v39q60 34 121 34q64 0 100.5 -31t36.5 -90q0 -46 -32.5 -90t-99.5 -99l-67 -55v-1h148l26 53h38zM164 -40l480 753h69l-480 -753h-69zM683 -7q-67 0 -119 29v37q50 -16 97 -16q45 0 70.5 19
t25.5 56q0 42 -22 59t-71 17h-31v43h26q85 0 85 69q0 68 -78 68q-46 0 -84 -12v36q48 25 108 25q61 0 95.5 -27t34.5 -77q0 -74 -81 -98v-2q98 -17 98 -106q0 -56 -41 -88t-113 -32z" />
    <glyph glyph-name="oneeighth" unicode="&#x215b;" horiz-adv-x="851" 
d="M248 282h-199v34l61 10v303l-67 -6v33l117 47h27v-377l61 -10v-34zM116 -40l480 753h69l-480 -753h-69zM657 -8q-76 0 -117 29.5t-41 81.5q0 72 92 106q-75 35 -75 105q0 47 38 78t102 31t102 -27t38 -74q0 -64 -78 -98q97 -37 97 -111q0 -55 -41.5 -88t-116.5 -33z
M677 242q52 27 52 77q0 62 -71 62q-32 0 -51.5 -15.5t-19.5 -40.5q0 -32 20.5 -49.5t69.5 -33.5zM654 34q87 0 87 67q0 32 -25 49.5t-88 40.5q-61 -31 -61 -85q0 -72 87 -72z" />
    <glyph glyph-name="threeeighths" unicode="&#x215c;" horiz-adv-x="872" 
d="M156 275q-67 0 -119 29v37q50 -16 97 -16q45 0 70.5 19t25.5 56q0 42 -22 59t-71 17h-31v43h26q85 0 85 69q0 68 -78 68q-47 0 -84 -12v36q48 25 108 25q61 0 95.5 -27t34.5 -77q0 -74 -81 -98v-2q98 -17 98 -106q0 -56 -41 -88t-113 -32zM143 -40l480 753h69l-480 -753
h-69zM678 -8q-76 0 -117 29.5t-41 81.5q0 72 92 106q-75 35 -75 105q0 47 38 78t102 31t102 -27t38 -74q0 -64 -78 -98q97 -37 97 -111q0 -55 -41.5 -88t-116.5 -33zM698 242q52 27 52 77q0 62 -71 62q-32 0 -51.5 -15.5t-19.5 -40.5q0 -32 20.5 -49.5t69.5 -33.5zM675 34
q87 0 87 67q0 32 -25 49.5t-88 40.5q-61 -31 -61 -85q0 -72 87 -72z" />
    <glyph glyph-name="fiveeighths" unicode="&#x215d;" horiz-adv-x="854" 
d="M137 275q-61 0 -112 30v37q49 -17 92 -17q47 0 74 21.5t27 62.5q0 84 -103 84q-23 0 -67 -7l16 212h219l-6 -60h-170l-8 -102q24 6 52 6q70 0 109 -34.5t39 -94.5q0 -62 -43.5 -100t-118.5 -38zM127 -40l480 753h69l-480 -753h-69zM660 -8q-76 0 -117 29.5t-41 81.5
q0 72 92 106q-75 35 -75 105q0 47 38 78t102 31t102 -27t38 -74q0 -64 -78 -98q97 -37 97 -111q0 -55 -41.5 -88t-116.5 -33zM680 242q52 27 52 77q0 62 -71 62q-32 0 -51.5 -15.5t-19.5 -40.5q0 -32 20.5 -49.5t69.5 -33.5zM657 34q87 0 87 67q0 32 -25 49.5t-88 40.5
q-61 -31 -61 -85q0 -72 87 -72z" />
    <glyph glyph-name="seveneighths" unicode="&#x215e;" horiz-adv-x="823" 
d="M163 282h-85l195 353v3h-183l-17 -46h-39l6 106h281v-51zM83 -40l480 753h69l-480 -753h-69zM629 -8q-76 0 -117 29.5t-41 81.5q0 72 92 106q-75 35 -75 105q0 47 38 78t102 31t102 -27t38 -74q0 -64 -78 -98q97 -37 97 -111q0 -55 -41.5 -88t-116.5 -33zM649 242
q52 27 52 77q0 62 -71 62q-32 0 -51.5 -15.5t-19.5 -40.5q0 -32 20.5 -49.5t69.5 -33.5zM626 34q87 0 87 67q0 32 -25 49.5t-88 40.5q-61 -31 -61 -85q0 -72 87 -72z" />
    <glyph glyph-name="minus" unicode="&#x2212;" horiz-adv-x="526" 
d="M58 309v62h410v-62h-410z" />
    <glyph glyph-name="uni24C5" unicode="&#x24c5;" horiz-adv-x="788" 
d="M393 -14q-150 0 -252 104.5t-102 253.5t102 252.5t252 103.5q149 0 252.5 -104t103.5 -252t-103.5 -253t-252.5 -105zM393 27q132 0 217.5 92t85.5 225t-85.5 224.5t-217.5 91.5q-133 0 -218 -91.5t-85 -224.5t85 -225t218 -92zM247 154v31l44 12v295l-44 9v31h147
q156 0 156 -108q0 -55 -34 -82.5t-86 -27.5q-28 0 -40 5v32q7 -1 21 -1q36 0 50.5 16t14.5 55q0 38 -17.5 54.5t-58.5 16.5h-35v-295l52 -12v-31h-170z" />
    <glyph glyph-name="space_uni0326" 
d="M181 -182q15 54 15 140h94q-10 -90 -52 -140h-57z" />
    <glyph glyph-name="caron.alt" 
d="M252 569l-41 7l15 166l85 -16z" />
    <glyph glyph-name="space_uni0326.alt" 
d="M302 746q-15 -54 -15 -140h-94q10 90 52 140h57z" />
    <glyph glyph-name="acute.pl" 
d="M277 569l-40 19l63 156l80 -47z" />
    <glyph glyph-name="grave.uc" 
d="M324 728l-206 66l36 76l186 -106z" />
    <glyph glyph-name="dieresis.uc" 
d="M161 737q-22 0 -38 16.5t-16 37.5q0 22 16 38t38 16q23 0 39 -15.5t16 -38.5q0 -21 -16 -37.5t-39 -16.5zM327 737q-22 0 -38.5 16.5t-16.5 37.5q0 22 16 38t39 16t38.5 -15.5t15.5 -38.5q0 -21 -16 -37.5t-38 -16.5z" />
    <glyph glyph-name="macron.uc" 
d="M122 755v62h244v-62h-244z" />
    <glyph glyph-name="acute.uc" 
d="M370 794l-206 -66l-16 36l186 106z" />
    <glyph glyph-name="circumflex.uc" 
d="M119 732l-17 31l119 98h46l119 -98l-17 -31l-125 55z" />
    <glyph glyph-name="caron.uc" 
d="M369 869l17 -31l-119 -98h-46l-119 98l17 31l125 -55z" />
    <glyph glyph-name="breve.uc" 
d="M269 736q-55 0 -90 32t-40 82h57q15 -46 73 -46q57 0 72 46h57q-5 -49 -40 -81.5t-89 -32.5z" />
    <glyph glyph-name="dotaccent.uc" 
d="M244 738q-23 0 -40 17t-17 39q0 23 17 39.5t40 16.5q24 0 40.5 -16.5t16.5 -39.5q0 -22 -16.5 -39t-40.5 -17z" />
    <glyph glyph-name="ring.uc" 
d="M244 723q-39 0 -66 26t-27 62q0 37 27 63t66 26t66 -26t27 -63q0 -36 -27 -62t-66 -26zM244 762q22 0 35.5 13.5t13.5 35.5t-13.5 36t-35.5 14t-35.5 -14t-13.5 -36t13.5 -35.5t35.5 -13.5z" />
    <glyph glyph-name="tilde.uc" 
d="M134 736l-40 18q38 93 98 93q23 0 59.5 -17t48.5 -17q29 0 54 41l40 -18q-38 -93 -98 -93q-23 0 -59.5 17t-48.5 17q-29 0 -54 -41z" />
    <glyph glyph-name="hungarumlaut.uc" 
d="M319 733l-30 23l88 126l65 -47zM159 733l-30 23l88 126l65 -47z" />
    <glyph glyph-name="acute.ucpl" 
d="M286 728l-48 19l61 145l80 -46z" />
    <glyph glyph-name="Cacute.pl" horiz-adv-x="603" 
d="M351 -12q-152 0 -237.5 84.5t-85.5 265.5q0 80 19 144t50.5 105t75.5 68t92 38.5t102 11.5q111 0 191 -26l5 -169h-46l-41 114q-57 25 -121 25q-110 0 -165.5 -75.5t-55.5 -215.5q0 -156 55.5 -234.5t175.5 -78.5q64 0 115 28l41 124h48l-6 -174q-83 -35 -212 -35z
M361 728l-48 19l61 145l80 -46z" />
    <glyph glyph-name="Nacute.pl" horiz-adv-x="707" 
d="M20 0v39l89 20v574l-89 19v41h222l302 -516h5v455l-88 20v41h236v-40l-79 -20v-633h-79l-356 608h-4v-548l89 -20v-40h-248zM382 728l-48 19l61 145l80 -46z" />
    <glyph glyph-name="Oacute.pl" horiz-adv-x="682" 
d="M340 -12q-135 0 -223.5 95t-88.5 264q0 89 27 159.5t72.5 113t100.5 64t115 21.5q135 0 223 -94t88 -262q0 -89 -27 -160t-72 -114t-100 -65t-115 -22zM342 45q101 0 153.5 80t52.5 212q0 312 -209 312q-102 0 -153.5 -80.5t-51.5 -212.5q0 -311 208 -311zM346 728
l-48 19l61 145l80 -46z" />
    <glyph glyph-name="Sacute.pl" horiz-adv-x="519" 
d="M248 -12q-107 0 -195 34l-7 158h48l32 -102q59 -32 132 -32q67 0 104 35t37 87q0 51 -30 79.5t-96 56.5l-84 36q-131 54 -131 183q0 79 56 131t162 52q96 0 171 -25l7 -148h-47l-27 89q-49 26 -112 26q-55 0 -90.5 -26t-35.5 -76q0 -44 24.5 -71t79.5 -50l84 -35
q79 -34 119.5 -74.5t40.5 -118.5q0 -89 -60.5 -149t-181.5 -60zM286 728l-48 19l61 145l80 -46z" />
    <glyph glyph-name="Zacute.pl" horiz-adv-x="530" 
d="M11 0v46l384 586v4h-273l-43 -132h-49l10 189h476v-46l-385 -586v-4h297l44 132h48l-10 -189h-499zM293 728l-48 19l61 145l80 -46z" />
    <glyph glyph-name="cacute.pl" horiz-adv-x="452" 
d="M273 -12q-118 0 -183 71t-65 193q0 137 75 204t194 67q71 0 133 -20v-129h-52l-20 85q-29 9 -72 9q-77 0 -120 -52t-43 -153q0 -111 49 -160t130 -49q86 0 138 26v-46q-66 -46 -164 -46zM279 569l-40 19l63 156l80 -47z" />
    <glyph glyph-name="idotaccent" horiz-adv-x="269" 
d="M15 0v34l74 16v393l-80 16v38l161 24l11 -6v-465l75 -16v-34h-241zM131 605q-23 0 -40 17t-17 39q0 23 17 39.5t40 16.5q24 0 40.5 -16.5t16.5 -39.5q0 -22 -16.5 -39t-40.5 -17z" />
    <glyph glyph-name="nacute.pl" horiz-adv-x="582" 
d="M14 0v34l75 16v393l-75 16v38l151 24l11 -6v-45h6q91 53 172 53q73 0 108.5 -31.5t35.5 -105.5v-336l75 -16v-34h-240v34l73 16v312q0 51 -25.5 70.5t-81.5 19.5q-51 0 -118 -23v-379l73 -16v-34h-240zM289 569l-40 19l63 156l80 -47z" />
    <glyph glyph-name="oacute.pl" horiz-adv-x="541" 
d="M272 -13q-111 0 -179 73t-68 193q0 119 70.5 194.5t173.5 75.5q111 0 179 -72.5t68 -192.5q0 -119 -71 -195t-173 -76zM273 42q64 0 105.5 49t41.5 159q0 113 -43.5 165.5t-108.5 52.5q-64 0 -105.5 -49t-41.5 -159q0 -113 43.5 -165.5t108.5 -52.5zM277 569l-40 19
l63 156l80 -47z" />
    <glyph glyph-name="sacute.pl" horiz-adv-x="418" 
d="M193 -13q-75 0 -159 28l-8 138h48l27 -89q42 -22 99 -22q49 0 79 20t30 58q0 37 -20.5 55.5t-76.5 36.5l-55 18q-62 20 -93.5 54.5t-31.5 89.5q0 63 48.5 105.5t136.5 42.5q77 0 142 -19v-130h-45l-24 78q-29 17 -82 17q-97 0 -97 -72q0 -33 21.5 -52t77.5 -36l55 -18
q69 -23 98 -56.5t29 -88.5q0 -69 -52 -113.5t-147 -44.5zM218 569l-40 19l63 156l80 -47z" />
    <glyph glyph-name="zacute.pl" horiz-adv-x="472" 
d="M27 0v48l299 411v4h-204l-30 -111h-47l8 161h381v-46l-299 -413v-4h216l37 122h48l-13 -172h-396zM254 569l-40 19l63 156l80 -47z" />
    <glyph glyph-name="dollar.old" horiz-adv-x="490" 
d="M225 -108h-57l11 99q-75 5 -136 29l-7 143h46l31 -94q35 -18 72 -23l29 253l-36 15q-135 55 -135 171q0 76 53 123t157 47h1l8 64h57l-8 -68q42 -5 107 -26l7 -125h-46l-26 82q-29 11 -48 14l-26 -224l24 -9q74 -30 115 -70t41 -111q0 -84 -55 -137t-168 -56zM373 157
q0 45 -25.5 71.5t-79.5 48.5l-26 -234q66 1 98.5 31.5t32.5 82.5zM123 505q0 -41 24 -65t77 -45l1 -1l23 207h-3q-54 0 -88 -25t-34 -71z" />
    <glyph glyph-name="Euro.old" horiz-adv-x="603" 
d="M107 229h-80v50h74q-1 14 -1 43q0 25 1 37h-74v50h79q15 87 60.5 144t103.5 79.5t128 22.5q73 0 153 -26l5 -158h-43l-41 109q-39 21 -86 21q-161 0 -185 -192h215v-50h-219v-19q0 -23 2 -61h217v-50h-211q16 -91 64 -134t133 -43q75 0 158 32v-44q-75 -52 -176 -52
q-111 0 -184 60.5t-93 180.5z" />
    <glyph glyph-name="sterling.old" horiz-adv-x="520" 
d="M129 293h-65v59h65v77q0 112 63 169t147 57q87 0 142 -42v-47q-57 21 -117 21q-138 0 -144 -162l-3 -73h177v-59h-179l-1 -36q-3 -69 -19.5 -104.5t-52.5 -71.5v-2h345l-10 -79h-438v47q47 29 68.5 72t21.5 113v61z" />
    <glyph glyph-name="yen.old" horiz-adv-x="567" 
d="M72 272v50h150l-167 261l-51 19v41h226v-41l-70 -19l145 -236h4l136 236l-71 19v41h189v-41l-50 -19l-156 -261h152v-50h-170v-65h170v-50h-170v-97l86 -19v-41h-271v41l88 19v97h-170v50h170v65h-170z" />
    <glyph glyph-name="zero.old" horiz-adv-x="598" 
d="M301 -13q-117 0 -191 76.5t-74 227.5q0 155 75 234.5t188 79.5t188 -77t75 -230t-73 -232t-188 -79zM301 42q81 0 121.5 59.5t40.5 189.5q0 128 -42 193.5t-122 65.5q-164 0 -164 -252q0 -256 166 -256z" />
    <glyph glyph-name="one.old" horiz-adv-x="378" 
d="M43 0v38l103 17v449l-113 -11v38l187 71h26v-547l103 -17v-38h-306z" />
    <glyph glyph-name="two.old" horiz-adv-x="474" 
d="M10 0v45l161 140q153 132 153 231q0 120 -143 120q-64 0 -148 -30v46q86 53 190 53q94 0 148.5 -45.5t54.5 -131.5q0 -38 -13.5 -72t-46 -69.5t-66.5 -65t-93 -74.5l-89 -68v-2h248l46 85h39l-12 -162h-429z" />
    <glyph glyph-name="three.old" horiz-adv-x="476" 
d="M204 -111q-106 0 -191 47v45q83 -30 162 -30q76 0 122.5 37t46.5 100q0 80 -39.5 112.5t-127.5 32.5h-44v57h36q73 0 112 34t39 96t-32.5 92.5t-102.5 30.5q-73 0 -143 -24v45q80 41 171 41q96 0 148 -44.5t52 -126.5q0 -63 -34 -105.5t-98 -59.5v-4q160 -27 160 -178
q0 -90 -64.5 -144t-172.5 -54z" />
    <glyph glyph-name="four.old" horiz-adv-x="566" 
d="M325 -100v189h-311v56l330 448h75v-443h112v-61h-112v-189h-94zM88 150h237v317h-4l-233 -314v-3z" />
    <glyph glyph-name="five.old" horiz-adv-x="481" 
d="M194 -111q-90 0 -173 47v45q88 -31 150 -31q80 0 129 42.5t49 116.5q0 80 -42 117.5t-132 37.5q-34 0 -112 -13l26 342h335l-8 -80h-272l-15 -193q44 10 90 10q111 0 169 -57t58 -156q0 -103 -70 -165.5t-182 -62.5z" />
    <glyph glyph-name="six.old" horiz-adv-x="542" 
d="M280 -13q-114 0 -179 87.5t-65 237.5q0 101 27 178.5t72 123t100 68.5t116 23q88 0 139 -34v-46q-47 20 -125 20q-93 0 -156.5 -63.5t-74.5 -214.5q81 58 177 58q87 0 143 -55.5t56 -152.5q0 -100 -61.5 -165t-168.5 -65zM279 40q67 0 100 45t33 123q0 79 -36 118t-98 39
q-83 0 -145 -46v-15q0 -264 146 -264z" />
    <glyph glyph-name="seven.old" horiz-adv-x="472" 
d="M90 -100l305 609v4h-312l-29 -76h-42l9 156h432v-69l-258 -624h-105z" />
    <glyph glyph-name="eight.old" horiz-adv-x="558" 
d="M282 -13q-114 0 -179 48.5t-65 134.5q0 64 44.5 111t104.5 69q-121 60 -121 178q0 75 57 126t151 51q97 0 156 -44t59 -123q0 -108 -126 -164q157 -66 157 -190q0 -88 -61.5 -142.5t-176.5 -54.5zM279 39q76 0 114 34t38 93t-42.5 90.5t-151.5 72.5q-114 -50 -114 -154
q0 -65 40 -100.5t116 -35.5zM310 394q96 50 96 139q0 60 -37.5 90t-92.5 30q-56 0 -91.5 -31t-35.5 -79q0 -56 37 -87.5t124 -61.5z" />
    <glyph glyph-name="nine.old" horiz-adv-x="542" 
d="M191 -113q-88 0 -139 34v46q47 -20 125 -20q99 0 159.5 62.5t71.5 215.5q-81 -58 -177 -58q-87 0 -143 55.5t-56 152.5q0 100 61.5 165t168.5 65q114 0 179 -87.5t65 -237.5q0 -199 -87 -296t-228 -97zM264 227q83 0 145 46v15q0 264 -146 264q-67 0 -100 -45t-33 -123
q0 -79 36 -118t98 -39z" />
    <glyph glyph-name="percent.old" horiz-adv-x="789" 
d="M186 287q-69 0 -114 45t-45 126q0 84 46 130.5t114 46.5q67 0 113 -45.5t46 -127.5t-45.5 -128.5t-114.5 -46.5zM602 -9q-69 0 -114 45t-45 126q0 84 46 130.5t114 46.5q67 0 113 -45.5t46 -127.5t-45.5 -128.5t-114.5 -46.5zM127 -30l460 673h69l-460 -673h-69zM602 37
q79 0 79 125q0 132 -78 132q-80 0 -80 -128q0 -129 79 -129zM186 333q79 0 79 125q0 132 -78 132q-80 0 -80 -128q0 -129 79 -129z" />
    <glyph glyph-name="perthousand.old" horiz-adv-x="1148" 
d="M186 287q-69 0 -114 45t-45 126q0 84 46 130.5t114 46.5q67 0 113 -45.5t46 -127.5t-45.5 -128.5t-114.5 -46.5zM594 -9q-69 0 -114 45t-45 126q0 84 46 130.5t114 46.5q67 0 113 -45.5t46 -127.5t-45.5 -128.5t-114.5 -46.5zM961 -9q-69 0 -114 45t-45 126
q0 84 46 130.5t114 46.5q67 0 113 -45.5t46 -127.5t-45.5 -128.5t-114.5 -46.5zM123 -30l460 673h69l-460 -673h-69zM594 37q79 0 79 125q0 132 -78 132q-80 0 -80 -128q0 -129 79 -129zM961 37q79 0 79 125q0 132 -78 132q-80 0 -80 -128q0 -129 79 -129zM186 333
q79 0 79 125q0 132 -78 132q-80 0 -80 -128q0 -129 79 -129z" />
    <glyph glyph-name="plus.old" horiz-adv-x="526" 
d="M230 522h66v-179h172v-62h-172v-179h-66v179h-172v62h172v179z" />
    <glyph glyph-name="minus.old" horiz-adv-x="526" 
d="M58 281v62h410v-62h-410z" />
    <glyph glyph-name="multiply.old" horiz-adv-x="526" 
d="M115 119l-44 44l148 148l-148 149l44 44l148 -149l148 148l44 -44l-148 -148l149 -148l-44 -44l-149 148z" />
    <glyph glyph-name="divide.old" horiz-adv-x="526" 
d="M58 281v62h410v-62h-410zM262 87q-26 0 -44 18.5t-18 42.5q0 26 18 44t44 18t44.5 -18t18.5 -44q0 -24 -19 -42.5t-44 -18.5zM262 414q-26 0 -44 18.5t-18 42.5q0 26 18 44t44 18t44.5 -18t18.5 -44q0 -24 -19 -42.5t-44 -18.5z" />
    <glyph glyph-name="equal.old" horiz-adv-x="516" 
d="M61 336v62h394v-62h-394zM61 166v62h394v-62h-394z" />
    <glyph glyph-name="less.old" horiz-adv-x="506" 
d="M61 337l374 175v-71l-294 -129l294 -130v-71l-374 175v51z" />
    <glyph glyph-name="greater.old" horiz-adv-x="506" 
d="M445 286l-374 -175v71l294 129l-294 130v71l374 -175v-51z" />
    <glyph glyph-name="numbersign.old" horiz-adv-x="507" 
d="M64 385v84h94l27 174h60l-27 -174h116l27 174h60l-27 -174h80v-84h-93l-18 -116h80v-84h-93l-29 -185h-60l29 185h-116l-29 -185h-60l29 185h-81v84h94l18 116h-81zM205 385l-18 -116h116l18 116h-116z" />
    <glyph glyph-name="zero.num" horiz-adv-x="416" 
d="M208 274q-78 0 -126 53.5t-48 159.5q0 108 49.5 163t125.5 55q77 0 125 -53.5t48 -160.5t-48.5 -162t-125.5 -55zM209 317q48 0 71 41t23 129q0 175 -94 175q-95 0 -95 -171q0 -174 95 -174z" />
    <glyph glyph-name="one.num" horiz-adv-x="283" 
d="M245 282h-199v34l61 10v303l-67 -6v33l117 47h27v-377l61 -10v-34z" />
    <glyph glyph-name="two.num" horiz-adv-x="340" 
d="M301 282h-280v39l103 101q46 46 69 80.5t23 71.5q0 76 -88 76q-36 0 -90 -18v39q60 34 121 34q64 0 100.5 -31t36.5 -90q0 -46 -32.5 -90t-99.5 -99l-67 -55v-1h148l26 53h38z" />
    <glyph glyph-name="three.num" horiz-adv-x="340" 
d="M153 275q-67 0 -119 29v37q50 -16 97 -16q45 0 70.5 19t25.5 56q0 42 -22 59t-71 17h-31v43h26q85 0 85 69q0 68 -78 68q-46 0 -84 -12v36q48 25 108 25q61 0 95.5 -27t34.5 -77q0 -74 -81 -98v-2q98 -17 98 -106q0 -56 -41 -88t-113 -32z" />
    <glyph glyph-name="four.num" horiz-adv-x="384" 
d="M343 282h-184v34l55 10v76h-188v41l199 255h64v-250h62v-46h-62v-76l54 -10v-34zM85 449v-1h129v165h-3z" />
    <glyph glyph-name="five.num" horiz-adv-x="330" 
d="M134 275q-61 0 -112 30v37q49 -17 92 -17q47 0 74 21.5t27 62.5q0 84 -103 84q-23 0 -67 -7l16 212h219l-6 -60h-170l-8 -102q24 6 52 6q70 0 109 -34.5t39 -94.5q0 -62 -43.5 -100t-118.5 -38z" />
    <glyph glyph-name="six.num" horiz-adv-x="384" 
d="M198 274q-76 0 -119.5 53t-43.5 145q0 118 57 175.5t141 57.5q59 0 93 -22v-39q-25 11 -79 11q-122 0 -133 -146q54 31 107 31q58 0 93.5 -33.5t35.5 -91.5q0 -61 -40.5 -101t-111.5 -40zM197 317q38 0 57.5 24.5t19.5 67.5q0 84 -78 84q-48 0 -82 -21v-12
q0 -143 83 -143z" />
    <glyph glyph-name="seven.num" horiz-adv-x="334" 
d="M160 282h-85l195 353v3h-183l-17 -46h-39l6 106h281v-51z" />
    <glyph glyph-name="eight.num" horiz-adv-x="382" 
d="M191 274q-76 0 -117 29.5t-41 81.5q0 72 92 106q-75 35 -75 105q0 47 38 78t102 31t102 -27t38 -74q0 -64 -78 -98q97 -37 97 -111q0 -55 -41.5 -88t-116.5 -33zM211 524q52 27 52 77q0 62 -71 62q-32 0 -51.5 -15.5t-19.5 -40.5q0 -32 20.5 -49.5t69.5 -33.5zM188 316
q87 0 87 67q0 32 -25 49.5t-88 40.5q-61 -31 -61 -85q0 -72 87 -72z" />
    <glyph glyph-name="nine.num" horiz-adv-x="381" 
d="M146 274q-52 0 -91 22v39q35 -11 77 -11q62 0 96.5 32t40.5 114q-52 -31 -108 -31q-57 0 -92.5 34t-35.5 92q0 61 40.5 100.5t112.5 39.5q75 0 118 -53.5t43 -143.5q0 -119 -53.5 -176.5t-147.5 -57.5zM188 487q48 0 81 21v11q0 143 -83 143q-37 0 -56.5 -24.5
t-19.5 -67.5q0 -83 78 -83z" />
    <glyph glyph-name="zero.den" horiz-adv-x="416" 
d="M208 -8q-78 0 -126 53.5t-48 159.5q0 108 49.5 163t125.5 55q77 0 125 -53.5t48 -160.5t-48.5 -162t-125.5 -55zM209 35q48 0 71 41t23 129q0 175 -94 175q-95 0 -95 -171q0 -174 95 -174z" />
    <glyph glyph-name="one.den" horiz-adv-x="283" 
d="M245 0h-199v34l61 10v303l-67 -6v33l117 47h27v-377l61 -10v-34z" />
    <glyph glyph-name="two.den" horiz-adv-x="340" 
d="M301 0h-280v39l103 101q46 46 69 80.5t23 71.5q0 76 -88 76q-36 0 -90 -18v39q60 34 121 34q64 0 100.5 -31t36.5 -90q0 -46 -32.5 -90t-99.5 -99l-67 -55v-1h148l26 53h38z" />
    <glyph glyph-name="three.den" horiz-adv-x="340" 
d="M153 -7q-67 0 -119 29v37q50 -16 97 -16q45 0 70.5 19t25.5 56q0 42 -22 59t-71 17h-31v43h26q85 0 85 69q0 68 -78 68q-46 0 -84 -12v36q48 25 108 25q61 0 95.5 -27t34.5 -77q0 -74 -81 -98v-2q98 -17 98 -106q0 -56 -41 -88t-113 -32z" />
    <glyph glyph-name="four.den" horiz-adv-x="384" 
d="M343 0h-184v34l55 10v76h-188v41l199 255h64v-250h62v-46h-62v-76l54 -10v-34zM85 167v-1h129v165h-3z" />
    <glyph glyph-name="five.den" horiz-adv-x="330" 
d="M134 -7q-61 0 -112 30v37q49 -17 92 -17q47 0 74 21.5t27 62.5q0 84 -103 84q-23 0 -67 -7l16 212h219l-6 -60h-170l-8 -102q24 6 52 6q70 0 109 -34.5t39 -94.5q0 -62 -43.5 -100t-118.5 -38z" />
    <glyph glyph-name="six.den" horiz-adv-x="384" 
d="M198 -8q-76 0 -119.5 53t-43.5 145q0 118 57 175.5t141 57.5q59 0 93 -22v-39q-25 11 -79 11q-122 0 -133 -146q54 31 107 31q58 0 93.5 -33.5t35.5 -91.5q0 -61 -40.5 -101t-111.5 -40zM197 35q38 0 57.5 24.5t19.5 67.5q0 84 -78 84q-48 0 -82 -21v-12q0 -143 83 -143z
" />
    <glyph glyph-name="seven.den" horiz-adv-x="334" 
d="M160 0h-85l195 353v3h-183l-17 -46h-39l6 106h281v-51z" />
    <glyph glyph-name="eight.den" horiz-adv-x="382" 
d="M191 -8q-76 0 -117 29.5t-41 81.5q0 72 92 106q-75 35 -75 105q0 47 38 78t102 31t102 -27t38 -74q0 -64 -78 -98q97 -37 97 -111q0 -55 -41.5 -88t-116.5 -33zM211 242q52 27 52 77q0 62 -71 62q-32 0 -51.5 -15.5t-19.5 -40.5q0 -32 20.5 -49.5t69.5 -33.5zM188 34
q87 0 87 67q0 32 -25 49.5t-88 40.5q-61 -31 -61 -85q0 -72 87 -72z" />
    <glyph glyph-name="nine.den" horiz-adv-x="381" 
d="M146 -8q-52 0 -91 22v39q35 -11 77 -11q62 0 96.5 32t40.5 114q-52 -31 -108 -31q-57 0 -92.5 34t-35.5 92q0 61 40.5 100.5t112.5 39.5q75 0 118 -53.5t43 -143.5q0 -119 -53.5 -176.5t-147.5 -57.5zM188 205q48 0 81 21v11q0 143 -83 143q-37 0 -56.5 -24.5
t-19.5 -67.5q0 -83 78 -83z" />
    <glyph glyph-name="zero.sub" horiz-adv-x="416" 
d="M208 -128q-78 0 -126 53.5t-48 159.5q0 108 49.5 163t125.5 55q77 0 125 -53.5t48 -160.5t-48.5 -162t-125.5 -55zM209 -85q48 0 71 41t23 129q0 175 -94 175q-95 0 -95 -171q0 -174 95 -174z" />
    <glyph glyph-name="one.sub" horiz-adv-x="283" 
d="M245 -120h-199v34l61 10v303l-67 -6v33l117 47h27v-377l61 -10v-34z" />
    <glyph glyph-name="two.sub" horiz-adv-x="340" 
d="M301 -120h-280v39l103 101q46 46 69 80.5t23 71.5q0 76 -88 76q-36 0 -90 -18v39q60 34 121 34q64 0 100.5 -31t36.5 -90q0 -46 -32.5 -90t-99.5 -99l-67 -55v-1h148l26 53h38z" />
    <glyph glyph-name="three.sub" horiz-adv-x="340" 
d="M153 -127q-67 0 -119 29v37q50 -16 97 -16q45 0 70.5 19t25.5 56q0 42 -22 59t-71 17h-31v43h26q85 0 85 69q0 68 -78 68q-46 0 -84 -12v36q48 25 108 25q61 0 95.5 -27t34.5 -77q0 -74 -81 -98v-2q98 -17 98 -106q0 -56 -41 -88t-113 -32z" />
    <glyph glyph-name="four.sub" horiz-adv-x="384" 
d="M343 -120h-184v34l55 10v76h-188v41l199 255h64v-250h62v-46h-62v-76l54 -10v-34zM85 47v-1h129v165h-3z" />
    <glyph glyph-name="five.sub" horiz-adv-x="330" 
d="M134 -127q-61 0 -112 30v37q49 -17 92 -17q47 0 74 21.5t27 62.5q0 84 -103 84q-23 0 -67 -7l16 212h219l-6 -60h-170l-8 -102q24 6 52 6q70 0 109 -34.5t39 -94.5q0 -62 -43.5 -100t-118.5 -38z" />
    <glyph glyph-name="six.sub" horiz-adv-x="384" 
d="M198 -128q-76 0 -119.5 53t-43.5 145q0 118 57 175.5t141 57.5q59 0 93 -22v-39q-25 11 -79 11q-122 0 -133 -146q54 31 107 31q58 0 93.5 -33.5t35.5 -91.5q0 -61 -40.5 -101t-111.5 -40zM197 -85q38 0 57.5 24.5t19.5 67.5q0 84 -78 84q-48 0 -82 -21v-12
q0 -143 83 -143z" />
    <glyph glyph-name="seven.sub" horiz-adv-x="334" 
d="M160 -120h-85l195 353v3h-183l-17 -46h-39l6 106h281v-51z" />
    <glyph glyph-name="eight.sub" horiz-adv-x="382" 
d="M191 -128q-76 0 -117 29.5t-41 81.5q0 72 92 106q-75 35 -75 105q0 47 38 78t102 31t102 -27t38 -74q0 -64 -78 -98q97 -37 97 -111q0 -55 -41.5 -88t-116.5 -33zM211 122q52 27 52 77q0 62 -71 62q-32 0 -51.5 -15.5t-19.5 -40.5q0 -32 20.5 -49.5t69.5 -33.5zM188 -86
q87 0 87 67q0 32 -25 49.5t-88 40.5q-61 -31 -61 -85q0 -72 87 -72z" />
    <glyph glyph-name="nine.sub" horiz-adv-x="381" 
d="M146 -128q-52 0 -91 22v39q35 -11 77 -11q62 0 96.5 32t40.5 114q-52 -31 -108 -31q-57 0 -92.5 34t-35.5 92q0 61 40.5 100.5t112.5 39.5q75 0 118 -53.5t43 -143.5q0 -119 -53.5 -176.5t-147.5 -57.5zM188 85q48 0 81 21v11q0 143 -83 143q-37 0 -56.5 -24.5
t-19.5 -67.5q0 -83 78 -83z" />
    <glyph glyph-name="zero.sup" horiz-adv-x="416" 
d="M208 314q-78 0 -126 53.5t-48 159.5q0 108 49.5 163t125.5 55q77 0 125 -53.5t48 -160.5t-48.5 -162t-125.5 -55zM209 357q48 0 71 41t23 129q0 175 -94 175q-95 0 -95 -171q0 -174 95 -174z" />
    <glyph glyph-name="one.sup" horiz-adv-x="283" 
d="M245 322h-199v34l61 10v303l-67 -6v33l117 47h27v-377l61 -10v-34z" />
    <glyph glyph-name="two.sup" horiz-adv-x="340" 
d="M301 322h-280v39l103 101q46 46 69 80.5t23 71.5q0 76 -88 76q-36 0 -90 -18v39q60 34 121 34q64 0 100.5 -31t36.5 -90q0 -46 -32.5 -90t-99.5 -99l-67 -55v-1h148l26 53h38z" />
    <glyph glyph-name="three.sup" horiz-adv-x="340" 
d="M153 315q-67 0 -119 29v37q50 -16 97 -16q45 0 70.5 19t25.5 56q0 42 -22 59t-71 17h-31v43h26q85 0 85 69q0 68 -78 68q-46 0 -84 -12v36q48 25 108 25q61 0 95.5 -27t34.5 -77q0 -74 -81 -98v-2q98 -17 98 -106q0 -56 -41 -88t-113 -32z" />
    <glyph glyph-name="four.sup" horiz-adv-x="384" 
d="M343 322h-184v34l55 10v76h-188v41l199 255h64v-250h62v-46h-62v-76l54 -10v-34zM85 489v-1h129v165h-3z" />
    <glyph glyph-name="five.sup" horiz-adv-x="330" 
d="M134 315q-61 0 -112 30v37q49 -17 92 -17q47 0 74 21.5t27 62.5q0 84 -103 84q-23 0 -67 -7l16 212h219l-6 -60h-170l-8 -102q24 6 52 6q70 0 109 -34.5t39 -94.5q0 -62 -43.5 -100t-118.5 -38z" />
    <glyph glyph-name="six.sup" horiz-adv-x="384" 
d="M198 314q-76 0 -119.5 53t-43.5 145q0 118 57 175.5t141 57.5q59 0 93 -22v-39q-25 11 -79 11q-122 0 -133 -146q54 31 107 31q58 0 93.5 -33.5t35.5 -91.5q0 -61 -40.5 -101t-111.5 -40zM197 357q38 0 57.5 24.5t19.5 67.5q0 84 -78 84q-48 0 -82 -21v-12
q0 -143 83 -143z" />
    <glyph glyph-name="seven.sup" horiz-adv-x="334" 
d="M160 322h-85l195 353v3h-183l-17 -46h-39l6 106h281v-51z" />
    <glyph glyph-name="eight.sup" horiz-adv-x="382" 
d="M191 314q-76 0 -117 29.5t-41 81.5q0 72 92 106q-75 35 -75 105q0 47 38 78t102 31t102 -27t38 -74q0 -64 -78 -98q97 -37 97 -111q0 -55 -41.5 -88t-116.5 -33zM211 564q52 27 52 77q0 62 -71 62q-32 0 -51.5 -15.5t-19.5 -40.5q0 -32 20.5 -49.5t69.5 -33.5zM188 356
q87 0 87 67q0 32 -25 49.5t-88 40.5q-61 -31 -61 -85q0 -72 87 -72z" />
    <glyph glyph-name="nine.sup" horiz-adv-x="381" 
d="M146 314q-52 0 -91 22v39q35 -11 77 -11q62 0 96.5 32t40.5 114q-52 -31 -108 -31q-57 0 -92.5 34t-35.5 92q0 61 40.5 100.5t112.5 39.5q75 0 118 -53.5t43 -143.5q0 -119 -53.5 -176.5t-147.5 -57.5zM188 527q48 0 81 21v11q0 143 -83 143q-37 0 -56.5 -24.5
t-19.5 -67.5q0 -83 78 -83z" />
    <glyph glyph-name="K.alt" horiz-adv-x="658" 
d="M20 0v41l88 18v575l-88 18v41h279v-41l-91 -18v-314l274 314l-67 18v41h215v-41l-67 -18l-211 -235l227 -339l75 -19v-41h-153l-219 327l-74 -70v-198l91 -18v-41h-279z" />
    <glyph glyph-name="P.alt" horiz-adv-x="553" 
d="M20 0v41l88 19v574l-88 18v41h257q141 0 202 -50t61 -144q0 -209 -237 -209q-52 0 -95 8v-238l105 -19v-41h-293zM208 634v-288q40 -4 81 -4q82 0 114.5 36.5t32.5 113.5q0 75 -33 108.5t-106 33.5h-89z" />
    <glyph glyph-name="R.alt" horiz-adv-x="647" 
d="M419 346v-4q67 -14 98 -45t31 -97v-90q0 -36 15.5 -49t48.5 -13h27v-39q-28 -18 -77 -18q-114 0 -114 120v96q0 58 -27.5 81t-107.5 23h-103v-251l86 -19v-41h-276v41l90 19v573l-87 19v41h270q133 0 194.5 -46t61.5 -138q0 -128 -130 -163zM210 362h108q71 0 100 36.5
t29 108.5q0 68 -32.5 97.5t-107.5 29.5h-97v-272z" />
    <glyph glyph-name="a.alt" horiz-adv-x="473" 
d="M189 465q-29 0 -60 -6l-21 -85h-54v121q84 28 177 28q86 0 125.5 -36.5t39.5 -114.5v-295q0 -23 11.5 -30.5t36.5 -7.5h25v-34q-30 -15 -81 -15q-64 0 -74 53h-6q-52 -56 -136 -56q-69 0 -112.5 38t-43.5 102q0 62 39.5 92t117.5 46l131 27v54q0 67 -21.5 93t-93.5 26z
M205 49q58 0 99 37v147l-102 -8q-50 -4 -71 -26t-21 -62q0 -41 24 -64.5t71 -23.5z" />
    <glyph glyph-name="k.alt" horiz-adv-x="529" 
d="M14 0v34l75 15v621l-75 16v38l155 23l12 -6v-459l44 12l140 168l-60 15v36h202v-36l-73 -15l-140 -166l170 -246l65 -16v-34h-136l-170 245l-42 -3v-193l77 -15v-34h-244z" />
    <glyph glyph-name="Kcommaaccent.alt" horiz-adv-x="658" 
d="M20 0v41l88 18v575l-88 18v41h279v-41l-91 -18v-314l274 314l-67 18v41h215v-41l-67 -18l-211 -235l227 -339l75 -19v-41h-153l-219 327l-74 -70v-198l91 -18v-41h-279zM297 -182q15 54 15 140h94q-10 -90 -52 -140h-57z" />
    <glyph glyph-name="Racute.alt" horiz-adv-x="647" 
d="M419 346v-4q67 -14 98 -45t31 -97v-90q0 -36 15.5 -49t48.5 -13h27v-39q-28 -18 -77 -18q-114 0 -114 120v96q0 58 -27.5 81t-107.5 23h-103v-251l86 -19v-41h-276v41l90 19v573l-87 19v41h270q133 0 194.5 -46t61.5 -138q0 -128 -130 -163zM210 362h108q71 0 100 36.5
t29 108.5q0 68 -32.5 97.5t-107.5 29.5h-97v-272zM438 794l-206 -66l-16 36l186 106z" />
    <glyph glyph-name="Rcaron.alt" horiz-adv-x="647" 
d="M419 346v-4q67 -14 98 -45t31 -97v-90q0 -36 15.5 -49t48.5 -13h27v-39q-28 -18 -77 -18q-114 0 -114 120v96q0 58 -27.5 81t-107.5 23h-103v-251l86 -19v-41h-276v41l90 19v573l-87 19v41h270q133 0 194.5 -46t61.5 -138q0 -128 -130 -163zM210 362h108q71 0 100 36.5
t29 108.5q0 68 -32.5 97.5t-107.5 29.5h-97v-272zM436 869l17 -31l-119 -98h-46l-119 98l17 31l125 -55z" />
    <glyph glyph-name="Rcommaaccent.alt" horiz-adv-x="647" 
d="M419 346v-4q67 -14 98 -45t31 -97v-90q0 -36 15.5 -49t48.5 -13h27v-39q-28 -18 -77 -18q-114 0 -114 120v96q0 58 -27.5 81t-107.5 23h-103v-251l86 -19v-41h-276v41l90 19v573l-87 19v41h270q133 0 194.5 -46t61.5 -138q0 -128 -130 -163zM210 362h108q71 0 100 36.5
t29 108.5q0 68 -32.5 97.5t-107.5 29.5h-97v-272zM282 -182q15 54 15 140h94q-10 -90 -52 -140h-57z" />
    <glyph glyph-name="Thorn.alt" horiz-adv-x="562" 
d="M20 0v41l88 19v573l-88 19v41h275v-41l-87 -19v-91h76q256 0 256 -179q0 -95 -61 -144.5t-176 -49.5q-52 0 -95 8v-117l105 -19v-41h-293zM208 483v-258q40 -4 81 -4q82 0 114.5 33t32.5 102q0 68 -33 97.5t-106 29.5h-89z" />
    <glyph glyph-name="aacute.alt" horiz-adv-x="473" 
d="M189 465q-29 0 -60 -6l-21 -85h-54v121q84 28 177 28q86 0 125.5 -36.5t39.5 -114.5v-295q0 -23 11.5 -30.5t36.5 -7.5h25v-34q-30 -15 -81 -15q-64 0 -74 53h-6q-52 -56 -136 -56q-69 0 -112.5 38t-43.5 102q0 62 39.5 92t117.5 46l131 27v54q0 67 -21.5 93t-93.5 26z
M205 49q58 0 99 37v147l-102 -8q-50 -4 -71 -26t-21 -62q0 -41 24 -64.5t71 -23.5zM145 568l-20 34l172 128l45 -72z" />
    <glyph glyph-name="abreve.alt" horiz-adv-x="473" 
d="M189 465q-29 0 -60 -6l-21 -85h-54v121q84 28 177 28q86 0 125.5 -36.5t39.5 -114.5v-295q0 -23 11.5 -30.5t36.5 -7.5h25v-34q-30 -15 -81 -15q-64 0 -74 53h-6q-52 -56 -136 -56q-69 0 -112.5 38t-43.5 102q0 62 39.5 92t117.5 46l131 27v54q0 67 -21.5 93t-93.5 26z
M205 49q58 0 99 37v147l-102 -8q-50 -4 -71 -26t-21 -62q0 -41 24 -64.5t71 -23.5zM219 581q-55 0 -92.5 35.5t-39.5 90.5h57q13 -61 75 -61t75 61h57q-2 -55 -39.5 -90.5t-92.5 -35.5z" />
    <glyph glyph-name="acircumflex.alt" horiz-adv-x="473" 
d="M189 465q-29 0 -60 -6l-21 -85h-54v121q84 28 177 28q86 0 125.5 -36.5t39.5 -114.5v-295q0 -23 11.5 -30.5t36.5 -7.5h25v-34q-30 -15 -81 -15q-64 0 -74 53h-6q-52 -56 -136 -56q-69 0 -112.5 38t-43.5 102q0 62 39.5 92t117.5 46l131 27v54q0 67 -21.5 93t-93.5 26z
M205 49q58 0 99 37v147l-102 -8q-50 -4 -71 -26t-21 -62q0 -41 24 -64.5t71 -23.5zM107 573l-21 29l115 121h46l115 -121l-21 -29l-117 74z" />
    <glyph glyph-name="adieresis.alt" horiz-adv-x="473" 
d="M189 465q-29 0 -60 -6l-21 -85h-54v121q84 28 177 28q86 0 125.5 -36.5t39.5 -114.5v-295q0 -23 11.5 -30.5t36.5 -7.5h25v-34q-30 -15 -81 -15q-64 0 -74 53h-6q-52 -56 -136 -56q-69 0 -112.5 38t-43.5 102q0 62 39.5 92t117.5 46l131 27v54q0 67 -21.5 93t-93.5 26z
M205 49q58 0 99 37v147l-102 -8q-50 -4 -71 -26t-21 -62q0 -41 24 -64.5t71 -23.5zM141 602q-22 0 -38 16.5t-16 37.5q0 22 16 38t38 16q23 0 39 -15.5t16 -38.5q0 -21 -16 -37.5t-39 -16.5zM307 602q-22 0 -38.5 16.5t-16.5 37.5q0 22 16 38t39 16t38.5 -16t15.5 -38
q0 -21 -16 -37.5t-38 -16.5z" />
    <glyph glyph-name="agrave.alt" horiz-adv-x="473" 
d="M189 465q-29 0 -60 -6l-21 -85h-54v121q84 28 177 28q86 0 125.5 -36.5t39.5 -114.5v-295q0 -23 11.5 -30.5t36.5 -7.5h25v-34q-30 -15 -81 -15q-64 0 -74 53h-6q-52 -56 -136 -56q-69 0 -112.5 38t-43.5 102q0 62 39.5 92t117.5 46l131 27v54q0 67 -21.5 93t-93.5 26z
M205 49q58 0 99 37v147l-102 -8q-50 -4 -71 -26t-21 -62q0 -41 24 -64.5t71 -23.5zM299 568l-197 90l45 72l172 -128z" />
    <glyph glyph-name="amacron.alt" horiz-adv-x="473" 
d="M189 465q-29 0 -60 -6l-21 -85h-54v121q84 28 177 28q86 0 125.5 -36.5t39.5 -114.5v-295q0 -23 11.5 -30.5t36.5 -7.5h25v-34q-30 -15 -81 -15q-64 0 -74 53h-6q-52 -56 -136 -56q-69 0 -112.5 38t-43.5 102q0 62 39.5 92t117.5 46l131 27v54q0 67 -21.5 93t-93.5 26z
M205 49q58 0 99 37v147l-102 -8q-50 -4 -71 -26t-21 -62q0 -41 24 -64.5t71 -23.5zM102 605v62h244v-62h-244z" />
    <glyph glyph-name="aogonek.alt" horiz-adv-x="473" 
d="M205 49q58 0 99 37v147l-102 -8q-50 -4 -71 -26t-21 -62q0 -41 24 -64.5t71 -23.5zM314 43h-6q-52 -56 -136 -56q-69 0 -112.5 38t-43.5 102q0 62 39.5 92t117.5 46l131 27v54q0 67 -21.5 93t-93.5 26q-29 0 -60 -6l-21 -85h-54v121q84 28 177 28q86 0 125.5 -36.5
t39.5 -114.5v-295q0 -23 11.5 -30.5t36.5 -7.5h25v-34q-45 -15 -71.5 -48t-26.5 -68q0 -42 49 -42q14 0 30 2v-42q-26 -8 -57 -8q-103 0 -103 80q0 63 87 111q-54 5 -63 53z" />
    <glyph glyph-name="aring.alt" horiz-adv-x="473" 
d="M189 465q-29 0 -60 -6l-21 -85h-54v121q84 28 177 28q86 0 125.5 -36.5t39.5 -114.5v-295q0 -23 11.5 -30.5t36.5 -7.5h25v-34q-30 -15 -81 -15q-64 0 -74 53h-6q-52 -56 -136 -56q-69 0 -112.5 38t-43.5 102q0 62 39.5 92t117.5 46l131 27v54q0 67 -21.5 93t-93.5 26z
M205 49q58 0 99 37v147l-102 -8q-50 -4 -71 -26t-21 -62q0 -41 24 -64.5t71 -23.5zM224 573q-39 0 -66 26t-27 62q0 37 27 63t66 26t66 -26t27 -63q0 -36 -27 -62t-66 -26zM224 612q22 0 35.5 13.5t13.5 35.5t-13.5 36t-35.5 14t-35.5 -14t-13.5 -36t13.5 -35.5t35.5 -13.5z
" />
    <glyph glyph-name="aringacute.alt" horiz-adv-x="473" 
d="M189 465q-29 0 -60 -6l-21 -85h-54v121q84 28 177 28q86 0 125.5 -36.5t39.5 -114.5v-295q0 -23 11.5 -30.5t36.5 -7.5h25v-34q-30 -15 -81 -15q-64 0 -74 53h-6q-52 -56 -136 -56q-69 0 -112.5 38t-43.5 102q0 62 39.5 92t117.5 46l131 27v54q0 67 -21.5 93t-93.5 26z
M205 49q58 0 99 37v147l-102 -8q-50 -4 -71 -26t-21 -62q0 -41 24 -64.5t71 -23.5zM224 553q-39 0 -66 26t-27 62q0 37 27 63t66 26t66 -26t27 -63q0 -36 -27 -62t-66 -26zM224 592q22 0 35.5 13.5t13.5 35.5t-13.5 36t-35.5 14t-35.5 -14t-13.5 -36t13.5 -35.5t35.5 -13.5z
M342 811l-206 -66l-16 36l186 106z" />
    <glyph glyph-name="atilde.alt" horiz-adv-x="473" 
d="M189 465q-29 0 -60 -6l-21 -85h-54v121q84 28 177 28q86 0 125.5 -36.5t39.5 -114.5v-295q0 -23 11.5 -30.5t36.5 -7.5h25v-34q-30 -15 -81 -15q-64 0 -74 53h-6q-52 -56 -136 -56q-69 0 -112.5 38t-43.5 102q0 62 39.5 92t117.5 46l131 27v54q0 67 -21.5 93t-93.5 26z
M205 49q58 0 99 37v147l-102 -8q-50 -4 -71 -26t-21 -62q0 -41 24 -64.5t71 -23.5zM114 595l-40 18q38 93 98 93q23 0 59.5 -17t48.5 -17q29 0 54 41l40 -18q-38 -93 -98 -93q-23 0 -59.5 17t-48.5 17q-29 0 -54 -41z" />
    <glyph glyph-name="ae.alt" horiz-adv-x="760" 
d="M396 304l236 8q0 80 -26 118.5t-81 38.5q-119 0 -129 -165zM304 297v49q0 67 -21.5 93t-93.5 26q-29 0 -60 -6l-21 -85h-54v121q84 28 177 28q109 0 140 -71q60 71 160 71q205 0 205 -269h-340q6 -201 169 -201q69 0 146 27v-45q-79 -47 -165 -47q-133 0 -196 87
q-29 -38 -76.5 -63t-101.5 -25q-69 0 -112.5 38t-43.5 102t40 98t117 48zM330 109q-26 53 -29 132l-99 -8q-92 -7 -92 -96q0 -41 24 -64.5t71 -23.5q62 0 125 60z" />
    <glyph glyph-name="aeacute.alt" horiz-adv-x="760" 
d="M396 304l236 8q0 80 -26 118.5t-81 38.5q-119 0 -129 -165zM304 297v49q0 67 -21.5 93t-93.5 26q-29 0 -60 -6l-21 -85h-54v121q84 28 177 28q109 0 140 -71q60 71 160 71q205 0 205 -269h-340q6 -201 169 -201q69 0 146 27v-45q-79 -47 -165 -47q-133 0 -196 87
q-29 -38 -76.5 -63t-101.5 -25q-69 0 -112.5 38t-43.5 102t40 98t117 48zM330 109q-26 53 -29 132l-99 -8q-92 -7 -92 -96q0 -41 24 -64.5t71 -23.5q62 0 125 60zM345 568l-20 34l172 128l45 -72z" />
    <glyph glyph-name="kcommaaccent.alt" horiz-adv-x="529" 
d="M14 0v34l75 15v621l-75 16v38l155 23l12 -6v-459l44 12l140 168l-60 15v36h202v-36l-73 -15l-140 -166l170 -246l65 -16v-34h-136l-170 245l-42 -3v-193l77 -15v-34h-244zM219 -182q15 54 15 140h94q-10 -90 -52 -140h-57z" />
    <glyph glyph-name="f_f_k.alt" horiz-adv-x="1130" 
d="M782 741v-459l44 12l140 168l-60 15v36h202v-36l-73 -15l-140 -166l170 -246l65 -16v-34h-136l-170 245l-42 -3v-193l77 -15v-34h-239v34l70 16v621q-56 17 -97 17q-57 0 -83 -25.5t-26 -91.5v-58h125v-59h-125v-404l69 -16v-34h-231v34l70 16v404h-206v-404l69 -16v-34
h-235v34l74 16v404h-71v35l71 25v62q0 81 45 121.5t114 40.5q49 0 89 -21v-45q-30 6 -62 6q-46 0 -70 -25.5t-24 -88.5v-51h206v70q0 84 53 124.5t130 40.5q64 0 141 -33l54 32z" />
    <glyph glyph-name="f_k.alt" horiz-adv-x="832" 
d="M322 0v34l70 16v621q-56 17 -97 17q-57 0 -83 -25.5t-26 -91.5v-58h125v-59h-125v-404l69 -16v-34h-235v34l74 16v404h-71v35l71 25v69q0 84 53 124.5t130 40.5q64 0 141 -33l54 32l12 -6v-459l44 12l140 168l-60 15v36h202v-36l-73 -15l-140 -166l170 -246l65 -16v-34
h-136l-170 245l-42 -3v-193l77 -15v-34h-239z" />
    <glyph glyph-name="registered.alt" horiz-adv-x="776" 
d="M387 -14q-150 0 -252 104.5t-102 253.5t102 252.5t252 103.5q149 0 252.5 -104t103.5 -252t-103.5 -253t-252.5 -105zM387 27q132 0 217.5 92t85.5 225t-85.5 224.5t-217.5 91.5q-133 0 -218 -91.5t-85 -224.5t85 -225t218 -92zM229 161v32l42 10v283l-41 10v31h164
q67 0 104 -25t37 -74q0 -72 -74 -93v-5l79 -127l39 -10v-32h-97l-94 158h-42v-116l42 -10v-32h-159zM346 359h47q66 0 66 64q0 35 -15 49t-52 14h-46v-127z" />
    <glyph glyph-name="questiondown.uc" horiz-adv-x="408" 
d="M225 -12q-86 0 -139.5 42t-53.5 133q0 60 28 97t96 81q4 3 15 10t14.5 9.5t12 9t12 10t9 10t8 12.5t4.5 14t2 17q0 26 -10 72h49q19 -45 19 -84q0 -28 -13 -51.5t-29 -38t-55 -44.5q-37 -29 -52 -54.5t-15 -67.5q0 -58 34.5 -86t92.5 -28q62 0 130 21v-48
q-77 -36 -159 -36zM247 590q-24 0 -41.5 17t-17.5 41q0 23 17.5 40.5t41.5 17.5t41 -17t17 -41t-16.5 -41t-41.5 -17z" />
    <glyph glyph-name="exclamdown.uc" horiz-adv-x="249" 
d="M74 0l25 503h55l25 -503h-105zM125 590q-25 0 -42 17t-17 41t17 41t42 17q24 0 41 -17t17 -41t-16.5 -41t-41.5 -17z" />
    <glyph glyph-name="hyphen.uc" horiz-adv-x="316" 
d="M41 298v78h234v-78h-234z" />
    <glyph glyph-name="endash.uc" horiz-adv-x="432" 
d="M31 311v52h370v-52h-370z" />
    <glyph glyph-name="emdash.uc" horiz-adv-x="732" 
d="M31 311v52h670v-52h-670z" />
    <glyph glyph-name="guilsinglleft.uc" horiz-adv-x="260" 
d="M153 85l-110 183v29l110 183h62l-84 -197l84 -198h-62z" />
    <glyph glyph-name="guilsinglright.uc" horiz-adv-x="260" 
d="M45 85l84 197l-84 198h62l110 -183v-29l-110 -183h-62z" />
    <glyph glyph-name="guillemotleft.uc" horiz-adv-x="428" 
d="M321 85l-110 183v29l110 183h63l-84 -197l84 -198h-63zM153 85l-110 183v29l110 183h62l-84 -197l84 -198h-62z" />
    <glyph glyph-name="guillemotright.uc" horiz-adv-x="428" 
d="M213 85l84 197l-84 198h63l110 -183v-29l-110 -183h-63zM45 85l84 197l-84 198h62l110 -183v-29l-110 -183h-62z" />
    <glyph glyph-name="parenleft.uc" horiz-adv-x="311" 
d="M266 -109q-46 38 -80 75t-71 91.5t-57 125.5t-20 152q0 75 20.5 144.5t56 125t72 97t79.5 77.5l32 -30q-70 -78 -115 -180.5t-45 -213.5q0 -257 160 -434z" />
    <glyph glyph-name="parenright.uc" horiz-adv-x="311" 
d="M45 -109l-32 30q70 78 115 180.5t45 213.5q0 257 -160 434l32 30q46 -38 80 -75t71 -91.5t57 -125.5t20 -152q0 -75 -20.5 -144.5t-56 -125t-72 -97t-79.5 -77.5z" />
    <glyph glyph-name="bracketleft.uc" horiz-adv-x="314" 
d="M64 -87v853h217v-41l-127 -18v-735l127 -18v-41h-217z" />
    <glyph glyph-name="bracketright.uc" horiz-adv-x="314" 
d="M33 -87v41l127 18v735l-127 18v41h217v-853h-217z" />
    <glyph glyph-name="braceleft.uc" horiz-adv-x="368" 
d="M335 -87q-122 4 -170.5 37t-48.5 93q0 29 15.5 98.5t15.5 90.5q0 33 -22.5 50.5t-96.5 25.5v63q74 9 96.5 26.5t22.5 49.5q0 21 -15.5 90t-15.5 99q0 60 48.5 93t170.5 37v-41q-75 -12 -99.5 -27t-24.5 -56q0 -22 12 -84.5t12 -93.5q0 -46 -26 -74.5t-116 -47.5v-5
q90 -19 116 -47.5t26 -74.5q0 -31 -12 -93.5t-12 -84.5q0 -41 24.5 -56t99.5 -27v-41z" />
    <glyph glyph-name="braceright.uc" horiz-adv-x="368" 
d="M33 -87v41q75 12 99.5 27t24.5 56q0 22 -12 84.5t-12 93.5q0 46 26 74.5t116 47.5v5q-90 19 -116 47.5t-26 74.5q0 31 12 93.5t12 84.5q0 41 -24.5 56t-99.5 27v41q122 -4 170.5 -37t48.5 -93q0 -30 -15.5 -99t-15.5 -90q0 -33 22.5 -50.5t96.5 -25.5v-63
q-74 -9 -96.5 -26.5t-22.5 -49.5q0 -21 15.5 -90.5t15.5 -98.5q0 -60 -48.5 -93t-170.5 -37z" />
    <glyph glyph-name="slash.uc" horiz-adv-x="334" 
d="M86 -60h-65l223 793h65z" />
    <glyph glyph-name="backslash.uc" horiz-adv-x="334" 
d="M313 -60h-65l-223 793h65z" />
    <glyph glyph-name="bar.uc" horiz-adv-x="214" 
d="M76 -60v793h62v-793h-62z" />
    <glyph glyph-name="at.uc" horiz-adv-x="812" 
d="M407 -31q-175 0 -269 87t-94 243q0 174 112.5 297.5t289.5 123.5q149 0 237.5 -84.5t88.5 -231.5q0 -117 -64 -195t-159 -78q-83 0 -95 59h-6q-50 -52 -110 -52q-49 0 -82.5 36.5t-33.5 102.5q0 108 58 187t150 79q25 0 45 -5t29.5 -10.5t26.5 -16.5l23 24h44l-59 -302
q-10 -52 24 -52q65 0 107.5 61t42.5 160q0 129 -69 200t-200 71q-157 0 -248 -107t-91 -266q0 -283 302 -283q111 0 208 33v-42q-88 -39 -208 -39zM372 193q37 0 82 37l42 227q-18 37 -66 37q-58 0 -88.5 -64t-30.5 -153q0 -84 61 -84z" />
    </font>
</defs>
</svg>
